<svg width="1309" height="131" viewBox="0 0 1309 131" fill="none" xmlns="http://www.w3.org/2000/svg">
<rect x="123" y="57" width="1186" height="74" rx="37" fill="url(#paint0_linear)"/>
<path d="M57.3744 21.67H82.2794L94.8594 61.11H95.0294L108.204 21.67H132.174V81H116.704L116.959 35.44H116.789L101.659 81H87.1244L72.6744 35.44H72.5044L72.8444 81H57.3744V21.67ZM159.119 29.49H143.819V18.27H159.119V29.49ZM143.819 36.715H159.119V81H143.819V36.715ZM169.573 68.76C171.386 69.5533 173.54 70.2617 176.033 70.885C178.526 71.5083 181.161 71.82 183.938 71.82C185.525 71.82 186.941 71.6217 188.188 71.225C189.491 70.7717 190.143 69.78 190.143 68.25C190.143 67.0033 189.605 66.0683 188.528 65.445C187.451 64.765 186.091 64.1983 184.448 63.745C182.861 63.2917 181.133 62.8383 179.263 62.385C177.393 61.875 175.636 61.1667 173.993 60.26C172.406 59.2967 171.075 58.0217 169.998 56.435C168.921 54.8483 168.383 52.7233 168.383 50.06C168.383 47.51 168.95 45.3283 170.083 43.515C171.216 41.7017 172.69 40.2283 174.503 39.095C176.316 37.905 178.328 37.055 180.538 36.545C182.805 35.9783 185.043 35.695 187.253 35.695C189.916 35.695 192.551 35.8933 195.158 36.29C197.765 36.63 200.315 37.2817 202.808 38.245L201.618 48.87C199.975 47.9067 198.048 47.17 195.838 46.66C193.685 46.15 191.645 45.895 189.718 45.895C188.868 45.895 188.018 45.9517 187.168 46.065C186.375 46.1217 185.638 46.2633 184.958 46.49C184.278 46.7167 183.711 47.0283 183.258 47.425C182.861 47.8217 182.663 48.3317 182.663 48.955C182.663 50.0883 183.23 50.9383 184.363 51.505C185.496 52.0717 186.885 52.5817 188.528 53.035C190.228 53.4317 192.07 53.885 194.053 54.395C196.036 54.8483 197.85 55.5567 199.493 56.52C201.193 57.4833 202.61 58.815 203.743 60.515C204.876 62.215 205.443 64.4533 205.443 67.23C205.443 70.1767 204.82 72.6133 203.573 74.54C202.383 76.4667 200.796 77.9967 198.813 79.13C196.886 80.2067 194.676 80.9433 192.183 81.34C189.746 81.7933 187.281 82.02 184.788 82.02C181.331 82.02 178.356 81.85 175.863 81.51C173.37 81.17 170.99 80.6317 168.723 79.895L169.573 68.76ZM212.073 68.76C213.886 69.5533 216.04 70.2617 218.533 70.885C221.026 71.5083 223.661 71.82 226.438 71.82C228.025 71.82 229.441 71.6217 230.688 71.225C231.991 70.7717 232.643 69.78 232.643 68.25C232.643 67.0033 232.105 66.0683 231.028 65.445C229.951 64.765 228.591 64.1983 226.948 63.745C225.361 63.2917 223.633 62.8383 221.763 62.385C219.893 61.875 218.136 61.1667 216.493 60.26C214.906 59.2967 213.575 58.0217 212.498 56.435C211.421 54.8483 210.883 52.7233 210.883 50.06C210.883 47.51 211.45 45.3283 212.583 43.515C213.716 41.7017 215.19 40.2283 217.003 39.095C218.816 37.905 220.828 37.055 223.038 36.545C225.305 35.9783 227.543 35.695 229.753 35.695C232.416 35.695 235.051 35.8933 237.658 36.29C240.265 36.63 242.815 37.2817 245.308 38.245L244.118 48.87C242.475 47.9067 240.548 47.17 238.338 46.66C236.185 46.15 234.145 45.895 232.218 45.895C231.368 45.895 230.518 45.9517 229.668 46.065C228.875 46.1217 228.138 46.2633 227.458 46.49C226.778 46.7167 226.211 47.0283 225.758 47.425C225.361 47.8217 225.163 48.3317 225.163 48.955C225.163 50.0883 225.73 50.9383 226.863 51.505C227.996 52.0717 229.385 52.5817 231.028 53.035C232.728 53.4317 234.57 53.885 236.553 54.395C238.536 54.8483 240.35 55.5567 241.993 56.52C243.693 57.4833 245.11 58.815 246.243 60.515C247.376 62.215 247.943 64.4533 247.943 67.23C247.943 70.1767 247.32 72.6133 246.073 74.54C244.883 76.4667 243.296 77.9967 241.313 79.13C239.386 80.2067 237.176 80.9433 234.683 81.34C232.246 81.7933 229.781 82.02 227.288 82.02C223.831 82.02 220.856 81.85 218.363 81.51C215.87 81.17 213.49 80.6317 211.223 79.895L212.073 68.76ZM272.508 29.49H257.208V18.27H272.508V29.49ZM257.208 36.715H272.508V81H257.208V36.715ZM307.442 71.31C309.198 71.31 310.7 70.97 311.947 70.29C313.193 69.61 314.213 68.7033 315.007 67.57C315.857 66.4367 316.452 65.1333 316.792 63.66C317.188 62.13 317.387 60.5433 317.387 58.9C317.387 57.2567 317.188 55.6983 316.792 54.225C316.452 52.695 315.857 51.3633 315.007 50.23C314.213 49.04 313.193 48.105 311.947 47.425C310.7 46.745 309.198 46.405 307.442 46.405C305.685 46.405 304.183 46.745 302.937 47.425C301.69 48.105 300.642 49.04 299.792 50.23C298.998 51.3633 298.403 52.695 298.007 54.225C297.667 55.6983 297.497 57.2567 297.497 58.9C297.497 60.5433 297.667 62.13 298.007 63.66C298.403 65.1333 298.998 66.4367 299.792 67.57C300.642 68.7033 301.69 69.61 302.937 70.29C304.183 70.97 305.685 71.31 307.442 71.31ZM307.442 82.02C303.758 82.02 300.358 81.51 297.242 80.49C294.125 79.4133 291.405 77.9117 289.082 75.985C286.758 74.0017 284.945 71.5933 283.642 68.76C282.338 65.87 281.687 62.5833 281.687 58.9C281.687 55.2167 282.338 51.9583 283.642 49.125C284.945 46.235 286.758 43.7983 289.082 41.815C291.405 39.8317 294.125 38.33 297.242 37.31C300.358 36.2333 303.758 35.695 307.442 35.695C311.068 35.695 314.44 36.2333 317.557 37.31C320.73 38.33 323.478 39.8317 325.802 41.815C328.125 43.7983 329.938 46.235 331.242 49.125C332.545 51.9583 333.197 55.2167 333.197 58.9C333.197 62.5833 332.545 65.87 331.242 68.76C329.938 71.5933 328.125 74.0017 325.802 75.985C323.478 77.9117 320.73 79.4133 317.557 80.49C314.44 81.51 311.068 82.02 307.442 82.02ZM340.589 36.715H354.529V44.875H354.699C356.229 41.645 358.411 39.3217 361.244 37.905C364.134 36.4317 367.336 35.695 370.849 35.695C373.852 35.695 376.431 36.205 378.584 37.225C380.737 38.1883 382.494 39.4917 383.854 41.135C385.214 42.7217 386.206 44.5917 386.829 46.745C387.452 48.8983 387.764 51.1083 387.764 53.375V81H372.464V59.58C372.464 55.4433 371.812 52.5533 370.509 50.91C369.206 49.2667 367.506 48.445 365.409 48.445C362.236 48.445 359.856 49.55 358.269 51.76C356.682 53.97 355.889 57.4833 355.889 62.3V81H340.589V36.715ZM423.605 21.67H465.425V32.89H439.415V45.13H463.98V56.35H439.415V69.78H466.36V81H423.605V21.67ZM443.325 6.28499H459.22L448.255 18.525H437.545L443.325 6.28499ZM475.228 36.715H489.168V44.875H489.338C490.868 41.645 493.049 39.3217 495.883 37.905C498.773 36.4317 501.974 35.695 505.488 35.695C508.491 35.695 511.069 36.205 513.223 37.225C515.376 38.1883 517.133 39.4917 518.493 41.135C519.853 42.7217 520.844 44.5917 521.468 46.745C522.091 48.8983 522.403 51.1083 522.403 53.375V81H507.103V59.58C507.103 55.4433 506.451 52.5533 505.148 50.91C503.844 49.2667 502.144 48.445 500.048 48.445C496.874 48.445 494.494 49.55 492.908 51.76C491.321 53.97 490.528 57.4833 490.528 62.3V81H475.228V36.715ZM562.097 54.65C562.097 52.1 561.445 49.9183 560.142 48.105C558.839 46.2917 556.657 45.385 553.597 45.385C550.82 45.385 548.752 46.2917 547.392 48.105C546.032 49.9183 545.267 52.1 545.097 54.65H562.097ZM545.267 63.32C545.72 66.38 547.052 68.5617 549.262 69.865C551.529 71.1683 554.532 71.82 558.272 71.82C560.369 71.82 562.55 71.565 564.817 71.055C567.14 70.545 569.464 69.6667 571.787 68.42V79.215C569.294 80.1783 566.687 80.8867 563.967 81.34C561.247 81.7933 558.442 82.02 555.552 82.02C551.869 82.02 548.469 81.51 545.352 80.49C542.235 79.4133 539.515 77.8833 537.192 75.9C534.869 73.9167 533.055 71.5083 531.752 68.675C530.449 65.785 529.797 62.4983 529.797 58.815C529.797 55.1883 530.392 51.93 531.582 49.04C532.772 46.15 534.415 43.7417 536.512 41.815C538.609 39.8317 541.102 38.33 543.992 37.31C546.882 36.2333 550.055 35.695 553.512 35.695C557.592 35.695 561.049 36.375 563.882 37.735C566.772 39.095 569.095 40.9083 570.852 43.175C572.609 45.4417 573.884 48.0767 574.677 51.08C575.47 54.0833 575.867 57.2283 575.867 60.515V63.32H545.267ZM615.505 48.955C614.655 48.6717 613.805 48.53 612.955 48.53C612.105 48.4733 611.227 48.445 610.32 48.445C606.75 48.445 604.002 49.6633 602.075 52.1C600.148 54.5367 599.185 57.9367 599.185 62.3V81H583.885V36.715H597.825V44.875H597.995C599.298 42.0417 600.97 39.8033 603.01 38.16C605.05 36.5167 607.742 35.695 611.085 35.695C611.992 35.695 612.87 35.7517 613.72 35.865C614.627 35.9783 615.477 36.0917 616.27 36.205L615.505 48.955ZM635.339 58.475C635.339 60.175 635.565 61.705 636.019 63.065C636.529 64.425 637.18 65.5583 637.974 66.465C638.767 67.3717 639.674 68.08 640.694 68.59C641.77 69.0433 642.875 69.27 644.009 69.27C645.369 69.27 646.644 69.015 647.834 68.505C649.024 67.9383 650.044 67.145 650.894 66.125C651.8 65.105 652.509 63.915 653.019 62.555C653.529 61.1383 653.784 59.58 653.784 57.88C653.784 56.6333 653.585 55.3867 653.189 54.14C652.849 52.8933 652.282 51.7883 651.489 50.825C650.695 49.805 649.675 48.9833 648.429 48.36C647.182 47.7367 645.709 47.425 644.009 47.425C642.592 47.425 641.345 47.7367 640.269 48.36C639.192 48.9267 638.285 49.72 637.549 50.74C636.812 51.7033 636.245 52.865 635.849 54.225C635.509 55.5283 635.339 56.945 635.339 58.475ZM668.574 75.815C668.574 80.3483 668.007 84.145 666.874 87.205C665.797 90.3217 664.154 92.815 661.944 94.685C659.734 96.555 656.957 97.8867 653.614 98.68C650.27 99.4733 646.36 99.87 641.884 99.87C638.2 99.87 634.914 99.5583 632.024 98.935C629.134 98.3117 626.782 97.6883 624.969 97.065L625.734 84.995C628.057 86.1283 630.324 87.0067 632.534 87.63C634.8 88.31 637.52 88.65 640.694 88.65C645.114 88.65 648.485 87.6017 650.809 85.505C653.132 83.4083 654.294 80.1783 654.294 75.815V73.435H654.124C652.31 76.0417 650.129 77.9683 647.579 79.215C645.085 80.405 642.309 81 639.249 81C636.189 81 633.44 80.4617 631.004 79.385C628.567 78.2517 626.499 76.7217 624.799 74.795C623.099 72.8117 621.795 70.46 620.889 67.74C619.982 65.02 619.529 62.0167 619.529 58.73C619.529 55.4433 619.925 52.4117 620.719 49.635C621.512 46.8017 622.73 44.365 624.374 42.325C626.017 40.2283 628.085 38.6133 630.579 37.48C633.072 36.29 636.047 35.695 639.504 35.695C642.79 35.695 645.709 36.5167 648.259 38.16C650.809 39.8033 652.905 41.985 654.549 44.705H654.719V36.715H668.574V75.815ZM695.516 29.49H680.216V18.27H695.516V29.49ZM680.216 36.715H695.516V81H680.216V36.715ZM736.995 54.65C736.995 52.1 736.343 49.9183 735.04 48.105C733.736 46.2917 731.555 45.385 728.495 45.385C725.718 45.385 723.65 46.2917 722.29 48.105C720.93 49.9183 720.165 52.1 719.995 54.65H736.995ZM720.165 63.32C720.618 66.38 721.95 68.5617 724.16 69.865C726.426 71.1683 729.43 71.82 733.17 71.82C735.266 71.82 737.448 71.565 739.715 71.055C742.038 70.545 744.361 69.6667 746.685 68.42V79.215C744.191 80.1783 741.585 80.8867 738.865 81.34C736.145 81.7933 733.34 82.02 730.45 82.02C726.766 82.02 723.366 81.51 720.25 80.49C717.133 79.4133 714.413 77.8833 712.09 75.9C709.766 73.9167 707.953 71.5083 706.65 68.675C705.346 65.785 704.695 62.4983 704.695 58.815C704.695 55.1883 705.29 51.93 706.48 49.04C707.67 46.15 709.313 43.7417 711.41 41.815C713.506 39.8317 716 38.33 718.89 37.31C721.78 36.2333 724.953 35.695 728.41 35.695C732.49 35.695 735.946 36.375 738.78 37.735C741.67 39.095 743.993 40.9083 745.75 43.175C747.506 45.4417 748.781 48.0767 749.575 51.08C750.368 54.0833 750.765 57.2283 750.765 60.515V63.32H720.165ZM814.939 54.65C814.939 52.1 814.287 49.9183 812.984 48.105C811.681 46.2917 809.499 45.385 806.439 45.385C803.662 45.385 801.594 46.2917 800.234 48.105C798.874 49.9183 798.109 52.1 797.939 54.65H814.939ZM798.109 63.32C798.562 66.38 799.894 68.5617 802.104 69.865C804.371 71.1683 807.374 71.82 811.114 71.82C813.211 71.82 815.392 71.565 817.659 71.055C819.982 70.545 822.306 69.6667 824.629 68.42V79.215C822.136 80.1783 819.529 80.8867 816.809 81.34C814.089 81.7933 811.284 82.02 808.394 82.02C804.711 82.02 801.311 81.51 798.194 80.49C795.077 79.4133 792.357 77.8833 790.034 75.9C787.711 73.9167 785.897 71.5083 784.594 68.675C783.291 65.785 782.639 62.4983 782.639 58.815C782.639 55.1883 783.234 51.93 784.424 49.04C785.614 46.15 787.257 43.7417 789.354 41.815C791.451 39.8317 793.944 38.33 796.834 37.31C799.724 36.2333 802.897 35.695 806.354 35.695C810.434 35.695 813.891 36.375 816.724 37.735C819.614 39.095 821.937 40.9083 823.694 43.175C825.451 45.4417 826.726 48.0767 827.519 51.08C828.312 54.0833 828.709 57.2283 828.709 60.515V63.32H798.109ZM832.817 36.715H841.827V26.77L856.872 22.095V36.715H867.582V47.425H856.872V63.745C856.872 66.465 857.268 68.505 858.062 69.865C858.912 71.1683 860.555 71.82 862.992 71.82C863.785 71.82 864.55 71.7633 865.287 71.65C866.08 71.48 866.873 71.3383 867.667 71.225L868.177 81.17C866.703 81.34 865.202 81.51 863.672 81.68C862.198 81.9067 860.498 82.02 858.572 82.02C855.172 82.02 852.367 81.6517 850.157 80.915C847.947 80.1783 846.19 79.1017 844.887 77.685C843.64 76.2683 842.762 74.54 842.252 72.5C841.798 70.46 841.572 68.1083 841.572 65.445V47.425H832.817V36.715ZM935.157 49.38C933.74 48.53 932.295 47.9067 930.822 47.51C929.348 47.1133 927.705 46.915 925.892 46.915C924.248 46.915 922.69 47.1983 921.217 47.765C919.8 48.3317 918.553 49.1533 917.477 50.23C916.457 51.25 915.635 52.525 915.012 54.055C914.445 55.5283 914.162 57.2283 914.162 59.155C914.162 60.9117 914.502 62.5267 915.182 64C915.862 65.4167 916.768 66.635 917.902 67.655C919.092 68.675 920.452 69.4683 921.982 70.035C923.512 70.545 925.098 70.8 926.742 70.8C928.498 70.8 930.198 70.63 931.842 70.29C933.485 69.8933 934.958 69.355 936.262 68.675L936.602 80.065C934.675 80.6883 932.607 81.17 930.397 81.51C928.243 81.85 926.147 82.02 924.107 82.02C920.423 82.02 917.023 81.51 913.907 80.49C910.79 79.4133 908.07 77.9117 905.747 75.985C903.423 74.0017 901.61 71.5933 900.307 68.76C899.003 65.87 898.352 62.5833 898.352 58.9C898.352 55.2167 899.003 51.9583 900.307 49.125C901.61 46.235 903.423 43.7983 905.747 41.815C908.07 39.8317 910.79 38.33 913.907 37.31C917.023 36.2333 920.423 35.695 924.107 35.695C926.43 35.695 928.583 35.8933 930.567 36.29C932.607 36.6867 934.505 37.31 936.262 38.16L935.157 49.38ZM944.762 17.25H960.062V81H944.762V17.25ZM988.45 29.49H973.15V18.27H988.45V29.49ZM973.15 36.715H988.45V81H973.15V36.715ZM999.754 36.715H1013.69V44.875H1013.86C1015.39 41.645 1017.58 39.3217 1020.41 37.905C1023.3 36.4317 1026.5 35.695 1030.01 35.695C1033.19 35.695 1035.99 36.4033 1038.43 37.82C1040.87 39.18 1042.68 41.305 1043.87 44.195C1045.68 41.1917 1047.95 39.0383 1050.67 37.735C1053.45 36.375 1056.42 35.695 1059.59 35.695C1062.77 35.695 1065.37 36.1483 1067.41 37.055C1069.45 37.905 1071.04 39.1517 1072.17 40.795C1073.36 42.4383 1074.16 44.45 1074.55 46.83C1075.01 49.21 1075.23 51.9017 1075.23 54.905V81H1059.93V57.2C1059.93 54.65 1059.45 52.5533 1058.49 50.91C1057.53 49.2667 1055.97 48.445 1053.81 48.445C1051.09 48.445 1048.97 49.55 1047.44 51.76C1045.91 53.97 1045.14 57.4833 1045.14 62.3V81H1029.84V57.2C1029.84 54.65 1029.36 52.5533 1028.4 50.91C1027.44 49.2667 1025.88 48.445 1023.72 48.445C1021 48.445 1018.88 49.55 1017.35 51.76C1015.82 53.97 1015.05 57.4833 1015.05 62.3V81H999.754V36.715ZM1096.91 66.975C1096.91 68.505 1097.5 69.695 1098.69 70.545C1099.88 71.395 1101.39 71.82 1103.2 71.82C1104.62 71.82 1105.92 71.5367 1107.11 70.97C1108.3 70.3467 1109.29 69.5533 1110.08 68.59C1110.88 67.57 1111.5 66.4367 1111.95 65.19C1112.41 63.9433 1112.63 62.6683 1112.63 61.365C1111.67 61.3083 1110.62 61.2517 1109.49 61.195C1108.41 61.1383 1107.31 61.11 1106.17 61.11C1103.57 61.11 1101.36 61.5633 1099.54 62.47C1097.79 63.32 1096.91 64.8217 1096.91 66.975ZM1113.74 81C1113.68 79.81 1113.6 78.6483 1113.48 77.515C1113.43 76.325 1113.4 75.1633 1113.4 74.03H1113.23C1111.47 76.8067 1109.49 78.8467 1107.28 80.15C1105.07 81.3967 1102.38 82.02 1099.2 82.02C1096.99 82.02 1094.9 81.7367 1092.91 81.17C1090.93 80.66 1089.17 79.8383 1087.64 78.705C1086.11 77.515 1084.9 76.0417 1083.99 74.285C1083.08 72.5283 1082.63 70.46 1082.63 68.08C1082.63 64.68 1083.42 61.9883 1085.01 60.005C1086.65 58.0217 1088.64 56.52 1090.96 55.5C1093.34 54.4233 1095.83 53.7433 1098.44 53.46C1101.1 53.12 1103.45 52.95 1105.49 52.95C1106.74 52.95 1107.99 53.0067 1109.23 53.12C1110.54 53.2333 1111.67 53.375 1112.63 53.545C1112.63 52.015 1112.35 50.7683 1111.78 49.805C1111.27 48.8417 1110.54 48.0767 1109.57 47.51C1108.67 46.8867 1107.59 46.4617 1106.34 46.235C1105.15 46.0083 1103.88 45.895 1102.52 45.895C1100.03 45.895 1097.59 46.15 1095.21 46.66C1092.83 47.17 1090.56 48.02 1088.41 49.21L1088.15 38.84C1090.87 37.7067 1093.68 36.9133 1096.57 36.46C1099.46 35.95 1102.55 35.695 1105.83 35.695C1108.67 35.695 1111.36 36.035 1113.91 36.715C1116.46 37.3383 1118.7 38.3867 1120.62 39.86C1122.55 41.2767 1124.08 43.1467 1125.21 45.47C1126.35 47.7933 1126.91 50.655 1126.91 54.055V70.545C1126.91 72.3017 1126.97 74.0583 1127.08 75.815C1127.2 77.515 1127.42 79.2433 1127.76 81H1113.74ZM1132.81 36.715H1141.82V26.77L1156.86 22.095V36.715H1167.57V47.425H1156.86V63.745C1156.86 66.465 1157.26 68.505 1158.05 69.865C1158.9 71.1683 1160.55 71.82 1162.98 71.82C1163.78 71.82 1164.54 71.7633 1165.28 71.65C1166.07 71.48 1166.86 71.3383 1167.66 71.225L1168.17 81.17C1166.69 81.34 1165.19 81.51 1163.66 81.68C1162.19 81.9067 1160.49 82.02 1158.56 82.02C1155.16 82.02 1152.36 81.6517 1150.15 80.915C1147.94 80.1783 1146.18 79.1017 1144.88 77.685C1143.63 76.2683 1142.75 74.54 1142.24 72.5C1141.79 70.46 1141.56 68.1083 1141.56 65.445V47.425H1132.81V36.715Z" fill="#09357A"/>
<defs>
<linearGradient id="paint0_linear" x1="716" y1="57" x2="716" y2="131" gradientUnits="userSpaceOnUse">
<stop stop-color="white" stop-opacity="0.8"/>
<stop offset="1" stop-color="white" stop-opacity="0.3"/>
</linearGradient>
</defs>
</svg>
