<svg id="Layer_1" data-name="Layer 1" xmlns="http://www.w3.org/2000/svg" viewBox="0 0 257.79 863.03"><defs><style>.cls-1{fill:none;stroke:#001e42;stroke-miterlimit:10;stroke-width:1.2px;}.cls-2{fill:#002142;}.cls-3,.cls-4{fill:#4a59af;}.cls-3{opacity:0.2;}.cls-10,.cls-4{opacity:0.4;}.cls-5{fill:#894f38;}.cls-6{fill:#ead2b2;}.cls-7{fill:#020549;}.cls-8{fill:#ceaf8e;}.cls-9{fill:#b70000;}.cls-10{fill:#603813;}.cls-11{fill:#ff3600;}.cls-12{fill:#b73f03;}.cls-13{fill:#fff;}.cls-14{fill:#f2f2f2;}.cls-15{fill:#f15a22;fill-rule:evenodd;}.cls-16{fill:#003974;}</style></defs><title>Artboard 11 copy</title><g id="e"><path d="M106.54,68.78c-.28,2.72,4.72,56.72-18.28,64.72s-17.66,30.06-18,31c-7,19.12,136.66-.05,137-1,0,0-2-28-15-37s-16-52-17-55-68.15-1.61-68.15-1.61Z"/><path d="M223,846.29l-73.7,8.76v6.64a1.22,1.22,0,0,0,1.06,1.34h16.4a1.08,1.08,0,0,0,.92-.74c1.14-2.69,3.39-4.53,6-4.53s4.83,1.84,6,4.53a1.06,1.06,0,0,0,.92.74h33.18c.55,0,4.87,0,5.62-.64Z"/><path class="cls-1" d="M178.06,775.19l3.79-7.54a1.74,1.74,0,0,1,3.24.21l1,2.79a2,2,0,0,1-1.21,2.6Z"/><path class="cls-1" d="M178.58,775.19l5.37.54a1.35,1.35,0,0,1,.75,2.24l-1.34,1.45a1.15,1.15,0,0,1-1.82-.12Z"/><path class="cls-1" d="M178.94,775.63s-4,12.33,14.87,9.14"/><path class="cls-1" d="M177.11,776.17s-10.08,7.21,6.76,17"/><path class="cls-2" d="M223.22,843.9c0-7-7-15.74-14.47-12.77-7.74,3.06-11.7,1.13-13.72-.24l-11.45-9.44a12.94,12.94,0,0,1-4.27-10V771.94c0-2.93-1.87-5.3-4.17-5.3H153.49c-2.31,0-4.18,2.37-4.18,5.3v84.73H211a8.26,8.26,0,0,0,4.11-1.31C219.91,853.28,223.22,848.94,223.22,843.9Z"/><ellipse class="cls-3" cx="212.41" cy="839.89" rx="5.27" ry="5.7"/><ellipse class="cls-4" cx="214.46" cy="840.72" rx="3.22" ry="3.48"/><path d="M58.1,844.1l73.7,8.76v6.64a1.22,1.22,0,0,1-1.06,1.34h-16.4a1.08,1.08,0,0,1-.92-.74c-1.14-2.69-3.39-4.53-6-4.53s-4.83,1.84-6,4.53a1.06,1.06,0,0,1-.92.74H67.38c-.55,0-4.87,0-5.62-.64Z"/><path class="cls-1" d="M103.05,773l-3.79-7.54a1.74,1.74,0,0,0-3.24.21l-1,2.79a2,2,0,0,0,1.21,2.6Z"/><path class="cls-1" d="M102.53,773l-5.37.54a1.35,1.35,0,0,0-.75,2.24l1.34,1.45a1.15,1.15,0,0,0,1.82-.12Z"/><path class="cls-1" d="M102.17,773.44s4,12.33-14.87,9.14"/><path class="cls-1" d="M104,774s10.09,7.2-6.76,17"/><path class="cls-2" d="M57.89,841.71c0-7.05,7-15.74,14.47-12.77,7.74,3.06,11.7,1.14,13.72-.24l11.45-9.44a12.94,12.94,0,0,0,4.27-10V769.75c0-2.93,1.87-5.3,4.17-5.3h21.65c2.31,0,4.18,2.37,4.18,5.3v84.74H70.11A8.21,8.21,0,0,1,66,853.17C61.2,851.09,57.89,846.75,57.89,841.71Z"/><ellipse class="cls-3" cx="68.7" cy="837.71" rx="5.27" ry="5.7"/><ellipse class="cls-4" cx="66.65" cy="838.53" rx="3.22" ry="3.48"/><polygon class="cls-5" points="109.33 720.73 131.57 727.77 129.26 764.59 110.41 764.59 109.33 720.73"/><path class="cls-6" d="M27.94,424.14H45.57a5.3,5.3,0,0,1,5.3,5.3v27.29a0,0,0,0,1,0,0H22.64a0,0,0,0,1,0,0V429.44A5.3,5.3,0,0,1,27.94,424.14Z" transform="matrix(-1, -0.08, 0.08, -1, 39.47, 882.39)"/><polygon class="cls-5" points="154.28 720.73 176.52 727.77 174.21 764.59 155.35 764.59 154.28 720.73"/><path class="cls-7" d="M78.07,388.12H206.32l-24.8,385.3H147l-.1-305.91s-4.5-8.89-7.94.51l-3.42,305.4H99.78Z"/><polygon class="cls-8" points="128.19 119.24 128.19 121.17 138.7 130.2 154.45 143.74 154.45 133.33 154.45 119.24 128.19 119.24"/><path class="cls-6" d="M154.39,149.27c-.61,5.74-6.23,10.24-13.07,10.24s-12.45-4.5-13.06-10.24h-4.52l.83,31.59a28.14,28.14,0,0,0,38.9-5.25l-1.75-26.34Z"/><path class="cls-6" d="M138.7,130.2l-10.51-9v27.05a9.1,9.1,0,0,0,.07,1.05c.61,5.74,6.22,10.24,13.06,10.24s12.46-4.5,13.07-10.24a9.11,9.11,0,0,0,.06-1.05v-4.48Z"/><path class="cls-7" d="M130.75,179.44l-7-30.17H98.41A30.7,30.7,0,0,0,67.71,180V405.6a14.45,14.45,0,0,0,8.09,13l132.64.5a16.42,16.42,0,0,0,9.34-14.81V183.7a34.44,34.44,0,0,0-34.44-34.43H159.15l-7.78,29.84Z"/><ellipse cx="141.46" cy="62.46" rx="35.38" ry="39.33"/><path class="cls-6" d="M170.25,95.69s8.26-9,6.28-17.77c0,0-2.05-5.27-6.09-2.34Z"/><path class="cls-6" d="M141.26,125.5h-2c-9,0-21.92-12-25.2-20.43a22,22,0,0,1-1.5-8l-.08-43.72a15,15,0,0,1,15-15h28a15,15,0,0,1,15,15l-.17,44a23.67,23.67,0,0,1-1.88,9.13C164.76,115,150.41,125.07,141.26,125.5Z"/><path class="cls-8" d="M137.53,89.69l3.5,2.82a.71.71,0,0,0,.87,0l3.65-2.82a.7.7,0,0,0-.43-1.26H138A.7.7,0,0,0,137.53,89.69Z"/><path class="cls-8" d="M170.44,92.26s5.37-5.55,4.31-12.31c0,0-.73-4.36-4.31-1.66Z"/><path class="cls-6" d="M112.57,95.82s-8.15-8.75-6.18-17.54c0,0,2.06-5.27,6.09-2.35Z"/><path class="cls-8" d="M112.48,92.62s-5.37-5.55-4.3-12.31c0,0,.73-4.36,4.3-1.66Z"/><path class="cls-9" d="M132.35,105.35s5.7.71,18.91-.85c.32,0-7,3-10,3S132.35,105.35,132.35,105.35Z"/><path class="cls-10" d="M149.8,113.65s-7.54,7.85-16.13.44c0,0,5.65,1.76,8.59,1.41A53.1,53.1,0,0,0,149.8,113.65Z"/><circle cx="153.86" cy="71.92" r="3.13"/><circle cx="126.1" cy="71.92" r="3.13"/><path d="M150.72,60c3-2.27,6.72-1.61,9.29,1,.83.84,2-.62,1.13-1.45a8.67,8.67,0,0,0-11.52-1,.92.92,0,0,0,1.1,1.47Z"/><path d="M132.55,61.12a8.68,8.68,0,0,0-10.85-4c-1.1.4-.7,2.2.42,1.8,3.41-1.23,7-.25,8.8,3.08a.92.92,0,0,0,1.63-.86Z"/><path class="cls-7" d="M20.39,297.09C31.32,223,52.23,184,52.23,184,66.08,161.69,84,154.94,84,154.94L57.24,403.81,55,424.9c-3.82,5.48-38.55-1.78-38.55-1.78Z"/><rect class="cls-5" x="209.32" y="265.54" width="28.23" height="178.25"/><path class="cls-5" d="M232.28,465.17l-.55.44A3.42,3.42,0,0,0,232.28,465.17Z"/><path class="cls-6" d="M209.32,426.92h28.23a0,0,0,0,1,0,0v27.29a5.3,5.3,0,0,1-5.3,5.3H214.62a5.3,5.3,0,0,1-5.3-5.3V426.92A0,0,0,0,1,209.32,426.92Z"/><path class="cls-6" d="M210.67,447.4c1.63-.31,3-.85,5.41,1h0v.07l3.61,6.6-4.87.92-2.52-2.1-6.54,9.54h0a2.84,2.84,0,0,1-3.49.61,2.2,2.2,0,0,1-1-3h0l7.82-12.75,1.54-.89"/><path class="cls-11" d="M205.79,462.54a2.69,2.69,0,0,1-3.16,1.15,1.84,1.84,0,0,1-.67-2.8,3.09,3.09,0,0,1,.36-.45Z"/><path class="cls-6" d="M211.55,478.78c.09,2.69,1.37,4.89,2.95,5s2.91-2,3.07-4.64l.32-23.73h-6.67Z"/><path class="cls-6" d="M218.44,480.2c.09,2.69,1.36,4.9,2.94,5s2.91-2,3.07-4.64l.32-23.73h-6.66Z"/><path class="cls-6" d="M225.26,477.77c.08,2.69,1.36,4.89,2.94,5s2.91-2,3.07-4.63l.32-23.73h-6.67Z"/><path class="cls-6" d="M232,472.67c.07,2.69,1.14,4.89,2.46,5s2.44-2,2.58-4.64l.26-23.73h-5.59Z"/><path class="cls-11" d="M216.62,480.44a2.43,2.43,0,0,1-1.86,2.79,2.32,2.32,0,0,1-2.4-2.27,3.11,3.11,0,0,1,0-.61Z"/><path class="cls-11" d="M223.57,481.89a2.43,2.43,0,0,1-1.86,2.79,2.31,2.31,0,0,1-2.4-2.27,2.49,2.49,0,0,1,0-.61Z"/><path class="cls-11" d="M230.39,479.38a2.44,2.44,0,0,1-1.86,2.8,2.33,2.33,0,0,1-2.41-2.28,3.11,3.11,0,0,1,0-.61Z"/><path class="cls-11" d="M236.2,474.89a2,2,0,0,1-1.44,2.26,1.82,1.82,0,0,1-1.86-1.84,2,2,0,0,1,0-.49Z"/><path class="cls-5" d="M27.24,472.17l.54.44A3.34,3.34,0,0,1,27.24,472.17Z"/><path class="cls-6" d="M27.27,466.52H44.89a5.3,5.3,0,0,0,5.3-5.3v-27.3L23.26,432.5,22,461.22A5.3,5.3,0,0,0,27.27,466.52Z"/><path class="cls-6" d="M48.84,454.4c-1.63-.31-3-.85-5.41,1h0v.07l-3.61,6.6,4.88.92,2.51-2.1,6.54,9.54h0a2.84,2.84,0,0,0,3.49.61,2.2,2.2,0,0,0,1-3h0l-7.82-12.75-1.54-.89"/><path class="cls-11" d="M53.72,469.54a2.69,2.69,0,0,0,3.16,1.15,1.84,1.84,0,0,0,.67-2.8,3.09,3.09,0,0,0-.36-.45Z"/><path class="cls-6" d="M48,485.78c-.09,2.69-1.37,4.89-2.94,5s-2.92-2-3.08-4.64l-.31-23.73h6.66Z"/><path class="cls-6" d="M41.07,487.2c-.09,2.69-1.36,4.9-2.94,5s-2.91-2-3.07-4.64l-.32-23.73h6.67Z"/><path class="cls-6" d="M34.26,484.77c-.09,2.69-1.37,4.89-2.95,5s-2.91-2-3.07-4.63l-.32-23.73h6.67Z"/><path class="cls-6" d="M27.5,479.67c-.08,2.69-1.15,4.89-2.47,5s-2.44-2-2.58-4.64l-.26-23.73h5.59Z"/><path class="cls-11" d="M42.89,487.44a2.43,2.43,0,0,0,1.86,2.79,2.32,2.32,0,0,0,2.4-2.27,3.11,3.11,0,0,0,0-.61Z"/><path class="cls-11" d="M35.94,488.89a2.43,2.43,0,0,0,1.86,2.79,2.31,2.31,0,0,0,2.4-2.27,2.49,2.49,0,0,0,0-.61Z"/><path class="cls-11" d="M29.13,486.38a2.43,2.43,0,0,0,1.86,2.8,2.33,2.33,0,0,0,2.4-2.28,3.11,3.11,0,0,0,0-.61Z"/><path class="cls-11" d="M23.32,481.89a2,2,0,0,0,1.44,2.26,1.83,1.83,0,0,0,1.86-1.84,2.66,2.66,0,0,0,0-.49Z"/><path class="cls-7" d="M250.79,301.56c-5.18-74.74-23-115.17-23-115.17-12.09-23.34-29.38-31.45-29.38-31.45l7.45,250.18.63,21.21c3.39,5.76,38.57,1.19,38.57,1.19Z"/><path class="cls-12" d="M157,415.88l55.05,2.06a16.51,16.51,0,0,0,9.39-14.9V181.29a34.62,34.62,0,0,0-34.62-34.62H165.08L157,249Z"/><rect class="cls-13" x="159.92" y="255.92" width="59.51" height="18.19"/><path d="M133.26,62.5c1,1,0,3,5,6a39.57,39.57,0,0,1,7,5s-2-4-4-9Z"/><path d="M159.26,62.5s-5.07,2.08,2,13c11,17,9,20,9,20s6-17,2-34Z"/><rect class="cls-13" x="159.92" y="352.56" width="59.51" height="18.19"/><polygon class="cls-13" points="181.82 738.92 148.31 738.92 148.31 720.73 183.02 720.73 181.82 738.92"/><polygon class="cls-13" points="183.27 712.15 148.15 712.15 148.15 693.97 184.47 693.97 183.27 712.15"/><polygon class="cls-13" points="100.27 738.92 133.78 738.92 133.78 720.73 99.07 720.73 100.27 738.92"/><polygon class="cls-13" points="98.82 712.15 133.94 712.15 133.94 693.97 97.62 693.97 98.82 712.15"/><path class="cls-12" d="M129.6,416.87l-55,2.06a16.47,16.47,0,0,1-9.37-14.87V182.69a34.56,34.56,0,0,1,34.56-34.56h21.7l8.07,102.11Z"/><rect class="cls-13" x="67.28" y="257.2" width="59.41" height="18.15" transform="translate(193.96 532.55) rotate(-180)"/><rect class="cls-13" x="67.27" y="353.66" width="59.41" height="18.15" transform="translate(193.94 725.48) rotate(-180)"/><path class="cls-13" d="M178.61,36.3c-.23-18.72-16.71-33.84-37-33.84s-36.79,15.12-37,33.84h0V61.06h74.09V36.3Z"/><path class="cls-14" d="M150.56,3.53h0C148.76,1.4,144.79,0,141.38,0S134,1.4,132.16,3.53h0L120.65,61.06h41.87Z"/><path class="cls-13" d="M101.27,60.5H181.9a.25.25,0,0,1,0,.49l-27.07,5.07a72.58,72.58,0,0,1-26.61,0L101.22,61A.25.25,0,0,1,101.27,60.5Z"/><path class="cls-15" d="M136.48,32.35c0-.27,0-.67.21-.85.06-.29.52-.23.44-.41s-.25-.06-.34,0a8.55,8.55,0,0,1-.93.24l-.3-.08a1.42,1.42,0,0,0-.84.61c-.18.21-.43.71-.23,1l0,.2.45.65c.15.11.17.19.34.3l.1.15a.84.84,0,0,0,.6,0c.64.06.57-1.24.78-1.51A.57.57,0,0,0,136.48,32.35Zm-2.76,3.9a2.7,2.7,0,0,0,.49-.12c.19-.09.86-.56.64-.94-.06-.79-1-.12-1.43-.4-.42,0-.89-.84-1-1.18a.57.57,0,0,0-.1-.19s0,0,0,0-.1.26-.12.61H132a.36.36,0,0,1-.08.25.43.43,0,0,1,0,.07c-.1,0-.05,0-.09-.07-.38,0-.36.4-.53.62C131.26,35.63,132.68,36.52,133.72,36.25Zm4.71-2.18a2.79,2.79,0,0,0-1.23.45,1.13,1.13,0,0,0-.25.24.43.43,0,0,0,0,.27.44.44,0,0,0,.16.29c.76,0,2.08-.1,2.34.54,0,.09,0,.14,0,.16.26-.06.07,0,.44,0a1.59,1.59,0,0,0,.44-.07.17.17,0,0,0,.1-.07.2.2,0,0,1,0-.09s.13,0,.18,0c.35-.05.17-.22.33-.4C140.82,34.17,139.6,33.89,138.43,34.07Zm-1.36,2.6c-.17.13-.25.1-.35.31,0,0,0,0,0,0,.1.21.34.29.52.44s.2.31.27.33.14.36.19.36,0,.24,0,.31c0,.31,0,.34-.1.4s0,.07,0,.1.14.1.2.09a2.94,2.94,0,0,1,.92.65c.5,0,.46-.11.81-.26.09,0,.17,0,.23-.06s.07-.2.13-.27C140,37.88,138.31,36.71,137.07,36.67Zm-2,.28c-.07.07-.26.1-.32.18a3.32,3.32,0,0,1-.41.56,1.69,1.69,0,0,1-2,.25s0,0,0,.14.23.78.16.92.09.1.18.19.08.21.14.25l.23,0a.65.65,0,0,1,0,.13l.3,0s.22.1.27.11l.32,0a.85.85,0,0,0,.68-.18c.12-.08.24-.07.35-.16a2.64,2.64,0,0,0,.45-.55,2.26,2.26,0,0,0-.06-1.71C135.39,36.93,135.29,36.93,135.11,37Z"/><path class="cls-16" d="M147.1,34.16A1.64,1.64,0,0,1,148.83,36a1.74,1.74,0,0,1-2,1.89h-1.34v-3.7Zm-.3,3c.57,0,1-.19,1-1.19s-.46-1.14-1-1.14h-.3v2.33Z"/><path class="cls-16" d="M150.29,37.3c0,.27,0,.56,0,.56h-1s0-.29,0-.56V34.72c0-.27,0-.56,0-.56h2.36v.71h-1.37v.75h1.22v.68h-1.22Z"/><path class="cls-16" d="M143.54,37.11a.78.78,0,0,1-.82-.8v0l1.16,0H145V36c0-1.27-.53-1.88-1.64-1.88-.51,0-1.69.19-1.69,2,0,1.18.6,1.88,1.64,1.88a2.65,2.65,0,0,0,1.68-.47c0-.06-.34-.61-.38-.67A1.72,1.72,0,0,1,143.54,37.11Zm-.82-1.55a.66.66,0,0,1,.63-.72c.55,0,.58.47.58.72v0h-1.22Z"/></g></svg>