<svg id="Layer_1" data-name="Layer 1" xmlns="http://www.w3.org/2000/svg" viewBox="0 0 206.33 840.71"><defs><style>.cls-1{fill:#894f38;}.cls-2{fill:#f2f2f2;}.cls-3{fill:#560000;}.cls-4,.cls-7{fill:#a67c52;}.cls-5{fill:#ceac8e;}.cls-6{fill:#a8a8a8;}.cls-7{opacity:0.4;}.cls-8{fill:#934145;}.cls-9{fill:#fff0fb;}.cls-10{opacity:0.1;}.cls-11{fill:#c69c6d;}.cls-12{fill:#ffe3f6;}.cls-13{fill:#4f0000;}.cls-14{fill:#680000;}.cls-15{fill:#020007;}.cls-16{fill:#300;}.cls-17{fill:#380101;}</style></defs><title>Edison</title><g id="Layer_8" data-name="Layer 8"><g id="old"><polygon class="cls-1" points="95.47 721.55 72.22 728.91 74.63 767.38 94.34 767.38 95.47 721.55"/><polygon class="cls-2" points="94.34 767.38 94.27 770.06 94.23 771.6 94.21 772.69 94.17 774.23 93.67 794.75 76.27 793.46 75.06 774.23 74.96 772.69 74.89 771.6 74.8 770.06 74.63 767.38 94.34 767.38"/><path d="M94.76,786.31v31.11l-10.57,6.47L20.76,837.11h0a8.33,8.33,0,0,1,2.95-11.21l41.77-25.38L76,784.93Z"/><path d="M94.76,817.42v4.18a4.32,4.32,0,0,1-2.26,3.8l-7.62,4.12-59,11.11A4.34,4.34,0,0,1,21,837.74l-.2-.63,63.43-13.22Z"/><polygon class="cls-2" points="76.38 721.55 99.63 728.91 97.22 767.38 77.51 767.38 76.38 721.55"/><polygon class="cls-1" points="123.36 721.55 146.61 728.91 144.19 767.38 124.48 767.38 123.36 721.55"/><polygon class="cls-2" points="124.48 767.38 124.55 770.06 124.59 771.6 124.61 772.69 124.65 774.23 125.16 794.75 142.56 793.46 143.76 774.23 143.86 772.69 143.93 771.6 144.03 770.06 144.19 767.38 124.48 767.38"/><path d="M124.06,786.31v31.11l10.57,6.47,63.44,13.22h0a8.35,8.35,0,0,0-2.95-11.21l-41.78-25.38-10.55-15.59Z"/><path d="M124.06,817.42v4.18a4.31,4.31,0,0,0,2.27,3.8l7.61,4.12,59,11.11a4.34,4.34,0,0,0,4.92-2.89l.21-.63-63.44-13.22Z"/><path class="cls-3" d="M47,359.1l132.42,3.67L158.33,798.89l-37,3.36L119,455.9s-4.71-9.3-8.31.53l-3.26,347.62-44.06-7.16Z"/><polygon class="cls-4" points="120.39 132.44 127.85 132.44 127.85 118.05 127.85 103.32 100.41 103.32 100.41 105.34 111.39 114.78 120.39 132.44"/><polygon class="cls-5" points="111.39 114.78 100.41 105.34 100.41 118.05 100.41 132.44 113.33 135.89 120.39 132.44 111.39 114.78"/><path class="cls-6" d="M147.81,58.46C151,81.76,136.54,89,113,89S81.23,81.65,81.66,58.13C82.1,34.36,75.91.06,113.45,0,155.31-.07,144.53,34.86,147.81,58.46Z"/><path class="cls-5" d="M144.36,78.71s8.63-9.39,6.57-18.57c0,0-2.15-5.51-6.36-2.45Z"/><path class="cls-5" d="M127.85,115.23H100.24c-5.1-1.13-11.57-17.28-14-22.85-1.16-2.62-2.14-9.38-2.14-12.25L84,34.43c0-8.65,9-25.64,16.52-25.64A32.49,32.49,0,0,1,114.13,6a54.65,54.65,0,0,1,15.6,2.75c7.66-.13,14.84,17,14.84,25.64l-.19,46c0,3.28-1.5,11.76-2.78,14.78C137.81,104.12,130.71,115.23,127.85,115.23Z"/><path class="cls-7" d="M110.16,72.44l3.66,2.94a.72.72,0,0,0,.91,0l3.81-2.94a.73.73,0,0,0-.45-1.32h-7.47A.74.74,0,0,0,110.16,72.44Z"/><path class="cls-7" d="M144.57,75.12s5.61-5.8,4.49-12.86c0,0-.76-4.56-4.49-1.73Z"/><path class="cls-5" d="M84.07,78.85s-8.52-9.15-6.45-18.34c0,0,2.15-5.51,6.36-2.45Z"/><path class="cls-7" d="M84,75.49s-5.61-5.79-4.49-12.86c0,0,.76-4.56,4.49-1.73Z"/><path class="cls-8" d="M100.41,88s16,4.21,29.09-.42l.33-.12Z"/><path class="cls-7" d="M122.83,60s1.3,7.84,9.44,7.47Z"/><path class="cls-7" d="M103.79,60s-1.31,6.88-9.45,7.47Z"/><path class="cls-7" d="M106.84,72.15S98.1,83.84,98.22,87.43Z"/><path class="cls-7" d="M121.9,72.15s8.74,11.69,8.62,15.28Z"/><path class="cls-7" d="M105.29,107.84s-6.26-3.14-4.6-11.12Z"/><path class="cls-7" d="M121.44,107.84s6.27-3.14,4.61-11.12Z"/><circle cx="127.23" cy="53.86" r="3.27"/><circle cx="98.22" cy="53.86" r="3.27"/><path class="cls-9" d="M170.68,362.35H49.83a6.5,6.5,0,0,1-6.5-6.5l-1-198c0-14.52,13.78-16.89,26.87-21.93l26.13-4.36,18,4.36,17-4.36,18.94,3.1c14.53,0,26.91,8.67,26.91,23.19l1,198A6.5,6.5,0,0,1,170.68,362.35Z"/><path class="cls-10" d="M145.74,155.81s-24.27,11.9-71.29,26.11L80,184.83c26.55,14,59.68-.64,65.75-29Z"/><path class="cls-10" d="M50.53,302.74s38.63,23.9,115.06,55.33l-9.82,4c-47.06,19.18-100.08-10.72-105.24-59.33Z"/><polygon class="cls-5" points="204.27 426.71 174.77 426.71 174.77 237.28 198.04 226.4 204.27 426.71"/><path class="cls-5" d="M198.76,449.06l-.56.46A2.81,2.81,0,0,0,198.76,449.06Z"/><path class="cls-5" d="M174.77,409.09h29.5a0,0,0,0,1,0,0v28.77a5.3,5.3,0,0,1-5.3,5.3h-18.9a5.3,5.3,0,0,1-5.3-5.3V409.09a0,0,0,0,1,0,0Z"/><path class="cls-5" d="M176.18,430.49c1.71-.32,3.11-.89,5.65,1.08h0l0,.08,3.77,6.9-5.09,1-2.63-2.2-6.84,10h0a3,3,0,0,1-3.65.64,2.32,2.32,0,0,1-1-3.19h0l8.17-13.32,1.61-.93"/><path class="cls-11" d="M171.09,446.32a2.83,2.83,0,0,1-3.31,1.2,1.92,1.92,0,0,1-.7-2.93,4.25,4.25,0,0,1,.37-.47Z"/><path class="cls-5" d="M177.11,463.29c.09,2.81,1.42,5.11,3.07,5.21s3-2.05,3.21-4.85l.33-24.8h-7Z"/><path class="cls-5" d="M184.3,464.78c.1,2.8,1.43,5.11,3.08,5.21s3-2.06,3.21-4.85l.33-24.8h-7Z"/><path class="cls-5" d="M191.43,462.23c.09,2.81,1.42,5.12,3.07,5.21s3-2.05,3.21-4.84l.33-24.81h-7Z"/><path class="cls-5" d="M198.49,456.9c.08,2.81,1.2,5.12,2.58,5.21s2.55-2.05,2.69-4.84l.28-24.81H198.2Z"/><path class="cls-11" d="M182.41,465a2.55,2.55,0,0,1-1.95,2.92,2.42,2.42,0,0,1-2.51-2.37,2.74,2.74,0,0,1,0-.64Z"/><path class="cls-11" d="M189.67,466.53a2.56,2.56,0,0,1-1.95,2.93,2.44,2.44,0,0,1-2.51-2.38,3.42,3.42,0,0,1,0-.64Z"/><path class="cls-11" d="M196.79,463.91a2.56,2.56,0,0,1-1.95,2.93,2.44,2.44,0,0,1-2.51-2.38,3.42,3.42,0,0,1,0-.64Z"/><path class="cls-11" d="M202.86,459.22a2.05,2.05,0,0,1-1.5,2.36,1.91,1.91,0,0,1-2-1.92,2.9,2.9,0,0,1,0-.51Z"/><path class="cls-9" d="M168.33,138.89c44.28,29.29,37,267,37,267h-31L171,141.59C174.67,145.41,168.33,138.89,168.33,138.89Z"/></g><path class="cls-12" d="M100.41,138.41c-.08.2,12.92-2.52,12.92-2.52s-15.11-17-15.11-18-8.4,13.62-8.4,13.62Z"/><path class="cls-12" d="M122.83,138.9c.08.2-9.5-3-9.5-3s17.38-17.06,17.38-18.06l6.13,13.67Z"/><rect class="cls-12" x="174.33" y="405.89" width="32" height="14"/><path class="cls-13" d="M110.4,194.19c2.73-3.75,28.92-62.48,27.95-60.28s21.24,52.35,20.36,87.8-16.08,160.71-16.08,160.71L110.4,362.83Z"/><path class="cls-3" d="M135.83,129.25l-4.45,185.41L122.83,428l51.5-4.41s-4.91-84.55-3.24-86.64,8.32-194,8.32-194S179.42,137.28,135.83,129.25Z"/><path class="cls-14" d="M135.83,129.25l21.28,17L140.69,160.5l12.2,23-20.56,85.93S132.77,143.84,135.83,129.25Z"/><path class="cls-13" d="M110.4,194.19c-2.74-3.75-28.24-63.95-27.28-61.75s-21.91,53.82-21,89.27S78.16,382.42,78.16,382.42l32.24-19.59Z"/><path class="cls-3" d="M91.27,129.24,89.41,314.66,98,428l-67.31-5.76s8.67-84.78,7-86.87S43.78,146,43.78,146,54.69,132.43,91.27,129.24Z"/><path class="cls-14" d="M91.27,129.24l-27.59,17L80.1,160.5l-12.2,23,20.57,85.93S94.33,143.83,91.27,129.24Z"/><path class="cls-3" d="M172.32,138.41s25.51,4.86,29.94,62,4,207.05,4,207.05l-38.4,3.27Z"/><rect class="cls-6" x="91.29" y="46.32" width="15.55" height="3.53" rx="1.26"/><rect class="cls-6" x="121.36" y="46.32" width="15.55" height="3.53" rx="1.26"/><path class="cls-6" d="M84.07,49.85c-.06.66,2.66,16.74,2.22,19.71s-1.65,1.6-1.76,1.57S82.88,55.36,83,54.81,84.07,49.85,84.07,49.85Z"/><path class="cls-6" d="M144.69,49.74c.06.66-2.66,16.73-2.22,19.71s1.66,1.6,1.77,1.57,1.65-15.77,1.54-16.32S144.69,49.74,144.69,49.74Z"/><path class="cls-6" d="M148.22,55.06a4.27,4.27,0,0,1-1.37-5.14,4,4,0,0,0-.64.66A3.66,3.66,0,0,0,151,55.9,4.21,4.21,0,0,1,148.22,55.06Z"/><path class="cls-6" d="M148.91,53a4.27,4.27,0,0,1-2.15-4.86,3.65,3.65,0,0,0,5.05,5.25A4.23,4.23,0,0,1,148.91,53Z"/><path class="cls-6" d="M82.16,54.45a4.29,4.29,0,0,1-5.24.94,3.85,3.85,0,0,0,.6.68,3.66,3.66,0,0,0,5.71-4.34A4.24,4.24,0,0,1,82.16,54.45Z"/><path class="cls-6" d="M82.13,50.71a4.28,4.28,0,0,1-5,1.73,3.37,3.37,0,0,0,.7.59,3.66,3.66,0,0,0,5-5.18A4.25,4.25,0,0,1,82.13,50.71Z"/><path class="cls-15" d="M92.53,131.5c1.67-.28,20.8,4.39,20.8,4.39s-1,7-1.3,8.1-20.57,9.47-20.74,7.26S92.53,131.5,92.53,131.5Z"/><path class="cls-15" d="M135.52,131.5c-1.66-.28-20.79,4.39-20.79,4.39s1,7,1.3,8.1,20.57,9.47,20.74,7.26S135.52,131.5,135.52,131.5Z"/><rect class="cls-15" x="110.25" y="135.89" width="6.26" height="10.08" rx="3.13"/><rect class="cls-16" x="92.63" y="408.69" width="4.68" height="423.81" transform="translate(189.94 1241.18) rotate(180)"/><ellipse class="cls-16" cx="91.29" cy="397.31" rx="12.06" ry="16.25"/><path class="cls-5" d="M81,402.49l11.18-17.44a5.9,5.9,0,0,0,1.65-8.19L74.42,347.77,49,364.68l19.36,29.09C70.18,396.48,78.23,404.29,81,402.49Z"/><path class="cls-5" d="M95.05,376.18c-1.65-.54-3-1.27-5.75.35h0l0,.07L84.64,383l4.93,1.6,2.89-1.84L98,393.5h0a3,3,0,0,0,3.53,1.1,2.31,2.31,0,0,0,1.42-3h0l-6.4-14.26-1.47-1.13"/><rect class="cls-12" x="53.39" y="361.5" width="32" height="14" transform="translate(-210.62 119.09) rotate(-37.64)"/><path class="cls-3" d="M58.4,139.21s-33.71,5.2-45.42,61.3C9.13,219,.8,246.61,0,276.12-.88,309.2,58.85,381.89,58.85,381.89L84,359.9s-44.54-64.66-47.06-86.42S58.4,139.21,58.4,139.21Z"/><path class="cls-5" d="M82.65,383.39c-.65,1.94,2.76,18.5,3.79,25,1.43,8.95-4.57,10.5-6,1.55s-3.51-22.38-3.51-22.38Z"/><path class="cls-5" d="M88.54,389.74c-.5,2,4.23,18.23,5.77,24.59,2.13,8.8-3.73,10.83-5.88,2s-5.28-22-5.28-22Z"/><path class="cls-5" d="M77.59,380.13c-.65,1.94,2.77,18.51,3.8,25,1.43,8.95-4.57,10.5-6,1.55s-3.51-22.38-3.51-22.38Z"/><path class="cls-5" d="M72.88,377.92c-.65,1.95,2.76,18.51,3.79,25,1.43,8.95-4.57,10.5-6,1.55s-3.51-22.38-3.51-22.38Z"/><path class="cls-17" d="M110.4,196.08s0,.52,0,1.41c0,6.27-.14,32.6-.35,62.34,0,3.1-.31,1.95-.32,5.1,0,.65.27,6.45.25,6-2.06-43.71-.6,90.42-.25,90,.59-.65-1.81-63.43-1.77-88.54,0-2.14,1.18-5.83,1.22-7.36.06-2.16-.39-3.29-.3-6.11.69-22.61,1.51-62.32,1.51-62.32"/><circle class="cls-17" cx="111.01" cy="198.43" r="2.95"/><circle class="cls-17" cx="110.17" cy="228.44" r="2.95"/><circle class="cls-17" cx="109.57" cy="264.58" r="2.95"/><circle class="cls-17" cx="109.25" cy="310.08" r="2.95"/><circle class="cls-17" cx="108.77" cy="350.21" r="2.95"/></g></svg>