<svg id="Layer_1" data-name="Layer 1" xmlns="http://www.w3.org/2000/svg" viewBox="0 0 279.91 717.24"><defs><style>.cls-1{fill:#c10808;}.cls-2{fill:#e2bea3;}.cls-3{fill:#a67c52;opacity:0.4;}.cls-4{fill:#c6a691;}.cls-5{fill:#42210b;}.cls-6{fill:#4c290d;}.cls-7{fill:#6d6d6d;}.cls-8{fill:#ccc;}.cls-9{fill:#25255e;}.cls-10{fill:#742500;}.cls-11{fill:#b76241;}.cls-12{fill:#3c2d00;}.cls-13{fill:#999;}.cls-14{fill:#281d00;}</style></defs><title>Artboard 22 copy</title><polygon class="cls-1" points="120.71 630.04 101.51 630.04 101.51 678.31 123.69 687.92 120.71 630.04"/><polygon class="cls-1" points="181.72 628.61 198.35 628.61 208.01 675.28 186.67 684.53 181.72 628.61"/><path class="cls-2" d="M158.07,65.93s8.5-9.24,6.47-18.28c0,0-2.12-5.43-6.27-2.42Z"/><path class="cls-3" d="M158.27,62.4s5.53-5.71,4.43-12.66c0,0-.75-4.49-4.43-1.71Z"/><polygon class="cls-4" points="146.88 83.91 123.82 83.91 123.82 85.61 146.85 108.79 146.88 83.91"/><path class="cls-2" d="M124.51,85.13V105l-9.66,7.84c0,5.47,13.63,33,20,33s22-29.53,22-35l-7-3Z"/><path class="cls-2" d="M139.89,93.93l-10.83.49c-18.13-.72-19.71-19.1-23-28.36l-.89-41.24c0-8.53,10.3-17.94,18.83-17.94l21.19.4a15.43,15.43,0,0,1,15.44,15.43V66.3C160.56,78.42,158.07,92.49,139.89,93.93Z"/><path class="cls-3" d="M137.75,59.87l3.6,2.9a.74.74,0,0,0,.9,0l3.75-2.9a.73.73,0,0,0-.44-1.3h-7.35A.73.73,0,0,0,137.75,59.87Z"/><path class="cls-2" d="M106,64.78s-8.39-9-6.36-18.05c0,0,2.12-5.43,6.27-2.42Z"/><path class="cls-3" d="M105.92,61.48s-5.53-5.71-4.43-12.67c0,0,.75-4.48,4.43-1.7Z"/><path class="cls-5" d="M144.43,30c3.4-2.05,7.21-.95,9.61,2,.79,1,2.13-.43,1.35-1.39a9.12,9.12,0,0,0-12-2.29,1,1,0,0,0,1,1.66Z"/><path class="cls-5" d="M128.61,28.65a9.12,9.12,0,0,0-12.05,1.76c-.81.92.46,2.38,1.29,1.45,2.54-2.86,6.4-3.79,9.7-1.6a1,1,0,0,0,1.06-1.61Z"/><path class="cls-6" d="M128.85,75.79s10.34,6.36,17.44,2C147.85,76.79,128.85,75.79,128.85,75.79Z"/><circle cx="123.74" cy="46.39" r="3.32"/><circle cx="150.91" cy="46.39" r="3.32"/><path class="cls-3" d="M127.91,68.14a5.54,5.54,0,0,0-4.11,6.14Z"/><path class="cls-7" d="M198.13,697.21a28,28,0,0,1,5.41,2.8l.06,0c8.73,2.47,34.42,3.06,34.42,3.06,2.71.31,6.72-1.51,9.55-3.06,1-.56,2.14-2.49,2.08-1.2,0,0,.13,2.83.13,2.84a1.68,1.68,0,0,1-.11.55c-.49,1.39-3.33,6.81-17.86,7,0,0-40.15-2.49-48-4.22a1.63,1.63,0,0,1-1.21-1.43c-.13-1-.34-2.71-.51-4.69-.1-1-.16-1.92-.16-1.92l16.12.25Z"/><path class="cls-8" d="M182.3,684.39a.25.25,0,0,0,0-.07c.18-.54,2.47-7.3,2.3-8.79,0,0-.39-5.92,1.64-3.58,0,0,2.61,5.75,4.23,6.46a.24.24,0,0,0,.26-.07c.76-.85,5.41-6,9.44-7.48a1.65,1.65,0,0,0,.83-.76,2.32,2.32,0,0,1,.14-.22c6.21-7.94,9.22-5.77,9.22-5.77,2.65.45,4.28,4.35,4.28,4.35a3.42,3.42,0,0,1,.28.69,9,9,0,0,1,4.52,2,1.48,1.48,0,0,1,.39.55c1,2.13,7,14.48,15.59,17.86h.06c.58,0,8.53-.13,11.27,2.79a11,11,0,0,1,2.74,5.6c.05.27.1.55.14.84-2.52,1.54-8.15,4.66-11.63,4.26,0,0-25.69-.59-34.42-3.06l-.06,0a28,28,0,0,0-5.41-2.8l-.06,0L182,696.94c0-.17,0-.34,0-.51C181.64,692.33,181.56,687.58,182.3,684.39Z"/><path class="cls-7" d="M111.36,700.24a28.35,28.35,0,0,0-5.41,2.81l-.06,0c-8.73,2.47-34.42,3-34.42,3-2.71.31-8.8-2.7-11.63-4.25a19.19,19.19,0,0,0-.13,2.8v0a1.8,1.8,0,0,0,.11.56c.49,1.39,3.34,6.8,17.86,7,0,0,40.15-2.5,48-4.23a1.62,1.62,0,0,0,1.2-1.43c.14-1,.49-4.62.67-6.6.09-1-.78,0-1.7,0l-14.42.23Z"/><path class="cls-8" d="M127.19,687.42a.64.64,0,0,1,0-.07c-.18-.53-2.46-7.3-2.3-8.78,0,0,.4-5.92-1.64-3.58,0,0-2.61,5.75-4.22,6.46a.25.25,0,0,1-.27-.07c-.76-.86-5.41-6-9.44-7.48a1.7,1.7,0,0,1-.83-.76,2.32,2.32,0,0,0-.14-.22c-6.21-7.94-9.22-5.77-9.22-5.77-2.65.44-4.28,4.35-4.28,4.35a4.36,4.36,0,0,0-.28.68,9.14,9.14,0,0,0-4.52,2,1.83,1.83,0,0,0-.39.55c-1,2.13-7,14.49-15.58,17.87H74c-.58,0-8.53-.13-11.27,2.78A11.05,11.05,0,0,0,60,701c0,.28-.1.56-.14.85,2.52,1.54,8.15,4.65,11.63,4.25,0,0,25.69-.58,34.42-3l.06,0a28.35,28.35,0,0,1,5.41-2.81h.06l16.12-.25c0-.17,0-.34,0-.51C127.85,695.36,127.93,690.61,127.19,687.42Z"/><path class="cls-9" d="M77.33,334.68H190.55l29.3,337.11-40,19S153.6,445.09,149.37,412.4c-3.6-27.85-14.86-34.69-18.26,1.3l-.26,277.09-41-17Z"/><path class="cls-10" d="M152.91,117.22h-3.16v4.43c0,6.16-9.74,16.41-15.18,16.41s-13.69-9.81-13.69-16v-4.43h-2.95c-28.13,0-42.22.24-42.22,37.33l-.16,201.57H192.34L189.42,155C189.42,117.9,181,117.22,152.91,117.22Z"/><rect class="cls-11" x="114.85" y="149.79" width="43" height="12"/><rect class="cls-11" x="114.85" y="196.79" width="43" height="12"/><rect class="cls-11" x="114.85" y="236.79" width="43" height="12" rx="6"/><rect class="cls-11" x="114.85" y="277.79" width="43" height="12" rx="6"/><rect class="cls-11" x="114.85" y="317.79" width="43" height="12" rx="6"/><path class="cls-12" d="M169.67,111.37H150.58l1.55,26L150,274.35l-10.13,87.44v11l55,5c5-2.7,5.22-8,5.22-14.23V145.43C200.07,126.62,186.46,111.37,169.67,111.37Z"/><path class="cls-13" d="M146.85,104.79l26.71,4,9.29,6s-22.51,24.59-24.48,43.39-6.36,44.27-6.43,43S146.85,104.79,146.85,104.79Z"/><path class="cls-12" d="M101.11,112.61H120.2l-1.55,26,8.2,133.14,13,90v11L79,379.45c-5-2.7-8.24-8.4-8.24-14.65V146.66C70.71,127.85,84.32,112.61,101.11,112.61Z"/><path class="cls-13" d="M124.85,103.79,97.23,110l-8.38,6.76s18,22.2,20,41,12.92,44.29,13,43S124.85,103.79,124.85,103.79Z"/><path class="cls-12" d="M75.55,138.68s-48,144.7-38.45,177.05,34.84,27.2,34.84,27.2,19.3-28,17-27.2-20.74-35.07-17-63.49S75.55,138.68,75.55,138.68Z"/><path class="cls-14" d="M89,315.73l-17,27.2s3.25,27.84,13.71,13.63S89,315.73,89,315.73Z"/><path class="cls-12" d="M196,138.68s48,144.7,38.45,177.05-34.84,27.2-34.84,27.2-19.3-28-17-27.2,20.74-35.07,17-63.49S196,138.68,196,138.68Z"/><path class="cls-14" d="M182.59,315.73l17,27.2s-3.25,27.84-13.71,13.63S182.59,315.73,182.59,315.73Z"/><path d="M160.85,46.79c-.34,7.2,1,16-5,23-3.16,3.68-5-5-15.74-4.94-14.26.08-21.19,11.84-25.42,9-6.13-4.09-8-22-8.7-29.1l-.6,31.8c-2.54,69.23,19,63.23,36.46,63.23s30-11,23-58ZM139.36,80.7c-5.15,0-16.18,4.58-16.51,1.09-1.17-12.27,11.36-10.89,16.51-10.89s15.34-.83,15.5,12.27C154.9,86.68,144.51,80.7,139.36,80.7Z"/></svg>