<svg id="Layer_1" data-name="Layer 1" xmlns="http://www.w3.org/2000/svg" viewBox="0 0 168.32 714.95"><defs><style>.cls-1{fill:#f2f2f2;}.cls-2{fill:#ceac8e;}.cls-3{fill:#894f38;}.cls-4{fill:#c69c6d;}.cls-5{fill:#1f0400;}.cls-6{fill:#75390c;}.cls-7,.cls-8{fill:#a67c52;}.cls-8{opacity:0.4;}.cls-9{fill:#934145;}.cls-10{fill:#9cceff;}.cls-11{opacity:0.1;}.cls-12{fill:#feffea;}</style></defs><title>Artboard 20 copy</title><path d="M73.11,659.26v31.85l-8.7,6.63L12.27,711.27h0c-1.81-4-.74-9.09,2.42-11.48l34.34-26,8.68-16Z"/><path class="cls-1" d="M73.11,691.11v4.27a4.68,4.68,0,0,1-1.87,3.9L65,703.49l-48.5,11.38c-1.75.41-3.48-.85-4-3l-.17-.64,52.14-13.53Z"/><path class="cls-2" d="M61.15,105.57s17-3.45,23.25-3.45,22.87,3.45,22.87,3.45L84.49,135.28Z"/><polygon class="cls-3" points="90.81 592.97 109.92 600.5 107.94 639.89 91.73 639.89 90.81 592.97"/><polygon class="cls-1" points="91.73 639.89 91.79 642.63 91.82 644.21 91.84 645.32 91.87 646.89 92.29 667.9 106.59 666.58 107.58 646.89 107.66 645.32 107.72 644.21 107.8 642.63 107.94 639.89 91.73 639.89"/><path d="M91.38,659.26v31.85l8.7,6.63,52.14,13.53h0c1.81-4,.74-9.09-2.42-11.48l-34.34-26-8.68-16Z"/><path class="cls-1" d="M91.38,691.11v4.27a4.68,4.68,0,0,0,1.87,3.9l6.26,4.21L148,714.87c1.75.41,3.48-.85,4-3l.17-.64-52.14-13.53Z"/><polygon class="cls-2" points="4.41 358.49 28.67 358.49 28.67 213.7 14.43 213.7 4.41 358.49"/><path class="cls-2" d="M8.94,381.36l.47.47A2.33,2.33,0,0,1,8.94,381.36Z"/><path class="cls-2" d="M9.28,340.44H23.8a4.86,4.86,0,0,1,4.86,4.86v30a0,0,0,0,1,0,0H4.41a0,0,0,0,1,0,0v-30A4.86,4.86,0,0,1,9.28,340.44Z" transform="translate(33.08 715.76) rotate(-180)"/><path class="cls-2" d="M27.51,362.35c-1.41-.33-2.56-.91-4.65,1.11h0l0,.07-3.09,7.07,4.18,1,2.17-2.24,5.62,10.21h0a2.12,2.12,0,0,0,3,.65,2.67,2.67,0,0,0,.85-3.26h0L28.83,363.3l-1.32-.95"/><path class="cls-4" d="M31.69,378.55a2.12,2.12,0,0,0,2.72,1.23,2.23,2.23,0,0,0,.58-3,3.19,3.19,0,0,0-.31-.47Z"/><path class="cls-2" d="M26.74,395.93c-.07,2.87-1.17,5.23-2.52,5.33s-2.5-2.1-2.64-5l-.28-25.39H27Z"/><path class="cls-2" d="M20.83,397.45c-.08,2.87-1.17,5.23-2.53,5.33s-2.5-2.1-2.64-5l-.27-25.39h5.73Z"/><path class="cls-2" d="M15,394.84c-.07,2.88-1.17,5.24-2.53,5.34s-2.5-2.1-2.63-5l-.28-25.39h5.73Z"/><path class="cls-2" d="M9.16,389.39c-.06,2.87-1,5.23-2.11,5.33s-2.1-2.1-2.22-5L4.6,364.37H9.41Z"/><path class="cls-4" d="M22.39,397.7c-.12,1.49.59,2.83,1.6,3s1.93-.93,2.06-2.43a3.64,3.64,0,0,0,0-.66Z"/><path class="cls-4" d="M16.42,399.25c-.12,1.49.59,2.83,1.6,3s1.93-.93,2.06-2.43a3.64,3.64,0,0,0,0-.66Z"/><path class="cls-4" d="M10.56,396.57c-.12,1.49.6,2.83,1.6,3s1.94-.93,2.07-2.43a4.85,4.85,0,0,0,0-.66Z"/><path class="cls-4" d="M5.57,391.76c-.09,1.21.46,2.29,1.24,2.42s1.5-.75,1.6-2a4.51,4.51,0,0,0,0-.52Z"/><polygon class="cls-3" points="73.68 592.97 54.57 600.5 56.55 639.89 72.76 639.89 73.68 592.97"/><polygon class="cls-1" points="72.76 639.89 72.7 642.63 72.67 644.21 72.65 645.32 72.62 646.89 72.2 667.9 57.9 666.58 56.91 646.89 56.83 645.32 56.77 644.21 56.69 642.63 56.55 639.89 72.76 639.89"/><path class="cls-5" d="M29,307.21,137.86,311l-20,361.35L88,676.18l.18-284s-3.87-9.52-6.82.54l-3.2,283.48-30.49-3.86Z"/><path class="cls-6" d="M118,37.28c3.23,34.93-17,62.79-37.57,62.79s-41.64-34.52-37-62.79C46.77,17,60.11,0,80.7,0S116.08,16.78,118,37.28Z"/><polygon class="cls-7" points="88.28 106.84 94.81 106.84 94.81 102.93 94.81 90.05 70.8 90.05 70.8 91.81 80.41 100.07 88.28 106.84"/><polygon class="cls-2" points="80.41 100.07 70.8 91.81 70.8 102.93 70.8 108.54 94.81 106.84 80.41 100.07"/><path class="cls-2" d="M108.56,65.43s7.56-8.21,5.75-16.25c0,0-1.88-4.82-5.57-2.14Z"/><path class="cls-6" d="M117.63,10a8.39,8.39,0,0,1-10.95,2.09A8.39,8.39,0,1,0,119.22,1.5a7.45,7.45,0,0,0-.83-.55A8.38,8.38,0,0,1,117.63,10Z"/><path class="cls-6" d="M99,91.44a8.38,8.38,0,0,1,5.8-9.51,8.31,8.31,0,0,0-3.59-.14,8.4,8.4,0,1,0,3,16.52c.33-.06.65-.15,1-.24A8.4,8.4,0,0,1,99,91.44Z"/><path class="cls-6" d="M99,85a8.4,8.4,0,0,1,5.8-9.52,8.39,8.39,0,1,0-.59,16.38,8.08,8.08,0,0,0,1-.24A8.39,8.39,0,0,1,99,85Z"/><path class="cls-2" d="M91.38,94H73.1c-8.23,0-14.65-11.73-16.8-16.6-1-2.29-.49-8.21-.49-10.71l-.07-40A13.71,13.71,0,0,1,69.45,13H95a13.71,13.71,0,0,1,13.71,13.71l-.16,40.21c0,2.87.07,10.29-1,12.93C104.21,87.67,99.75,92.85,91.38,94Z"/><path class="cls-8" d="M108.74,62.29s4.91-5.07,3.93-11.25c0,0-.66-4-3.93-1.52Z"/><path class="cls-2" d="M55.81,65.55s-7.45-8-5.64-16c0,0,1.88-4.82,5.57-2.15Z"/><path class="cls-8" d="M55.74,62.62s-4.91-5.08-3.94-11.26c0,0,.67-4,3.94-1.51Z"/><path class="cls-8" d="M78.64,66l3.2,2.58a.65.65,0,0,0,.8,0L86,66a.65.65,0,0,0-.39-1.16H79A.65.65,0,0,0,78.64,66Z"/><path class="cls-9" d="M73.93,79.07s5.24,4.58,16.71.53l.84-.31Z"/><circle cx="93.58" cy="49.69" r="2.86"/><circle cx="68.19" cy="49.69" r="2.86"/><path d="M90.71,38.81c2.75-2.08,6.14-1.47,8.49.87.76.77,1.79-.56,1-1.32a7.92,7.92,0,0,0-10.54-.89.84.84,0,0,0,1,1.34Z"/><path d="M74.09,39.82a7.92,7.92,0,0,0-9.92-3.67c-1,.36-.64,2,.38,1.64,3.12-1.13,6.45-.23,8,2.82a.84.84,0,0,0,1.49-.79Z"/><path class="cls-6" d="M63.57,11.25s13,1.64,7.23,17.89L84.2,18S104,27.31,108.74,47l2.84-29L98,7.59Z"/><path class="cls-6" d="M97,13.23S87.6,30.78,72.6,34.6l3.79-14.66A48.88,48.88,0,0,0,59.72,48.71L51.84,19.33,62.6,9.58Z"/><path class="cls-6" d="M116.72,32.36S123.41,13.45,114.57,0c0,0-3.76,7.58-14.07,2.71,0,0-52.26-15.65-57.08,34.53L55.74,47.36,60.2,13,86.1,8.84,107,15.32Z"/><path class="cls-10" d="M106.22,105.57l-22,27.37-22-27.37s-33.57,12.05-33.57,26.92V339.15c0,3.68,2.39,6.66,5.34,6.66h99.34c3,0,5.35-3,5.35-6.66V132.49C138.72,117.62,106.22,105.57,106.22,105.57Z"/><path class="cls-11" d="M37.11,226.11s31.75,17,94.58,39.27l-8.07,2.84c-38.68,13.61-82.27-7.61-86.51-42.11Z"/><path class="cls-10" d="M35.3,120.43s-19,23.32-21.84,40.7L0,343.18l35.11,9.53S38.77,117.28,35.3,120.43Z"/><polygon class="cls-2" points="160.99 355.88 136.74 355.88 136.74 211.1 150.98 211.1 160.99 355.88"/><path class="cls-2" d="M156.46,378.76l-.46.47A3.41,3.41,0,0,0,156.46,378.76Z"/><path class="cls-2" d="M136.74,337.84H161a0,0,0,0,1,0,0v30a4.86,4.86,0,0,1-4.86,4.86H141.6a4.86,4.86,0,0,1-4.86-4.86v-30A0,0,0,0,1,136.74,337.84Z"/><path class="cls-2" d="M137.9,359.74c1.4-.33,2.55-.9,4.65,1.11h0l0,.07,3.1,7.07-4.19,1-2.16-2.25-5.63,10.21h0a2.11,2.11,0,0,1-3,.66,2.67,2.67,0,0,1-.84-3.26h0l6.72-13.65,1.32-.95"/><path class="cls-4" d="M133.71,376a2.12,2.12,0,0,1-2.72,1.23,2.22,2.22,0,0,1-.57-3,2.59,2.59,0,0,1,.3-.48Z"/><path class="cls-2" d="M138.66,393.32c.07,2.88,1.17,5.24,2.53,5.33s2.5-2.1,2.63-5l.28-25.39h-5.73Z"/><path class="cls-2" d="M144.58,394.84c.07,2.88,1.17,5.24,2.52,5.34s2.5-2.1,2.64-5l.28-25.39h-5.73Z"/><path class="cls-2" d="M150.43,392.24c.08,2.87,1.17,5.23,2.53,5.33s2.5-2.1,2.64-5l.27-25.39h-5.73Z"/><path class="cls-2" d="M156.24,386.78c.06,2.88,1,5.24,2.12,5.34s2.09-2.1,2.21-5l.23-25.39H156Z"/><path class="cls-4" d="M143,395.09c.11,1.5-.6,2.83-1.6,3s-1.94-.92-2.07-2.43a4.7,4.7,0,0,1,0-.65Z"/><path class="cls-4" d="M149,396.64c.12,1.5-.59,2.83-1.59,3s-1.94-.93-2.07-2.44a3.53,3.53,0,0,1,0-.65Z"/><path class="cls-4" d="M154.84,394c.12,1.5-.59,2.83-1.6,3s-1.94-.92-2.07-2.43a3.52,3.52,0,0,1,0-.65Z"/><path class="cls-4" d="M159.83,389.16c.09,1.2-.46,2.29-1.24,2.42s-1.5-.75-1.6-2a3.11,3.11,0,0,1,0-.53Z"/><path class="cls-10" d="M132.76,121.12s19.31,23.49,22.1,40.87L168.32,344l-35.11,9.53S129.3,118,132.76,121.12Z"/><rect class="cls-12" x="28.6" y="156.3" width="109.77" height="25.23"/><polygon class="cls-12" points="28.6 191.43 10.65 191.43 12.98 166.28 28.6 166.2 28.6 191.43"/><polygon class="cls-12" points="138.37 191.43 157.59 191.39 155.25 166.24 138.37 166.2 138.37 191.43"/><path class="cls-11" d="M104.38,163.1s-19.95,12.18-58.61,26.71l4.56,3c20,3,48.64-3.24,54.05-29.7Z"/></svg>