<svg id="Layer_1" data-name="Layer 1" xmlns="http://www.w3.org/2000/svg" viewBox="0 0 237.12 820.57"><defs><style>.cls-1{fill:#894f38;}.cls-2{fill:#f2f2f2;}.cls-3{fill:#ff1d25;}.cls-4{fill:#c16d53;}.cls-5{fill:#2b1407;}.cls-6{fill:#704530;}.cls-7{fill:#000130;}.cls-8{fill:#723f2e;}.cls-9{fill:#42210b;}.cls-10{fill:#4c290d;}.cls-11,.cls-12{fill:#603813;}.cls-11{opacity:0.2;}.cls-12{opacity:0.4;}.cls-13{fill:#02064f;}.cls-14{fill:#e6e6e6;}</style></defs><title>Artboard 27</title><polygon class="cls-1" points="89.51 718.71 111.75 725.75 109.44 762.57 90.59 762.57 89.51 718.71"/><polygon class="cls-2" points="90.69 766.61 109.19 766.61 109.13 767.64 90.71 767.64 90.69 766.61"/><polygon class="cls-2" points="107.88 787.52 91.23 788.75 90.75 769.11 109.03 769.11 107.88 787.52"/><polygon class="cls-2" points="90.59 762.57 109.44 762.57 109.28 765.13 90.65 765.13 90.59 762.57"/><polygon class="cls-3" points="90.65 765.13 109.28 765.13 109.19 766.61 90.69 766.61 90.65 765.13"/><polygon class="cls-3" points="109.13 767.64 109.03 769.11 90.75 769.11 90.71 767.64 109.13 767.64"/><rect class="cls-1" x="190.16" y="246.4" width="24" height="178.25"/><path class="cls-1" d="M209.69,446l-.47.43A2.4,2.4,0,0,0,209.69,446Z"/><path class="cls-1" d="M190.16,407.79h24a0,0,0,0,1,0,0v27.29a5.3,5.3,0,0,1-5.3,5.3h-13.4a5.3,5.3,0,0,1-5.3-5.3V407.79A0,0,0,0,1,190.16,407.79Z"/><path class="cls-1" d="M191.31,428.26c1.39-.3,2.53-.84,4.6,1h0l0,.07L199,436l-4.14.92-2.14-2.1-5.57,9.54h0a2.16,2.16,0,0,1-3,.61,2.4,2.4,0,0,1-.83-3.05h0L190,429.15l1.3-.89"/><path class="cls-4" d="M187.17,443.41a2.14,2.14,0,0,1-2.69,1.15,2,2,0,0,1-.57-2.81,3.41,3.41,0,0,1,.3-.44Z"/><path class="cls-1" d="M192.07,459.65c.07,2.68,1.16,4.89,2.5,5s2.47-2,2.61-4.63l.27-23.73h-5.67Z"/><path class="cls-1" d="M197.92,461.07c.08,2.69,1.16,4.89,2.5,5s2.48-2,2.61-4.63l.28-23.73h-5.67Z"/><path class="cls-1" d="M203.72,458.64c.07,2.68,1.16,4.89,2.5,5s2.47-2,2.61-4.64l.27-23.73h-5.67Z"/><path class="cls-1" d="M209.46,453.54c.07,2.68,1,4.89,2.1,5s2.08-2,2.19-4.63l.23-23.73h-4.76Z"/><path class="cls-4" d="M196.38,461.3c.12,1.4-.59,2.65-1.58,2.8s-1.92-.87-2.05-2.27a4.28,4.28,0,0,1,0-.62Z"/><path class="cls-4" d="M202.28,462.75c.12,1.4-.58,2.65-1.58,2.8s-1.91-.87-2-2.27a3.21,3.21,0,0,1,0-.62Z"/><path class="cls-4" d="M208.08,460.25c.12,1.39-.59,2.64-1.58,2.79s-1.92-.86-2.05-2.27a4.14,4.14,0,0,1,0-.61Z"/><path class="cls-4" d="M213,455.75c.09,1.13-.46,2.14-1.23,2.27s-1.48-.7-1.58-1.84a4.17,4.17,0,0,1,0-.5Z"/><ellipse class="cls-5" cx="122.35" cy="7.28" rx="9.11" ry="7.28"/><path class="cls-6" d="M121.64,61.8A37.1,37.1,0,0,1,88.17,40.72a37.09,37.09,0,1,0,66.94,0A37.1,37.1,0,0,1,121.64,61.8Z"/><ellipse class="cls-5" cx="121.64" cy="40.72" rx="33.47" ry="21.08"/><rect class="cls-3" x="113.39" y="12.03" width="17.92" height="10.06" rx="2.98"/><polygon class="cls-1" points="134.45 718.71 156.7 725.75 154.39 762.57 135.53 762.57 134.45 718.71"/><polygon class="cls-2" points="135.63 766.61 154.14 766.61 154.07 767.64 135.66 767.64 135.63 766.61"/><polygon class="cls-2" points="152.82 787.52 136.18 788.75 135.69 769.11 153.98 769.11 152.82 787.52"/><polygon class="cls-2" points="135.53 762.57 154.39 762.57 154.23 765.13 135.59 765.13 135.53 762.57"/><polygon class="cls-3" points="135.59 765.13 154.23 765.13 154.14 766.61 135.63 766.61 135.59 765.13"/><polygon class="cls-3" points="154.07 767.64 153.98 769.11 135.69 769.11 135.66 767.64 154.07 767.64"/><path class="cls-7" d="M58.25,386.1H186.5L158.41,734.67h-25l-6.26-269.18s-4.5-8.89-7.94.51l-6.26,268.67H88.18Z"/><path class="cls-2" d="M99.31,804.9a33.29,33.29,0,0,0-5.92,3.41c-9.59,3.36-38.6,6.53-38.6,6.53-3.89.75-10.51-1.83-13.5-3.12a14.52,14.52,0,0,0,.14,3.1s2.1,7,20.91,5.55c0,0,50.71-7.34,54.93-9.47,0,0,.27-3.52.24-7.86Z"/><path class="cls-7" d="M116,790.39s-3.45-7.07-3.4-8.65c0,0-.08-6-2.17-3.44,0,0-2.59,6.46-4.36,7,0,0-6.9-6-12.11-6.84a2.86,2.86,0,0,0-.52-.76c-7.72-7.38-10.91-4.89-10.91-4.89-3,.71-4.45,4.81-4.45,4.81a3.77,3.77,0,0,0-.25.72,10.59,10.59,0,0,0-5.19,2.77S66.83,796.35,56.47,801c0,0-9.57.6-12.51,3.93a10.88,10.88,0,0,0-2.58,5.92q-.06.42-.09.87c3,1.29,9.61,3.87,13.5,3.12,0,0,29-3.17,38.6-6.53a33.29,33.29,0,0,1,5.92-3.41l18.2-1.86c0-.17,0-.35,0-.52C117.45,798.34,117.1,793.53,116,790.39Z"/><path class="cls-2" d="M148.5,806.13a32.86,32.86,0,0,1,6.19,2.87c9.85,2.51,39,3.1,39,3.1,3.94.4,10.31-2.75,13.17-4.3a13.49,13.49,0,0,1,.13,3.1s-1.47,7.18-20.34,7.37c0,0-51.15-2.83-55.54-4.58,0,0-.58-3.49-.94-7.81Z"/><path class="cls-7" d="M130.61,793.15s2.81-7.36,2.62-8.92c0,0-.45-6,1.86-3.62,0,0,3.15,6.2,5,6.59,0,0,6.35-6.58,11.46-7.88a2.89,2.89,0,0,1,.45-.8c7-8,10.44-5.84,10.44-5.84,3,.45,4.86,4.4,4.86,4.4a3.4,3.4,0,0,1,.31.69,10.6,10.6,0,0,1,5.41,2.31s7.11,14.66,17.84,18.39c0,0,9.59-.25,12.81,2.81a10.83,10.83,0,0,1,3.1,5.66c.06.28.12.56.16.86-2.86,1.55-9.23,4.7-13.17,4.3,0,0-29.18-.59-39-3.1a32.86,32.86,0,0,0-6.19-2.87l-18.3-.25c0-.17,0-.35,0-.52C129.85,801.19,129.77,796.37,130.61,793.15Z"/><polygon class="cls-8" points="134.63 117.22 108.37 117.22 108.37 119.15 134.63 141.72 134.63 117.22"/><path class="cls-1" d="M108.37,119.15v27c0,6.24,5.88,11.29,13.13,11.29s13.13-5.05,13.13-11.29v-4.48Z"/><path class="cls-1" d="M150.43,93.67s8.26-9,6.28-17.77c0,0-2.05-5.27-6.09-2.34Z"/><path class="cls-1" d="M131.64,121h-20c-10.48,0-15.71-18.19-18.9-27.2l-.08-42.49a15,15,0,0,1,15-15h28a15,15,0,0,1,15,15V93.67C145.92,104.86,142.12,121,131.64,121Z"/><path class="cls-8" d="M117.71,87.67l3.5,2.82a.71.71,0,0,0,.87,0l3.65-2.82a.7.7,0,0,0-.44-1.26h-7.14A.7.7,0,0,0,117.71,87.67Z"/><path class="cls-8" d="M150.62,90.24s5.37-5.55,4.3-12.31c0,0-.72-4.36-4.3-1.66Z"/><path class="cls-1" d="M92.74,93.8s-8.15-8.75-6.17-17.54c0,0,2.05-5.27,6.09-2.35Z"/><path class="cls-8" d="M92.66,90.6s-5.37-5.55-4.3-12.31c0,0,.73-4.36,4.3-1.66Z"/><path class="cls-9" d="M129.12,60.78c1.94-3.34,5.7-4.18,9.14-2.77,1.12.45,1.61-1.37.5-1.82a8.86,8.86,0,0,0-11.26,3.64.94.94,0,0,0,1.62,1Z"/><path class="cls-9" d="M113.11,57.08a8.86,8.86,0,0,0-11.71,1.71c-.8.9.44,2.32,1.25,1.41,2.46-2.78,6.21-3.68,9.42-1.55a.94.94,0,0,0,1-1.57Z"/><path class="cls-10" d="M112.87,99.91s4.49,6.15,17.7,4.58l1-.13Z"/><path class="cls-9" d="M131.62,70.79c0,.11,0,.22,0,.33a3.21,3.21,0,1,0,6.41,0,1.86,1.86,0,0,0,0-.33Z"/><path class="cls-9" d="M103.19,71.12a3.21,3.21,0,1,0,6.41,0c0-.11,0-.22,0-.33h-6.34C103.21,70.9,103.19,71,103.19,71.12Z"/><path class="cls-11" d="M111.91,96.08a8.83,8.83,0,0,1,1.36.11c.06,0-.11-.37-.19-.54a5,5,0,1,0-7.25,6.37c.48.3,1.46.74,1.58.63s-.21-.81-.24-1.25A5,5,0,0,1,111.91,96.08Z"/><path class="cls-12" d="M127.72,75.75s1,5.92,7.14,5.64Z"/><path class="cls-12" d="M113.82,75.75s-1,5.92-7.14,5.64Z"/><path class="cls-13" d="M65.83,402.79s9.11,16,21.9-1.33l6.81-7s4.25,18.13-3.65,29.93A7.43,7.43,0,0,1,89.5,426c-3.5,2.94-16.84,12.93-23.16-.15C66.34,425.83,62.22,416.74,65.83,402.79Z"/><path class="cls-13" d="M177.74,403.69s-9,16.35-21.8-.95l-6.81-7s-4.26,18.12,3.64,29.92a7.24,7.24,0,0,0,1.4,1.61c3.49,2.95,16.84,12.93,23.16-.14C177.33,427.11,181.36,417.63,177.74,403.69Z"/><path class="cls-1" d="M86,394.74c-1.69-.65-3-1.52-6,.36h0l0,.08-5.09,7.43,5,1.91L83,402.39l5.22,12.67h0a2.82,2.82,0,0,0,3.61,1.31,2.89,2.89,0,0,0,1.62-3.53h0l-6-16.77L86,394.74"/><path class="cls-4" d="M88.37,413.93a2.76,2.76,0,0,0,3.17,1.91,2.41,2.41,0,0,0,1.24-3.29,3.06,3.06,0,0,0-.3-.6Z"/><path class="cls-14" d="M151.05,156,93.36,194.76S147.41,212.44,151.05,156Z"/><rect class="cls-1" x="190.16" y="246.4" width="24" height="178.25"/><path class="cls-1" d="M209.69,446l-.47.43A2.4,2.4,0,0,0,209.69,446Z"/><path class="cls-1" d="M190.16,407.79h24a0,0,0,0,1,0,0v27.29a5.3,5.3,0,0,1-5.3,5.3h-13.4a5.3,5.3,0,0,1-5.3-5.3V407.79A0,0,0,0,1,190.16,407.79Z"/><path class="cls-1" d="M191.31,428.26c1.39-.3,2.53-.84,4.6,1h0l0,.07L199,436l-4.14.92-2.14-2.1-5.57,9.54h0a2.16,2.16,0,0,1-3,.61,2.4,2.4,0,0,1-.83-3.05h0L190,429.15l1.3-.89"/><path class="cls-4" d="M187.17,443.41a2.14,2.14,0,0,1-2.69,1.15,2,2,0,0,1-.57-2.81,3.41,3.41,0,0,1,.3-.44Z"/><path class="cls-1" d="M192.07,459.65c.07,2.68,1.16,4.89,2.5,5s2.47-2,2.61-4.63l.27-23.73h-5.67Z"/><path class="cls-1" d="M197.92,461.07c.08,2.69,1.16,4.89,2.5,5s2.48-2,2.61-4.63l.28-23.73h-5.67Z"/><path class="cls-1" d="M203.72,458.64c.07,2.68,1.16,4.89,2.5,5s2.47-2,2.61-4.64l.27-23.73h-5.67Z"/><path class="cls-1" d="M209.46,453.54c.07,2.68,1,4.89,2.1,5s2.08-2,2.19-4.63l.23-23.73h-4.76Z"/><path class="cls-4" d="M196.38,461.3c.12,1.4-.59,2.65-1.58,2.8s-1.92-.87-2.05-2.27a4.28,4.28,0,0,1,0-.62Z"/><path class="cls-4" d="M202.28,462.75c.12,1.4-.58,2.65-1.58,2.8s-1.91-.87-2-2.27a3.21,3.21,0,0,1,0-.62Z"/><path class="cls-4" d="M208.08,460.25c.12,1.39-.59,2.64-1.58,2.79s-1.92-.86-2.05-2.27a4.14,4.14,0,0,1,0-.61Z"/><path class="cls-4" d="M213,455.75c.09,1.13-.46,2.14-1.23,2.27s-1.48-.7-1.58-1.84a4.17,4.17,0,0,1,0-.5Z"/><path class="cls-2" d="M138.84,141.72h-4.21v4.48c0,6.24-5.88,11.29-13.13,11.29s-13.13-5.05-13.13-11.29v-4.48h-3.92C67,141.72,45,172.12,45,209.62L36.55,386.1H206.73L196.59,209.62C196.59,172.12,176.33,141.72,138.84,141.72Z"/><polygon class="cls-14" points="54.17 171.22 4.54 236.26 42.1 270.25 54.17 171.22"/><polygon class="cls-14" points="187.48 171.22 237.12 236.26 199.56 270.25 187.48 171.22"/><path class="cls-1" d="M17.86,248.48,1.35,281.22a11,11,0,0,0,.21,10.91L65.83,402.79c4.49,9.84,17.4,9.64,21.3,2.82h0a10.27,10.27,0,0,0,.24-9.73l-55-108.27,9.5-17.42Z"/><path class="cls-14" d="M64.83,272,179.52,365S58.8,388.55,64.83,272Z"/></svg>