<svg id="Layer_1" data-name="Layer 1" xmlns="http://www.w3.org/2000/svg" viewBox="0 0 213.79 815.99"><defs><style>.cls-1{fill:#894f38;}.cls-2{fill:#ff0401;}.cls-3{fill:#c16d53;}.cls-4{fill:#020549;}.cls-5{fill:#f2f2f2;}.cls-6{fill:#fff;}.cls-7{fill:#723f2e;}.cls-8{fill:#000130;}.cls-9{fill:#4c290d;}.cls-10,.cls-11{fill:#603813;}.cls-10{opacity:0.2;}.cls-11{opacity:0.4;}.cls-12{fill:#4a59af;}</style></defs><title>Artboard 28</title><polygon class="cls-1" points="73.95 697.61 96.19 704.65 93.88 741.46 75.03 741.46 73.95 697.61"/><polygon class="cls-2" points="75.03 741.46 75.09 744.03 75.13 745.5 75.15 746.54 75.19 748.01 75.67 767.64 92.32 766.41 93.47 748.01 93.56 746.54 93.63 745.5 93.72 744.03 93.88 741.46 75.03 741.46"/><rect class="cls-1" x="14.07" y="240.05" width="28.23" height="178.25" transform="translate(56.37 658.35) rotate(-180)"/><path class="cls-1" d="M19.34,439.69l.54.43A2.84,2.84,0,0,1,19.34,439.69Z"/><path class="cls-1" d="M19.37,401.44H37a5.3,5.3,0,0,1,5.3,5.3V434a0,0,0,0,1,0,0H14.07a0,0,0,0,1,0,0V406.74A5.3,5.3,0,0,1,19.37,401.44Z" transform="translate(56.37 835.47) rotate(-180)"/><path class="cls-1" d="M41,421.91c-1.63-.3-3-.84-5.41,1h0l0,.07-3.6,6.61,4.87.92,2.52-2.1L45.84,438h0a2.84,2.84,0,0,0,3.49.61,2.22,2.22,0,0,0,1-3.05h0L42.49,422.8,41,421.91"/><path class="cls-3" d="M45.82,437.06A2.71,2.71,0,0,0,49,438.21a1.84,1.84,0,0,0,.68-2.81,3.83,3.83,0,0,0-.36-.44Z"/><path class="cls-1" d="M40.06,453.3c-.08,2.68-1.36,4.89-2.94,5s-2.91-2-3.07-4.63l-.32-23.73H40.4Z"/><path class="cls-1" d="M33.18,454.72c-.09,2.69-1.37,4.89-2.94,5s-2.92-2-3.08-4.63l-.32-23.73h6.67Z"/><path class="cls-1" d="M26.36,452.29c-.09,2.68-1.36,4.89-2.94,5s-2.91-2-3.07-4.64L20,428.9H26.7Z"/><path class="cls-1" d="M19.6,447.19c-.07,2.68-1.14,4.89-2.46,5s-2.44-2-2.58-4.63l-.27-23.74h5.59Z"/><path class="cls-3" d="M35,455a2.44,2.44,0,0,0,1.86,2.8,2.33,2.33,0,0,0,2.41-2.27,3.21,3.21,0,0,0,0-.62Z"/><path class="cls-3" d="M28.05,456.4a2.44,2.44,0,0,0,1.86,2.8,2.33,2.33,0,0,0,2.4-2.27,3.21,3.21,0,0,0,0-.62Z"/><path class="cls-3" d="M21.23,453.89a2.44,2.44,0,0,0,1.86,2.8,2.32,2.32,0,0,0,2.41-2.27,4.14,4.14,0,0,0,0-.61Z"/><path class="cls-3" d="M15.42,449.4a2,2,0,0,0,1.44,2.27,1.83,1.83,0,0,0,1.86-1.84,2.09,2.09,0,0,0,0-.5Z"/><polygon class="cls-1" points="118.89 697.61 141.14 704.65 138.83 741.46 119.97 741.46 118.89 697.61"/><polygon class="cls-2" points="119.97 741.46 120.03 744.03 120.07 745.5 120.1 746.54 120.13 748.01 120.62 767.64 137.26 766.41 138.42 748.01 138.51 746.54 138.58 745.5 138.67 744.03 138.83 741.46 119.97 741.46"/><path class="cls-4" d="M42.69,365H170.94l-24.8,385.3h-34.5l-.09-305.91s-4.5-8.9-7.94.5L100.19,750.3H64.39Z"/><path class="cls-5" d="M78.39,794.13,17.56,786.3l-1.76-.88-.75,1.44a2.12,2.12,0,0,0,1.6,3.08l64,8.36H91.86a3,3,0,0,0,3-3v-1.13Z"/><path d="M92.32,766.41l-16.65,1.24-9.28,4.4-45.67,9.61a7.2,7.2,0,0,0-4.52,3.07c-.13.21-.26.42-.38.64l0,0,1.76.88,60.83,7.83h16.5V788.3Z"/><path d="M120.62,767.65V795.3l9.4,5.75,56.37,11.75h0a7.41,7.41,0,0,0-2.62-10l-37.13-22.56-9.38-13.86Z"/><path class="cls-5" d="M120.62,795.3V799a3.84,3.84,0,0,0,2,3.38l6.77,3.66,52.44,9.87a3.86,3.86,0,0,0,4.37-2.56l.18-.56L130,801.05Z"/><path class="cls-6" d="M128.09,152.48a28.14,28.14,0,0,1-38.9,5.25l7,265,1.5.74,9.17,3.19,7.83-4.5L137.28,291Z"/><polygon class="cls-7" points="92.81 96.12 92.81 98.05 103.32 107.08 119.07 120.62 119.07 110.2 119.07 96.12 92.81 96.12"/><path class="cls-8" d="M89.19,157.73l-.83-31.59H63a30.7,30.7,0,0,0-30.7,30.71V382.48a14.43,14.43,0,0,0,8.09,13L96.15,422.7Z"/><path class="cls-1" d="M119,126.14c-.62,5.75-6.23,10.25-13.07,10.25s-12.45-4.5-13.07-10.25H88.36l.83,31.59a28.14,28.14,0,0,0,38.9-5.25l-1.75-26.34Z"/><path class="cls-1" d="M103.32,107.08l-10.51-9V125.1c0,.35,0,.7.06,1,.62,5.75,6.23,10.25,13.07,10.25s12.45-4.5,13.07-10.25c0-.34.06-.69.06-1v-4.48Z"/><path class="cls-8" d="M148,126.14H126.34l1.75,26.34L137.28,291,114.65,422.13l.37,1.56,58-27.74a16.44,16.44,0,0,0,9.34-14.82V160.58A34.44,34.44,0,0,0,148,126.14Z"/><ellipse cx="106.08" cy="39.33" rx="35.38" ry="39.33"/><path class="cls-1" d="M134.87,72.57s8.26-9,6.28-17.77c0,0-2.05-5.27-6.09-2.35Z"/><path class="cls-1" d="M116.08,101.89h-20c-9,0-14.12-11.55-17.41-19.94a22,22,0,0,1-1.49-8L77.1,30.2a15,15,0,0,1,15-15h28a15,15,0,0,1,15,15l-.17,44A23.86,23.86,0,0,1,133,83.31C129.37,91.88,125.23,101.47,116.08,101.89Z"/><path class="cls-7" d="M102.15,66.57l3.5,2.81a.69.69,0,0,0,.87,0l3.65-2.81a.71.71,0,0,0-.44-1.27h-7.14A.71.71,0,0,0,102.15,66.57Z"/><path class="cls-7" d="M135.06,69.14s5.37-5.55,4.3-12.31c0,0-.72-4.36-4.3-1.66Z"/><path class="cls-1" d="M77.18,72.7S69,63.94,71,55.15c0,0,2.06-5.27,6.09-2.34Z"/><path class="cls-7" d="M77.1,69.49s-5.37-5.55-4.3-12.31c0,0,.73-4.36,4.3-1.66Z"/><path class="cls-9" d="M97.31,78.8S101.8,85,115,83.39l1-.13Z"/><path class="cls-10" d="M96.35,75a7.57,7.57,0,0,1,1.36.12c.06,0-.11-.37-.19-.54a5,5,0,1,0-7.25,6.37c.48.29,1.46.74,1.58.63s-.21-.82-.24-1.26A5,5,0,0,1,96.35,75Z"/><path class="cls-11" d="M114.27,54.64s1.24,7.5,9,7.14Z"/><path class="cls-11" d="M113.42,85.53s-7.68,7.37-16.13.43Z"/><path class="cls-11" d="M121.79,80s1.91,5.7-3.66,8.33Z"/><path class="cls-11" d="M95.68,54.64s-1.24,7.5-9,7.14Z"/><circle cx="118.48" cy="48.79" r="3.13"/><circle cx="90.72" cy="48.79" r="3.13"/><path d="M115.34,36.89c3-2.27,6.72-1.61,9.28,1,.84.83,2-.62,1.14-1.45a8.66,8.66,0,0,0-11.52-1,.92.92,0,0,0,1.1,1.47Z"/><path d="M97.17,38a8.65,8.65,0,0,0-10.85-4c-1.1.39-.7,2.19.41,1.79,3.42-1.23,7.06-.25,8.81,3.09A.92.92,0,0,0,97.17,38Z"/><path d="M114.27,101.89H96.08l5.81-13.4s4.6,1.05,7.81-.6Z"/><polygon class="cls-12" points="90.13 193.63 92.87 126.14 92.87 115.3 74.39 115.3 63.03 126.14 80.06 134.3 90.13 193.63"/><polygon class="cls-12" points="130.83 190.29 119.07 125.1 119.07 114.63 143.23 115.3 155.38 126.94 140.9 130.95 130.83 190.29"/><path class="cls-8" d="M213.41,251.63c-5.18-62.27-23-96-23-96-12.09-19.45-29.38-26.2-29.38-26.2l7.45,208.47.63,17.67c3.39,4.79,6.93,7.43,10.35,8.67,11,4,20.74-6.32,20.74-6.32C217.3,334.84,213.41,251.63,213.41,251.63Z"/><path class="cls-8" d="M.38,276.08c5.18-74.74,23-115.17,23-115.17,12.09-23.35,29.38-31.45,29.38-31.45L45.34,379.64l-.63,21.2c-3.39,5.76-6.93,8.92-10.35,10.42-11,4.8-20.74-7.6-20.74-7.6C-3.51,375.93.38,276.08.38,276.08Z"/></svg>