<svg id="Layer_1" data-name="Layer 1" xmlns="http://www.w3.org/2000/svg" viewBox="0 0 168.32 714.95"><defs><style>.cls-1{fill:#727272;}.cls-2{fill:#ceac8e;}.cls-3{fill:#894f38;}.cls-4{fill:#f2f2f2;}.cls-5{fill:#c69c6d;}.cls-6{fill:#6d6d6d;}.cls-7{fill:#ccc;}.cls-8{fill:#3d426d;}.cls-9{fill:#a6b75c;}.cls-10{fill:#5387d3;}.cls-11{fill:#230e00;}.cls-12,.cls-13{fill:#a67c52;}.cls-13{opacity:0.4;}.cls-14{fill:#934145;}.cls-15{opacity:0.1;}</style></defs><title>marc</title><path class="cls-1" d="M105.21,104.73s5.63,20.54-21,21.55-23.06-20.71-23.06-20.71-32.46,12.05-32.46,26.92v66.19l110-1.65V132.49C138.72,117.62,105.21,104.73,105.21,104.73Z"/><path class="cls-2" d="M61.15,105.57s17-3.45,23.25-3.45,22.87,3.45,22.87,3.45,5.91,30.67-22.78,29.71S61.15,105.57,61.15,105.57Z"/><polygon class="cls-3" points="90.81 592.97 109.92 600.5 107.94 639.89 91.73 639.89 90.81 592.97"/><polygon class="cls-4" points="91.73 639.89 91.79 642.63 91.82 644.21 91.84 645.32 91.87 646.89 92.29 667.9 106.59 666.58 107.58 646.89 107.66 645.32 107.72 644.21 107.8 642.63 107.94 639.89 91.73 639.89"/><polygon class="cls-2" points="4.41 358.49 28.67 358.49 28.67 213.7 14.43 213.7 4.41 358.49"/><path class="cls-2" d="M8.94,381.36l.47.47A2.33,2.33,0,0,1,8.94,381.36Z"/><path class="cls-2" d="M9.28,340.44H23.8a4.86,4.86,0,0,1,4.86,4.86v30a0,0,0,0,1,0,0H4.41a0,0,0,0,1,0,0v-30a4.86,4.86,0,0,1,4.86-4.86Z" transform="translate(33.08 715.76) rotate(-180)"/><path class="cls-2" d="M27.51,362.35c-1.41-.33-2.56-.91-4.65,1.11h0l0,.07-3.09,7.07,4.18,1,2.17-2.24,5.62,10.21h0a2.12,2.12,0,0,0,3,.65,2.67,2.67,0,0,0,.85-3.26h0L28.83,363.3l-1.32-.95"/><path class="cls-5" d="M31.69,378.55a2.12,2.12,0,0,0,2.72,1.23,2.23,2.23,0,0,0,.58-3,3.19,3.19,0,0,0-.31-.47Z"/><path class="cls-2" d="M26.74,395.93c-.07,2.87-1.17,5.23-2.52,5.33s-2.5-2.1-2.64-5l-.28-25.39H27Z"/><path class="cls-2" d="M20.83,397.45c-.08,2.87-1.17,5.23-2.53,5.33s-2.5-2.1-2.64-5l-.27-25.39h5.73Z"/><path class="cls-2" d="M15,394.84c-.07,2.88-1.17,5.24-2.53,5.34s-2.5-2.1-2.63-5l-.28-25.39h5.73Z"/><path class="cls-2" d="M9.16,389.39c-.06,2.87-1,5.23-2.11,5.33s-2.1-2.1-2.22-5L4.6,364.37H9.41Z"/><path class="cls-5" d="M22.39,397.7c-.12,1.49.59,2.83,1.6,3s1.93-.93,2.06-2.43a3.64,3.64,0,0,0,0-.66Z"/><path class="cls-5" d="M16.42,399.25c-.12,1.49.59,2.83,1.6,3s1.93-.93,2.06-2.43a3.64,3.64,0,0,0,0-.66Z"/><path class="cls-5" d="M10.56,396.57c-.12,1.49.6,2.83,1.6,3s1.94-.93,2.07-2.43a4.85,4.85,0,0,0,0-.66Z"/><path class="cls-5" d="M5.57,391.76c-.09,1.21.46,2.29,1.24,2.42s1.5-.75,1.6-2a4.51,4.51,0,0,0,0-.52Z"/><polygon class="cls-3" points="73.68 592.97 54.57 600.5 56.55 639.89 72.76 639.89 73.68 592.97"/><polygon class="cls-4" points="72.76 639.89 72.7 642.63 72.67 644.21 72.65 645.32 72.62 646.89 72.2 667.9 57.9 666.58 56.91 646.89 56.83 645.32 56.77 644.21 56.69 642.63 56.55 639.89 72.76 639.89"/><path class="cls-6" d="M11.68,702.58c.49,1.38,3.34,6.8,17.86,7,0,0,40.16-2.49,48-4.22a1.66,1.66,0,0,0,1.21-1.43c.13-1,.33-2.71.51-4.69.09-1,.16-1.92.16-1.92l-16.12.25-.06,0a28.25,28.25,0,0,0-5.41,2.8s0,0-.07,0c-8.73,2.47-34.42,3.06-34.42,3.06-2.71.31-6.71-1.51-9.55-3.05-1-.57-2.13-2.5-2.08-1.2"/><path class="cls-7" d="M79.05,684.73a.14.14,0,0,0,0-.07c-.18-.53-2.46-7.3-2.3-8.79,0,0,.4-5.92-1.64-3.57,0,0-2.61,5.74-4.22,6.45a.25.25,0,0,1-.26-.06c-.76-.86-5.41-6-9.45-7.49a1.59,1.59,0,0,1-.82-.76,1.48,1.48,0,0,0-.15-.22C54,662.28,51,664.45,51,664.45c-2.66.45-4.29,4.35-4.29,4.35a4.14,4.14,0,0,0-.27.69,9,9,0,0,0-4.52,2,1.69,1.69,0,0,0-.4.55c-1,2.13-7,14.48-15.58,17.86h-.07c-.58,0-8.53-.13-11.27,2.79a11,11,0,0,0-2.73,5.6c-.06.27-.11.55-.15.85,2.53,1.53,8.15,4.65,11.63,4.25,0,0,25.69-.59,34.42-3.06,0,0,0,0,.07,0a28.25,28.25,0,0,1,5.41-2.8l.06,0,16.12-.25,0-.51C79.72,692.67,79.79,687.92,79.05,684.73Z"/><path class="cls-6" d="M159.3,702.58c-.49,1.38-3.34,6.8-17.86,7,0,0-40.16-2.49-48-4.22a1.64,1.64,0,0,1-1.21-1.43c-.13-1-.33-2.71-.51-4.69-.09-1-.16-1.92-.16-1.92l16.12.25.06,0a28.25,28.25,0,0,1,5.41,2.8s0,0,.07,0c8.73,2.47,34.42,3.06,34.42,3.06,2.71.31,6.71-1.51,9.54-3.05,1.05-.57,2.14-2.5,2.09-1.2"/><path class="cls-7" d="M91.93,684.73a.14.14,0,0,1,0-.07c.18-.53,2.46-7.3,2.3-8.79,0,0-.4-5.92,1.64-3.57,0,0,2.61,5.74,4.22,6.45a.25.25,0,0,0,.26-.06c.76-.86,5.41-6,9.45-7.49a1.63,1.63,0,0,0,.82-.76,2.32,2.32,0,0,1,.14-.22c6.22-7.94,9.22-5.77,9.22-5.77,2.66.45,4.29,4.35,4.29,4.35a4.14,4.14,0,0,1,.27.69,9,9,0,0,1,4.52,2,1.69,1.69,0,0,1,.4.55c1,2.13,7,14.48,15.58,17.86h.07c.58,0,8.53-.13,11.27,2.79a11,11,0,0,1,2.73,5.6c.06.27.11.55.15.85-2.53,1.53-8.15,4.65-11.63,4.25,0,0-25.69-.59-34.42-3.06,0,0,0,0-.07,0a28.25,28.25,0,0,0-5.41-2.8l-.06,0-16.12-.25,0-.51C91.26,692.67,91.19,687.92,91.93,684.73Z"/><path class="cls-8" d="M29,307.21,137.86,311l-4.15,359.31c0,9.27-46,20.27-45.73,5.9l.18-284s-3.87-9.52-6.82.54c0,0-4.16,262.38-2.9,283.48S36.79,671,36.79,671Z"/><path class="cls-9" d="M105.21,104.73s5.63,20.54-21,21.55-23.06-20.71-23.06-20.71-32.46,12.05-32.46,26.92V339.15c0,3.68,2.39,6.66,5.34,6.66h99.34c3,0,5.35-3,5.35-6.66V132.49C138.72,117.62,105.21,104.73,105.21,104.73Z"/><path class="cls-10" d="M105.21,104.73s5.63,20.54-21,21.55-23.06-20.71-23.06-20.71-2.32.86-5.74,2.41c-9.32,4.25.27,23.54,29.9,22.44s34.17-19.33,24.85-23.58C107.17,105.49,105.21,104.73,105.21,104.73Z"/><path class="cls-11" d="M115.22,38.32c3.23,34.94-14.23,61.75-34.81,61.75S45.23,66.61,49.89,38.33C53.23,18,60.11,0,80.7,0S113.32,17.82,115.22,38.32Z"/><polygon class="cls-12" points="88.28 106.84 94.81 106.84 94.81 102.93 94.81 90.05 70.8 90.05 70.8 91.81 80.41 100.07 88.28 106.84"/><polygon class="cls-2" points="80.41 100.07 70.8 91.81 70.8 102.93 70.8 108.54 94.81 106.84 80.41 100.07"/><path class="cls-2" d="M108.56,65.43s7.56-8.21,5.75-16.25c0,0-1.88-4.82-5.57-2.14Z"/><path class="cls-11" d="M66.54,93.17a8.41,8.41,0,0,1-11.13.72A8.39,8.39,0,1,0,69.16,85a7.59,7.59,0,0,0-.75-.65A8.4,8.4,0,0,1,66.54,93.17Z"/><path class="cls-11" d="M99,91.44a8.38,8.38,0,0,1,5.8-9.51,8.31,8.31,0,0,0-3.59-.14,8.4,8.4,0,1,0,3,16.52c.33-.06.65-.15,1-.24A8.4,8.4,0,0,1,99,91.44Z"/><path class="cls-11" d="M99,85a8.4,8.4,0,0,1,5.8-9.52,8.39,8.39,0,1,0-.59,16.38,8.08,8.08,0,0,0,1-.24A8.39,8.39,0,0,1,99,85Z"/><path class="cls-2" d="M91.38,94H73.1c-8.23,0-12.66-12.81-14.81-17.68-1-2.29-2.48-7.13-2.48-9.63l-.07-40A13.71,13.71,0,0,1,69.45,13H95a13.71,13.71,0,0,1,13.71,13.71l-.16,40.21c0,2.87-2.26,9.52-3.37,12.17C101.88,86.9,99.75,92.85,91.38,94Z"/><path class="cls-13" d="M108.74,62.29s4.91-5.07,3.93-11.25c0,0-.66-4-3.93-1.52Z"/><path class="cls-2" d="M55.81,65.55s-7.45-8-5.64-16c0,0,1.88-4.82,5.57-2.15Z"/><path class="cls-13" d="M55.74,62.62s-4.91-5.08-3.94-11.26c0,0,.67-4,3.94-1.51Z"/><path class="cls-13" d="M78.64,66l3.2,2.58a.65.65,0,0,0,.8,0L86,66a.65.65,0,0,0-.39-1.16H79A.65.65,0,0,0,78.64,66Z"/><path class="cls-14" d="M73.93,79.07s5.24,4.58,16.71.53l.84-.31Z"/><circle cx="93.58" cy="49.69" r="2.86"/><circle cx="68.19" cy="49.69" r="2.86"/><path d="M90.71,38.81c2.75-2.08,6.14-1.47,8.49.87.76.77,1.79-.56,1-1.32a7.92,7.92,0,0,0-10.54-.89.84.84,0,0,0,1,1.34Z"/><path d="M74.15,37a7.93,7.93,0,0,0-10.41,1.87c-.68.83.47,2.06,1.16,1.22,2.12-2.55,5.45-3.47,8.37-1.66A.84.84,0,0,0,74.15,37Z"/><path class="cls-11" d="M63.57,11.25s38.75,11,42.91,26.64l2.26,21,2.05-11.47-1.47-28.32L98,7.59Z"/><path class="cls-11" d="M97,13.23S87.6,30.78,72.6,34.6l3.79-14.66S59.22,34.42,55.67,53.48L54.81,23.2l8.76-15Z"/><path class="cls-15" d="M37.11,226.11s31.75,17,94.58,39.27l-8.07,2.84c-38.68,13.61-82.27-7.61-86.51-42.11Z"/><path class="cls-9" d="M35.3,120.43s-19,23.32-21.84,40.7L0,343.18l35.11,9.53S38.77,117.28,35.3,120.43Z"/><polygon class="cls-2" points="160.99 355.88 136.74 355.88 136.74 211.1 150.98 211.1 160.99 355.88"/><path class="cls-2" d="M156.46,378.76l-.46.47A3.41,3.41,0,0,0,156.46,378.76Z"/><path class="cls-2" d="M136.74,337.84H161a0,0,0,0,1,0,0v30a4.86,4.86,0,0,1-4.86,4.86H141.6a4.86,4.86,0,0,1-4.86-4.86v-30A0,0,0,0,1,136.74,337.84Z"/><path class="cls-2" d="M137.9,359.74c1.4-.33,2.55-.9,4.65,1.11h0l0,.07,3.1,7.07-4.19,1-2.16-2.25-5.63,10.21h0a2.11,2.11,0,0,1-3,.66,2.67,2.67,0,0,1-.84-3.26h0l6.72-13.65,1.32-.95"/><path class="cls-5" d="M133.71,376a2.12,2.12,0,0,1-2.72,1.23,2.22,2.22,0,0,1-.57-3,2.59,2.59,0,0,1,.3-.48Z"/><path class="cls-2" d="M138.66,393.32c.07,2.88,1.17,5.24,2.53,5.33s2.5-2.1,2.63-5l.28-25.39h-5.73Z"/><path class="cls-2" d="M144.58,394.84c.07,2.88,1.17,5.24,2.52,5.34s2.5-2.1,2.64-5l.28-25.39h-5.73Z"/><path class="cls-2" d="M150.43,392.24c.08,2.87,1.17,5.23,2.53,5.33s2.5-2.1,2.64-5l.27-25.39h-5.73Z"/><path class="cls-2" d="M156.24,386.78c.06,2.88,1,5.24,2.12,5.34s2.09-2.1,2.21-5l.23-25.39H156Z"/><path class="cls-5" d="M143,395.09c.11,1.5-.6,2.83-1.6,3s-1.94-.92-2.07-2.43a4.7,4.7,0,0,1,0-.65Z"/><path class="cls-5" d="M149,396.64c.12,1.5-.59,2.83-1.59,3s-1.94-.93-2.07-2.44a3.53,3.53,0,0,1,0-.65Z"/><path class="cls-5" d="M154.84,394c.12,1.5-.59,2.83-1.6,3s-1.94-.92-2.07-2.43a3.52,3.52,0,0,1,0-.65Z"/><path class="cls-5" d="M159.83,389.16c.09,1.2-.46,2.29-1.24,2.42s-1.5-.75-1.6-2a3.11,3.11,0,0,1,0-.53Z"/><path class="cls-9" d="M132.76,121.12s19.31,23.49,22.1,40.87L168.32,344l-35.11,9.53S129.3,118,132.76,121.12Z"/><path class="cls-15" d="M104.38,163.1s-19.95,12.18-58.61,26.71l4.56,3c20,3,48.64-3.24,54.05-29.7Z"/><polygon class="cls-10" points="133.21 353.57 168.32 344.04 166.85 324.14 133.03 342.23 133.21 353.57"/><polygon class="cls-10" points="0 343.18 1.54 322.38 35.3 337.84 35.11 352.71 0 343.18"/></svg>