<svg width="100" height="100" viewBox="0 0 100 100" fill="none" xmlns="http://www.w3.org/2000/svg">
<g clip-path="url(#clip0)">
<path d="M72.4868 47.544H51.3228V26.4913C51.3228 25.4387 50.441 24.5615 49.3828 24.5615C48.3246 24.5615 47.4427 25.4387 47.4427 26.4913V47.7194H26.6314C25.5732 47.7194 24.6914 48.5966 24.6914 49.6492C24.6914 50.7019 25.5732 51.5791 26.6314 51.5791H47.6191V72.4563C47.6191 73.5089 48.5009 74.3861 49.5591 74.3861C50.6173 74.3861 51.4992 73.5089 51.4992 72.4563V51.4036H72.8396C73.8978 51.4036 74.7796 50.5264 74.7796 49.4738C74.7796 48.4212 73.545 47.544 72.4868 47.544Z" fill="#09357A"/>
</g>
<path d="M49.9118 3.50877C75.485 3.50877 96.2963 24.2105 96.2963 49.6491C96.2963 75.0877 75.6614 95.9649 49.9118 95.9649C24.1623 95.9649 3.52734 75.2632 3.52734 49.6491C3.52734 24.0351 24.3386 3.50877 49.9118 3.50877ZM49.9118 0C22.3986 0 0 22.2807 0 49.6491C0 77.0175 22.3986 99.2982 49.9118 99.2982C77.425 99.2982 100 77.193 100 49.6491C100 22.1053 77.6014 0 49.9118 0Z" fill="#09357A"/>
<defs>
<clipPath id="clip0">
<rect width="49.7355" height="49.4737" fill="white" transform="translate(24.6914 24.5615)"/>
</clipPath>
</defs>
</svg>
