<svg width="92" height="95" viewBox="0 0 92 95" fill="none" xmlns="http://www.w3.org/2000/svg">
<path d="M35.2208 40.5757L30.5112 42.2549L31.8546 46.0226L36.5642 44.3434L35.2208 40.5757Z" fill="white"/>
<path d="M79.7536 37.438L75.0439 39.1172L76.3873 42.8849L81.0969 41.2057L79.7536 37.438Z" fill="white"/>
<path d="M66.7716 36.7583L62.062 38.4375L63.7412 43.1471L68.4508 41.4679L66.7716 36.7583Z" fill="white"/>
<path d="M56.1403 42.6722C55.6754 41.3681 54.8065 40.241 53.6437 39.4335C52.4808 38.626 51.0762 38.1743 49.6074 38.1355C48.1387 38.0967 46.6717 38.4725 45.392 39.2155C44.1124 39.9585 43.0775 41.0353 42.4183 42.3097C41.7591 43.584 41.5052 44.9988 41.6886 46.3749C41.872 47.7511 42.4846 49.027 43.4489 50.0411C44.4131 51.0553 45.6857 51.7622 47.1058 52.0725C48.5258 52.3828 50.0295 52.2825 51.4267 51.7844C53.3003 51.1163 54.8495 49.781 55.7335 48.0721C56.6174 46.3633 56.7638 44.4208 56.1403 42.6722ZM46.7211 46.0305C46.5661 45.5958 46.5527 45.1216 46.6826 44.668C46.8125 44.2143 47.0798 43.8014 47.4508 43.4817C47.8218 43.1619 48.2797 42.9496 48.7667 42.8715C49.2538 42.7935 49.748 42.8532 50.1869 43.0431C50.6258 43.2331 50.9897 43.5447 51.2326 43.9387C51.4754 44.3326 51.5864 44.7912 51.5513 45.2563C51.5163 45.7214 51.3368 46.1723 51.0357 46.5519C50.7346 46.9314 50.3252 47.2227 49.8595 47.3887C49.235 47.6114 48.5535 47.5934 47.9649 47.3387C47.3763 47.084 46.9289 46.6134 46.7211 46.0305Z" fill="white"/>
<path d="M20.8837 58.4274C22.2809 57.9293 23.499 57.028 24.3839 55.8375C25.2689 54.6471 25.781 53.2209 25.8554 51.7394C25.9299 50.258 25.5634 48.7877 24.8022 47.5145C24.041 46.2413 22.9194 45.2224 21.5792 44.5867C20.2389 43.951 18.7403 43.727 17.2727 43.943C15.8052 44.159 14.4347 44.8053 13.3344 45.8003C12.2342 46.7952 11.4538 48.094 11.0917 49.5325C10.7297 50.971 10.8023 52.4846 11.3005 53.8818C11.9685 55.7554 13.3534 57.2869 15.1506 58.1394C16.9478 58.9918 19.0101 59.0955 20.8837 58.4274ZM17.5253 49.0082C17.9911 48.8422 18.4956 48.818 18.9751 48.9386C19.4546 49.0593 19.8875 49.3195 20.2192 49.6862C20.5508 50.053 20.7663 50.5098 20.8383 50.999C20.9103 51.4882 20.8356 51.9877 20.6237 52.4345C20.4118 52.8812 20.0721 53.2551 19.6478 53.5088C19.2234 53.7625 18.7333 53.8847 18.2394 53.8599C17.7456 53.8351 17.2702 53.6644 16.8734 53.3694C16.4766 53.0744 16.1762 52.6684 16.0101 52.2026C15.7874 51.5781 15.822 50.8907 16.1061 50.2916C16.3903 49.6926 16.9008 49.2309 17.5253 49.0082Z" fill="white"/>
<path d="M51.3409 85.7882C52.645 85.3233 53.772 84.4544 54.5796 83.2916C55.3871 82.1288 55.8388 80.7241 55.8776 79.2554C55.9164 77.7866 55.5405 76.3196 54.7975 75.04C54.0545 73.7603 52.9778 72.7254 51.7034 72.0662C50.429 71.407 49.0143 71.1531 47.6381 71.3365C46.2619 71.52 44.9861 72.1325 43.9719 73.0968C42.9578 74.061 42.2509 75.3337 41.9406 76.7537C41.6303 78.1738 41.7306 79.6775 42.2287 81.0747C42.8967 82.9483 44.2321 84.4974 45.9409 85.3814C47.6498 86.2654 49.5922 86.4117 51.3409 85.7882ZM47.9826 76.369C48.4173 76.214 48.8914 76.2006 49.3451 76.3305C49.7988 76.4604 50.2116 76.7277 50.5314 77.0987C50.8511 77.4697 51.0635 77.9277 51.1415 78.4147C51.2196 78.9017 51.1599 79.3959 50.9699 79.8348C50.78 80.2737 50.4683 80.6376 50.0744 80.8805C49.6805 81.1234 49.2219 81.2343 48.7568 81.1993C48.2916 81.1642 47.8408 80.9848 47.4612 80.6836C47.0816 80.3825 46.7904 79.9732 46.6243 79.5074C46.4017 78.8829 46.4197 78.2014 46.6744 77.6128C46.9291 77.0243 47.3997 76.5769 47.9826 76.369Z" fill="white"/>
<path d="M31.974 74.6447C32.5985 74.4221 33.109 73.9604 33.3932 73.3613C33.6773 72.7623 33.7119 72.0749 33.4892 71.4503L32.6496 69.0955L35.0044 68.256C35.629 68.0333 36.1395 67.5716 36.4236 66.9726C36.7078 66.3735 36.7423 65.6861 36.5196 65.0616C36.297 64.437 35.8353 63.9265 35.2363 63.6424C34.6372 63.3582 33.9498 63.3237 33.3253 63.5463L30.9705 64.3859L30.1309 62.0311C29.9082 61.4066 29.4465 60.8961 28.8475 60.6119C28.2484 60.3278 27.561 60.2932 26.9365 60.5159C26.3119 60.7386 25.8014 61.2002 25.5173 61.7993C25.2331 62.3984 25.1986 63.0858 25.4213 63.7103L26.2608 66.0651L23.906 66.9047C23.2815 67.1274 22.771 67.589 22.4869 68.1881C22.2027 68.7871 22.1682 69.4745 22.3908 70.0991C22.6135 70.7236 23.0751 71.2341 23.6742 71.5183C24.2733 71.8024 24.9607 71.837 25.5852 71.6143L27.94 70.7747L28.7796 73.1295C29.0023 73.754 29.4639 74.2645 30.063 74.5487C30.662 74.8329 31.3495 74.8674 31.974 74.6447Z" fill="white"/>
<path d="M20.1829 27.1815L22.3807 26.3979L23.1643 28.5957C23.3721 29.1786 23.803 29.655 24.3621 29.9203C24.9212 30.1855 25.5628 30.2177 26.1457 30.0099C26.7286 29.8021 27.2051 29.3712 27.4703 28.8121C27.7355 28.2529 27.7677 27.6114 27.5599 27.0285L26.7763 24.8306L28.9741 24.047C29.557 23.8392 30.0335 23.4083 30.2987 22.8492C30.5639 22.2901 30.5961 21.6485 30.3883 21.0656C30.1805 20.4827 29.7496 20.0062 29.1905 19.741C28.6314 19.4758 27.9898 19.4436 27.4069 19.6514L25.2091 20.435L24.4255 18.2372C24.2176 17.6543 23.7868 17.1778 23.2276 16.9126C22.6685 16.6474 22.0269 16.6152 21.444 16.823C20.8611 17.0308 20.3847 17.4617 20.1195 18.0208C19.8542 18.5799 19.822 19.2215 20.0298 19.8044L20.8134 22.0022L18.6156 22.7858C18.0327 22.9937 17.5563 23.4245 17.2911 23.9837C17.0258 24.5428 16.9936 25.1844 17.2014 25.7673C17.4093 26.3502 17.8401 26.8266 18.3992 27.0919C18.9584 27.3571 19.6 27.3893 20.1829 27.1815Z" fill="white"/>
</svg>
