<svg width="96" height="98" viewBox="0 0 96 98" fill="none" xmlns="http://www.w3.org/2000/svg">
<path d="M59.5748 42.4163L64.1484 44.4365L62.5322 48.0955L57.9585 46.0752L59.5748 42.4163Z" fill="white"/>
<path d="M41.9422 57.5854L47.4307 60.0098L45.4104 64.5834L39.922 62.1591L41.9422 57.5854Z" fill="white"/>
<path d="M15.3921 36.0188L19.9658 38.0391L18.3496 41.698L13.7759 39.6777L15.3921 36.0188Z" fill="white"/>
<path d="M28.3892 36.2937L32.9629 38.314L30.9426 42.8876L26.3689 40.8674L28.3892 36.2937Z" fill="white"/>
<path d="M38.558 42.9718C39.1174 41.7053 40.0666 40.6451 41.2856 39.9251C42.5045 39.2051 43.9385 38.8576 45.4062 38.9267C46.8739 38.9958 48.3093 39.4783 49.531 40.3132C50.7527 41.1481 51.7057 42.2979 52.2696 43.6173C52.8335 44.9366 52.9829 46.3661 52.699 47.7251C52.4151 49.0841 51.7105 50.3116 50.6745 51.2522C49.6384 52.1929 48.3173 52.8045 46.8783 53.0098C45.4393 53.215 43.947 53.0047 42.5902 52.4053C40.7706 51.6016 39.3236 50.1562 38.5675 48.387C37.8113 46.6179 37.8079 44.67 38.558 42.9718ZM47.7054 47.0123C47.8918 46.5901 47.94 46.1182 47.8438 45.6562C47.7475 45.1943 47.5112 44.7629 47.1647 44.4168C46.8182 44.0707 46.377 43.8253 45.8971 43.7117C45.4171 43.5981 44.9198 43.6214 44.4681 43.7786C44.0165 43.9359 43.6307 44.22 43.3596 44.595C43.0884 44.9701 42.9442 45.4192 42.945 45.8857C42.9458 46.3522 43.0917 46.815 43.3641 47.2156C43.6366 47.6163 44.0234 47.9367 44.4757 48.1365C45.0822 48.4044 45.7632 48.4365 46.3689 48.2257C46.9746 48.0148 47.4553 47.5784 47.7054 47.0123Z" fill="white"/>
<path d="M72.5636 61.2722C71.2067 60.6728 70.058 59.6846 69.2628 58.4324C68.4675 57.1802 68.0615 55.7203 68.096 54.2374C68.1305 52.7544 68.6039 51.315 69.4565 50.1011C70.309 48.8872 71.5024 47.9534 72.8856 47.4177C74.2689 46.8821 75.78 46.7686 77.2277 47.0918C78.6754 47.4149 79.9948 48.1601 81.0191 49.2331C82.0433 50.306 82.7264 51.6587 82.9819 53.1199C83.2374 54.581 83.0538 56.0852 82.4545 57.4421C81.6508 59.2616 80.1572 60.6873 78.3023 61.4056C76.4473 62.1239 74.3831 62.0759 72.5636 61.2722ZM76.6041 52.1248C76.1518 51.925 75.6504 51.8639 75.1633 51.949C74.6763 52.0342 74.2254 52.2619 73.8677 52.6033C73.5101 52.9447 73.2617 53.3845 73.154 53.8671C73.0463 54.3497 73.0841 54.8533 73.2626 55.3144C73.4412 55.7755 73.7525 56.1733 74.1571 56.4575C74.5617 56.7417 75.0415 56.8995 75.5358 56.911C76.0302 56.9225 76.5168 56.7871 76.9342 56.5221C77.3516 56.257 77.681 55.8741 77.8808 55.4218C78.1487 54.8153 78.1647 54.1272 77.9253 53.5089C77.6858 52.8906 77.2106 52.3927 76.6041 52.1248Z" fill="white"/>
<path d="M40.1801 86.3238C38.9137 85.7644 37.8534 84.8152 37.1334 83.5963C36.4134 82.3773 36.066 80.9433 36.1351 79.4756C36.2042 78.008 36.6867 76.5725 37.5216 75.3509C38.3565 74.1292 39.5063 73.1761 40.8256 72.6122C42.1449 72.0483 43.5745 71.8989 44.9335 72.1828C46.2925 72.4668 47.5199 73.1713 48.4606 74.2074C49.4013 75.2435 50.0129 76.5645 50.2181 78.0035C50.4234 79.4425 50.213 80.9348 49.6136 82.2917C48.8099 84.1112 47.3645 85.5582 45.5954 86.3144C43.8263 87.0706 41.8783 87.074 40.1801 86.3238ZM44.2206 77.1765C43.7985 76.99 43.3266 76.9418 42.8646 77.0381C42.4026 77.1343 41.9713 77.3706 41.6251 77.7171C41.279 78.0637 41.0336 78.5048 40.9201 78.9848C40.8065 79.4648 40.8298 79.962 40.987 80.4137C41.1442 80.8654 41.4283 81.2512 41.8034 81.5223C42.1784 81.7934 42.6276 81.9377 43.0941 81.9369C43.5605 81.936 44.0233 81.7902 44.424 81.5177C44.8246 81.2452 45.1451 80.8584 45.3449 80.4061C45.6128 79.7996 45.6448 79.1186 45.434 78.5129C45.2232 77.9072 44.7867 77.4265 44.2206 77.1765Z" fill="white"/>
<path d="M60.3126 76.632C59.7061 76.3641 59.2308 75.8663 58.9914 75.248C58.752 74.6297 58.768 73.9416 59.0359 73.3351L60.046 71.0482L57.7592 70.0381C57.1527 69.7702 56.6774 69.2723 56.438 68.654C56.1986 68.0357 56.2146 67.3476 56.4825 66.7411C56.7504 66.1346 57.2482 65.6594 57.8665 65.42C58.4848 65.1805 59.1729 65.1965 59.7794 65.4644L62.0663 66.4746L63.0764 64.1877C63.3443 63.5812 63.8422 63.106 64.4605 62.8665C65.0788 62.6271 65.7669 62.6431 66.3734 62.911C66.9799 63.1789 67.4551 63.6768 67.6945 64.2951C67.934 64.9134 67.918 65.6015 67.6501 66.208L66.6399 68.4948L68.9268 69.505C69.5333 69.7729 70.0085 70.2707 70.248 70.889C70.4874 71.5073 70.4714 72.1954 70.2035 72.8019C69.9356 73.4084 69.4377 73.8837 68.8194 74.1231C68.2011 74.3625 67.513 74.3465 66.9065 74.0786L64.6197 73.0685L63.6095 75.3553C63.3416 75.9618 62.8438 76.4371 62.2255 76.6765C61.6072 76.9159 60.9191 76.9 60.3126 76.632Z" fill="white"/>
<path d="M75.5554 30.1621L73.421 29.2193L72.4782 31.3537C72.2282 31.9198 71.7635 32.3634 71.1864 32.5868C70.6093 32.8103 69.9671 32.7954 69.401 32.5453C68.835 32.2953 68.3914 31.8306 68.168 31.2535C67.9445 30.6764 67.9594 30.0342 68.2095 29.4681L69.1522 27.3338L67.0179 26.391C66.4518 26.1409 66.0082 25.6762 65.7848 25.0992C65.5613 24.5221 65.5762 23.8799 65.8263 23.3138C66.0763 22.7477 66.541 22.3042 67.1181 22.0807C67.6952 21.8572 68.3374 21.8722 68.9034 22.1222L71.0378 23.065L71.9806 20.9306C72.2307 20.3645 72.6953 19.921 73.2724 19.6975C73.8495 19.474 74.4917 19.489 75.0578 19.739C75.6239 19.9891 76.0674 20.4537 76.2909 21.0308C76.5144 21.6079 76.4994 22.2501 76.2494 22.8162L75.3066 24.9506L77.441 25.8934C78.007 26.1434 78.4506 26.6081 78.6741 27.1852C78.8975 27.7622 78.8826 28.4045 78.6326 28.9705C78.3825 29.5366 77.9179 29.9802 77.3408 30.2036C76.7637 30.4271 76.1215 30.4122 75.5554 30.1621Z" fill="white"/>
</svg>
