<svg viewBox="0 0 56 56" fill="none" xmlns="http://www.w3.org/2000/svg">
<path d="M28.0494 1.9788C13.7284 1.9788 2.07407 13.6537 2.07407 28C2.07407 42.3463 13.6296 54.1201 28.0494 54.1201C42.4691 54.1201 54.0247 42.4452 54.0247 28C54.0247 13.5548 42.3704 1.9788 28.0494 1.9788ZM28.0494 0C43.4568 0 56 12.5654 56 28C56 43.4346 43.4568 56 28.0494 56C12.642 56 0 43.5336 0 28C0 12.4664 12.5432 0 28.0494 0Z" fill="#09357A"/>
<path d="M41.8527 26.3836L29.1117 13.4698C28.9231 13.2774 28.698 13.1245 28.4495 13.0202C28.201 12.9159 27.9341 12.8622 27.6645 12.8623C27.1216 12.8701 26.6029 13.0878 26.2174 13.4698L13.3715 26.3732C13.1059 26.6706 12.9309 27.0375 12.8668 27.4308C12.8027 27.8241 12.8523 28.2276 13.0098 28.5937C13.1672 28.9599 13.4259 29.2736 13.7556 29.498C14.0853 29.7225 14.4722 29.8483 14.871 29.8608H16.6642V40.5019C16.6779 41.0484 16.9049 41.5678 17.2967 41.9494C17.6886 42.331 18.2142 42.5445 18.7615 42.5443H24.6864C25.2245 42.531 25.737 42.3116 26.1176 41.9314C26.4982 41.5512 26.7179 41.0394 26.7312 40.5019V35.8308H28.6083V40.5019C28.622 41.0484 28.849 41.5678 29.2408 41.9494C29.6327 42.331 30.1583 42.5445 30.7056 42.5443H36.5571C37.0952 42.531 37.6076 42.3116 37.9883 41.9314C38.3689 41.5512 38.5886 41.0394 38.6019 40.5019V29.8608H40.4476C40.8516 29.8622 41.2469 29.7434 41.583 29.5196C41.9192 29.2958 42.181 28.977 42.3351 28.604C42.4771 28.2268 42.5071 27.8167 42.4215 27.4228C42.336 27.029 42.1385 26.6682 41.8527 26.3836ZM38.0671 27.8185C37.6527 27.8185 37.2553 27.9829 36.9623 28.2756C36.6693 28.5682 36.5046 28.9652 36.5046 29.3791V40.5019H30.6532V35.349C30.6477 34.9387 30.4806 34.5472 30.1882 34.259C29.8958 33.9709 29.5015 33.8093 29.0907 33.8094H26.1964C25.782 33.8094 25.3846 33.9738 25.0916 34.2664C24.7986 34.5591 24.6339 34.956 24.6339 35.3699V40.5229H18.7091V29.3791C18.7091 28.9652 18.5445 28.5682 18.2514 28.2756C17.9584 27.9829 17.561 27.8185 17.1466 27.8185H14.871L27.6541 14.957L40.3951 27.8185H38.0671Z" fill="#09357A"/>
</svg>
