<svg viewBox="0 0 56 56" fill="none" xmlns="http://www.w3.org/2000/svg">
<path d="M28.0494 1.9788C13.7284 1.9788 2.07407 13.6537 2.07407 28C2.07407 42.3463 13.6296 54.1201 28.0494 54.1201C42.4691 54.1201 54.0247 42.4452 54.0247 28C54.0247 13.5548 42.3704 1.9788 28.0494 1.9788ZM28.0494 0C43.4568 0 56 12.5654 56 28C56 43.4346 43.4568 56 28.0494 56C12.642 56 0 43.5336 0 28C0 12.4664 12.5432 0 28.0494 0Z" fill="#09357A"/>
<path d="M24.2927 41.4558C24.2927 44.0282 25.5767 46.106 28.1446 46.106C30.7125 46.106 31.9964 44.0282 31.9964 41.4558C31.9964 41.4558 29.8236 42.2473 28.1446 42.2473C26.4656 42.2473 24.2927 41.4558 24.2927 41.4558Z" fill="#09357A"/>
<path d="M28.1445 41.7526C24.4902 41.7526 22.5149 39.7738 22.5149 38.3886C22.5149 38.0918 21.8235 37.1024 21.3297 36.4098C19.8482 34.431 17.9717 31.5618 17.9717 28.3957C17.9717 22.7561 22.6137 18.106 28.2433 18.106C33.8729 18.106 38.3174 22.7561 38.3174 28.3957C38.3174 31.6607 36.3421 34.431 34.9593 36.4098C34.4655 37.1024 33.7741 38.0918 33.7741 38.3886C33.7741 39.7738 31.7988 41.7526 28.1445 41.7526ZM28.1445 20.1837C23.6013 20.1837 19.947 23.8445 19.947 28.3957C19.947 30.9681 21.7248 33.4416 22.91 35.2226C23.7988 36.5088 24.4902 37.4982 24.4902 38.3886C24.589 38.4876 25.4779 39.6749 28.0458 39.6749C30.6137 39.6749 31.5025 38.5865 31.6013 38.2897C31.6013 37.4982 32.2927 36.5088 33.1816 35.2226C34.4655 33.4416 36.1445 30.9681 36.1445 28.3957C36.2433 23.8445 32.589 20.1837 28.1445 20.1837Z" fill="#09357A"/>
<path d="M28.2433 23.1518C28.2433 23.1518 26.8606 23.1518 25.0828 24.3391C23.4038 25.5264 23.2063 27.6041 23.2063 27.6041C23.1075 28.0988 22.7125 28.5935 22.1199 28.5935H22.0211C21.4285 28.4946 21.0334 27.9999 21.0334 27.4062C21.0334 27.3073 21.3297 24.4381 23.7989 22.6571C26.0705 20.9752 28.0458 21.0741 28.2433 21.0741C28.8359 21.0741 29.231 21.5688 29.231 22.1624C29.3297 22.7561 28.8359 23.2508 28.2433 23.1518Z" fill="#09357A"/>
<path d="M27.9471 14.3462C27.3545 14.3462 26.9595 13.9505 26.9595 13.3568V9.89394C26.9595 9.3003 27.3545 8.90454 27.9471 8.90454C28.5397 8.90454 28.9348 9.3003 28.9348 9.89394V13.3568C28.9348 13.8515 28.5397 14.3462 27.9471 14.3462Z" fill="#09357A"/>
<path d="M35.0581 16.226C34.5642 15.9292 34.4655 15.3356 34.663 14.8409L36.342 11.8727C36.6383 11.378 37.2309 11.279 37.7247 11.4769C38.2186 11.7737 38.3173 12.3674 38.1198 12.8621L36.4408 15.8303C36.0457 16.4239 35.4531 16.5228 35.0581 16.226Z" fill="#09357A"/>
<path d="M40.1939 21.47C39.8976 20.9753 40.0951 20.3817 40.589 20.0849L43.5519 18.4029C44.0457 18.1061 44.6383 18.3039 44.9346 18.7986C45.2309 19.2933 45.0334 19.887 44.5396 20.1838L41.5766 21.8658C41.0828 22.0637 40.4902 21.9647 40.1939 21.47Z" fill="#09357A"/>
<path d="M20.8358 16.226C20.4408 16.4239 19.7494 16.3249 19.5519 15.8302L17.7741 12.862C17.5766 12.3673 17.6753 11.7737 18.1692 11.4769C18.663 11.18 19.2556 11.3779 19.5519 11.8726L21.2309 14.8408C21.5272 15.3355 21.3297 15.9292 20.8358 16.226Z" fill="#09357A"/>
<path d="M15.7001 21.3711C15.4038 21.8658 14.8112 21.9647 14.3174 21.7668L11.3545 20.0848C10.8606 19.788 10.7619 19.0954 10.9594 18.6997C11.1569 18.3039 11.8483 18.0071 12.3421 18.3039L15.3051 19.9859C15.7989 20.2827 15.8977 20.8764 15.7001 21.3711Z" fill="#09357A"/>
</svg>
