<svg width="56" height="56" viewBox="0 0 56 56" fill="none" xmlns="http://www.w3.org/2000/svg">
<path d="M28.0494 1.9788C13.7284 1.9788 2.07407 13.6537 2.07407 28C2.07407 42.3463 13.6296 54.1201 28.0494 54.1201C42.4691 54.1201 54.0247 42.4452 54.0247 28C54.0247 13.5548 42.3704 1.9788 28.0494 1.9788ZM28.0494 0C43.4568 0 56 12.5654 56 28C56 43.4346 43.4568 56 28.0494 56C12.642 56 0 43.5336 0 28C0 12.4664 12.5432 0 28.0494 0Z" fill="#09357A"/>
<g clip-path="url(#clip0)">
<path d="M23.7998 25.8501L29.0498 32.1801L32.6198 28.1601L38.6898 35.3901H17.7998L23.7998 25.8501Z" fill="#09357A"/>
<path d="M34.6698 25.7502C36.0008 25.7502 37.0798 24.6712 37.0798 23.3402C37.0798 22.0092 36.0008 20.9302 34.6698 20.9302C33.3388 20.9302 32.2598 22.0092 32.2598 23.3402C32.2598 24.6712 33.3388 25.7502 34.6698 25.7502Z" fill="#09357A"/>
<path d="M39.54 16C39.7593 16.0026 39.9689 16.0909 40.124 16.246C40.2791 16.4011 40.3674 16.6107 40.37 16.83V39.54C40.3674 39.7593 40.2791 39.9689 40.124 40.124C39.9689 40.2791 39.7593 40.3674 39.54 40.37H16.83C16.6107 40.3674 16.4011 40.2791 16.246 40.124C16.0909 39.9689 16.0026 39.7593 16 39.54V16.83C16.0026 16.6107 16.0909 16.4011 16.246 16.246C16.4011 16.0909 16.6107 16.0026 16.83 16H39.54ZM39.54 14H16.83C16.0811 14.0052 15.3643 14.3051 14.8347 14.8347C14.3051 15.3643 14.0052 16.0811 14 16.83V39.54C14.0026 40.2898 14.3016 41.008 14.8318 41.5382C15.362 42.0684 16.0802 42.3674 16.83 42.37H39.54C40.2906 42.37 41.0104 42.0718 41.5411 41.5411C42.0718 41.0104 42.37 40.2906 42.37 39.54V16.83C42.3674 16.0802 42.0684 15.362 41.5382 14.8318C41.008 14.3016 40.2898 14.0026 39.54 14V14Z" fill="#09357A"/>
</g>
<defs>
<clipPath id="clip0">
<rect width="28.37" height="28.37" fill="white" transform="translate(14 14)"/>
</clipPath>
</defs>
</svg>
