<svg width="150" height="150" viewBox="0 0 150 150" fill="none" xmlns="http://www.w3.org/2000/svg">
<path fill-rule="evenodd" clip-rule="evenodd" d="M150 75C150 116.421 116.421 150 75 150C33.5786 150 0 116.421 0 75C0 33.5786 33.5786 0 75 0C84.5325 0 93.6496 1.77839 102.038 5.0215C101.827 5.37649 101.572 5.70682 101.275 6.00352C100.343 6.93622 99.0777 7.46021 97.7586 7.46021H52.9974C50.3593 7.46021 47.8292 8.50819 45.9638 10.3736C44.0984 12.239 43.0504 14.7691 43.0504 17.4072C43.0504 20.0453 44.0984 22.5753 45.9638 24.4407C47.8292 26.3061 50.3593 27.3541 52.9974 27.3541H70.4045C71.7236 27.3541 72.9886 27.8781 73.9213 28.8108C74.854 29.7435 75.378 31.0085 75.378 32.3276V39.7878H80.3515V55.1658C81.801 55.6783 83.0568 56.6261 83.9471 57.8796C84.8373 59.133 85.3186 60.631 85.3249 62.1684V72.1154C85.3186 73.6528 84.8373 75.1508 83.9471 76.4043C83.0568 77.6578 81.801 78.6056 80.3515 79.118V87.0358H75.378V79.118C73.9284 78.6056 72.6726 77.6578 71.7824 76.4043C70.8921 75.1508 70.4109 73.6528 70.4045 72.1154V62.1684C70.4109 60.631 70.8921 59.133 71.7824 57.8796C72.6726 56.6261 73.9284 55.6783 75.378 55.1658V39.7878H70.6532C64.2629 41.1383 58.5295 44.6406 54.4108 49.7097C50.2921 54.7789 48.0376 61.1078 48.0239 67.6393L48.0786 94.496H105.219V67.6393C105.205 61.1078 102.951 54.7789 98.8319 49.7097C94.7132 44.6406 88.9798 41.1383 82.5895 39.7878H80.3515L80.3515 32.3276C80.3515 29.6895 79.3035 27.1594 77.4381 25.294C75.5727 23.4286 73.0426 22.3806 70.4045 22.3806H52.9974C51.6783 22.3806 50.4133 21.8566 49.4806 20.9239C48.5479 19.9912 48.0239 18.7262 48.0239 17.4072C48.0239 16.0881 48.5479 14.8231 49.4806 13.8904C50.4133 12.9577 51.6783 12.4337 52.9974 12.4337H97.7586C100.397 12.4337 102.927 11.3857 104.792 9.52029C105.544 8.76865 106.163 7.90909 106.634 6.97804C132.247 18.9096 150 44.8816 150 75ZM106.634 6.97804C105.128 6.27667 103.596 5.62383 102.038 5.0215C102.488 4.26052 102.732 3.38619 102.732 2.48674V0H107.706V2.48674C107.706 4.06184 107.332 5.59843 106.634 6.97804ZM38.8055 91.7084C38.5743 91.4772 38.3909 91.2027 38.2659 90.9006C38.1409 90.5985 38.0767 90.2747 38.0769 89.9478V79.5756C38.0781 79.1897 38.1685 78.8094 38.341 78.4643C38.5136 78.1192 38.7636 77.8186 39.0716 77.5862L43.0504 74.6021V95.9557L38.8055 91.7084ZM104.91 117.983C103.613 123.878 100.876 129.36 96.944 133.94C93.0124 138.52 88.0083 142.055 82.3781 144.231H73.2941L72.3466 143.915C66.3434 141.894 60.9616 138.362 56.7194 133.658C52.4773 128.954 49.5177 123.238 48.1258 117.058L48.0885 99.4695H105.219V116.603L104.91 117.983ZM77.8647 74.6021C77.2052 74.6021 76.5727 74.3401 76.1063 73.8738C75.64 73.4074 75.378 72.7749 75.378 72.1154V62.1684C75.378 61.5089 75.64 60.8764 76.1063 60.41C76.5727 59.9437 77.2052 59.6817 77.8647 59.6817C78.5242 59.6817 79.1568 59.9437 79.6231 60.41C80.0895 60.8764 80.3515 61.5089 80.3515 62.1684V72.1154C80.3515 72.7749 80.0895 73.4074 79.6231 73.8738C79.1568 74.3401 78.5242 74.6021 77.8647 74.6021Z" fill="#A1006B"/>
</svg>
