<svg viewBox="0 0 44 44" fill="none" xmlns="http://www.w3.org/2000/svg">
<g clip-path="url(#clip0)">
<path d="M31.9718 30.8001L22.5044 21.4598L31.9718 12.1194C32.2822 11.8106 32.2822 11.3475 31.9718 11.0387C31.6614 10.7299 31.1958 10.7299 30.8854 11.0387L21.418 20.3791L12.1834 11.1931C11.873 10.8843 11.4074 10.8843 11.097 11.1931C10.7866 11.5019 10.7866 11.965 11.097 12.2738L20.3316 21.4598L11.097 30.6457C10.7866 30.9545 10.7866 31.4177 11.097 31.7264C11.2522 31.8808 11.485 31.958 11.6402 31.958C11.7954 31.958 12.0282 31.8808 12.1834 31.7264L21.418 22.5405L30.8078 31.8808C30.963 32.0352 31.1958 32.1124 31.351 32.1124C31.5062 32.1124 31.739 32.0352 31.8942 31.8808C32.2822 31.6492 32.2822 31.1089 31.9718 30.8001Z" fill="#09357A"/>
</g>
<path d="M21.9612 1.54386C33.2134 1.54386 42.3704 10.6526 42.3704 21.8456C42.3704 33.0386 33.291 42.2246 21.9612 42.2246C10.6314 42.2246 1.55203 33.1158 1.55203 21.8456C1.55203 10.5754 10.709 1.54386 21.9612 1.54386ZM21.9612 0C9.85538 0 0 9.80351 0 21.8456C0 33.8877 9.85538 43.6912 21.9612 43.6912C34.067 43.6912 44 33.9649 44 21.8456C44 9.72632 34.1446 0 21.9612 0Z" fill="#09357A"/>
<defs>
<clipPath id="clip0">
<rect width="21.3404" height="21.3053" fill="white" transform="translate(10.8642 10.8071)"/>
</clipPath>
</defs>
</svg>
