<svg id="Layer_1" data-name="Layer 1" xmlns="http://www.w3.org/2000/svg" viewBox="0 0 194.2 840.71"><defs><style>.cls-1{fill:#894f38;}.cls-2{fill:#f2f2f2;}.cls-3{fill:#ceac8e;}.cls-4{fill:#c69c6d;}.cls-5{fill:#130037;}.cls-6,.cls-8{fill:#a67c52;}.cls-7{fill:#a8a8a8;}.cls-8{opacity:0.4;}.cls-9{fill:#934145;}.cls-10{fill:#fff0fb;}.cls-11{opacity:0.1;}.cls-12{fill:#ffe3f6;}.cls-13{fill:#0e7200;}.cls-14{fill:#150047;}.cls-15{fill:#0d002d;}.cls-16{fill:#960000;}</style></defs><title>ministre</title><g id="old"><polygon class="cls-1" points="83.34 721.55 60.09 728.91 62.5 767.38 82.21 767.38 83.34 721.55"/><polygon class="cls-2" points="82.21 767.38 82.14 770.06 82.11 771.6 82.08 772.69 82.04 774.23 81.54 794.75 64.14 793.46 62.93 774.23 62.83 772.69 62.76 771.6 62.67 770.06 62.5 767.38 82.21 767.38"/><path d="M82.64,786.31v31.11l-10.58,6.47L8.63,837.11h0a8.33,8.33,0,0,1,2.95-11.21l41.77-25.38L63.9,784.93Z"/><path d="M82.64,817.42v4.18a4.33,4.33,0,0,1-2.27,3.8l-7.62,4.12-59,11.11a4.34,4.34,0,0,1-4.92-2.89l-.2-.63,63.43-13.22Z"/><polygon class="cls-2" points="64.25 721.55 87.5 728.91 85.09 767.38 65.38 767.38 64.25 721.55"/><polygon class="cls-3" points="1.67 429.63 31.18 429.63 31.18 233.34 11.38 226.4 1.67 429.63"/><path class="cls-3" d="M7.18,452l.57.45A3.14,3.14,0,0,1,7.18,452Z"/><path class="cls-3" d="M7,412h18.9a5.3,5.3,0,0,1,5.3,5.3v28.77a0,0,0,0,1,0,0H1.67a0,0,0,0,1,0,0V417.3A5.3,5.3,0,0,1,7,412Z" transform="translate(32.84 858.07) rotate(-180)"/><path class="cls-3" d="M29.76,433.4c-1.7-.32-3.11-.88-5.65,1.08h0l0,.07-3.77,6.9,5.1,1L28,440.23l6.84,10h0a3,3,0,0,0,3.64.64,2.3,2.3,0,0,0,1-3.18h0l-8.17-13.33-1.61-.93"/><path class="cls-4" d="M34.86,449.23a2.82,2.82,0,0,0,3.3,1.2,1.92,1.92,0,0,0,.7-2.93,2.33,2.33,0,0,0-.37-.46Z"/><path class="cls-3" d="M28.84,466.2c-.09,2.81-1.43,5.11-3.08,5.21s-3-2.05-3.21-4.84l-.33-24.81h7Z"/><path class="cls-3" d="M21.64,467.69c-.09,2.81-1.43,5.11-3.08,5.21s-3-2-3.21-4.85L15,443.25h7Z"/><path class="cls-3" d="M14.52,465.14c-.09,2.81-1.43,5.12-3.08,5.21s-3-2.05-3.21-4.84l-.33-24.8h7Z"/><path class="cls-3" d="M7.45,459.81c-.08,2.81-1.19,5.12-2.58,5.21s-2.55-2-2.69-4.84l-.28-24.8H7.75Z"/><path class="cls-4" d="M23.54,467.93a2.54,2.54,0,0,0,1.94,2.92A2.43,2.43,0,0,0,28,468.48a3.41,3.41,0,0,0,0-.64Z"/><path class="cls-4" d="M16.28,469.45a2.54,2.54,0,0,0,1.94,2.92A2.42,2.42,0,0,0,20.73,470a2.74,2.74,0,0,0,0-.64Z"/><path class="cls-4" d="M9.15,466.83a2.55,2.55,0,0,0,1.95,2.92,2.42,2.42,0,0,0,2.51-2.38,2.74,2.74,0,0,0,0-.64Z"/><path class="cls-4" d="M3.08,462.13a2.07,2.07,0,0,0,1.51,2.37,1.92,1.92,0,0,0,1.94-1.92,2.26,2.26,0,0,0,0-.52Z"/><polygon class="cls-1" points="111.23 721.55 134.48 728.91 132.06 767.38 112.36 767.38 111.23 721.55"/><polygon class="cls-2" points="112.36 767.38 112.42 770.06 112.46 771.6 112.48 772.69 112.52 774.23 113.03 794.75 130.43 793.46 131.63 774.23 131.73 772.69 131.8 771.6 131.9 770.06 132.06 767.38 112.36 767.38"/><path d="M111.93,786.31v31.11l10.57,6.47,63.44,13.22h0A8.35,8.35,0,0,0,183,825.9l-41.78-25.38-10.55-15.59Z"/><path d="M111.93,817.42v4.18a4.31,4.31,0,0,0,2.27,3.8l7.61,4.12,59,11.11a4.34,4.34,0,0,0,4.92-2.89l.21-.63L122.5,823.89Z"/><path class="cls-5" d="M34.86,372.92l132.42,3.67L146.2,798.89l-39,14-.37-357s-4.71-9.3-8.31.53L95.2,810.89l-44-14Z"/><polygon class="cls-6" points="108.26 132.44 115.72 132.44 115.72 118.05 115.72 103.32 88.28 103.32 88.28 105.34 99.26 114.78 108.26 132.44"/><polygon class="cls-3" points="99.26 114.78 88.28 105.34 88.28 118.05 88.28 132.44 101.2 135.89 108.26 132.44 99.26 114.78"/><path class="cls-7" d="M135.68,58.46C138.91,81.76,124.41,89,100.88,89S69.1,81.65,69.53,58.13C70,34.36,63.78.06,101.32,0,143.18-.07,132.4,34.86,135.68,58.46Z"/><path class="cls-3" d="M132.23,78.71s8.63-9.39,6.57-18.57c0,0-2.15-5.51-6.36-2.45Z"/><path class="cls-3" d="M112.59,109.36H91.69c-9.4,0-15.15-11.41-17.61-17-1.16-2.62-2.14-9.38-2.14-12.25l-.09-45.7c0-8.65,7-15.67,16.68-15.54h29.23c7.66-.13,14.68,6.89,14.68,15.54l-.19,46c0,3.28-1.5,11.76-2.78,14.78C125.68,104.12,122.16,108.06,112.59,109.36Z"/><path class="cls-8" d="M98,72.44l3.66,2.94a.72.72,0,0,0,.91,0l3.81-2.94a.73.73,0,0,0-.45-1.32H98.49A.74.74,0,0,0,98,72.44Z"/><path class="cls-8" d="M132.44,75.12s5.61-5.8,4.49-12.86c0,0-.76-4.56-4.49-1.73Z"/><path class="cls-3" d="M71.94,78.85s-8.52-9.15-6.45-18.34c0,0,2.15-5.51,6.36-2.45Z"/><path class="cls-8" d="M71.85,75.49s-5.61-5.79-4.49-12.86c0,0,.76-4.56,4.49-1.73Z"/><path class="cls-9" d="M92.65,87.43s6,5.24,19.09.62l1-.36Z"/><path class="cls-8" d="M110.7,60s1.3,7.84,9.44,7.47Z"/><path class="cls-8" d="M91.27,60S90,67.81,81.83,67.44Z"/><circle cx="115.1" cy="53.86" r="3.27"/><circle cx="86.09" cy="53.86" r="3.27"/><path class="cls-10" d="M158.55,381H37.7a6.5,6.5,0,0,1-6.5-6.5l-1-216.72a26.29,26.29,0,0,1,26.3-26.29H83.2l18,4.36,17-4.36h19.56a26.29,26.29,0,0,1,26.29,26.29l1,216.72A6.5,6.5,0,0,1,158.55,381Z"/><path class="cls-11" d="M133.61,155.81s-24.27,11.9-71.29,26.11l5.54,2.91c26.55,14,59.68-.64,65.75-29Z"/><path class="cls-11" d="M38.4,302.74S77,326.64,153.46,358.07l-9.82,4C96.58,381.25,43.56,351.35,38.4,302.74Z"/><path class="cls-10" d="M38.49,140.38l-3.63,3.82C-9.8,163.89,1.2,405.89,1.2,405.89h30l7.29-265.51Z"/><polygon class="cls-3" points="192.14 426.71 162.64 426.71 162.64 237.28 185.91 226.4 192.14 426.71"/><path class="cls-3" d="M186.63,449.06l-.56.46A2.81,2.81,0,0,0,186.63,449.06Z"/><path class="cls-3" d="M162.64,409.09h29.5a0,0,0,0,1,0,0v28.77a5.3,5.3,0,0,1-5.3,5.3h-18.9a5.3,5.3,0,0,1-5.3-5.3V409.09a0,0,0,0,1,0,0Z"/><path class="cls-3" d="M164.05,430.49c1.71-.32,3.11-.89,5.65,1.08h0v.08l3.77,6.9-5.09,1-2.63-2.2-6.84,10h0a3,3,0,0,1-3.65.64,2.32,2.32,0,0,1-1-3.19h0l8.17-13.32,1.61-.93"/><path class="cls-4" d="M159,446.32a2.83,2.83,0,0,1-3.31,1.2,1.92,1.92,0,0,1-.7-2.93,4.25,4.25,0,0,1,.37-.47Z"/><path class="cls-3" d="M165,463.29c.09,2.81,1.42,5.11,3.07,5.21s3-2.05,3.21-4.85l.33-24.8h-7Z"/><path class="cls-3" d="M172.17,464.78c.1,2.8,1.43,5.11,3.08,5.21s3-2.06,3.21-4.85l.33-24.8h-7Z"/><path class="cls-3" d="M179.3,462.23c.09,2.81,1.42,5.12,3.07,5.21s3-2.05,3.21-4.84l.33-24.81h-7Z"/><path class="cls-3" d="M186.36,456.9c.08,2.81,1.2,5.12,2.58,5.21s2.55-2.05,2.69-4.84l.28-24.81h-5.84Z"/><path class="cls-4" d="M170.28,465a2.55,2.55,0,0,1-1.95,2.92,2.42,2.42,0,0,1-2.51-2.37,2.74,2.74,0,0,1,0-.64Z"/><path class="cls-4" d="M177.54,466.53a2.56,2.56,0,0,1-1.95,2.93,2.44,2.44,0,0,1-2.51-2.38,3.42,3.42,0,0,1,0-.64Z"/><path class="cls-4" d="M184.66,463.91a2.56,2.56,0,0,1-1.95,2.93,2.44,2.44,0,0,1-2.51-2.38,3.42,3.42,0,0,1,0-.64Z"/><path class="cls-4" d="M190.73,459.22a2.05,2.05,0,0,1-1.5,2.36,1.91,1.91,0,0,1-1.95-1.92,2.9,2.9,0,0,1,0-.51Z"/><path class="cls-10" d="M156.2,138.89c44.28,29.29,37,267,37,267h-31l-3.29-264.3C162.54,145.41,156.2,138.89,156.2,138.89Z"/><path class="cls-7" d="M131.14,24.06S113,27,103.29,27.23c-10.64.24-27.8-8.35-27.8-8.35s-1.31-13.3,26.71-16C132.23,0,131.14,24.06,131.14,24.06Z"/></g><path class="cls-12" d="M88.28,127.68c-.08.21,12.92,8.21,12.92,8.21s-20,20-20,19-3.51-23.39-3.51-23.39Z"/><path class="cls-12" d="M116.2,126.89c.08.2-15,9-15,9s20,20,20,19,3.51-23.39,3.51-23.39Z"/><polygon class="cls-13" points="92.95 144.05 97.2 156.55 106.7 156.55 110.7 145.28 101.2 135.89 92.95 144.05"/><rect class="cls-12" x="1.2" y="405.89" width="32" height="14"/><rect class="cls-12" x="162.2" y="405.89" width="32" height="14"/><polygon class="cls-13" points="97.2 155.89 84.2 319.89 104.2 351.89 120.2 319.89 107.2 155.89 97.2 155.89"/><g id="Layer_8" data-name="Layer 8"><path class="cls-5" d="M84.2,129.15l19.11,185.64L93,432.46l-58.09-8.9s1.66-86.13,0-88.22S39.25,138,39.25,138,39.15,130.08,84.2,129.15Z"/><path class="cls-14" d="M84.2,129.15,59.06,146.22,75.48,160.5l-12.2,23,36,88.87S87.25,143.74,84.2,129.15Z"/><path class="cls-5" d="M42,135.89S9.23,145.36,4.81,202.5,0,404.3,0,404.3l38.4,3.27Z"/><path class="cls-5" d="M119.85,129.15,100.73,314.79,110.7,428l51.5-4.41S157.29,339,159,336.92,164.8,138,164.8,138,164.9,130.08,119.85,129.15Z"/><path class="cls-14" d="M119.85,129.15,145,146.22,128.56,160.5l12.2,23-36,88.87S116.79,143.74,119.85,129.15Z"/><path class="cls-5" d="M159,133.82s26.74,9.45,31.17,66.58,4,207.05,4,207.05l-38.4,3.27Z"/><circle class="cls-15" cx="103.96" cy="314.42" r="2.89"/><rect class="cls-16" x="130.72" y="177.25" width="3.05" height="1.65" transform="translate(153.52 -42.71) rotate(42.1)"/></g><rect x="79.16" y="42.68" width="15.55" height="1.8" rx="0.9"/><rect x="109.23" y="41.1" width="15.55" height="1.8" rx="0.9" transform="translate(5.74 -13.45) rotate(6.74)"/></svg>