<svg xmlns="http://www.w3.org/2000/svg" viewBox="0 0 234.36 863.03"><defs><style>.cls-1{fill:none;stroke:#001e42;stroke-miterlimit:10;stroke-width:1.2px;}.cls-2{fill:#002142;}.cls-3,.cls-4{fill:#4a59af;}.cls-3,.cls-9{opacity:0.2;}.cls-10,.cls-4{opacity:0.4;}.cls-5{fill:#894f38;}.cls-6{fill:#020549;}.cls-7{fill:#723f2e;}.cls-8{fill:#aaa;}.cls-10,.cls-9{fill:#603813;}.cls-11{fill:#b73f03;}.cls-12{fill:#fff;}.cls-13{fill:#4c290d;}.cls-14{fill:#f2f2f2;}.cls-15{fill:#f15a22;fill-rule:evenodd;}.cls-16{fill:#003974;}</style></defs><title>Artboard 11 copy 2</title><g id="Layer_6" data-name="Layer 6"><path d="M206.58,846.29l-73.7,8.76v6.64a1.22,1.22,0,0,0,1.06,1.34h16.4a1.05,1.05,0,0,0,.92-.74c1.14-2.69,3.39-4.53,6-4.53s4.83,1.84,6,4.53a1.08,1.08,0,0,0,.92.74H197.3c.55,0,4.87,0,5.62-.64Z"/><path class="cls-1" d="M161.63,775.19l3.8-7.54a1.73,1.73,0,0,1,3.23.21l1,2.79a2,2,0,0,1-1.21,2.6Z"/><path class="cls-1" d="M162.15,775.19l5.37.54a1.34,1.34,0,0,1,.75,2.24l-1.33,1.45a1.16,1.16,0,0,1-1.83-.12Z"/><path class="cls-1" d="M162.51,775.63s-4,12.33,14.88,9.14"/><path class="cls-1" d="M160.68,776.17s-10.08,7.21,6.76,17"/><path class="cls-2" d="M206.79,843.9c0-7-7-15.74-14.46-12.77-7.74,3.06-11.71,1.13-13.72-.24l-11.46-9.44a12.93,12.93,0,0,1-4.26-10V771.94c0-2.93-1.87-5.3-4.18-5.3H137.06c-2.31,0-4.18,2.37-4.18,5.3v84.73h61.7a8.32,8.32,0,0,0,4.11-1.31C203.48,853.28,206.79,848.94,206.79,843.9Z"/><ellipse class="cls-3" cx="195.98" cy="839.89" rx="5.27" ry="5.7"/><ellipse class="cls-4" cx="198.03" cy="840.72" rx="3.22" ry="3.48"/><path d="M41.68,844.1l73.7,8.76v6.64a1.23,1.23,0,0,1-1.06,1.34H97.91a1.08,1.08,0,0,1-.92-.74c-1.14-2.69-3.38-4.53-6-4.53s-4.82,1.84-6,4.53a1.05,1.05,0,0,1-.91.74H51c-.55,0-4.87,0-5.62-.64Z"/><path class="cls-1" d="M86.62,773l-3.79-7.54a1.74,1.74,0,0,0-3.24.21l-1,2.79a2,2,0,0,0,1.21,2.6Z"/><path class="cls-1" d="M86.1,773l-5.36.54a1.34,1.34,0,0,0-.75,2.24l1.33,1.45a1.16,1.16,0,0,0,1.83-.12Z"/><path class="cls-1" d="M85.75,773.44s4,12.33-14.88,9.14"/><path class="cls-1" d="M87.57,774s10.09,7.2-6.76,17"/><path class="cls-2" d="M41.47,841.71c0-7.05,7-15.74,14.46-12.77,7.74,3.06,11.7,1.14,13.72-.24l11.46-9.44a13,13,0,0,0,4.26-10V769.75c0-2.93,1.87-5.3,4.18-5.3H111.2c2.3,0,4.18,2.37,4.18,5.3v84.74H53.68a8.21,8.21,0,0,1-4.11-1.32C44.77,851.09,41.47,846.75,41.47,841.71Z"/><ellipse class="cls-3" cx="52.28" cy="837.71" rx="5.27" ry="5.7"/><ellipse class="cls-4" cx="50.22" cy="838.53" rx="3.22" ry="3.48"/><polygon class="cls-5" points="92.9 720.73 115.15 727.77 112.84 764.59 93.98 764.59 92.9 720.73"/><path class="cls-5" d="M11.08,421.61H28.7a5.3,5.3,0,0,1,5.3,5.3v27.29a0,0,0,0,1,0,0H5.77a0,0,0,0,1,0,0V426.92A5.3,5.3,0,0,1,11.08,421.61Z" transform="translate(5.98 876.05) rotate(-175.58)"/><polygon class="cls-5" points="137.85 720.73 160.09 727.77 157.78 764.59 138.93 764.59 137.85 720.73"/><path class="cls-6" d="M53.75,388.12h141l-29.7,385.3H130.6l-.1-305.91s-4.5-8.89-7.94.51l-3.41,305.4H83.35Z"/><polygon class="cls-7" points="111.77 119.24 111.77 121.17 122.27 130.2 138.02 143.74 138.02 133.33 138.02 119.24 111.77 119.24"/><path class="cls-5" d="M138.18,147.72C137.56,153.46,132,158,125.11,158s-12.45-4.5-13.07-10.24h-4.51l.83,31.59a28.13,28.13,0,0,0,38.89-5.25l-1.75-26.34Z"/><path class="cls-5" d="M122.27,130.2l-10.5-9v27.05a9.11,9.11,0,0,0,.06,1.05c.61,5.74,6.23,10.24,13.07,10.24S137.35,155,138,149.27a9.11,9.11,0,0,0,.06-1.05v-4.48Z"/><path class="cls-6" d="M114.32,179.44l-6.79-31.72-9.32,1.55H82A30.7,30.7,0,0,0,51.28,180V405.6a14.44,14.44,0,0,0,8.1,13l132.63.5a16.42,16.42,0,0,0,9.34-14.81V183.7a34.44,34.44,0,0,0-34.43-34.43H151.58l-7.3-2.08-8.6,32.92Z"/><ellipse class="cls-8" cx="125.03" cy="62.46" rx="35.38" ry="39.33"/><path class="cls-5" d="M153.82,95.69s8.26-9,6.29-17.77c0,0-2.06-5.27-6.09-2.34Z"/><path class="cls-5" d="M135,125H115c-9,0-14.12-11.55-17.41-20a22.16,22.16,0,0,1-1.5-8l-.08-43.72a15,15,0,0,1,15-15h28a15,15,0,0,1,15,15l-.18,44a23.67,23.67,0,0,1-1.88,9.13C148.33,115,144.19,124.6,135,125Z"/><path class="cls-7" d="M121.1,89.69l3.5,2.82a.72.72,0,0,0,.88,0l3.64-2.82a.7.7,0,0,0-.43-1.26h-7.15A.7.7,0,0,0,121.1,89.69Z"/><path class="cls-7" d="M154,92.26s5.37-5.55,4.3-12.31c0,0-.73-4.36-4.3-1.66Z"/><path class="cls-5" d="M96.14,95.82S88,87.07,90,78.28c0,0,2.06-5.27,6.09-2.35Z"/><path class="cls-7" d="M96.05,92.62s-5.37-5.55-4.3-12.31c0,0,.73-4.36,4.3-1.66Z"/><path class="cls-9" d="M115.31,98.1a7.73,7.73,0,0,1,1.36.11s-.11-.37-.19-.54a5,5,0,1,0-7.25,6.37c.48.3,1.45.74,1.58.63s-.22-.82-.24-1.25A5,5,0,0,1,115.31,98.1Z"/><path class="cls-7" d="M133.22,77.77s1.24,7.49,9,7.14Z"/><path class="cls-10" d="M133.65,110.86s-7.68,7.37-16.12.43Z"/><path class="cls-7" d="M114.63,77.77s-1.24,7.49-9,7.14Z"/><circle cx="137.43" cy="71.92" r="3.13"/><circle cx="109.67" cy="71.92" r="3.13"/><path d="M134.3,60c3-2.27,6.71-1.61,9.28,1,.84.84,2-.62,1.14-1.45a8.68,8.68,0,0,0-11.53-1A.92.92,0,0,0,134.3,60Z"/><path d="M116.12,61.12a8.67,8.67,0,0,0-10.84-4c-1.1.4-.71,2.2.41,1.8,3.41-1.23,7.06-.25,8.81,3.08a.92.92,0,0,0,1.62-.86Z"/><path class="cls-6" d="M4,297.09C14.89,223,35.8,184,35.8,184c13.85-22.35,31.72-29.1,31.72-29.1L40.82,403.81,38.55,424.9C34.73,430.38,0,423.12,0,423.12Z"/><rect class="cls-5" x="192.89" y="265.54" width="28.23" height="178.25"/><path class="cls-5" d="M215.85,465.17l-.54.44A3.34,3.34,0,0,0,215.85,465.17Z"/><path class="cls-5" d="M192.89,426.92h28.23a0,0,0,0,1,0,0v27.29a5.3,5.3,0,0,1-5.3,5.3H198.19a5.3,5.3,0,0,1-5.3-5.3V426.92A0,0,0,0,1,192.89,426.92Z"/><path class="cls-5" d="M194.24,447.4c1.63-.31,3-.85,5.41,1h0l0,.07,3.6,6.6-4.87.92-2.52-2.1-6.54,9.54h0a2.84,2.84,0,0,1-3.49.61,2.21,2.21,0,0,1-1-3h0l7.82-12.75,1.54-.89"/><path class="cls-5" d="M195.13,478.78c.08,2.69,1.36,4.89,2.94,5s2.91-2,3.07-4.64l.32-23.73h-6.67Z"/><path class="cls-5" d="M202,480.2c.09,2.69,1.37,4.9,3,5s2.91-2,3.07-4.64l.32-23.73h-6.67Z"/><path class="cls-5" d="M208.83,477.77c.09,2.69,1.36,4.89,2.94,5s2.91-2,3.07-4.63l.32-23.73h-6.67Z"/><path class="cls-5" d="M215.59,472.67c.07,2.69,1.14,4.89,2.46,5s2.45-2,2.58-4.64l.27-23.73h-5.59Z"/><path class="cls-5" d="M10.56,476.4l.54.44A3.34,3.34,0,0,1,10.56,476.4Z"/><path class="cls-5" d="M10.59,438.15H28.21a5.3,5.3,0,0,1,5.3,5.3v27.29a0,0,0,0,1,0,0H5.29a0,0,0,0,1,0,0V443.46A5.3,5.3,0,0,1,10.59,438.15Z" transform="translate(38.8 908.9) rotate(-180)"/><path class="cls-5" d="M32.17,458.63c-1.64-.31-3-.85-5.42,1h0v.07l-3.61,6.6,4.88.92,2.51-2.1,6.55,9.54h0a2.83,2.83,0,0,0,3.48.61,2.2,2.2,0,0,0,1-3h0L33.7,459.52l-1.53-.89"/><path class="cls-5" d="M31.28,490c-.09,2.69-1.36,4.89-2.94,5s-2.91-2-3.07-4.63L25,466.63h6.66Z"/><path class="cls-5" d="M24.39,491.43c-.09,2.69-1.36,4.9-2.94,5s-2.91-2-3.07-4.64l-.32-23.73h6.67Z"/><path class="cls-5" d="M17.58,489c-.09,2.69-1.37,4.89-2.95,5s-2.91-2-3.07-4.63l-.32-23.73h6.67Z"/><path class="cls-5" d="M10.82,483.9c-.08,2.69-1.15,4.89-2.47,5s-2.44-2-2.57-4.63l-.27-23.73H11.1Z"/><path class="cls-6" d="M234.36,301.56c-5.18-74.74-23-115.17-23-115.17C199.24,163.05,182,154.94,182,154.94l7.45,250.18.63,21.21c3.39,5.76,38.58,1.19,38.58,1.19Z"/><path class="cls-11" d="M140.57,415.88l55.05,2.06A16.51,16.51,0,0,0,205,403V181.29a34.62,34.62,0,0,0-34.62-34.62H148.65L140.57,249Z"/><rect class="cls-12" x="143.49" y="255.92" width="59.51" height="18.19"/><rect class="cls-12" x="143.5" y="352.56" width="59.51" height="18.19"/><polygon class="cls-12" points="165.39 738.92 131.88 738.92 131.88 720.73 166.59 720.73 165.39 738.92"/><polygon class="cls-12" points="166.84 712.15 131.72 712.15 131.72 693.97 168.04 693.97 166.84 712.15"/><polygon class="cls-12" points="83.84 738.92 117.35 738.92 117.35 720.73 82.64 720.73 83.84 738.92"/><polygon class="cls-12" points="82.39 712.15 117.51 712.15 117.51 693.97 81.19 693.97 82.39 712.15"/><path class="cls-11" d="M113.17,416.87l-55,2.06a16.49,16.49,0,0,1-9.37-14.87V182.69A34.56,34.56,0,0,1,83.4,148.13h21.7l8.07,102.11Z"/><rect class="cls-12" x="50.85" y="257.2" width="59.41" height="18.15" transform="translate(161.1 532.55) rotate(-180)"/><rect class="cls-12" x="50.84" y="353.66" width="59.41" height="18.15" transform="translate(161.09 725.48) rotate(-180)"/><path class="cls-13" d="M116.83,106.43s3.78,4,17,2.42c.32,0,5.11-2.42.49-1.58Z"/><path class="cls-12" d="M162.18,36.3c-.22-18.72-16.7-33.84-37-33.84s-36.8,15.12-37,33.84h0V61.06H162.2V36.3Z"/><path class="cls-14" d="M134.13,3.53h0C132.33,1.4,128.37,0,125,0s-7.42,1.4-9.22,3.53h0L104.22,61.06H146.1Z"/><path class="cls-12" d="M84.84,61.06h80.63a.25.25,0,0,1,.05.5l-27.06,5.06a72.63,72.63,0,0,1-26.62,0l-27-5.06A.25.25,0,0,1,84.84,61.06Z"/><path class="cls-15" d="M120.05,32.35c0-.27,0-.67.21-.85.06-.29.52-.23.45-.41s-.26-.06-.35,0a8.55,8.55,0,0,1-.93.24l-.3-.08a1.42,1.42,0,0,0-.84.61c-.18.21-.43.71-.23,1l0,.2.44.65c.16.11.18.19.34.3l.1.15a.84.84,0,0,0,.6,0c.65.06.58-1.24.78-1.51A.53.53,0,0,0,120.05,32.35Zm-2.76,3.9a2.51,2.51,0,0,0,.49-.12c.19-.09.86-.56.65-.94-.07-.79-1-.12-1.44-.4-.42,0-.88-.84-1-1.18a.84.84,0,0,0-.09-.19s0,0,0,0-.1.26-.11.61h-.17a.36.36,0,0,1-.08.25.16.16,0,0,1,0,.07c-.1,0,0,0-.09-.07-.38,0-.35.4-.53.62C114.83,35.63,116.25,36.52,117.29,36.25ZM122,34.07a2.9,2.9,0,0,0-1.23.45.83.83,0,0,0-.24.24.42.42,0,0,0,0,.27.44.44,0,0,0,.16.29c.76,0,2.09-.1,2.34.54,0,.09,0,.14,0,.16.25-.06.07,0,.44,0a1.58,1.58,0,0,0,.43-.07.17.17,0,0,0,.1-.07.78.78,0,0,1,0-.09s.13,0,.18,0c.35-.05.17-.22.34-.4C124.4,34.17,123.17,33.89,122,34.07Zm-1.35,2.6c-.18.13-.25.1-.36.31,0,0,0,0,0,0,.1.21.34.29.52.44s.21.31.28.33.13.36.18.36,0,.24,0,.31c0,.31,0,.34-.09.4s0,.07,0,.1.14.1.19.09a2.83,2.83,0,0,1,.92.65c.5,0,.47-.11.81-.26.09,0,.17,0,.23-.06s.07-.2.13-.27C123.56,37.88,121.89,36.71,120.65,36.67Zm-2,.28c-.07.07-.26.1-.32.18a2.85,2.85,0,0,1-.41.56,1.69,1.69,0,0,1-2,.25s0,0,0,.14.22.78.15.92.09.1.18.19.08.21.15.25l.23,0a.65.65,0,0,0,0,.13l.29,0c.06,0,.22.1.27.11l.33,0a.84.84,0,0,0,.67-.18c.12-.08.25-.07.35-.16a2.36,2.36,0,0,0,.45-.55A2.17,2.17,0,0,0,119,37C119,36.93,118.86,36.93,118.68,37Z"/><path class="cls-16" d="M130.67,34.16A1.64,1.64,0,0,1,132.4,36a1.74,1.74,0,0,1-2,1.89H129.1c0-.08,0-.29,0-.56V34.72c0-.27,0-.44,0-.56Zm-.3,3c.57,0,1-.19,1-1.19s-.46-1.14-1-1.14h-.29v2.33Z"/><path class="cls-16" d="M133.86,37.3c0,.27,0,.56,0,.56h-1v-3.7h2.35v.71h-1.37v.75h1.22v.68h-1.22Z"/><path class="cls-16" d="M127.12,37.11a.78.78,0,0,1-.83-.8v0l1.16,0h1.11V36c0-1.27-.54-1.88-1.64-1.88-.51,0-1.7.19-1.7,2,0,1.18.6,1.88,1.64,1.88a2.7,2.7,0,0,0,1.69-.47c-.05-.06-.35-.61-.39-.67A1.71,1.71,0,0,1,127.12,37.11Zm-.83-1.55a.66.66,0,0,1,.63-.72c.56,0,.59.47.59.72v0h-1.22Z"/><path class="cls-8" d="M125.46,104.69c7.1,0,16.74,2.8,16.74,1.3,0-7.17-7.3-13-16.29-13s-16.3,5.81-16.3,13C109.61,107.49,118.35,104.69,125.46,104.69Z"/></g></svg>