<svg xmlns="http://www.w3.org/2000/svg" viewBox="0 0 196.42 740.6"><defs><style>.cls-1{fill:#ead2b2;}.cls-2{fill:#ccc;}.cls-3{fill:#b3b3b3;}.cls-4{fill:#ceaf8e;}.cls-5,.cls-9{fill:#dbbd9c;}.cls-6{fill:none;}.cls-7{fill:#99002f;}.cls-8{fill:#7f0330;}.cls-9{opacity:0.5;}.cls-10{fill:#ffe683;}.cls-11{fill:#001845;}.cls-12{fill:#f2f2f2;}.cls-13{fill:#edd177;}.cls-14{fill:#4c4c4c;}.cls-15{fill:#afd5ff;}.cls-16{fill:#1e5b10;}.cls-17{fill:#247a13;}.cls-18{fill:#9b004a;}.cls-19{fill:#f15a22;fill-rule:evenodd;}.cls-20{fill:#003974;}</style></defs><title>Artboard 12 copy</title><g id="Layer_7" data-name="Layer 7"><path d="M164,719.28a6.36,6.36,0,0,0,9-1.66l6.6-10.53,4.21,10.2a6.54,6.54,0,0,1,.13,4.65l-5.09,14.68a5.92,5.92,0,0,1-9,2.87l-12.43-8.86a16.84,16.84,0,0,1-7.06-13.71v-8.17Z"/><path d="M77.25,719.28a6.36,6.36,0,0,1-9-1.66l-6.6-10.53-4.21,10.2a6.54,6.54,0,0,0-.13,4.65l5.09,14.68a5.91,5.91,0,0,0,9,2.87l12.43-8.86a16.84,16.84,0,0,0,7.06-13.71v-8.17Z"/><path class="cls-1" d="M64.26,700.8l.25-.61,7-30.14L61.68,361.53h95.66L169.45,663.6l.26,6.45,7,30.14.25.61,2.59,6.29L173,717.62a6.36,6.36,0,0,1-9,1.66l-13.69-10.53v-38.7L121.46,414.92a11,11,0,0,0-4.77-8.08,8,8,0,0,0-7.93-.36,11.12,11.12,0,0,0-6.06,9.61L91,670.05h0v38.7L77.25,719.28a6.36,6.36,0,0,1-9-1.66l-6.6-10.53Z"/><path class="cls-2" d="M116.22,347.26a2.17,2.17,0,0,1,2,2.33,2.62,2.62,0,0,1-.22,1l-2.63-3.08A1.68,1.68,0,0,1,116.22,347.26Z"/><path class="cls-3" d="M115.35,347.53l2.63,3.08a2,2,0,0,1-1.76,1.3,2.17,2.17,0,0,1-2-2.32A2.37,2.37,0,0,1,115.35,347.53Z"/><path class="cls-2" d="M116.22,340.42a2.17,2.17,0,0,1,2,2.32,2.67,2.67,0,0,1-.22,1l-2.63-3.09A1.77,1.77,0,0,1,116.22,340.42Z"/><path class="cls-3" d="M115.35,340.68l2.63,3.09a2,2,0,0,1-1.76,1.3,2.18,2.18,0,0,1-2-2.33A2.37,2.37,0,0,1,115.35,340.68Z"/><path class="cls-2" d="M116.22,354.8a2.17,2.17,0,0,1,2,2.32,2.62,2.62,0,0,1-.22,1l-2.63-3.08A1.67,1.67,0,0,1,116.22,354.8Z"/><path class="cls-3" d="M115.35,355.06l2.63,3.08a2,2,0,0,1-1.76,1.3,2.17,2.17,0,0,1-2-2.32A2.37,2.37,0,0,1,115.35,355.06Z"/><polygon class="cls-4" points="101.88 95.73 123.94 95.73 123.94 97.61 101.88 119.67 101.88 95.73"/><path class="cls-1" d="M123.94,97.61v26.44a11,11,0,1,1-22.07,0v-4.37Z"/><path class="cls-1" d="M112.17,99.42h0c15.64,0,23.42-10.13,26.32-28.33l2-45.58a8.87,8.87,0,0,0-8.86-8.87H92.71a8.87,8.87,0,0,0-8.87,8.87l2,45.58C87.85,88.35,96.52,99.42,112.17,99.42Z"/><circle cx="99.31" cy="50.67" r="3.13"/><circle cx="127.07" cy="50.67" r="3.13"/><path class="cls-5" d="M116,66.85l-3.42,2.75a.69.69,0,0,1-.85,0l-3.57-2.76a.69.69,0,0,1,.43-1.23h7A.69.69,0,0,1,116,66.85Z"/><path class="cls-1" d="M138.49,71.09s8.59-6.7,6.84-15.19a1.26,1.26,0,0,0-.16-.42c-.48-.83-2.51-3.81-5.93-1.33Z"/><path class="cls-4" d="M138.62,68.49s6-4.21,4.92-10.82c0,0-.72-4.26-4.21-1.62Z"/><path d="M102.45,38.76c-3-2.27-6.71-1.61-9.28,1-.84.84-2-.62-1.14-1.45a8.68,8.68,0,0,1,11.53-1,.92.92,0,0,1-1.11,1.47Z"/><path d="M120.79,36a8.68,8.68,0,0,1,11,3.52c.62,1-.8,2.16-1.43,1.16-1.94-3.07-5.41-4.54-8.84-3a.92.92,0,0,1-.75-1.68Z"/><path class="cls-5" d="M117.68,91.29s4.65-2.78-5.51-2.59Z"/><path class="cls-6" d="M112.91,45.74v-6a8.72,8.72,0,0,0,1.39-3.5A53.91,53.91,0,0,1,112.91,45.74Z"/><path class="cls-1" d="M86.05,71.13s-8.58-6.71-6.84-15.2a1.29,1.29,0,0,1,.16-.41c.48-.83,2.51-3.82,5.93-1.34Z"/><path class="cls-4" d="M85.92,68.53S80,64.32,81,57.71c0,0,.71-4.27,4.2-1.62Z"/><path class="cls-7" d="M105.93,78.4c0-1.09,1.65-2,3.68-2a5.76,5.76,0,0,1,2.48.52,5.72,5.72,0,0,1,2.48-.52c2,0,3.67.88,3.67,2a1.13,1.13,0,0,1-.13.5c-.45,1.58-3,2.8-6,2.8s-5.57-1.21-6-2.8A1.14,1.14,0,0,1,105.93,78.4Z"/><path class="cls-8" d="M117.58,78.8a14,14,0,0,0-5.34,0,13,13,0,0,1-5.31,0"/><path class="cls-8" d="M117.58,78.8a8.94,8.94,0,0,0-2.66-.65,8.16,8.16,0,0,0-2.78.17c-.81.17-1.7.28-2.56.38a19.27,19.27,0,0,1-2.65.1,6.51,6.51,0,0,0,2.67.68,10.84,10.84,0,0,0,2.77-.19A27.26,27.26,0,0,1,117.58,78.8Z"/><path d="M85.41,53.22c-7.08,1.58-7.9-22.55-5-31.2,4-11.63,25.47-13.16,25.47-13.16S131.58,9.94,136,12.1s6,7.73,6,7.73,8,31.2-2.7,32.32l-.84-29.77S135,36,112.91,39.7c11.78-19.77-18-26.5-27.8,9.4C84.38,51.77,85.35,49.87,85.41,53.22Z"/><path class="cls-9" d="M114.64,64.14h-5.18a1.37,1.37,0,0,1-1.35-1.55l2.21-16.33A1.36,1.36,0,0,1,113,46.2l3,16.33A1.36,1.36,0,0,1,114.64,64.14Z"/><path class="cls-10" d="M81.61,123h9.53a21.66,21.66,0,0,0-.51,4.59,21.42,21.42,0,0,0,42.84,0A21,21,0,0,0,133,123h9.59a26.3,26.3,0,0,1,26.29,26.3V334.39a6.51,6.51,0,0,1-6.5,6.51H61.82a6.51,6.51,0,0,1-6.5-6.51V149.33A26.3,26.3,0,0,1,81.61,123Z"/><path class="cls-11" d="M165.7,318.63,57.18,321.77l3.67,354.62H96.9l9.94-265.09a4.87,4.87,0,0,1,.85-2.58c1.45-2.09,4.61-5.34,7.26,1.19a5,5,0,0,1,.32,1.32l24,267.34h37.41Z"/><path class="cls-12" d="M196.06,309.52h0c1.79,10.8-3.36,21.38-10.54,21.61l-17,.57V309.52Z"/><path class="cls-13" d="M142.8,229.47c-1.51-4.3-5.92-12.06-18.45-15.36a21.65,21.65,0,0,0-16.94,2.44c-4.27,2.76-11,5.57-19,3.39-9.12-2.5-10.9-12.33-3.39-17.37a26.68,26.68,0,0,1,11.76-4.89s49-7.63,47.06,31.67C143.82,229.86,143,230,142.8,229.47Z"/><path class="cls-13" d="M154.08,265.09s-28.45,17.6-84.74,40.76l7.23,2.95c34.66,14.12,73.71-7.9,77.51-43.71Z"/><path class="cls-1" d="M112.05,149a21.42,21.42,0,0,1-21.42-21.42,21.66,21.66,0,0,1,.51-4.59H133a21,21,0,0,1,.51,4.59A21.42,21.42,0,0,1,112.05,149Z"/><path class="cls-11" d="M9.41,185.6C-8,224-2.89,273.33,39,269c10.2-1.05,3.13-38.5,1.6-40.86-21.53-33.36,68.62-103,26.48-103C62.77,125.14,25.26,150.75,9.41,185.6Z"/><path class="cls-11" d="M138.62,357.91h28.8a12,12,0,0,0,12-12L168.65,135.67a12,12,0,0,0-12-12l-18.16-1.76c-6.62,0-12.53,3.38-12.53,10l-11.26,162,11.92,52C129.55,353.76,132,357.91,138.62,357.91Z"/><path class="cls-14" d="M90.77,357.91H62a12,12,0,0,1-12-12L61,135.67a12,12,0,0,1,12-12l16.23-1.76a12,12,0,0,1,12,12l13.45,160-11.93,52C99.84,353.76,97.4,357.91,90.77,357.91Z"/><path class="cls-11" d="M90.94,357.73H62.14a12,12,0,0,1-12-12l11-210.24a12,12,0,0,1,12-12L87,121.91a12,12,0,0,1,12,12l15.88,159.8-11.92,52C100,353.58,97.57,357.73,90.94,357.73Z"/><path class="cls-15" d="M126.2,120.87l-11.5,173,34.18-132.47s-17.34-9-18.14-9.61,22.51-3.8,22.51-3.8L139,118.35Z"/><path class="cls-15" d="M100.75,120.87l14,173L78.07,161.42s17.35-9,18.14-9.61S73.7,148,73.7,148l14.22-29.66Z"/><rect class="cls-12" x="37.7" y="166.44" width="72" height="110.15" transform="translate(174.97 431.85) rotate(172.7)"/><rect class="cls-16" x="36.76" y="166.94" width="72" height="110.15" transform="translate(162.41 437.77) rotate(175.58)"/><rect class="cls-17" x="35.1" y="165.44" width="72" height="110.15" transform="translate(158.98 434.89) rotate(175.58)"/><path class="cls-1" d="M80,267.08l5.14-16.95a.78.78,0,0,0-.63-1l-44.38-5.89-5.61,18.47,44.59,5.92A.8.8,0,0,0,80,267.08Z"/><path class="cls-1" d="M101.66,267.7l.53-.28A3,3,0,0,1,101.66,267.7Z"/><path class="cls-1" d="M96.36,266.17l3.13-10.31c.68-2.25-1.07-4.46-3.91-4.93L69.74,246.7a.78.78,0,0,0-.88.55l-5.14,16.94a.79.79,0,0,0,.62,1L90,269.4C92.82,269.87,95.68,268.42,96.36,266.17Z"/><path class="cls-1" d="M88.68,250.73c-.62,1-1.41,1.81-.07,3.71h0l.06,0,5,3a.79.79,0,0,0,1.08-.27L96,255.3a.8.8,0,0,0,0-.9l-.47-.6a.79.79,0,0,1,.42-1.25l9.41-2.46h0a1.67,1.67,0,0,0,1.29-2.18,2.53,2.53,0,0,0-2.77-1.13h0L90,249.83a.78.78,0,0,0-.29.14l-1,.76"/><path class="cls-18" d="M104.05,249.34a.79.79,0,0,0,1.08.33c.74-.39,1.15-1,1-1.6-.23-.76-1.39-1.16-2.59-.88a2.44,2.44,0,0,0-.5.16Z"/><path class="cls-1" d="M112.88,254.31c2.59.49,2.8,1.85,2.58,2.9s-1.74,1-3.38.88l-16.16-1.22a.79.79,0,0,1-.63-1l.85-2.82a.79.79,0,0,1,.9-.55Z"/><path class="cls-1" d="M112.88,259.28c2.59.49,3.43,1.61,3.21,2.66s-1.44,1.65-4.07,1.33L95.94,261.6a.79.79,0,0,1-.64-1l.86-2.82a.79.79,0,0,1,.89-.55Z"/><path class="cls-1" d="M112.55,264.57c2.59.49,3.2,1.28,3,2.32s-1.2,2-3.83,1.67l-19.47-2.89a.79.79,0,0,1-.64-1l.86-2.82a.79.79,0,0,1,.89-.55Z"/><path class="cls-1" d="M109,268.73c2.59.47,4.52,1.52,4.35,2.4s-2.39,1.29-5,.95l-22.2-3.47a.79.79,0,0,1-.64-1l.64-2.12a.8.8,0,0,1,.89-.55Z"/><path class="cls-1" d="M55.57,222.89l-.21-.57A3,3,0,0,0,55.57,222.89Z"/><path class="cls-1" d="M64.54,227.28l4.54-9.77c1-2.14,3.76-2.62,6.2-1.07L97.36,230.5a.78.78,0,0,1,.3,1L90.2,247.56a.79.79,0,0,1-1.14.33L67.15,234C64.72,232.4,63.55,229.41,64.54,227.28Z"/><path class="cls-1" d="M80.55,220.88c-.21,1.18-.15,2.3-2.41,2.81h0l-.06,0-5.76-1.11a.79.79,0,0,1-.63-.92l.4-2.2a.8.8,0,0,1,.64-.63l.75-.14a.79.79,0,0,0,.52-1.21l-5.38-8.1h0a1.68,1.68,0,0,1,.49-2.49,2.52,2.52,0,0,1,2.82,1h0l8.24,11.46a.81.81,0,0,1,.13.3l.26,1.25"/><path class="cls-18" d="M70,209.61a.8.8,0,0,1-1-.48c-.29-.78-.29-2.84.23-3.16.68-.42,1.92,1.38,2.63,2.38a3.67,3.67,0,0,1,.27.46Z"/><path class="cls-1" d="M57.22,206c-2.26-1.37-3.47-.93-4,0s1,3,1,2.81l16.86,11.85a.79.79,0,0,0,1.15-.32l1.24-2.68a.78.78,0,0,0-.3-1Z"/><path class="cls-1" d="M52.81,209.14c-2.26-1.37-3.63-1.09-4.16-.16s0,2.19,2.14,3.7L67.9,224.15a.79.79,0,0,0,1.15-.33l1.24-2.67a.78.78,0,0,0-.3-1Z"/><path class="cls-1" d="M49.53,213.3c-2.25-1.37-3.23-1.18-3.76-.25s-.43,2.28,1.74,3.79L68,229.67a.8.8,0,0,0,1.15-.33l1.24-2.68a.78.78,0,0,0-.3-1Z"/><path class="cls-1" d="M49.41,218.77c-2.25-1.38-4.39-1.88-4.85-1.11s.93,2.55,3.11,4.05l22.87,14.21a.79.79,0,0,0,1.15-.33l.93-2a.78.78,0,0,0-.3-1Z"/><path class="cls-11" d="M34.72,226.85h0c14,16.39,43.92,17.81,43.92,17.81l-3.76,24.46S34,276.43,19.52,265.57l-5-2.21Z"/><path class="cls-11" d="M189.88,213.45C185,255.31,155,294.89,121.39,269.5c-8.18-6.17,17.24-34.57,19.77-35.8,35.68-17.41-9.8-127.84,26.27-106C171.15,129.91,194.35,175.42,189.88,213.45Z"/><path class="cls-1" d="M86.05,244.19l5.61-14.71c.11-.46-.55-2.86-.11-2.68l42.2,20.07L129,265.57l-41.23-18A9.32,9.32,0,0,1,86.05,244.19Z"/><path class="cls-11" d="M146.1,236.69h0c-8.61-.64-43.91-12.41-51.9-12.41l-17.92,19s40.4,24.34,50.05,29.25l4.54,2.3Z"/><path d="M101.12,16.85a15.73,15.73,0,0,0-.6-2,16.78,16.78,0,0,0-16.37-11,16.6,16.6,0,0,1,1.66-.72,16.78,16.78,0,0,1,21.5,10,18.79,18.79,0,0,1,.6,2A16.79,16.79,0,0,1,97.27,34.59a15.57,15.57,0,0,1-1.73.52,15.89,15.89,0,0,1-3.33.46A16.77,16.77,0,0,0,101.12,16.85Z"/><path d="M108.6,12.17a8.48,8.48,0,0,1-.88-.92C105,7.88,106,3.32,109.84,0c-.44.18-.87.37-1.29.58C102.14,3.8,99.73,9.8,103.17,14a7.54,7.54,0,0,0,.88.91c3.78,3.38,11,3.82,16.94.85.42-.21.82-.44,1.21-.67a14.87,14.87,0,0,0,2-1.47C118.58,15.9,112.1,15.29,108.6,12.17Z"/><path d="M107.94,23.64a16.45,16.45,0,0,0-.61-2,16.79,16.79,0,0,0-16.42-11c.54-.26,1.09-.51,1.66-.72a16.78,16.78,0,0,1,11.58,31.49,15.57,15.57,0,0,1-1.73.52,16.62,16.62,0,0,1-3.33.48A16.79,16.79,0,0,0,107.94,23.64Z"/><path class="cls-19" d="M85.49,168.4c0-.27-.06-.66.14-.86,0-.29.5-.26.42-.44s-.26,0-.35,0-.67.26-.91.31l-.31-.07a1.46,1.46,0,0,0-.79.67c-.16.23-.37.75-.15,1l0,.2.49.62c.16.09.19.17.36.27l.11.15a.89.89,0,0,0,.61,0c.64,0,.47-1.27.66-1.56A.59.59,0,0,0,85.49,168.4ZM83,172.5a3.82,3.82,0,0,0,.48-.15c.19-.11.82-.63.58-1-.13-.79-1-.05-1.47-.3-.42,0-.94-.77-1.09-1.09a.5.5,0,0,0-.11-.19l0,0c-.11.15-.08.27-.07.62h-.16a.4.4,0,0,1-.07.26l0,.07c-.1,0-.05,0-.1-.07-.38.05-.32.43-.48.66C80.52,172.07,82,172.84,83,172.5ZM87.56,170a2.81,2.81,0,0,0-1.19.54.83.83,0,0,0-.23.26.36.36,0,0,0,0,.26.43.43,0,0,0,.18.29c.75-.12,2.07-.26,2.37.36a1,1,0,0,0,0,.16c.24-.08.06,0,.43,0a1.31,1.31,0,0,0,.43-.1.23.23,0,0,0,.1-.08.41.41,0,0,1,0-.09.39.39,0,0,0,.18,0c.35-.09.15-.24.3-.44C90,169.9,88.71,169.71,87.56,170Zm-1.16,2.69c-.17.15-.24.12-.33.33,0,0,0,0,0,0,.12.21.36.27.55.41s.23.29.3.3.16.35.21.34,0,.25.07.32c0,.31-.23-.72-.28-.66s.25,1.13.26,1.15.14.1.2.08a2.68,2.68,0,0,1,1,.59c.51,0,.46-.15.79-.33.09,0,.17,0,.22-.08s.06-.2.12-.27C89.39,173.66,87.64,172.62,86.4,172.67Zm-1.94.42c-.07.08-.25.12-.3.21a3.07,3.07,0,0,1-.38.59,1.69,1.69,0,0,1-2,.39s0,0,0,.14.28.76.22.91.1.09.19.17.1.2.17.24l.22,0a1.12,1.12,0,0,1,0,.13l.29,0a2.29,2.29,0,0,1,.28.09l.33,0a.8.8,0,0,0,.66-.23c.11-.08.23-.08.33-.18a1.75,1.75,0,0,0,.23-2.28C84.74,173.05,84.64,173.06,84.46,173.09Z"/><path class="cls-20" d="M96.21,169.42a1.64,1.64,0,0,1,1.86,1.68,1.74,1.74,0,0,1-1.81,2l-1.34.1c0-.09,0-.3,0-.57l-.19-2.57c0-.27,0-.44,0-.56Zm-.07,3c.56,0,1-.26.94-1.26s-.55-1.1-1.12-1.06l-.29,0,.17,2.32Z"/><path class="cls-20" d="M99.62,172.32c0,.27.06.56.06.56l-1,.08s0-.3,0-.57l-.19-2.57c0-.27,0-.56,0-.56l2.35-.18,0,.72-.7,0-.67,0,.06.74.66,0,.55-.05.05.68-.55,0-.66.06Z"/><path class="cls-20" d="M92.88,172.63a.78.78,0,0,1-.88-.74v0l1.16-.11c.5,0,.7-.05,1.09-.09l0-.28c-.09-1.26-.67-1.83-1.77-1.75-.51,0-1.67.32-1.54,2.08.08,1.18.73,1.84,1.77,1.76a2.68,2.68,0,0,0,1.64-.6l-.43-.64A1.66,1.66,0,0,1,92.88,172.63Zm-.94-1.49a.66.66,0,0,1,.58-.76c.56,0,.62.43.64.68v.05l-.59,0-.63,0Z"/><path class="cls-18" d="M55.59,208.14c-.26.36-1-.35-1.3-.64-.65-.57-1.77-1.56-1.06-2.27,1-1,1.9-.4,3,.06a9.28,9.28,0,0,1,.78.58Z"/><path class="cls-18" d="M51.35,211.41c-.26.36-1-.35-1.3-.64-.65-.57-1.77-1.56-1.06-2.27,1-1,1.9-.4,3,.06a9.28,9.28,0,0,1,.78.58Z"/><path class="cls-18" d="M48.3,215.73c-.26.36-1-.35-1.3-.64-.65-.56-1.77-1.56-1.06-2.26,1-1,1.9-.4,3,0,.17.07.63.49.78.58Z"/><path class="cls-18" d="M47.36,220.21c-.23.3-1-.38-1.29-.66-.66-.54-1.8-1.51-1.16-2.11.91-.84,1.81-.25,2.94.23.17.08.64.48.79.57Z"/><polygon class="cls-10" points="68.28 271.53 80.37 271.53 81.66 244.85 68.8 243.41 68.28 271.53"/><polygon class="cls-10" points="76.22 243.45 83.45 250.52 100.45 225.2 90.31 222.61 76.22 243.45"/></g></svg>