<svg id="Layer_1" data-name="Layer 1" xmlns="http://www.w3.org/2000/svg" viewBox="0 0 196.69 757.95"><defs><style>.cls-1{fill:#42210b;}.cls-2{fill:#ead2b2;}.cls-3{fill:#9b004a;}.cls-4{fill:#ccc;}.cls-5{fill:#b3b3b3;}.cls-6{fill:#ceaf8e;}.cls-11,.cls-7{fill:#dbbd9c;}.cls-8{fill:none;}.cls-9{fill:#99002f;}.cls-10{fill:#7f0330;}.cls-11{opacity:0.5;}.cls-12{fill:#f2f2f2;}.cls-13{fill:#4c4c4c;}.cls-14{fill:#aaa;opacity:0.6;}.cls-15{fill:#9e9e9e;}.cls-16{fill:#1e5b10;}.cls-17{fill:#247a13;}.cls-18{fill:#ffe000;}.cls-19{fill:#f15a22;fill-rule:evenodd;}.cls-20{fill:#003974;}</style></defs><title>Artboard 12</title><path class="cls-1" d="M133,68C133,98,103.68,123,83.8,123S32.27,99.51,32.27,69.51,39.16,0,83.09,0C126.65,0,133,38,133,68Z"/><path d="M32.72,736.64a6.35,6.35,0,0,1-9-1.66l-6.61-10.54-4.21,10.21a6.57,6.57,0,0,0-.13,4.64L17.89,754a5.93,5.93,0,0,0,9,2.88L39.35,748a16.84,16.84,0,0,0,7.06-13.71V726.1Z"/><path d="M119.45,736.64a6.35,6.35,0,0,0,9-1.66L135,724.44l4.2,10.21a6.57,6.57,0,0,1,.14,4.64L134.27,754a5.92,5.92,0,0,1-9,2.88L112.82,748a16.84,16.84,0,0,1-7.06-13.71V726.1Z"/><path class="cls-2" d="M132.43,718.15l-.25-.6-7-30.14L135,378.88H39.36L27.25,681,27,687.41l-7,30.14-.25.6-2.6,6.29L23.75,735a6.35,6.35,0,0,0,9,1.66L46.41,726.1V687.41L74.94,453.46a11,11,0,0,1,4.76-8.08,7.94,7.94,0,0,1,7.93-.35,11.08,11.08,0,0,1,6.06,9.61l12,232.77h0V726.1l13.69,10.54a6.35,6.35,0,0,0,9-1.66L135,724.44Z"/><polygon class="cls-2" points="6.58 388.78 25.19 393.25 28.32 327.77 9.39 324.19 6.58 388.78"/><path class="cls-2" d="M8.4,410l.32.51A3.36,3.36,0,0,1,8.4,410Z"/><path class="cls-2" d="M9.51,404.56,20,406.87c2.3.51,4.37-1.41,4.61-4.28l1.66-28.35L8.07,371.66,5.79,398.44C5.55,401.31,7.21,404.05,9.51,404.56Z"/><path class="cls-2" d="M24.31,395.7c-1.07-.54-1.92-1.27-3.7.22h0V396l-3,5.95,3.17,1.62,1.86-1.69,3.57,10.32h0c.45,1.06,1.44,1.57,2.28,1.11a2.5,2.5,0,0,0,.91-2.84h0L25.26,396.8l-1-1.1"/><path class="cls-3" d="M26.3,411.28c.37,1.16,1.27,1.87,2,1.59s1.06-1.48.69-2.65a4.53,4.53,0,0,0-.2-.49Z"/><path class="cls-2" d="M21.1,426.36c-.28,2.62-1.32,4.6-2.38,4.45s-1.78-2.35-1.66-5l1.76-23.32,4.45,1Z"/><path class="cls-2" d="M16.38,426.74c-.28,2.62-1.32,4.6-2.38,4.46s-1.78-2.36-1.66-5l1.76-23.33,4.46,1Z"/><path class="cls-2" d="M12,423.35c-.29,2.62-1.32,4.6-2.38,4.46s-1.78-2.36-1.67-5l1.77-23.33,4.45,1Z"/><path class="cls-2" d="M8,417.35C7.67,420,6.78,422,5.88,421.88S4.42,419.6,4.55,417l1.8-23.31,3.73.82Z"/><path class="cls-3" d="M17.58,427.23c-.21,1.35.23,2.7,1,3s1.58-.52,1.8-1.87a4.28,4.28,0,0,0,.05-.6Z"/><path class="cls-3" d="M12.82,427.63c-.21,1.35.24,2.7,1,3s1.57-.52,1.79-1.87a4.16,4.16,0,0,0,.05-.6Z"/><path class="cls-3" d="M8.48,424.17c-.21,1.35.23,2.7,1,3s1.58-.52,1.8-1.87a4.28,4.28,0,0,0,.05-.6Z"/><path class="cls-3" d="M5,418.91c-.16,1.1.18,2.18.77,2.43s1.23-.43,1.4-1.52a4.22,4.22,0,0,0,0-.49Z"/><path class="cls-4" d="M80.47,364.62a2.17,2.17,0,0,0-2,2.32,2.67,2.67,0,0,0,.22,1l2.63-3.09A1.74,1.74,0,0,0,80.47,364.62Z"/><path class="cls-5" d="M81.34,364.88,78.71,368a2,2,0,0,0,1.76,1.3,2.17,2.17,0,0,0,2-2.33A2.34,2.34,0,0,0,81.34,364.88Z"/><path class="cls-4" d="M80.47,357.77a2.18,2.18,0,0,0-2,2.33,2.62,2.62,0,0,0,.22,1L81.34,358A1.65,1.65,0,0,0,80.47,357.77Z"/><path class="cls-5" d="M81.34,358l-2.63,3.08a2,2,0,0,0,1.76,1.3,2.17,2.17,0,0,0,2-2.32A2.34,2.34,0,0,0,81.34,358Z"/><path class="cls-4" d="M80.47,372.15a2.17,2.17,0,0,0-2,2.32,2.63,2.63,0,0,0,.22,1l2.63-3.09A1.74,1.74,0,0,0,80.47,372.15Z"/><path class="cls-5" d="M81.34,372.41l-2.63,3.09a2,2,0,0,0,1.76,1.3,2.17,2.17,0,0,0,2-2.33A2.34,2.34,0,0,0,81.34,372.41Z"/><polygon class="cls-6" points="94.82 113.08 72.75 113.08 72.75 114.97 94.82 137.03 94.82 113.08"/><path class="cls-2" d="M72.75,115v26.44a11,11,0,0,0,22.07,0V137Z"/><path class="cls-2" d="M84.53,116.77h0c-15.65,0-23.43-10.13-26.33-28.32l-2-45.58A8.87,8.87,0,0,1,65.07,34H104a8.87,8.87,0,0,1,8.86,8.87l-2,45.58C108.84,105.7,100.17,116.77,84.53,116.77Z"/><circle cx="97.38" cy="68.02" r="3.13"/><circle cx="69.62" cy="68.02" r="3.13"/><path class="cls-7" d="M80.68,84.2,84.1,87A.69.69,0,0,0,85,87l3.56-2.75A.69.69,0,0,0,88.1,83h-7A.69.69,0,0,0,80.68,84.2Z"/><path class="cls-2" d="M58.2,88.45s-8.58-6.71-6.84-15.2a1.46,1.46,0,0,1,.16-.41C52,72,54,69,57.46,71.5Z"/><path class="cls-6" d="M58.08,85.85s-6-4.22-4.92-10.82c0,0,.71-4.27,4.2-1.62Z"/><path d="M94.24,56.12c3-2.27,6.72-1.61,9.29,1,.83.83,2-.62,1.13-1.45a8.66,8.66,0,0,0-11.52-1,.92.92,0,0,0,1.1,1.47Z"/><path d="M75.91,53.37a8.66,8.66,0,0,0-11,3.52c-.63,1,.8,2.16,1.43,1.15,1.93-3.07,5.4-4.54,8.83-3a.92.92,0,0,0,.76-1.68Z"/><path class="cls-7" d="M79,108.64s-4.64-2.78,5.52-2.59Z"/><path class="cls-8" d="M83.79,63.09v-6a8.66,8.66,0,0,1-1.4-3.5A52.69,52.69,0,0,0,83.79,63.09Z"/><path class="cls-2" d="M110.65,88.48s8.58-6.7,6.83-15.19a1.34,1.34,0,0,0-.15-.41c-.48-.84-2.52-3.82-5.94-1.34Z"/><path class="cls-6" d="M110.77,85.88s6-4.21,4.92-10.82c0,0-.71-4.26-4.21-1.62Z"/><path class="cls-9" d="M90.76,95.75c0-1.09-1.65-2-3.68-2a5.57,5.57,0,0,0-2.47.53,5.61,5.61,0,0,0-2.48-.53c-2,0-3.68.88-3.68,2a1.11,1.11,0,0,0,.14.5c.44,1.59,3,2.8,6,2.8s5.56-1.21,6-2.79A1.15,1.15,0,0,0,90.76,95.75Z"/><path class="cls-10" d="M79.11,96.16a14,14,0,0,1,5.34,0,13.23,13.23,0,0,0,5.31,0"/><path class="cls-10" d="M79.11,96.16a8.8,8.8,0,0,1,2.66-.66,8.4,8.4,0,0,1,2.78.17,25.83,25.83,0,0,0,2.56.38,19.24,19.24,0,0,0,2.65.11,6.46,6.46,0,0,1-2.66.67,10.81,10.81,0,0,1-2.77-.19A26.67,26.67,0,0,0,79.11,96.16Z"/><path class="cls-1" d="M111.39,71.54,115,39l-5.8-9.93L90.76,26.22,56.2,30.61l-1.54,6.58s-8,31.19,2.71,32.32l.83-29.78S61.68,53.4,83.79,57.05C71.16,35.86,112.27,21.54,111.39,71.54Z"/><path class="cls-11" d="M82.05,81.49h5.18A1.36,1.36,0,0,0,88.58,80l-2.2-16.33a1.36,1.36,0,0,0-2.69-.07l-3,16.34A1.36,1.36,0,0,0,82.05,81.49Z"/><path class="cls-12" d="M115.08,140.39h-9.53a21,21,0,0,1,.51,4.59,21.42,21.42,0,0,1-42.83,0,21.66,21.66,0,0,1,.5-4.59H54.14a26.29,26.29,0,0,0-26.29,26.29V351.75a6.5,6.5,0,0,0,6.5,6.5H134.87a6.5,6.5,0,0,0,6.51-6.5V166.68A26.3,26.3,0,0,0,115.08,140.39Z"/><path class="cls-13" d="M30.34,338l108.52,3.14-3.67,354.61h-36L89,453.44s-4.7-9.29-8.3.53L56.78,697.91H19.37Z"/><polygon class="cls-13" points="27.25 165.36 0 328.52 27.53 328.52 27.25 165.36"/><path class="cls-12" d="M.63,326.87h0C-1.16,337.68,4,348.25,11.17,348.49l17,.57V326.87Z"/><path class="cls-14" d="M53.89,246.82c1.51-4.3,5.93-12.06,18.45-15.36a21.64,21.64,0,0,1,16.94,2.45c4.27,2.76,11,5.57,19,3.38,9.13-2.49,10.9-12.32,3.4-17.36A26.61,26.61,0,0,0,99.9,215S51,207.4,52.85,246.71C52.87,247.21,53.72,247.3,53.89,246.82Z"/><path class="cls-14" d="M42.61,282.45s28.45,17.6,84.75,40.75l-7.24,2.95c-34.65,14.13-73.71-7.9-77.51-43.7Z"/><path class="cls-2" d="M84.64,166.39A21.42,21.42,0,0,0,106.06,145a21,21,0,0,0-.51-4.59H63.73a21.66,21.66,0,0,0-.5,4.59A21.41,21.41,0,0,0,84.64,166.39Z"/><path class="cls-13" d="M187.28,203c17.45,38.36,12.31,87.72-29.61,83.4-10.2-1.05-3.13-38.51-1.61-40.87,21.54-33.35-68.62-103-26.48-103C133.92,142.5,171.43,168.1,187.28,203Z"/><path class="cls-13" d="M58.08,375.27H29.27a12,12,0,0,1-12-12L28,153a12,12,0,0,1,12-12l18.16-1.76c6.63,0,12.53,3.37,12.53,10L82,311.25l-11.92,52C67.14,371.11,64.7,375.27,58.08,375.27Z"/><path class="cls-13" d="M105.92,375.27h28.8a12,12,0,0,0,12-12L135.67,153a12,12,0,0,0-12-12l-16.23-1.76a12,12,0,0,0-12,12L82,311.25l11.92,52C96.85,371.11,99.29,375.27,105.92,375.27Z"/><path class="cls-13" d="M105.75,375.09h28.81a12,12,0,0,0,12-12L135.51,152.85a12,12,0,0,0-12-12l-13.79-1.58a12,12,0,0,0-12,12L81.83,311.07l11.92,52C96.69,370.93,99.13,375.09,105.75,375.09Z"/><path class="cls-15" d="M70.49,138.22,82,311.25,47.81,178.78s17.35-9,18.14-9.61-22.51-3.81-22.51-3.81l14.22-29.65Z"/><path class="cls-15" d="M95.94,138.22,82,311.25l36.62-132.47s-17.34-9-18.14-9.61S123,165.36,123,165.36l-14.22-29.65Z"/><rect class="cls-12" x="86.99" y="183.79" width="72" height="110.15" transform="matrix(0.99, 0.13, -0.13, 0.99, 31.37, -13.7)"/><rect class="cls-16" x="84.93" y="185.29" width="72" height="110.15" transform="translate(18.88 -8.6) rotate(4.42)"/><rect class="cls-17" x="86.59" y="183.79" width="72" height="110.15" transform="translate(18.77 -8.73) rotate(4.42)"/><path class="cls-2" d="M116.66,284.43l-5.15-16.94a.79.79,0,0,1,.63-1l44.39-5.89,5.6,18.47L117.54,285A.78.78,0,0,1,116.66,284.43Z"/><path class="cls-2" d="M95,285.06l-.53-.29A3.39,3.39,0,0,0,95,285.06Z"/><path class="cls-2" d="M100.33,283.52l-3.13-10.3c-.68-2.26,1.07-4.46,3.92-4.93L127,264.05a.8.8,0,0,1,.89.55L133,281.54a.79.79,0,0,1-.63,1l-25.63,4.21C103.88,287.23,101,285.78,100.33,283.52Z"/><path class="cls-2" d="M108,268.08c.62,1,1.41,1.82.07,3.71h0l-.07,0-5,3a.79.79,0,0,1-1.08-.27l-1.16-1.91a.78.78,0,0,1,.05-.89l.47-.61a.78.78,0,0,0-.43-1.24l-9.41-2.46h0c-1.09-.37-1.67-1.32-1.28-2.19a2.5,2.5,0,0,1,2.76-1.12h0l13.78,3.05a.81.81,0,0,1,.3.13l1,.76"/><path class="cls-3" d="M92.65,266.7a.81.81,0,0,1-1.09.33c-.73-.39-1.15-1-1-1.6.23-.77,1.38-1.17,2.59-.89a4.16,4.16,0,0,1,.5.16Z"/><path class="cls-2" d="M83.81,271.67c-2.59.48-2.8,1.84-2.57,2.89s1.73,1,3.37.88l16.16-1.22a.79.79,0,0,0,.64-1l-.86-2.82a.79.79,0,0,0-.89-.55Z"/><path class="cls-2" d="M83.81,276.64c-2.59.48-3.43,1.61-3.21,2.65S82,281,84.67,280.63L100.76,279a.79.79,0,0,0,.63-1l-.86-2.83a.79.79,0,0,0-.89-.55Z"/><path class="cls-2" d="M84.15,281.93c-2.6.48-3.2,1.27-3,2.32s1.2,2,3.83,1.67L104.47,283a.79.79,0,0,0,.64-1l-.86-2.83a.8.8,0,0,0-.89-.55Z"/><path class="cls-2" d="M87.7,286.08c-2.6.48-4.53,1.53-4.36,2.41s2.39,1.28,5,.95L110.57,286a.79.79,0,0,0,.63-1l-.64-2.12a.79.79,0,0,0-.89-.55Z"/><path class="cls-3" d="M86.13,288.26a.79.79,0,0,1-.78,1,1.73,1.73,0,0,1-1.46-.67.8.8,0,0,1,.32-1l1.92.67Z"/><path class="cls-12" d="M161.83,245.49h0a13.56,13.56,0,0,0-16.44,12.13l-.78,9.5v.19a17.62,17.62,0,0,0,18.84,19.05l5.08-.38Z"/><path class="cls-1" d="M95.57,34.21a14.86,14.86,0,0,1,.6-2,16.77,16.77,0,0,1,16.38-11,16.31,16.31,0,0,0-1.66-.72,16.77,16.77,0,0,0-21.5,10,15.73,15.73,0,0,0-.6,2A16.77,16.77,0,0,0,99.42,52a18,18,0,0,0,1.73.52,17.43,17.43,0,0,0,3.34.46A16.77,16.77,0,0,1,95.57,34.21Z"/><path class="cls-1" d="M88.76,41a17.47,17.47,0,0,1,.6-2,16.79,16.79,0,0,1,16.42-11,16.37,16.37,0,0,0-1.66-.73,16.78,16.78,0,0,0-21.53,10,17.54,17.54,0,0,0-.61,2A16.77,16.77,0,0,0,92.54,58.74c.58.21,1.15.38,1.73.53a16.69,16.69,0,0,0,3.34.47A16.76,16.76,0,0,1,88.76,41Z"/><rect class="cls-18" x="56.2" y="85.85" width="1.18" height="11.91" rx="0.59"/><rect class="cls-18" x="111.28" y="85.85" width="1.18" height="11.91" rx="0.59"/><path class="cls-19" d="M141.3,196.29c.07-.26.09-.66.32-.82s.55-.15.5-.34-.25-.09-.33-.08-.72.11-1,.11l-.29-.13a1.43,1.43,0,0,0-.91.5c-.21.18-.52.65-.37,1l-.06.2.36.7c.13.13.14.22.29.35l.08.16a.83.83,0,0,0,.59.11c.63.15.74-1.15,1-1.39A.49.49,0,0,0,141.3,196.29ZM138,199.78a2.73,2.73,0,0,0,.5-.05c.2-.07.92-.44.77-.84,0-.8-1-.26-1.38-.6-.4-.11-.76-.95-.83-1.3a.52.52,0,0,0-.07-.2l-.05,0c-.14.12-.13.25-.2.59l-.16,0a.39.39,0,0,1-.11.25l0,.06c-.1,0-.05,0-.08-.09-.38,0-.41.35-.61.55C135.68,198.84,137,199.91,138,199.78Zm5-1.52a2.85,2.85,0,0,0-1.28.28.83.83,0,0,0-.28.21.34.34,0,0,0-.07.25.41.41,0,0,0,.12.32c.76,0,2.07.18,2.24.84,0,.09,0,.15,0,.17.26,0,.07,0,.43.08a2.23,2.23,0,0,0,.44,0,.18.18,0,0,0,.11-.06v-.09a.43.43,0,0,0,.19,0c.36,0,.2-.2.39-.36C145.36,198.68,144.18,198.24,143,198.26Zm-1.69,2.39c-.2.11-.27.07-.4.26,0,0,0,0,0,0,.08.22.31.34.46.51s.16.33.23.36.08.37.14.38,0,.24,0,.32c0,.31-.08.33-.15.38s0,.08,0,.1a.41.41,0,0,0,.18.12,3.07,3.07,0,0,1,.83.77c.49.11.47,0,.83-.15.1,0,.17,0,.24,0s.09-.19.16-.24C144,202.24,142.53,200.86,141.31,200.65Zm-2,0c-.08.07-.27.07-.34.14a3.27,3.27,0,0,1-.49.5,1.69,1.69,0,0,1-2,0s0,0,0,.14a3.76,3.76,0,0,1,0,.93c0,.16.07.11.15.21s0,.22.11.27H137s0,.09,0,.13l.3,0s.2.13.25.15l.32,0a.83.83,0,0,0,.7-.08c.12-.07.25,0,.36-.11a2.47,2.47,0,0,0,.53-.49,2.21,2.21,0,0,0,.17-1.7C139.6,200.68,139.5,200.67,139.32,200.66Z"/><path class="cls-20" d="M151.58,199.52a1.64,1.64,0,0,1,1.46,2,1.73,1.73,0,0,1-2.19,1.61l-1.33-.18c0-.08,0-.29.08-.56l.35-2.55c0-.27.06-.44.07-.56Zm-.7,2.94c.56.07,1-.05,1.18-1.05.11-.84-.31-1.18-.87-1.26l-.29,0-.32,2.3Z"/><path class="cls-20" d="M154.31,203.06c0,.27-.06.57-.06.57l-1-.14s.05-.29.08-.56l.35-2.55c0-.27.07-.56.07-.56l2.33.32-.09.71-.7-.11-.66-.09-.1.74.66.09.55.07-.1.68-.54-.09-.66-.08Z"/><path class="cls-20" d="M147.65,202a.79.79,0,0,1-.71-.91v0l1.16.13,1.09.14,0-.28c.17-1.25-.28-1.93-1.37-2.08-.51-.07-1.71,0-2,1.71-.16,1.17.34,2,1.37,2.1a2.69,2.69,0,0,0,1.74-.25c0-.06-.26-.65-.3-.71A1.78,1.78,0,0,1,147.65,202Zm-.6-1.66a.65.65,0,0,1,.72-.62c.55.08.52.55.48.79v.05l-.59-.07-.62-.09Z"/></svg>