<svg id="Layer_1" data-name="Layer 1" xmlns="http://www.w3.org/2000/svg" xmlns:xlink="http://www.w3.org/1999/xlink" viewBox="0 0 204.1 840.71"><defs><style>.cls-1{fill:none;}.cls-2{fill:#894f38;}.cls-3{fill:#f2f2f2;}.cls-4{fill:#ceac8e;}.cls-5{fill:#c69c6d;}.cls-6{fill:#343c82;}.cls-7,.cls-8{fill:#a67c52;}.cls-8{opacity:0.4;}.cls-9{fill:#934145;}.cls-10{fill:#dbb6b6;}.cls-11{opacity:0.1;}.cls-12{clip-path:url(#clip-path);}.cls-13{fill:#5a6166;}</style><clipPath id="clip-path"><polygon class="cls-1" points="193.19 426.71 163.68 426.71 163.68 242.81 187.17 235.28 193.19 426.71"/></clipPath></defs><title>Artboard 10</title><polygon class="cls-2" points="84.38 721.55 61.13 728.91 63.54 767.38 83.25 767.38 84.38 721.55"/><polygon class="cls-3" points="83.25 767.38 83.19 770.06 83.15 771.6 83.12 772.69 83.08 774.23 82.58 794.75 65.18 793.46 63.97 774.23 63.88 772.69 63.81 771.6 63.71 770.06 63.54 767.38 83.25 767.38"/><path d="M83.68,786.31v31.11L73.1,823.89,9.67,837.11h0a8.34,8.34,0,0,1,2.95-11.21l41.77-25.38L65,784.93Z"/><path class="cls-3" d="M83.68,817.42v4.18a4.31,4.31,0,0,1-2.27,3.8l-7.61,4.12-59,11.11a4.33,4.33,0,0,1-4.92-2.89l-.21-.63L73.1,823.89Z"/><polygon class="cls-3" points="65.3 721.55 88.55 728.91 86.13 767.38 66.42 767.38 65.3 721.55"/><polygon class="cls-4" points="2.71 429.63 32.22 429.63 32.22 233.34 12.43 226.4 2.71 429.63"/><path class="cls-4" d="M8.22,452l.57.45A3.14,3.14,0,0,1,8.22,452Z"/><path class="cls-4" d="M8,412h18.9a5.3,5.3,0,0,1,5.3,5.3v28.77a0,0,0,0,1,0,0H2.71a0,0,0,0,1,0,0V417.3A5.3,5.3,0,0,1,8,412Z" transform="translate(34.93 858.07) rotate(-180)"/><path class="cls-4" d="M30.81,433.4c-1.71-.32-3.11-.88-5.66,1.08h0v.07l-3.77,6.9,5.09,1,2.63-2.19,6.84,10h0a3,3,0,0,0,3.64.64,2.31,2.31,0,0,0,1-3.18h0l-8.18-13.33-1.6-.93"/><path class="cls-5" d="M35.9,449.23a2.82,2.82,0,0,0,3.3,1.2,1.92,1.92,0,0,0,.71-2.93,2.82,2.82,0,0,0-.38-.46Z"/><path class="cls-4" d="M29.88,466.2c-.09,2.81-1.42,5.11-3.07,5.21s-3-2.05-3.21-4.84l-.34-24.81h7Z"/><path class="cls-4" d="M22.68,467.69c-.09,2.81-1.42,5.11-3.07,5.21s-3-2-3.21-4.85l-.34-24.8h7Z"/><path class="cls-4" d="M15.56,465.14c-.09,2.81-1.42,5.12-3.07,5.21s-3.05-2.05-3.21-4.84l-.34-24.8h7Z"/><path class="cls-4" d="M8.5,459.81c-.08,2.81-1.2,5.12-2.58,5.21s-2.55-2-2.69-4.84L3,435.38H8.79Z"/><path class="cls-5" d="M24.58,467.93a2.54,2.54,0,0,0,2,2.92A2.42,2.42,0,0,0,29,468.48a3.42,3.42,0,0,0,0-.64Z"/><path class="cls-5" d="M17.32,469.45a2.55,2.55,0,0,0,1.94,2.92A2.43,2.43,0,0,0,21.78,470a3.42,3.42,0,0,0,0-.64Z"/><path class="cls-5" d="M10.2,466.83a2.54,2.54,0,0,0,1.94,2.92,2.44,2.44,0,0,0,2.52-2.38,3.42,3.42,0,0,0,0-.64Z"/><path class="cls-5" d="M4.13,462.13a2.05,2.05,0,0,0,1.5,2.37,1.93,1.93,0,0,0,2-1.92,3,3,0,0,0,0-.52Z"/><polygon class="cls-2" points="112.27 721.55 135.52 728.91 133.11 767.38 113.4 767.38 112.27 721.55"/><polygon class="cls-3" points="113.4 767.38 113.46 770.06 113.5 771.6 113.53 772.69 113.57 774.23 114.07 794.75 131.47 793.46 132.68 774.23 132.78 772.69 132.84 771.6 132.94 770.06 133.11 767.38 113.4 767.38"/><path class="cls-6" d="M34.9,372.92l132.42,3.67-24.3,399H107l-.1-319.73s-4.71-9.3-8.3.53L95,775.63H57.59Z"/><polygon class="cls-7" points="109.3 132.44 116.76 132.44 116.76 118.04 116.76 103.32 89.32 103.32 89.32 105.34 100.3 114.78 109.3 132.44"/><polygon class="cls-4" points="100.3 114.78 89.32 105.34 89.32 118.04 89.32 132.44 109.3 132.44 100.3 114.78"/><path d="M136.72,58.46C136.72,82,125.46,89,101.93,89S70.14,81.65,70.58,58.13C71,34.36,64.82,0,102.36,0,147.53,0,136.72,34.93,136.72,58.46Z"/><path class="cls-4" d="M133.28,78.71s8.63-9.39,6.56-18.57c0,0-2.14-5.51-6.36-2.45Z"/><path class="cls-4" d="M113.64,109.36H92.74c-9.4,0-15.15-11.41-17.62-17C74,89.76,73,83,73,80.13l-.08-45.7A15.67,15.67,0,0,1,88.57,18.76h29.24a15.68,15.68,0,0,1,15.67,15.67l-.18,46c0,3.28-1.5,11.76-2.78,14.78C126.72,104.12,123.2,108.06,113.64,109.36Z"/><path class="cls-8" d="M99.08,72.44l3.66,2.94a.72.72,0,0,0,.91,0l3.81-2.94a.74.74,0,0,0-.45-1.32H99.54A.73.73,0,0,0,99.08,72.44Z"/><path class="cls-8" d="M133.48,75.12s5.61-5.8,4.5-12.86c0,0-.77-4.56-4.5-1.73Z"/><path class="cls-4" d="M73,78.85s-8.52-9.15-6.46-18.34c0,0,2.15-5.51,6.37-2.45Z"/><path class="cls-8" d="M72.9,75.49s-5.61-5.79-4.5-12.86c0,0,.76-4.56,4.5-1.73Z"/><path class="cls-9" d="M93.69,87.43s6,5.24,19.1.62l1-.36Z"/><path class="cls-8" d="M111.75,60s1.29,7.84,9.44,7.47Z"/><path class="cls-8" d="M92.31,60S91,67.81,82.87,67.44Z"/><circle cx="116.15" cy="53.86" r="3.27"/><circle cx="87.13" cy="53.86" r="3.27"/><path d="M112.87,41.42c3.14-2.37,7-1.68,9.7,1,.87.87,2.05-.65,1.19-1.51a9.07,9.07,0,0,0-12.05-1,1,1,0,0,0,1.16,1.54Z"/><path d="M93.87,42.58a9,9,0,0,0-11.33-4.2c-1.15.41-.74,2.29.43,1.87,3.57-1.28,7.37-.26,9.2,3.23a1,1,0,0,0,1.7-.9Z"/><path d="M133.28,16.34A29.86,29.86,0,0,1,114,37.62l-1.37-13.54S93.79,49.64,72.39,53.86V27.58l6.14-11.66Z"/><path class="cls-10" d="M58.54,131.53H139.8a26.3,26.3,0,0,1,26.3,26.3V409.54a6.5,6.5,0,0,1-6.5,6.5H38.75a6.5,6.5,0,0,1-6.5-6.5V157.82a26.3,26.3,0,0,1,26.3-26.3Z"/><path class="cls-11" d="M134,156.55s-24.27,11.9-71.29,26.1l5.54,2.92c26.55,14,59.68-.64,65.75-29Z"/><path class="cls-11" d="M39.44,302.74s38.63,23.9,115.06,55.33l-9.82,4C97.63,381.25,44.6,351.35,39.44,302.74Z"/><path class="cls-10" d="M39.53,140.38,35.9,144.2C19.39,159.63,0,230.57,0,230.57L42.71,244,39.53,140.38Z"/><path d="M113,786.31v31.11l10.58,6.47L187,837.11h0A8.34,8.34,0,0,0,184,825.9l-41.77-25.38L131.7,784.93Z"/><path class="cls-3" d="M113,817.42v4.18a4.31,4.31,0,0,0,2.27,3.8l7.62,4.12,59,11.11a4.32,4.32,0,0,0,4.91-2.89l.21-.63-63.43-13.22Z"/><polygon class="cls-4" points="193.19 426.71 163.68 426.71 163.68 237.28 186.96 226.4 193.19 426.71"/><path class="cls-4" d="M187.68,449.06l-.57.46A3.19,3.19,0,0,0,187.68,449.06Z"/><path class="cls-4" d="M163.68,409.09h29.5a0,0,0,0,1,0,0v28.77a5.3,5.3,0,0,1-5.3,5.3H169a5.3,5.3,0,0,1-5.3-5.3V409.09A0,0,0,0,1,163.68,409.09Z"/><path class="cls-4" d="M165.09,430.49c1.71-.32,3.11-.89,5.66,1.08h0l0,.08,3.77,6.9-5.1,1-2.63-2.2-6.84,10h0a3,3,0,0,1-3.64.64,2.32,2.32,0,0,1-1-3.19h0l8.18-13.32,1.6-.93"/><path class="cls-5" d="M160,446.32a2.82,2.82,0,0,1-3.3,1.2,1.93,1.93,0,0,1-.71-2.93,3.4,3.4,0,0,1,.38-.47Z"/><path class="cls-4" d="M166,463.29c.09,2.81,1.42,5.11,3.07,5.21s3-2.05,3.21-4.85l.34-24.8h-7Z"/><path class="cls-4" d="M173.22,464.78c.09,2.8,1.42,5.11,3.07,5.21s3.05-2.06,3.21-4.85l.34-24.8h-7Z"/><path class="cls-4" d="M180.34,462.23c.09,2.81,1.43,5.12,3.08,5.21s3-2.05,3.21-4.84l.33-24.81h-7Z"/><path class="cls-4" d="M187.41,456.9c.07,2.81,1.19,5.12,2.57,5.21s2.55-2.05,2.69-4.84l.28-24.81h-5.84Z"/><path class="cls-5" d="M171.32,465a2.54,2.54,0,0,1-1.94,2.92,2.43,2.43,0,0,1-2.52-2.37,3.42,3.42,0,0,1,0-.64Z"/><path class="cls-5" d="M178.58,466.53a2.55,2.55,0,0,1-1.94,2.93,2.44,2.44,0,0,1-2.52-2.38,4.56,4.56,0,0,1,0-.64Z"/><path class="cls-5" d="M185.7,463.91a2.55,2.55,0,0,1-1.94,2.93,2.44,2.44,0,0,1-2.52-2.38,3.41,3.41,0,0,1,0-.64Z"/><path class="cls-5" d="M191.77,459.22a2,2,0,0,1-1.5,2.36,1.91,1.91,0,0,1-1.94-1.92,2.17,2.17,0,0,1,0-.51Z"/><path class="cls-10" d="M160,141.59h0c16.51,15.43,44.14,87.79,44.14,87.79l-42.71,13.43L160,141.59Z"/><path class="cls-4" d="M102.36,157.5a21.41,21.41,0,0,0,21.42-21.41,21,21,0,0,0-.51-4.59H81.45a21.66,21.66,0,0,0-.51,4.59A21.41,21.41,0,0,0,102.36,157.5Z"/><path d="M133.48,57.69c-.34,7.2-2.27,21.8-10.86,26.75-4.2,2.43-12.56-7.54-19.51-7.59-7.42-.06-17.19,11.84-21.42,9-6.13-4.09-8-22-8.7-29.1l-.6,31.8c0,20.1,14.17,36.4,31.64,36.4s31.64-16.3,31.64-36.4Zm-31.12,35c-5.15,0-14.89,6-15.23,2.47C86,82.9,97.21,82.9,102.36,82.9s15.34-.83,15.5,12.27C117.9,98.68,107.51,92.7,102.36,92.7Z"/><g class="cls-12"><path class="cls-13" d="M190.55,318.25a6.56,6.56,0,0,0,3.8-2.1,4.83,4.83,0,0,0,.9-1.4,2.19,2.19,0,0,0-.56.26,4.32,4.32,0,0,1-2.29.61,5,5,0,0,1-2.63-.61,8,8,0,0,1-2.88-2.43c-1.21-1.58-1.64-3.28-1.08-4.24a1.84,1.84,0,0,1,1.77-.85c.84.17,1.31,1.26,1.07,2.46l-.1.54.76-.08a2,2,0,0,0,1.08-.28c.57-.37.77-.94.69-2a8.87,8.87,0,0,0-.8-2.78,8.73,8.73,0,0,0-1.48-2.21,66,66,0,0,0-8.39-7.4,5.83,5.83,0,0,0-.58-.32s.4.64.89,1.4a9.49,9.49,0,0,1,1.73,3.86,7.48,7.48,0,0,1-.17,3.16c-.06.27-.44,1.48-.82,2.7-1,3.07-1,3.1-.87,4.69a6.07,6.07,0,0,0,.3,1.9,8.12,8.12,0,0,0,4.51,4.69A8.46,8.46,0,0,0,190.55,318.25Z"/><path class="cls-13" d="M183.2,317.55a11.6,11.6,0,0,1-2.83-2.59,7.53,7.53,0,0,1-1.56-5.32c0-.33,0-.6,0-.6l-.55.26a4.67,4.67,0,0,1-2.32.46,8.64,8.64,0,0,1-3.06-.94c-.16-.08-.3-.15-.32-.12s.28.79.56,1.1a3.85,3.85,0,0,0,4.23,1l.21-.06.14.78a13.93,13.93,0,0,0,.38,1.48,9.26,9.26,0,0,0,1.62,2.82,6.2,6.2,0,0,0,3.55,1.88l.22,0Z"/><path class="cls-13" d="M191.48,311.92c1.41-.88,2.25-3,2.09-5.37-.12-1.82-.8-3.09-2.56-4.81a2.93,2.93,0,0,1-.53-.61,1.72,1.72,0,0,1,.37-.15,4.82,4.82,0,0,0,2.71-2.57,5.48,5.48,0,0,0,.31-1.07,3.12,3.12,0,0,0-1-2.47l-.34-.32.09.93a4,4,0,0,1-.23,2.28c-.64,1.52-2.5,2.29-4.75,2a4.48,4.48,0,0,0-.8-.06,3,3,0,0,0,.72.61c3.1,2.23,4.77,4.92,4.83,7.81a5.61,5.61,0,0,1-1,3.47,5.17,5.17,0,0,0-.35.58A1.8,1.8,0,0,0,191.48,311.92Z"/><path class="cls-13" d="M177.37,308.53a4.42,4.42,0,0,0,3-2.67c.7-1.71.69-3.8-.05-6.49a19.67,19.67,0,0,0-2.18-5A16.88,16.88,0,0,0,172,288a12.52,12.52,0,0,1-3.94-3.66,4.27,4.27,0,0,1-.7-2.3,4.37,4.37,0,0,1,0-1.33c0-.22.08-.41.08-.43a8,8,0,0,0-1,1.86,6.47,6.47,0,0,0-.53,3.19,6.72,6.72,0,0,0,.29,2,16.13,16.13,0,0,0,4.7,7.4,6.77,6.77,0,0,0,1.37,1,2.17,2.17,0,0,0-.25-.49,2.21,2.21,0,0,1-.3-1.78c.18-.4.48-.55,1.19-.59,1.86-.13,3.41.85,4.69,3a11.24,11.24,0,0,1,1.6,6.14,4.67,4.67,0,0,1-1.81,3.78,3.74,3.74,0,0,1-4.91-1.58,2,2,0,0,1-.34-1.15,1.37,1.37,0,0,1,.15-1,2.49,2.49,0,0,1,1.26-1l.39-.15-.29,0a2.93,2.93,0,0,0-1.57.3,2.89,2.89,0,0,0-1.3,3.06,4.45,4.45,0,0,0,1.35,2.85,5.39,5.39,0,0,0,2.81,1.42A4.29,4.29,0,0,0,177.37,308.53Z"/><path class="cls-13" d="M201.55,300.31a6.48,6.48,0,0,0,1.54-3.54,10.82,10.82,0,0,0-.29-3.26,8.2,8.2,0,0,0-4.68-5.72,10,10,0,0,0-2.76-.7,11.14,11.14,0,0,0-4.64.75,14.81,14.81,0,0,0-2.87,1.77c-2.68,1.94-4.49,2.76-6.35,2.89a5.71,5.71,0,0,1-3.32-.71,1.42,1.42,0,0,0-.55-.22s1.55,1.43,3.5,3.12c3.81,3.32,4.11,3.54,5.29,3.89a5.45,5.45,0,0,0,2.43.21,2.63,2.63,0,0,0,1.19-.3,2.76,2.76,0,0,0,1.38-2.89,6.29,6.29,0,0,0-.45-1.85l-.47.81c-.72,1.29-1.28,1.7-2.39,1.78a1.81,1.81,0,0,1-1.39-.35,1.2,1.2,0,0,1-.48-1,2.27,2.27,0,0,1,.7-1.69,4.52,4.52,0,0,1,2.28-1.34,14.42,14.42,0,0,1,4.14-.84,6.32,6.32,0,0,1,2.11.05,6.9,6.9,0,0,1,5.45,4.35,8.65,8.65,0,0,1,.34,4.67,1,1,0,0,0,0,.4A1.53,1.53,0,0,0,201.55,300.31Z"/><path class="cls-13" d="M171.57,296.41l-.69-.38a14.81,14.81,0,0,1-6.48-6.55,8.1,8.1,0,0,1-.69-3,8.64,8.64,0,0,1,.31-3.26,12.45,12.45,0,0,1,1.63-3.46c.43-.63,1.87-2.61,2.66-3.67a8,8,0,0,0,1.78-3.35c.34-1.68-.08-3.05-1.1-3.59a2.79,2.79,0,0,0-2.55-.12,1.61,1.61,0,0,0-.79.75c-.12.28-.1.38.15.82s.38.59.61,0,.42-.87.73-1a.92.92,0,0,1,1,.21,3.88,3.88,0,0,1,.7,2.45c-.09,1.07-.36,1.57-2.52,4.68a23.31,23.31,0,0,0-3.07,5.18,9.4,9.4,0,0,0,0,7.29A11,11,0,0,0,168.4,295a18.87,18.87,0,0,0,3,1.48C171.52,296.44,171.58,296.43,171.57,296.41Z"/><path class="cls-13" d="M182,291.53a5.61,5.61,0,0,0,3.24-3,5.93,5.93,0,0,0,.32-3.78,3.84,3.84,0,0,0-2.81-2.6,3.54,3.54,0,0,0-1.18-.14l.49.29a3.8,3.8,0,0,1,1.4,1.28c.78,1.31.08,3.57-1.41,4.57-1.71,1.13-3.54.93-5.85-.67a9.1,9.1,0,0,1-3.3-4.73,4.79,4.79,0,0,1,1-4.69c1.74-2.37,2.11-3.09,2.3-4.54l.07-.46-.15.12a8,8,0,0,1-1.45.94c-1.11.38-1.4-1.22-.59-3.2.9-2.19,3.53-3.84,7-4.41l1.21-.21.35-.08-.56-.36a27.22,27.22,0,0,1-6.56-5.84c-.66-.85-.85-1.06-.84-.91s-.43,2.76-.67,3.88c-.26,1.28-.41,1.87-1.91,7.5-1.11,4.21-1.41,6.1-1.39,8.68a13.1,13.1,0,0,0,4,9.75C177.12,291.23,179.89,292.24,182,291.53Z"/><path class="cls-13" d="M188.76,286.85a13.29,13.29,0,0,1,2.46-1.46,10.78,10.78,0,0,1,2.21-.57l.68-.1h-.83a11.83,11.83,0,0,0-1.88.15l-1.2.16c-.13,0-.14,0-.2-.83a5.8,5.8,0,0,0-.21-1.28,5.52,5.52,0,0,0-4.61-3.38,17.81,17.81,0,0,0-2.49-.07c-.39,0-.17.12.38.18a7.63,7.63,0,0,1,3.37,1.21,4.52,4.52,0,0,1,2,3.67,9.33,9.33,0,0,1-.22,2.54c0,.11,0,.2,0,.19A6.07,6.07,0,0,0,188.76,286.85Z"/><path class="cls-13" d="M171,285.64c0-.07-.29-1-.64-2.11a12.43,12.43,0,0,1-.89-3.35,1.89,1.89,0,0,0-.07-.52,1.48,1.48,0,0,0-.66.53,1.78,1.78,0,0,0-.47,1.35,5.21,5.21,0,0,0,2,3.68C170.87,285.79,171,285.87,171,285.64Z"/><path class="cls-13" d="M178.89,280.7a14.62,14.62,0,0,1,2.08-.88l.28-.1-.3,0a4.49,4.49,0,0,0-2.38.95C178.33,281,178.46,281,178.89,280.7Z"/><path class="cls-13" d="M168.09,279.43a3.78,3.78,0,0,1,1.18-.71c.34-.13.4-.18.44-.38a.49.49,0,0,0,0-.27c-.1-.09-.95.53-1.36,1a2.41,2.41,0,0,0-.4.49A.3.3,0,0,0,168.09,279.43Z"/><path class="cls-13" d="M175.41,272.92a1.71,1.71,0,0,0,.14-.59,6.35,6.35,0,0,1,.15-.74,2.24,2.24,0,0,1,.63-.88s.08.21.1.49a3.82,3.82,0,0,0,.13.75c.31.88,1.43.92,2.15.07.25-.3.42-.79.31-.88a1.76,1.76,0,0,0-.55.18c-.6.25-.82.28-.89.13s.13-.55.66-1.16a5.33,5.33,0,0,1,2.11-1.44c.53-.2,2.33-.67,4.51-1.19a13.35,13.35,0,0,0,1.95-.56,6.24,6.24,0,0,0,3.56-4.85,6.32,6.32,0,0,0,0-2.1,7.78,7.78,0,0,0-.36-2.25,5.32,5.32,0,0,0-1.56-2.61,3.83,3.83,0,0,0-1.7-1,3.19,3.19,0,0,0-3.22,1.1c-.76.89-1.11,2.54-.68,3.21.1.15.11.13.14-.29a2.75,2.75,0,0,1,3.14-2.52c1.6.29,2.69,1.61,3,3.63a9.17,9.17,0,0,1-.93,5,7.43,7.43,0,0,1-1.69,2.06,4.65,4.65,0,0,1-3.33.86,14.24,14.24,0,0,0-4,.54c-2.36.65-3.66,1.66-4.4,3.44-.26.62-.29,1.37-.05,1.55S175.29,273.05,175.41,272.92Z"/><path class="cls-13" d="M171.33,271.31c0-.13.2-1,.42-1.93.62-2.6.93-4.06,1.05-5a5.72,5.72,0,0,0,.14-1.43s-.17.42-.34.88a9.56,9.56,0,0,1-2.78,4.27c-.3.24-.38.34-.3.38a.54.54,0,0,0,.22.05,2,2,0,0,1,1,.59,3.1,3.1,0,0,1,.49,1.71,5.47,5.47,0,0,0,.07.77S171.32,271.45,171.33,271.31Z"/><path class="cls-13" d="M166.79,268.4a5.85,5.85,0,0,0,1.83-.68c.47-.27.78-.52.52-.4a4.24,4.24,0,0,1-1.36.26,3,3,0,0,1-1.39-.49,6.48,6.48,0,0,1-1.77-2.49,14.94,14.94,0,0,1-.8-4.17,11.83,11.83,0,0,0-.38-2.54,4.5,4.5,0,0,0-1.35-2.09l-.54-.47v.82a15.73,15.73,0,0,1-.65,4,11.79,11.79,0,0,0-.55,4.13,4.06,4.06,0,0,0,.26,1.47,4.53,4.53,0,0,0,2.91,2.44A7,7,0,0,0,166.79,268.4Z"/><path class="cls-13" d="M201.57,264.85a13.24,13.24,0,0,0-2.61-6,29.86,29.86,0,0,0-4-3.57c-.72-.55-1.5-1.18-1.75-1.41a6.37,6.37,0,0,1-1.72-2.57,6.53,6.53,0,0,1-.25-3.19,3.77,3.77,0,0,0,0-1.38,4.73,4.73,0,0,0-2.92-4.06,2.14,2.14,0,0,0-1.29-.18,1.94,1.94,0,0,0-1.19.33,1.66,1.66,0,0,0-.91,1.24,2,2,0,0,0,.75,1.76c.28.24.76.48.82.42a1.25,1.25,0,0,0-.11-.34,4.26,4.26,0,0,1-.22-.89c-.07-.52-.06-.59.08-.79a1.33,1.33,0,0,1,2,0,5,5,0,0,1,1.51,3.57,2.76,2.76,0,0,1-1.33,2.44,4.52,4.52,0,0,1-2.51.94,9.51,9.51,0,0,1-6.5-2,13.67,13.67,0,0,1-3.77-4.73l-1.51-2.61a45.65,45.65,0,0,0-2.74-4.45s0,.12,0,.21.2.7.39,1.36c.41,1.43,1.54,5.06,2.17,6.94s.94,2.68,2,5.15c.49,1.16,1.09,2.62,1.35,3.24a28.74,28.74,0,0,0,3.63,6,10,10,0,0,0,2.17,1.81,3.43,3.43,0,0,0,.66.34s-.27-.48-.63-1.06a9.74,9.74,0,0,1-1.3-2.72,5.87,5.87,0,0,1-.17-2.38,4.55,4.55,0,0,1,4-3.66,7.37,7.37,0,0,1,3.92,1.06,58.74,58.74,0,0,1,6.56,5,22.63,22.63,0,0,1,4.12,4.74c.63.88,1.18,1.62,1.21,1.65S201.61,265,201.57,264.85Z"/><path class="cls-13" d="M169.54,266.52a6.58,6.58,0,0,0,1.37-.95,1.54,1.54,0,0,0-.52.21,2.17,2.17,0,0,1-1.19.32,1.72,1.72,0,0,1-1.15-.17,6.72,6.72,0,0,1-2.78-3.3,6.05,6.05,0,0,0-.51-.9s0,.06,0,.14.24.62.46,1.25a5.73,5.73,0,0,0,1.51,2.66A3,3,0,0,0,169.54,266.52Z"/><path class="cls-13" d="M184.08,263.54a3.66,3.66,0,0,0-.73-.35,10.56,10.56,0,0,1-4.64-3.61,24.39,24.39,0,0,1-2.53-4.24,41.85,41.85,0,0,0-4.85-8c-1.89-2.3-4-3-6.18-2.11a4.29,4.29,0,0,0-2.34,2.64,8.39,8.39,0,0,0,.26,6.6,4.85,4.85,0,0,0,1.31,1.85,4,4,0,0,0,3,.91,2.88,2.88,0,0,0,2.2-1.14,2.16,2.16,0,0,0-.07-2.95,2.68,2.68,0,0,0-.6-.44l-.29-.12-.06.2a.28.28,0,0,0,0,.31l.36.41a.9.9,0,0,1,.28.66c.05.75-.37,1.09-1.43,1.16a4.15,4.15,0,0,1-2.95-1.14,7,7,0,0,1-1.72-2.25,4.14,4.14,0,0,1,1.25-5,3.14,3.14,0,0,1,2-.64,2.4,2.4,0,0,1,1.22.22,7.17,7.17,0,0,1,3,2.3,52,52,0,0,1,3.08,5.36,35.66,35.66,0,0,0,2.64,4.49,14.23,14.23,0,0,0,2.18,2.22,12,12,0,0,0,4.39,2.4C184.12,263.62,184.09,263.62,184.08,263.54Z"/><path class="cls-13" d="M155.85,264a6.26,6.26,0,0,0,2.65-1.51c.38-.35,1.05-1.16.95-1.16l-.68.37c-2,1.08-3.41,1.36-5,.94-.3-.08-.48-.09-.43-.05s-.3.23-1.3.3l-.83.06.12.16a4.74,4.74,0,0,0,1.52.93,5.56,5.56,0,0,0,.77.16A8,8,0,0,0,155.85,264Z"/><path class="cls-13" d="M169,261.13a1.69,1.69,0,0,0,.76-.76c.1-.24.18-.19-.93-.54-.55-.17-.6-.29-.13-.32a4.94,4.94,0,0,0,.72-.16c2-.55,3.12-2,2.76-3.44-.12-.44-.38-.92-.48-.9a.82.82,0,0,0-.12.37,3.12,3.12,0,0,1-.79,1.61,4.27,4.27,0,0,1-2.84,1.47,4.21,4.21,0,0,1-2.81-.57q-.66-.42-.39,0a17.46,17.46,0,0,0,2.14,2.59C167.66,261.17,168.4,261.38,169,261.13Z"/><path class="cls-13" d="M152.53,262a4,4,0,0,1-1.18-2.49,2,2,0,0,1,.17-1.24,5.87,5.87,0,0,1,.56-1.05,2.11,2.11,0,0,0,.3-.52,1.34,1.34,0,0,0-.38.12,2.42,2.42,0,0,0-1.15,1.17c-.43,1.1.16,2.73,1.39,3.83C152.75,262.24,152.79,262.26,152.53,262Z"/><path class="cls-13" d="M157.41,261.54a4,4,0,0,0,2.89-3.32,20.43,20.43,0,0,0,0-5.09c-.19-4.1-.17-4.59.36-5.93a6.49,6.49,0,0,1,4.28-3.84,7.39,7.39,0,0,1,3.07-.06,8.61,8.61,0,0,1,3.09,1.44,1.63,1.63,0,0,0,.37.22,10.9,10.9,0,0,0-.94-1.5c-1.84-2.47-5.05-3.75-8.78-3.47a5.43,5.43,0,0,0-1.64.27,7,7,0,0,0-4.49,5.05,10.11,10.11,0,0,0,0,5.1c.1.29.46,1.36.83,2.36.84,2.34,1.06,3.12,1.05,3.72a3.45,3.45,0,0,1-.82,2.14c-.92,1-2.6,1.06-2.65.05a1.72,1.72,0,0,1,.15-.69,2.29,2.29,0,0,0,.16-.48c0-.13-1,.07-1.4.29-.7.4-.79,1.1-.25,2a4.27,4.27,0,0,0,2.5,1.82A4.65,4.65,0,0,0,157.41,261.54Z"/><path class="cls-13" d="M198.31,252.73a3,3,0,0,0,2.07-2.25,2.94,2.94,0,0,0-.53-1.57c-.79-1.13-2.46-1.81-3.09-1.27a1.13,1.13,0,0,0-.4,1,.75.75,0,0,0,.45.74c.31.16.45.16.34,0-.24-.39-.05-.76.38-.73.65,0,1.05.53,1.16,1.44a1.32,1.32,0,0,1-.07.92c-.29.69-1.12.9-2,.54a4.51,4.51,0,0,1-2.12-2.54,33.05,33.05,0,0,1-.69-4.65c-.15-1.27-.33-2.58-.42-2.92a6.42,6.42,0,0,0-1.61-3c-2.13-2.32-5.5-3.59-9.52-3.57a4.91,4.91,0,0,1-.76-.05,1.74,1.74,0,0,1,.49-.4,4.6,4.6,0,0,0,2.15-3.87,3.54,3.54,0,0,0-1.52-2.74,4.84,4.84,0,0,0-5.65-.56,3.25,3.25,0,0,0-1.44,1.53c-.36.85,0,1.67.7,1.62.36,0,.6-.21,1-.78s.72-.82,1.16-.79a2,2,0,0,1,1.7,1.93,3.6,3.6,0,0,1-.35,1.51,3.45,3.45,0,0,1-1.29,1.31,12.76,12.76,0,0,1-4.44.93,12.93,12.93,0,0,1-3.89-.58,5.27,5.27,0,0,1-3-2.39,1.75,1.75,0,0,0-.3-.42,4.09,4.09,0,0,0,.29,1.43,6.76,6.76,0,0,0,2.72,3.23c2.16,1.38,5.65,2,11.44,2.13,3.37,0,4.5.2,6,.82a7.45,7.45,0,0,1,3.89,3.34,12.22,12.22,0,0,1,1.22,4.67c.12.88.29,1.89.37,2.22a4.92,4.92,0,0,0,3.67,4A4.54,4.54,0,0,0,198.31,252.73Z"/><path class="cls-13" d="M182.42,247.65a2.22,2.22,0,0,0,1.05-.92,1.55,1.55,0,0,0,0-.9,4.16,4.16,0,0,0-1.08-2.38l-.32-.34.31-.1a3.64,3.64,0,0,0,.92-.41,2.14,2.14,0,0,0,.91-.84,1.58,1.58,0,0,0,.21-1.35c-.47-1.51-2.29-1.86-7.78-1.5-.69.05-1.56.07-1.94.06a4.11,4.11,0,0,0-.71,0,2.81,2.81,0,0,0,.35.53,21.28,21.28,0,0,1,1.8,3.2,12.91,12.91,0,0,0,2.16,3.4,5.4,5.4,0,0,0,2,1.51,2.13,2.13,0,0,0,1.19.21A2.32,2.32,0,0,0,182.42,247.65Z"/><path class="cls-13" d="M193.05,237.57a5.82,5.82,0,0,0-3.78-3.84,9,9,0,0,0-3.18-.46,1.05,1.05,0,0,1-.39,0,4.68,4.68,0,0,1,.15-.46,4.26,4.26,0,0,0-1.58-4.41,2,2,0,0,0,.26.59,5.19,5.19,0,0,1,.64,1.91,4.37,4.37,0,0,1-.94,2.7c-.4.52-.4.5.22.55s2.27.24,2.72.32a9.1,9.1,0,0,1,5.5,2.92C193.15,238,193.14,238,193.05,237.57Z"/><path class="cls-13" d="M171.52,233.68a1.38,1.38,0,0,0,.26-1.17,3.11,3.11,0,0,0-1.09-1.55c-.52-.42-.76-.49-.48-.13s.18.36-.34.52c-1,.31-1.88-1.08-1.39-2.22a1.5,1.5,0,0,1,.34-.48c.2-.15.3-.18.82-.21.67,0,.68-.09.09-.38a1.92,1.92,0,0,0-2.68,1.56,4,4,0,0,0,1.06,2.55,5.56,5.56,0,0,0,2.19,1.5A2.17,2.17,0,0,0,171.52,233.68Z"/></g></svg>