<svg xmlns="http://www.w3.org/2000/svg" viewBox="0 0 201.3 746.13"><defs><style>.cls-1{fill:#ead2b2;}.cls-2{fill:#003f51;}.cls-3{fill:#9b004a;}.cls-4{fill:#ccc;}.cls-5{fill:#b3b3b3;}.cls-6{fill:#ceaf8e;}.cls-11,.cls-7{fill:#dbbd9c;}.cls-8{fill:none;}.cls-9{fill:#99002f;}.cls-10{fill:#7f0330;}.cls-11{opacity:0.5;}.cls-12{fill:#c1272d;}.cls-13{fill:#f2f2f2;}.cls-14{fill:#a31721;opacity:0.6;}</style></defs><title>compagnon_2</title><g id="Layer_2" data-name="Layer 2"><path d="M32.76,724.81a6.36,6.36,0,0,1-9-1.66l-6.6-10.53L13,722.82a6.54,6.54,0,0,0-.13,4.65l5.09,14.68A5.92,5.92,0,0,0,27,745l12.43-8.86a16.84,16.84,0,0,0,7.06-13.71v-8.17Z"/><path d="M119.48,724.81a6.36,6.36,0,0,0,9-1.66l6.6-10.53,4.21,10.2a6.54,6.54,0,0,1,.13,4.65l-5.09,14.68a5.91,5.91,0,0,1-9,2.87l-12.42-8.86a16.83,16.83,0,0,1-7.07-13.71v-8.17Z"/><path class="cls-1" d="M132.47,706.33l-.25-.61-7-30.14,9.83-308.52H39.39L27.28,669.13,27,675.58l-7,30.14-.25.61-2.59,6.29,6.6,10.53a6.36,6.36,0,0,0,9,1.66l13.69-10.53v-38.7L75,441.64a11,11,0,0,1,4.77-8.08,8,8,0,0,1,7.93-.36,11.13,11.13,0,0,1,6.06,9.61l12,232.77h0v38.7l13.69,10.53a6.36,6.36,0,0,0,9-1.66l6.6-10.53Z"/><path class="cls-2" d="M33.75,364.68,13.63,499c-.64,4.33,2,8.29,5.44,8.1l116.38-6.52c3.89-.21,6.89-4.47,6.68-9.46l-5.65-135Z"/><polygon class="cls-1" points="6.62 376.95 25.22 381.42 28.36 315.95 9.43 312.37 6.62 376.95"/><path class="cls-1" d="M8.43,398.13l.33.51A3.2,3.2,0,0,1,8.43,398.13Z"/><path class="cls-1" d="M9.55,392.73l10.52,2.32c2.3.51,4.36-1.41,4.61-4.29l1.66-28.34L8.1,359.84,5.83,386.61C5.58,389.48,7.25,392.22,9.55,392.73Z"/><path class="cls-1" d="M24.35,383.88c-1.07-.55-1.92-1.27-3.7.22h0l0,.06-3,5.95,3.18,1.62L22.7,390l3.57,10.32h0a1.68,1.68,0,0,0,2.28,1.12,2.54,2.54,0,0,0,.91-2.85h0L25.3,385l-.95-1.09"/><path class="cls-3" d="M26.34,399.45c.37,1.17,1.27,1.88,2,1.59s1-1.47.68-2.65a3,3,0,0,0-.2-.49Z"/><path class="cls-1" d="M21.14,414.53c-.29,2.63-1.32,4.6-2.38,4.46s-1.78-2.35-1.67-5l1.77-23.33,4.45,1Z"/><path class="cls-1" d="M16.42,414.91c-.28,2.63-1.32,4.6-2.38,4.46s-1.78-2.35-1.67-5l1.77-23.32,4.45,1Z"/><path class="cls-1" d="M12.07,411.52c-.28,2.63-1.32,4.6-2.38,4.46S7.91,413.63,8,411l1.76-23.32,4.46,1Z"/><path class="cls-1" d="M8,405.53c-.27,2.62-1.17,4.63-2.06,4.53s-1.47-2.29-1.33-4.93l1.8-23.32,3.73.82Z"/><path class="cls-3" d="M17.61,415.41c-.21,1.35.24,2.7,1,3s1.58-.52,1.8-1.88c0-.2,0-.4,0-.6Z"/><path class="cls-3" d="M12.85,415.81c-.21,1.35.24,2.7,1,3s1.58-.52,1.8-1.88c0-.2,0-.4.05-.6Z"/><path class="cls-3" d="M8.51,412.35c-.21,1.35.24,2.7,1,3s1.58-.52,1.8-1.88c0-.2,0-.4,0-.6Z"/><path class="cls-3" d="M5,407.09c-.17,1.09.18,2.18.77,2.43S7,409.09,7.18,408c0-.16,0-.32,0-.48Z"/><path d="M129.28,50.3h0a48.6,48.6,0,0,0-4.38-5.43,43.51,43.51,0,0,1-4.17-7.3A38.79,38.79,0,0,0,118,23.25v0h0C112.53,9.6,99.59,0,84.47,0A35.94,35.94,0,0,0,53.75,17.66h0v0a38.2,38.2,0,0,0-4.25,10.06c-4.47,12-10.53,32.8-8,53.11l.05-.11c1.17,26,22.32,46.7,48.24,46.7,26.67,0,48.29-21.92,48.29-49A49.2,49.2,0,0,0,129.28,50.3Z"/><path d="M124,39a6.41,6.41,0,0,0,.91.27,8.5,8.5,0,0,0,8.49-2.58,5.61,5.61,0,0,1-.19.67c-1.22,3.42-5.49,5.39-9.53,4.4a6.83,6.83,0,0,1-.91-.27c-3.46-1.26-5.31-4.54-4.18-7.69a5.3,5.3,0,0,1,.28-.65,6.19,6.19,0,0,1,.74-1.14C118.94,35,120.76,37.87,124,39Z"/><path class="cls-4" d="M80.51,352.79a2.17,2.17,0,0,0-2,2.33,2.62,2.62,0,0,0,.22,1l2.63-3.08A1.65,1.65,0,0,0,80.51,352.79Z"/><path class="cls-5" d="M81.38,353.06l-2.63,3.08a2,2,0,0,0,1.76,1.3,2.17,2.17,0,0,0,2-2.32A2.37,2.37,0,0,0,81.38,353.06Z"/><path class="cls-4" d="M80.51,346a2.17,2.17,0,0,0-2,2.32,2.67,2.67,0,0,0,.22,1l2.63-3.09A1.74,1.74,0,0,0,80.51,346Z"/><path class="cls-5" d="M81.38,346.21l-2.63,3.09a2,2,0,0,0,1.76,1.3,2.18,2.18,0,0,0,2-2.33A2.37,2.37,0,0,0,81.38,346.21Z"/><path class="cls-4" d="M80.51,360.33a2.17,2.17,0,0,0-2,2.32,2.62,2.62,0,0,0,.22,1l2.63-3.08A1.64,1.64,0,0,0,80.51,360.33Z"/><path class="cls-5" d="M81.38,360.59l-2.63,3.08a2,2,0,0,0,1.76,1.3,2.17,2.17,0,0,0,2-2.32A2.37,2.37,0,0,0,81.38,360.59Z"/><polygon class="cls-6" points="94.86 101.26 72.79 101.26 72.79 103.14 94.86 125.2 94.86 101.26"/><path class="cls-1" d="M72.79,103.14v26.44a11,11,0,0,0,22.07,0v-4.37Z"/><path class="cls-1" d="M84.56,105h0c-15.64,0-23.42-10.13-26.32-28.33L56.24,31a8.87,8.87,0,0,1,8.86-8.87H104A8.87,8.87,0,0,1,112.89,31l-2,45.58C108.88,93.88,100.21,105,84.56,105Z"/><circle cx="97.42" cy="56.2" r="3.13"/><circle cx="69.66" cy="56.2" r="3.13"/><path class="cls-7" d="M80.72,72.38l3.42,2.75a.69.69,0,0,0,.85,0l3.57-2.76a.69.69,0,0,0-.43-1.23h-7A.69.69,0,0,0,80.72,72.38Z"/><path class="cls-1" d="M58.24,76.62s-8.59-6.7-6.84-15.19a1.26,1.26,0,0,1,.16-.42c.48-.83,2.51-3.81,5.93-1.33Z"/><path class="cls-6" d="M58.11,74s-6-4.21-4.92-10.82c0,0,.72-4.26,4.21-1.62Z"/><path d="M94.28,44.29c3-2.27,6.71-1.61,9.28,1,.84.84,2-.62,1.14-1.45a8.68,8.68,0,0,0-11.53-1,.92.92,0,0,0,1.11,1.47Z"/><path d="M75.94,41.54a8.68,8.68,0,0,0-11,3.52c-.62,1,.8,2.16,1.43,1.16,1.94-3.07,5.41-4.54,8.84-3a.92.92,0,0,0,.75-1.68Z"/><path class="cls-7" d="M79.05,96.82s2.28-6,12.43-5.84Z"/><path class="cls-8" d="M83.82,51.27v-6a8.72,8.72,0,0,1-1.39-3.5A53.91,53.91,0,0,0,83.82,51.27Z"/><path class="cls-1" d="M110.68,76.66s8.58-6.71,6.84-15.2a1.29,1.29,0,0,0-.16-.41c-.48-.83-2.51-3.82-5.93-1.34Z"/><path class="cls-6" d="M110.81,74.06s6-4.22,4.92-10.82c0,0-.72-4.27-4.21-1.62Z"/><path class="cls-9" d="M90.8,83.93c0-1.09-1.65-2-3.68-2a5.76,5.76,0,0,0-2.48.52A5.72,5.72,0,0,0,82.16,82c-2,0-3.67.88-3.67,2a1.13,1.13,0,0,0,.13.5c.45,1.58,3,2.8,6,2.8s5.57-1.22,6-2.8A1.14,1.14,0,0,0,90.8,83.93Z"/><path class="cls-10" d="M79.15,84.33a14,14,0,0,1,5.34,0,13,13,0,0,0,5.31,0"/><path class="cls-10" d="M79.15,84.33a8.94,8.94,0,0,1,2.66-.65,8.16,8.16,0,0,1,2.78.17c.81.16,1.7.28,2.56.38a21,21,0,0,0,2.65.1,6.51,6.51,0,0,1-2.67.68,10.84,10.84,0,0,1-2.77-.19A27.26,27.26,0,0,0,79.15,84.33Z"/><path d="M111.43,59.71l3.64-32.54-5.81-9.94L90.8,14.39,56.24,18.78,54.7,25.36s-3,13.2,7.73,14.32V30.91s1.16,8.26,8.19,8.77v-8.9s3.76,9,13.2,9.29V30.78s2.58,8.91,10.47,9V31S114.36,29.19,111.43,59.71Z"/><path class="cls-11" d="M82.09,69.67h5.18a1.37,1.37,0,0,0,1.35-1.55L86.41,51.79a1.36,1.36,0,0,0-2.68-.06l-3,16.33A1.36,1.36,0,0,0,82.09,69.67Z"/><polygon class="cls-1" points="192.75 350.16 175.19 358.18 143.21 253.47 160.77 245.46 192.75 350.16"/><path class="cls-1" d="M195.62,371.8l-.21.56A2.49,2.49,0,0,0,195.62,371.8Z"/><path class="cls-1" d="M193.4,366.75l-9.8,4.48c-2.14,1-4.56-.47-5.41-3.23l-7.85-25.7,17.56-8L195.75,360C196.59,362.74,195.54,365.77,193.4,366.75Z"/><path class="cls-1" d="M177.07,361.2c.93-.75,1.61-1.64,3.66-.56h0l0,.06,4.15,5.19-2.77,2.25L180,366.88l-1.33,10.84h0c-.21,1.14-1.08,1.84-2,1.57a2.51,2.51,0,0,1-1.48-2.59h0l1.19-14.23.7-1.27"/><path class="cls-3" d="M178.4,376.85c-.12,1.21-.85,2.1-1.64,2s-1.34-1.22-1.22-2.44a2.68,2.68,0,0,1,.09-.52Z"/><path class="cls-1" d="M186.65,390.5c.83,2.5,2.25,4.22,3.26,3.86s1.25-2.68.58-5.24l-6.63-22.44-4.14,1.9Z"/><path class="cls-1" d="M191.34,389.88c.83,2.51,2.26,4.22,3.27,3.86s1.24-2.68.57-5.24l-6.62-22.43L184.41,368Z"/><path class="cls-1" d="M194.88,385.65c.83,2.51,2.25,4.22,3.26,3.86s1.25-2.67.58-5.24l-6.63-22.43L188,363.73Z"/><path class="cls-1" d="M197.62,378.93c.82,2.51,2.12,4.28,3,4s1-2.54.27-5.09l-6.66-22.42L190.72,357Z"/><path class="cls-3" d="M190.28,390.62c.49,1.27.33,2.68-.35,3.16s-1.65-.18-2.15-1.46a3.89,3.89,0,0,1-.18-.58Z"/><path class="cls-3" d="M195,390c.48,1.27.33,2.68-.36,3.16s-1.65-.18-2.15-1.46c-.07-.19-.12-.38-.17-.57Z"/><path class="cls-3" d="M198.53,385.71c.49,1.28.34,2.69-.35,3.16s-1.65-.17-2.15-1.45a4.23,4.23,0,0,1-.17-.58Z"/><path class="cls-3" d="M200.85,379.83c.4,1,.29,2.17-.24,2.54s-1.29-.16-1.69-1.2a3.64,3.64,0,0,1-.14-.47Z"/><path class="cls-12" d="M163.2,220.45l-22-69.68c-1.94-3.65-5.16-1.31-4.84,2.81l-1.3,89.28,10.17,56.23L180,277.28Z"/><path class="cls-13" d="M145.22,299.09h0a13.55,13.55,0,0,0,17.54,10.48l9.07-2.95.17-.06a17.61,17.61,0,0,0,10.29-24.74L180,277.28Z"/><path class="cls-12" d="M115.12,128.56h-9.53a21.66,21.66,0,0,1,.51,4.59,21.42,21.42,0,1,1-42.84,0,21,21,0,0,1,.51-4.59H54.18a26.3,26.3,0,0,0-26.29,26.3V363.38a6.5,6.5,0,0,0,6.5,6.5H134.91a6.5,6.5,0,0,0,6.5-6.5V154.86A26.3,26.3,0,0,0,115.12,128.56Z"/><path class="cls-1" d="M84.68,154.57a21.42,21.42,0,0,0,21.42-21.42,21.66,21.66,0,0,0-.51-4.59H63.77a21,21,0,0,0-.51,4.59A21.42,21.42,0,0,0,84.68,154.57Z"/><path d="M105.72,125.71A36.23,36.23,0,0,0,95,123.77c-.43,7.43.25,11.85-.94,20.08a15.13,15.13,0,0,1-1.75,4.24,36.17,36.17,0,0,1-33.4,20.21A36.26,36.26,0,0,0,69.5,186.44c.73.68,1.51,1.33,2.31,1.95.28.07,13.25,3.08,19.27-9.48,0,0,4.24,10.64-4.36,16.4a36.17,36.17,0,0,0,39.77-19.48,36.82,36.82,0,0,0,1.75-4.23A36.15,36.15,0,0,0,105.72,125.71Z"/><polygon class="cls-12" points="27.89 154.86 0.36 318.02 27.89 318.02 27.89 154.86"/><path class="cls-13" d="M.36,318h0c-1.79,10.8,3.36,21.38,10.54,21.62l17,.56V318Z"/><path class="cls-14" d="M44,296.11s28.46,17.6,84.75,40.75l-7.23,2.95c-34.66,14.12-73.72-7.9-77.52-43.7Z"/><path class="cls-14" d="M53.93,235c1.51-4.3,5.92-12.06,18.45-15.36a21.65,21.65,0,0,1,16.94,2.44c4.27,2.76,11,5.57,19,3.39,9.12-2.5,10.9-12.33,3.39-17.37a26.68,26.68,0,0,0-11.76-4.89S51,195.58,52.88,234.88C52.91,235.39,53.76,235.48,53.93,235Z"/></g></svg>