<svg id="Layer_1" data-name="Layer 1" xmlns="http://www.w3.org/2000/svg" viewBox="0 0 254.66 841.03"><defs><style>.cls-1{fill:#ffc7ab;}.cls-14,.cls-2{fill:none;}.cls-2{stroke:#001e42;stroke-miterlimit:10;stroke-width:1.19px;}.cls-3{fill:#002142;}.cls-4,.cls-5,.cls-6{fill:#4a59af;}.cls-4{opacity:0.2;}.cls-5{opacity:0.4;}.cls-7{fill:#0085ff;}.cls-8{fill:#606060;}.cls-9{fill:#daff00;}.cls-10,.cls-11{fill:#fff;}.cls-10{fill-rule:evenodd;}.cls-12{fill:#512a03;}.cls-13{fill:#42210b;}.cls-15{fill:#e0a28c;}.cls-16{fill:#003f51;}.cls-17{fill:#990016;}.cls-18{fill:#fcba9d;}.cls-19{fill:#191919;}.cls-20{fill:#235b03;}</style></defs><title>Artboard 25</title><path class="cls-1" d="M149.06,198l13.56-29.73,80,43.31s16,7.29,11,26.67c-3.78,14.82-19.61,10.82-19.61,10.82Z"/><path d="M4.47,824.38l73.34,8.71v6.61a1.22,1.22,0,0,1-1,1.33H60.43a1,1,0,0,1-.91-.73c-1.14-2.68-3.37-4.51-5.94-4.51s-4.81,1.83-5.94,4.51a1.05,1.05,0,0,1-.92.73h-33c-.54,0-4.84,0-5.59-.63Z"/><path class="cls-2" d="M49.2,753.62l-3.77-7.49a1.73,1.73,0,0,0-3.23.2l-1,2.78a2,2,0,0,0,1.2,2.58Z"/><path class="cls-2" d="M48.68,753.62l-5.34.54a1.34,1.34,0,0,0-.75,2.23l1.33,1.45a1.16,1.16,0,0,0,1.82-.12Z"/><path class="cls-2" d="M48.33,754.07s4,12.26-14.81,9.09"/><path class="cls-2" d="M50.14,754.6s10,7.17-6.72,16.91"/><path class="cls-3" d="M4.26,822c0-7,6.93-15.66,14.4-12.71,7.7,3,11.64,1.13,13.65-.24l11.4-9.39A12.89,12.89,0,0,0,48,789.75V750.39c0-2.91,1.86-5.27,4.16-5.27H73.65c2.3,0,4.16,2.36,4.16,5.27v84.32H16.42a8.22,8.22,0,0,1-4.09-1.31C7.56,831.33,4.26,827,4.26,822Z"/><ellipse class="cls-4" cx="15.02" cy="818.01" rx="5.25" ry="5.67"/><ellipse class="cls-5" cx="12.98" cy="818.83" rx="3.21" ry="3.47"/><path d="M219.19,812.09l-71.53,18.36.87,6.55a1.22,1.22,0,0,0,1.22,1.18L165.93,836a1.06,1.06,0,0,0,.81-.85c.77-2.81,2.75-4.91,5.29-5.26s5,1.18,6.49,3.68a1.06,1.06,0,0,0,1,.61l32.73-4.38c.54-.07,4.8-.64,5.46-1.36Z"/><path class="cls-3" d="M219.09,809.71c-.93-7-9-14.61-16-10.69-7.22,4-11.39,2.66-13.56,1.57L177,792.79a12.89,12.89,0,0,1-5.52-9.26l-5.22-39c-.38-2.89-2.54-5-4.82-4.68l-21.35,2.86c-2.28.3-3.81,2.89-3.42,5.77l11.17,83.58,60.85-8.13a8.29,8.29,0,0,0,3.88-1.84C217.06,819.39,219.75,814.67,219.09,809.71Z"/><ellipse class="cls-4" cx="207.89" cy="807.18" rx="5.25" ry="5.67" transform="translate(-105.15 34.67) rotate(-7.62)"/><ellipse class="cls-5" cx="210.03" cy="807.72" rx="3.21" ry="3.47" transform="translate(-105.2 34.96) rotate(-7.62)"/><path class="cls-6" d="M141,382H54.68a19.84,19.84,0,0,0-19.84,20.3l7.3,318.43a19.87,19.87,0,0,1-1.28,7.48c-9.72,25.73,17.19,24,24.17,24h0c7.09,0,24.4,2.31,20.32-18.95a19.56,19.56,0,0,1-.33-4l5.74-256.76c.21-4.86,2.52-9.45,6.3-11.47a7.37,7.37,0,0,1,8.25.43c2.86,2,4.54,5.75,5,9.64L128.55,716.7a63.06,63.06,0,0,1-.35,13.1c-3.29,25,18.26,20.54,25.76,20.54h0c17.14,1.59,29.06-10.56,22.65-23a57.17,57.17,0,0,1-6.67-24.38l-9.12-301.7A19.86,19.86,0,0,0,141,382Z"/><path class="cls-2" d="M164.67,750l3.78-7.5a1.73,1.73,0,0,1,3.22.2l1,2.78a2,2,0,0,1-1.2,2.59Z"/><path class="cls-2" d="M165.19,750l5.34.54a1.34,1.34,0,0,1,.75,2.23L170,754.25a1.15,1.15,0,0,1-1.82-.12Z"/><path class="cls-2" d="M165.54,750.48s-4,12.27,14.81,9.09"/><path class="cls-2" d="M163.73,751s-10,7.17,6.72,16.91"/><path class="cls-7" d="M161.05,160.45c-2.32-4.36-6.16-1.56-5.78,3.35l2.78,63.83,21.18,10.25,9-56.79Z"/><rect class="cls-8" x="34.91" y="130.92" width="126.64" height="258.68" rx="13.13"/><path class="cls-7" d="M110.94,136.37l-36.09-3.12s-55.43,21.8-55.43,38.57v232H167.83v-232C167.83,155.05,110.94,136.37,110.94,136.37Z"/><polygon class="cls-9" points="100.09 183.63 96.16 181.09 95.08 192.64 94.38 232.09 100.09 183.63"/><polygon class="cls-9" points="86.28 178.13 89.36 176.13 90.71 194.86 94.11 231.02 86.28 178.13"/><polygon class="cls-9" points="90.71 176.13 79.85 131.68 74.85 133.25 60.18 193.98 90.71 176.13"/><polygon class="cls-9" points="95.78 181.09 106.19 132.22 111.22 137.72 119.03 193.98 95.78 181.09"/><path class="cls-10" d="M108.85,201.88c0-.19,0-.45.14-.58s.35-.14.3-.27-.17,0-.23,0-.46.14-.63.16l-.2-.06a.94.94,0,0,0-.56.41c-.12.14-.29.48-.16.68l0,.14.3.43c.1.08.12.13.23.21l.07.1a.56.56,0,0,0,.4,0c.43,0,.38-.83.52-1A.34.34,0,0,0,108.85,201.88ZM107,204.49a1.65,1.65,0,0,0,.32-.07c.13-.07.58-.38.44-.64-.05-.53-.69-.08-1-.27-.28,0-.59-.56-.67-.78a.27.27,0,0,0-.07-.13h0c-.09.1-.07.18-.08.41h-.11a.29.29,0,0,1-.06.17l0,0c-.07,0,0,0-.07,0-.25,0-.23.27-.35.42C105.34,204.08,106.3,204.67,107,204.49Zm3.16-1.46a1.86,1.86,0,0,0-.83.31.38.38,0,0,0-.16.16.22.22,0,0,0,0,.17.26.26,0,0,0,.11.2c.51,0,1.39-.07,1.56.36a1.1,1.1,0,0,0,0,.11c.17,0,0,0,.29,0a1.11,1.11,0,0,0,.29,0,.1.1,0,0,0,.07-.05.35.35,0,0,1,0-.06.28.28,0,0,0,.13,0c.23,0,.11-.14.22-.27C111.76,203.1,110.94,202.91,110.16,203Zm-.91,1.74c-.12.09-.17.07-.24.21s0,0,0,0,.24.2.36.3.13.21.18.22.09.24.12.24,0,.17,0,.21c0,.21,0,.22-.07.26a.64.64,0,0,0,0,.07s.1.07.13.06a1.92,1.92,0,0,1,.62.44c.34,0,.31-.07.54-.17.07,0,.12,0,.16,0s0-.13.09-.17C111.2,205.58,110.08,204.8,109.25,204.77Zm-1.32.19c-.05,0-.18.07-.21.13a2.77,2.77,0,0,1-.28.37,1.14,1.14,0,0,1-1.34.17s0,0,0,.09a2.32,2.32,0,0,1,.11.62c0,.1.06.07.11.12s.06.14.1.17h.16l0,.09.2,0,.18.08.22,0a.5.5,0,0,0,.45-.12c.08,0,.17,0,.24-.1a1.57,1.57,0,0,0,.3-.38,1.44,1.44,0,0,0,0-1.14C108.12,205,108.05,205,107.93,205Z"/><path class="cls-11" d="M116,203.09a1.09,1.09,0,0,1,1.15,1.22,1.16,1.16,0,0,1-1.31,1.27h-.9v-2.49Zm-.21,2c.39,0,.7-.12.7-.79s-.31-.77-.7-.77h-.2v1.56Z"/><path class="cls-11" d="M118.11,205.2c0,.18,0,.38,0,.38h-.67s0-.2,0-.38v-1.73c0-.18,0-.38,0-.38H119v.48h-.92v.5h.82v.46h-.82Z"/><path class="cls-11" d="M113.59,205.07a.53.53,0,0,1-.56-.54v0h1.52v-.18c0-.85-.36-1.26-1.1-1.26-.34,0-1.13.12-1.13,1.31,0,.79.4,1.27,1.1,1.27a1.81,1.81,0,0,0,1.13-.32s-.23-.41-.26-.45A1.19,1.19,0,0,1,113.59,205.07Zm-.56-1c0-.15.06-.48.43-.48s.39.31.39.48v0H113Z"/><circle class="cls-12" cx="92.74" cy="42.68" r="42.68"/><path class="cls-12" d="M137.39,76.15a42.92,42.92,0,0,1-2-4.83,40.92,40.92,0,0,1-1.08-22.88A41.22,41.22,0,0,0,96.41,103a40.28,40.28,0,0,0,2,4.82,41.19,41.19,0,0,0,50.31,20.84,40,40,0,0,0,4.1-1.67,40.73,40.73,0,0,0,10.55-7.08,41.36,41.36,0,0,0,12.1-20.67A41.24,41.24,0,0,1,137.39,76.15Z"/><path class="cls-12" d="M48.24,77.86a42.92,42.92,0,0,0,2-4.83,40.92,40.92,0,0,0,1.08-22.88,41.22,41.22,0,0,1,37.91,54.51,40.28,40.28,0,0,1-2,4.82,40.94,40.94,0,0,1-54.41,19.17,40.73,40.73,0,0,1-10.55-7.08,41.36,41.36,0,0,1-12.1-20.67A41.24,41.24,0,0,0,48.24,77.86Z"/><path class="cls-13" d="M105.55,44.22c3.44-2.91,7.9-2.35,11.13.54,1,1,2.3-.86,1.26-1.79a10.35,10.35,0,0,0-13.8-.44,1.1,1.1,0,0,0,1.41,1.69Z"/><path class="cls-13" d="M79.91,38a10.34,10.34,0,0,0-13,4.75C66.26,43.93,68,45.26,68.71,44c2.15-3.76,6.22-5.69,10.39-4a1.1,1.1,0,0,0,.81-2Z"/><path class="cls-14" d="M93,52.24V45a10.39,10.39,0,0,1-1.66-4.18A63.9,63.9,0,0,0,93,52.24Z"/><polygon class="cls-15" points="106.19 138.4 106.19 111.92 79.85 111.92 79.85 114.17 105.15 139.47 106.19 138.4"/><path class="cls-6" d="M178,116.33h0c0-.17,0-.34,0-.52Z"/><path class="cls-1" d="M127.5,86.41s9.64-10.47,7.33-20.73c0,0-2.4-6.15-7.1-2.74Z"/><path class="cls-1" d="M70.67,17.5h46.47a10.59,10.59,0,0,1,10.59,10.59V84.74a31.59,31.59,0,0,1-31.59,31.59H91.68A31.59,31.59,0,0,1,60.08,84.74V28.09A10.59,10.59,0,0,1,70.67,17.5Z"/><circle class="cls-16" cx="109.25" cy="58.12" r="3.74"/><circle class="cls-16" cx="76.11" cy="58.12" r="3.74"/><path class="cls-15" d="M89.31,77.44l4.09,3.29a.83.83,0,0,0,1,0l4.25-3.29a.82.82,0,0,0-.5-1.47H89.83A.82.82,0,0,0,89.31,77.44Z"/><path class="cls-15" d="M127.73,82.41s6.26-6.47,5-14.36c0,0-.85-5.09-5-1.94Z"/><path class="cls-1" d="M60.18,84.59S50.67,74.38,53,64.12c0,0,2.4-6.15,7.1-2.74Z"/><path class="cls-15" d="M60.08,80.85s-6.26-6.47-5-14.36c0,0,.85-5.09,5-1.94Z"/><path class="cls-15" d="M101,101.4c-2.72,2.71-5.3,4.12-11.39,2.46a.76.76,0,0,1,0-1.49l10.82-2.31A.76.76,0,0,1,101,101.4Z"/><path class="cls-17" d="M79.85,91.35s12.2,3.76,23.62,1.17l.78-.48Z"/><path class="cls-18" d="M102.71,65.08s.73,10.9,12,6.55l-12-6.55"/><path class="cls-18" d="M84.38,65.08s-.73,10.9-12,6.55l12-6.55"/><polygon class="cls-1" points="103.36 137.68 79.85 114.17 79.85 131.68 91.36 201.73 94.06 230.57 97.62 181.96 106.19 138.4 103.36 137.68"/><polygon class="cls-1" points="10.1 220.66 30.19 215.68 28.46 380.99 4.36 373.93 10.1 220.66"/><polygon class="cls-1" points="170.56 235.78 156.48 211.76 235.84 216.16 235.84 249.64 170.56 235.78"/><path class="cls-1" d="M4.05,434.13V415.45a6.25,6.25,0,0,1-.23-1.68l.1-10,.43-29.8L28.46,381l-.37,23.14,0,4.56.16.12,6.57,13.37a2.54,2.54,0,0,1-.87,3.15,2.15,2.15,0,0,1-3-.68L27,417.52a7,7,0,0,1-.71.92l-.47,22c-.1,2.8-1.22,5.07-2.57,5.14s-2.47-2.08-2.58-4.86l0-20.39h-.27l-.46,21.51c-.1,2.79-1.22,5.06-2.57,5.14s-2.47-2.09-2.58-4.87l0-21.87h0l-.63,19c-.1,2.79-1.22,5.07-2.57,5.14S9.07,442.3,9,439.51l0-19.44c-.09,0-.19,0-.29,0l-.12,6.3-.15,7.51c-.09,2.79-1,5.07-2.16,5.15S4.14,436.91,4.05,434.13Z"/><path class="cls-7" d="M0,225.9l19.42-54.08c3.5-5.79,6.45-10.34,6.55-5.42l12.86,68.84Z"/><polygon points="167.83 300.32 167.83 339.45 126.53 138.15 137.09 142.61 167.83 300.32"/><polygon points="27.21 295.34 28.95 334.04 67.31 132.05 56.32 138.84 27.21 295.34"/><path class="cls-1" d="M138.08,219l5-13.36a5.64,5.64,0,0,1,7.26-3.31l28.11,13.5c4.33,7.46-7.88,19.92-7.88,19.92l-29.17-9.49A5.64,5.64,0,0,1,138.08,219Z"/><path class="cls-1" d="M156.7,206c-.21,1.5-.1,2.84-2.74,4.2h-.08l-7.73.6.63-4.48,2.89-1.35-.61-3-1.26-4.83a14.51,14.51,0,0,1,8.5,7.19c1.07,2.12.4,1.63.4,1.63"/><path class="cls-1" d="M135.27,198.51c-2.71-.93-4.54-.35-5.13,1s.26,2.87,2.87,4l13.43,5.71,2.11-5.65Z"/><path class="cls-1" d="M131.67,203.81c-2.71-.92-4-.55-4.59.75s-.28,3.09,2.34,4.22l13.42,5.71,2.11-5.65Z"/><path class="cls-1" d="M131.94,210.5c-2.71-.93-3.8-.47-4.39.83s-.48,3,2.13,4.13l13.43,5.71,2.11-5.65Z"/><path class="cls-1" d="M134.88,218.13c-2.7-.94-4-.32-4.56.77s0,2.26,2.61,3.37l13.45,5.66,1.77-4.73Z"/><path class="cls-12" d="M75.74,5.3c9,18.38,13.29,29.93,29.81,36.36s26.8,37.07,29.87,34.23c6-5.56-2.1-54.34-13.36-66.14S75,3.76,75.74,5.3Z"/><path class="cls-12" d="M103.73,13.47c-9,18.37-13.29,29.93-29.81,36.36s-20.27,28-20.84,23.82c-1.27-9.29.09-46.89,11.35-58.7S104.49,11.92,103.73,13.47Z"/><path class="cls-19" d="M92.23,22.84c0,7-7.52,12.69-16.79,12.69s-16.8-5.68-16.8-12.69S92.23,15.84,92.23,22.84Z"/><path class="cls-19" d="M127.69,22.84c0,7-7.52,12.69-16.79,12.69S94.1,29.85,94.1,22.84,127.69,15.84,127.69,22.84Z"/><polygon class="cls-20" points="59.22 26.16 54.9 47.85 54.9 45.54 58.64 22.84 59.22 26.16"/><polygon class="cls-20" points="126.82 26.16 133.26 47.05 133.3 45.48 127.4 22.84 126.82 26.16"/><rect class="cls-20" x="91.27" y="20.94" width="4.04" height="1.9"/><circle class="cls-11" cx="64.29" cy="25.34" r="2.5"/><circle class="cls-11" cx="98.74" cy="25.34" r="2.5"/></svg>