<svg id="Layer_1" data-name="Layer 1" xmlns="http://www.w3.org/2000/svg" viewBox="0 0 204.1 840.71"><defs><style>.cls-1{fill:#894f38;}.cls-2{fill:#f2f2f2;}.cls-3{fill:#ceac8e;}.cls-4{fill:#c69c6d;}.cls-5{fill:#130037;}.cls-6,.cls-7{fill:#a67c52;}.cls-7{opacity:0.4;}.cls-8{fill:#934145;}.cls-9{fill:#fff0fb;}.cls-10{opacity:0.1;}.cls-11{fill:#a4d8ff;opacity:0.7;}.cls-12{fill:#6d6d6d;}.cls-13{fill:#ffe3f6;}.cls-14{fill:#851c00;}</style></defs><title>Artboard 10 copy</title><g id="old"><polygon class="cls-1" points="84.38 721.55 61.13 728.91 63.54 767.38 83.25 767.38 84.38 721.55"/><polygon class="cls-2" points="83.25 767.38 83.19 770.06 83.15 771.6 83.12 772.69 83.08 774.23 82.58 794.75 65.18 793.46 63.97 774.23 63.88 772.69 63.81 771.6 63.71 770.06 63.54 767.38 83.25 767.38"/><path d="M83.68,786.31v31.11L73.1,823.89,9.67,837.11h0a8.34,8.34,0,0,1,2.95-11.21l41.77-25.38L65,784.93Z"/><path d="M83.68,817.42v4.18a4.31,4.31,0,0,1-2.27,3.8l-7.61,4.12-59,11.11a4.33,4.33,0,0,1-4.92-2.89l-.21-.63L73.1,823.89Z"/><polygon class="cls-2" points="65.3 721.55 88.55 728.91 86.13 767.38 66.42 767.38 65.3 721.55"/><polygon class="cls-3" points="2.71 429.63 32.22 429.63 32.22 233.34 12.43 226.4 2.71 429.63"/><path class="cls-3" d="M8.22,452l.57.45A3.14,3.14,0,0,1,8.22,452Z"/><path class="cls-3" d="M8,412h18.9a5.3,5.3,0,0,1,5.3,5.3v28.77a0,0,0,0,1,0,0H2.71a0,0,0,0,1,0,0V417.3A5.3,5.3,0,0,1,8,412Z" transform="translate(34.93 858.07) rotate(-180)"/><path class="cls-3" d="M30.81,433.4c-1.71-.32-3.11-.88-5.66,1.08h0v.07l-3.77,6.9,5.09,1,2.63-2.19,6.84,10h0a3,3,0,0,0,3.64.64,2.31,2.31,0,0,0,1-3.18h0l-8.18-13.33-1.6-.93"/><path class="cls-4" d="M35.9,449.23a2.82,2.82,0,0,0,3.3,1.2,1.92,1.92,0,0,0,.71-2.93,2.82,2.82,0,0,0-.38-.46Z"/><path class="cls-3" d="M29.88,466.2c-.09,2.81-1.42,5.11-3.07,5.21s-3-2.05-3.21-4.84l-.34-24.81h7Z"/><path class="cls-3" d="M22.68,467.69c-.09,2.81-1.42,5.11-3.07,5.21s-3-2-3.21-4.85l-.34-24.8h7Z"/><path class="cls-3" d="M15.56,465.14c-.09,2.81-1.42,5.12-3.07,5.21s-3.05-2.05-3.21-4.84l-.34-24.8h7Z"/><path class="cls-3" d="M8.5,459.81c-.08,2.81-1.2,5.12-2.58,5.21s-2.55-2-2.69-4.84L3,435.38H8.79Z"/><path class="cls-4" d="M24.58,467.93a2.54,2.54,0,0,0,2,2.92A2.42,2.42,0,0,0,29,468.48a3.42,3.42,0,0,0,0-.64Z"/><path class="cls-4" d="M17.32,469.45a2.55,2.55,0,0,0,1.94,2.92A2.43,2.43,0,0,0,21.78,470a3.42,3.42,0,0,0,0-.64Z"/><path class="cls-4" d="M10.2,466.83a2.54,2.54,0,0,0,1.94,2.92,2.44,2.44,0,0,0,2.52-2.38,3.42,3.42,0,0,0,0-.64Z"/><path class="cls-4" d="M4.13,462.13a2.05,2.05,0,0,0,1.5,2.37,1.93,1.93,0,0,0,2-1.92,3,3,0,0,0,0-.52Z"/><polygon class="cls-1" points="112.27 721.55 135.52 728.91 133.11 767.38 113.4 767.38 112.27 721.55"/><polygon class="cls-2" points="113.4 767.38 113.46 770.06 113.5 771.6 113.53 772.69 113.57 774.23 114.07 794.75 131.47 793.46 132.68 774.23 132.78 772.69 132.84 771.6 132.94 770.06 133.11 767.38 113.4 767.38"/><path d="M113,786.31v31.11l10.58,6.47L187,837.11h0A8.34,8.34,0,0,0,184,825.9l-41.77-25.38L131.7,784.93Z"/><path d="M113,817.42v4.18a4.31,4.31,0,0,0,2.27,3.8l7.62,4.12,59,11.11a4.32,4.32,0,0,0,4.91-2.89l.21-.63-63.43-13.22Z"/><path class="cls-5" d="M35.9,372.92l132.42,3.67-21.08,422.3-39,14-.37-357s-4.71-9.3-8.3.53L96.24,810.89l-44-14Z"/><polygon class="cls-6" points="109.3 132.44 116.76 132.44 116.76 118.04 116.76 103.32 89.32 103.32 89.32 105.34 100.3 114.78 109.3 132.44"/><polygon class="cls-3" points="100.3 114.78 89.32 105.34 89.32 118.04 89.32 132.44 102.24 135.89 109.3 132.44 100.3 114.78"/><path d="M136.72,58.46C140,81.76,125.46,89,101.93,89S70.14,81.65,70.58,58.13C71,34.36,64.82.06,102.36,0,144.23-.07,133.44,34.86,136.72,58.46Z"/><path class="cls-3" d="M133.28,78.71s8.63-9.39,6.56-18.57c0,0-2.14-5.51-6.36-2.45Z"/><path class="cls-3" d="M113.64,109.36H92.74c-9.4,0-15.15-11.41-17.62-17C74,89.76,73,83,73,80.13l-.08-45.7c0-8.65,7-15.67,16.67-15.54h29.24c7.65-.13,14.67,6.89,14.67,15.54l-.18,46c0,3.28-1.5,11.76-2.78,14.78C126.72,104.12,123.2,108.06,113.64,109.36Z"/><path class="cls-7" d="M99.08,72.44l3.66,2.94a.72.72,0,0,0,.91,0l3.81-2.94a.74.74,0,0,0-.45-1.32H99.54A.73.73,0,0,0,99.08,72.44Z"/><path class="cls-7" d="M133.48,75.12s5.61-5.8,4.5-12.86c0,0-.77-4.56-4.5-1.73Z"/><path class="cls-3" d="M73,78.85s-8.52-9.15-6.46-18.34c0,0,2.15-5.51,6.37-2.45Z"/><path class="cls-7" d="M72.9,75.49s-5.61-5.79-4.5-12.86c0,0,.76-4.56,4.5-1.73Z"/><path class="cls-8" d="M93.69,87.43s6,5.24,19.1.62l1-.36Z"/><path class="cls-7" d="M111.75,60s1.29,7.84,9.44,7.47Z"/><path class="cls-7" d="M92.31,60S91,67.81,82.87,67.44Z"/><circle cx="116.15" cy="53.86" r="3.27"/><circle cx="87.13" cy="53.86" r="3.27"/><path d="M112.87,41.42c3.14-2.37,7-1.68,9.7,1,.87.87,2.05-.65,1.19-1.51a9.07,9.07,0,0,0-12.05-1,1,1,0,0,0,1.16,1.54Z"/><path d="M93.87,42.58a9,9,0,0,0-11.33-4.2c-1.15.41-.74,2.29.43,1.87,3.57-1.28,7.37-.26,9.2,3.23a1,1,0,0,0,1.7-.9Z"/><path class="cls-9" d="M159.59,381H38.75a6.51,6.51,0,0,1-6.51-6.5l-1-216.72a26.3,26.3,0,0,1,26.3-26.29h26.7l18,4.36,17-4.36H138.8a26.29,26.29,0,0,1,26.29,26.29l1,216.72A6.5,6.5,0,0,1,159.59,381Z"/><path class="cls-10" d="M134,156.55s-24.27,11.9-71.29,26.1l5.54,2.92c26.55,14,59.68-.64,65.75-29Z"/><path class="cls-10" d="M39.44,302.74s38.63,23.9,115.06,55.33l-9.82,4C97.63,381.25,44.6,351.35,39.44,302.74Z"/><path class="cls-9" d="M39.53,140.38,35.9,144.2C-8.76,163.89,2.24,405.89,2.24,405.89h30l7.29-265.51Z"/><polygon class="cls-3" points="193.19 426.71 163.68 426.71 163.68 237.28 186.96 226.4 193.19 426.71"/><path class="cls-3" d="M187.68,449.06l-.57.46A3.19,3.19,0,0,0,187.68,449.06Z"/><path class="cls-3" d="M163.68,409.09h29.5a0,0,0,0,1,0,0v28.77a5.3,5.3,0,0,1-5.3,5.3H169a5.3,5.3,0,0,1-5.3-5.3V409.09A0,0,0,0,1,163.68,409.09Z"/><path class="cls-3" d="M165.09,430.49c1.71-.32,3.11-.89,5.66,1.08h0l0,.08,3.77,6.9-5.1,1-2.63-2.2-6.84,10h0a3,3,0,0,1-3.64.64,2.32,2.32,0,0,1-1-3.19h0l8.18-13.32,1.6-.93"/><path class="cls-4" d="M160,446.32a2.82,2.82,0,0,1-3.3,1.2,1.93,1.93,0,0,1-.71-2.93,3.4,3.4,0,0,1,.38-.47Z"/><path class="cls-3" d="M166,463.29c.09,2.81,1.42,5.11,3.07,5.21s3-2.05,3.21-4.85l.34-24.8h-7Z"/><path class="cls-3" d="M173.22,464.78c.09,2.8,1.42,5.11,3.07,5.21s3.05-2.06,3.21-4.85l.34-24.8h-7Z"/><path class="cls-3" d="M180.34,462.23c.09,2.81,1.43,5.12,3.08,5.21s3-2.05,3.21-4.84l.33-24.81h-7Z"/><path class="cls-3" d="M187.41,456.9c.07,2.81,1.19,5.12,2.57,5.21s2.55-2.05,2.69-4.84l.28-24.81h-5.84Z"/><path class="cls-4" d="M171.32,465a2.54,2.54,0,0,1-1.94,2.92,2.43,2.43,0,0,1-2.52-2.37,3.42,3.42,0,0,1,0-.64Z"/><path class="cls-4" d="M178.58,466.53a2.55,2.55,0,0,1-1.94,2.93,2.44,2.44,0,0,1-2.52-2.38,4.56,4.56,0,0,1,0-.64Z"/><path class="cls-4" d="M185.7,463.91a2.55,2.55,0,0,1-1.94,2.93,2.44,2.44,0,0,1-2.52-2.38,3.41,3.41,0,0,1,0-.64Z"/><path class="cls-4" d="M191.77,459.22a2,2,0,0,1-1.5,2.36,1.91,1.91,0,0,1-1.94-1.92,2.17,2.17,0,0,1,0-.51Z"/><path class="cls-9" d="M157.24,138.89c44.29,29.29,37,267,37,267h-31L160,141.59C163.59,145.41,157.24,138.89,157.24,138.89Z"/><path class="cls-3" d="M133.24,52.89s-1-32-29-31c-38,1.35-31,28-31,28s-7.52-47.94,30-47C143.24,3.89,133.24,52.89,133.24,52.89Z"/><rect class="cls-11" x="76.24" y="50.89" width="22" height="11" rx="4.79"/><rect class="cls-11" x="105.24" y="50.89" width="22" height="11" rx="4.79"/><rect class="cls-12" x="76.24" y="50.89" width="51" height="1"/><polygon class="cls-12" points="134.24 56.89 127.24 51.89 127.24 50.89 134.24 55.89 134.24 56.89"/><polygon class="cls-12" points="70.24 56.89 76.24 51.89 76.24 50.89 70.24 55.89 70.24 56.89"/></g><path class="cls-13" d="M89.32,127.68c-.08.21,12.92,8.21,12.92,8.21s-20,20-20,19-3.51-23.39-3.51-23.39Z"/><path class="cls-13" d="M117.24,126.89c.08.2-15,9-15,9s20,20,20,19,3.51-23.39,3.51-23.39Z"/><polygon class="cls-14" points="93.99 144.05 98.24 156.55 107.75 156.55 111.75 145.28 102.24 135.89 93.99 144.05"/><rect class="cls-13" x="2.24" y="405.89" width="32" height="14"/><rect class="cls-13" x="163.24" y="405.89" width="32" height="14"/><polygon class="cls-14" points="98.24 155.89 85.24 319.89 105.24 351.89 121.24 319.89 108.24 155.89 98.24 155.89"/></svg>