<svg xmlns="http://www.w3.org/2000/svg" viewBox="0 0 201.3 746.13"><defs><style>.cls-1{fill:#1f6814;}.cls-2{fill:#ead2b2;}.cls-3{fill:#d37c09;}.cls-4{fill:#ccc;}.cls-5{fill:#b3b3b3;}.cls-6{fill:#ceaf8e;}.cls-7{fill:#dbbd9c;}.cls-8{fill:none;}.cls-9{fill:#9b004a;}.cls-10{fill:#043302;}.cls-11{fill:#1e5b13;}.cls-12{fill:#990016;}</style></defs><title>compagnon8</title><g id="Layer_2" data-name="Layer 2"><path class="cls-1" d="M32.76,724.81a6.36,6.36,0,0,1-9-1.66l-6.6-10.53L13,722.82a6.54,6.54,0,0,0-.13,4.65l5.09,14.68A5.92,5.92,0,0,0,27,745l12.43-8.86a16.84,16.84,0,0,0,7.06-13.71v-8.17Z"/><path class="cls-1" d="M119.48,724.81a6.36,6.36,0,0,0,9-1.66l6.6-10.53,4.21,10.2a6.54,6.54,0,0,1,.13,4.65l-5.09,14.68a5.91,5.91,0,0,1-9,2.87l-12.42-8.86a16.83,16.83,0,0,1-7.07-13.71v-8.17Z"/><path class="cls-2" d="M132.47,706.33l-.25-.61-7-30.14,9.83-308.52H39.39L27.28,669.13,27,675.58l-7,30.14-.25.61-2.59,6.29,6.6,10.53a6.36,6.36,0,0,0,9,1.66l13.69-10.53v-38.7L75,441.64a11,11,0,0,1,4.77-8.08,8,8,0,0,1,7.93-.36,11.13,11.13,0,0,1,6.06,9.61l12,232.77h0v38.7l13.69,10.53a6.36,6.36,0,0,0,9-1.66l6.6-10.53Z"/><path d="M33.75,364.68,15,681.7c-.64,4.32,2,8.29,5.44,8.1l37.91-1.2S79,445.32,79.86,439.77s7.91-5.93,8.09-.44S94,687.47,94,687.47l37.69-1.2c3.88-.21,6.88-4.47,6.68-9.46l-1.92-320.67Z"/><path class="cls-3" d="M129.28,50.3h0a48.6,48.6,0,0,0-4.38-5.43,43.51,43.51,0,0,1-4.17-7.3A38.79,38.79,0,0,0,118,23.25v0h0C112.53,9.6,99.59,0,84.47,0A35.94,35.94,0,0,0,53.75,17.66h0v0a38.2,38.2,0,0,0-4.25,10.06c-4.47,12-1,31.59-8,53.11l-3,11.37C28.69,156.54,63.88,195.05,89.8,195.05c26.67,0,61.91-44.48,48.29-116.58C136.14,68.17,134.82,58.27,129.28,50.3Z"/><path class="cls-4" d="M80.51,352.79a2.17,2.17,0,0,0-2,2.33,2.62,2.62,0,0,0,.22,1l2.63-3.08A1.65,1.65,0,0,0,80.51,352.79Z"/><path class="cls-5" d="M81.38,353.06l-2.63,3.08a2,2,0,0,0,1.76,1.3,2.17,2.17,0,0,0,2-2.32A2.37,2.37,0,0,0,81.38,353.06Z"/><path class="cls-4" d="M80.51,346a2.17,2.17,0,0,0-2,2.32,2.67,2.67,0,0,0,.22,1l2.63-3.09A1.74,1.74,0,0,0,80.51,346Z"/><path class="cls-5" d="M81.38,346.21l-2.63,3.09a2,2,0,0,0,1.76,1.3,2.18,2.18,0,0,0,2-2.33A2.37,2.37,0,0,0,81.38,346.21Z"/><path class="cls-4" d="M80.51,360.33a2.17,2.17,0,0,0-2,2.32,2.62,2.62,0,0,0,.22,1l2.63-3.08A1.64,1.64,0,0,0,80.51,360.33Z"/><path class="cls-5" d="M81.38,360.59l-2.63,3.08a2,2,0,0,0,1.76,1.3,2.17,2.17,0,0,0,2-2.32A2.37,2.37,0,0,0,81.38,360.59Z"/><polygon class="cls-6" points="94.86 101.26 72.79 101.26 72.79 103.14 94.86 125.2 94.86 101.26"/><path class="cls-2" d="M72.79,103.14v26.44a11,11,0,0,0,22.07,0v-4.37Z"/><path class="cls-2" d="M84.56,105h0c-15.64,0-23.42-10.13-26.32-28.33L56.24,31a8.87,8.87,0,0,1,8.86-8.87H104A8.87,8.87,0,0,1,112.89,31l-2,45.58C108.88,93.88,100.21,105,84.56,105Z"/><circle cx="97.42" cy="56.2" r="3.13"/><circle cx="69.66" cy="56.2" r="3.13"/><path class="cls-7" d="M80.72,72.38l3.42,2.75a.69.69,0,0,0,.85,0l3.57-2.76a.69.69,0,0,0-.43-1.23h-7A.69.69,0,0,0,80.72,72.38Z"/><path class="cls-2" d="M58.24,76.62s-8.59-6.7-6.84-15.19a1.26,1.26,0,0,1,.16-.42c.48-.83,2.51-3.81,5.93-1.33Z"/><path class="cls-6" d="M58.11,74s-6-4.21-4.92-10.82c0,0,.72-4.26,4.21-1.62Z"/><path d="M94.28,44.29c3-2.27,6.71-1.61,9.28,1,.84.84,2-.62,1.14-1.45a8.68,8.68,0,0,0-11.53-1,.92.92,0,0,0,1.11,1.47Z"/><path d="M75.94,41.54a8.68,8.68,0,0,0-11,3.52c-.62,1,.8,2.16,1.43,1.16,1.94-3.07,5.41-4.54,8.84-3a.92.92,0,0,0,.75-1.68Z"/><path class="cls-7" d="M79.05,96.82s2.28-6,12.43-5.84Z"/><path class="cls-8" d="M83.82,51.27v-6a8.72,8.72,0,0,1-1.39-3.5A53.91,53.91,0,0,0,83.82,51.27Z"/><path class="cls-2" d="M110.68,76.66s8.58-6.71,6.84-15.2a1.29,1.29,0,0,0-.16-.41c-.48-.83-2.51-3.82-5.93-1.34Z"/><path class="cls-6" d="M110.81,74.06s6-4.22,4.92-10.82c0,0-.72-4.27-4.21-1.62Z"/><path class="cls-3" d="M111.43,59.71l3.64-32.54-5.81-9.94L90.8,14.39,56.24,18.78,54.7,25.36s-3,13.2,7.73,14.32V30.91s3.92,8.42,10.95,8.94c0,0,4.34-12.81,11.89-11.68S92.81,32,98.9,38.74,114.36,29.19,111.43,59.71Z"/><path class="cls-1" d="M115.12,128.56h-9.53a21.37,21.37,0,0,1-20.91,26c-23.46.29-21.42-9.59-21.42-21.42a21,21,0,0,1,.51-4.59H54.18a26.3,26.3,0,0,0-26.29,26.3V363.38a6.5,6.5,0,0,0,6.5,6.5H134.91a6.5,6.5,0,0,0,6.5-6.5V154.86A26.3,26.3,0,0,0,115.12,128.56Z"/><path class="cls-2" d="M84.68,154.57c26.17-.17,21.42-9.59,21.42-21.42a21.66,21.66,0,0,0-.51-4.59H63.77a21,21,0,0,0-.51,4.59C63.26,145,56.24,154.75,84.68,154.57Z"/><polygon class="cls-2" points="6.62 376.95 25.22 381.42 28.36 315.95 9.43 312.37 6.62 376.95"/><path class="cls-2" d="M8.43,398.13l.33.51A3.2,3.2,0,0,1,8.43,398.13Z"/><path class="cls-2" d="M9.55,392.73l10.52,2.32c2.3.51,4.36-1.41,4.61-4.29l1.66-28.34L8.1,359.84,5.83,386.61C5.58,389.48,7.25,392.22,9.55,392.73Z"/><path class="cls-2" d="M24.35,383.88c-1.07-.55-1.92-1.27-3.7.22h0l0,.06-3,5.95,3.18,1.62L22.7,390l3.57,10.32h0a1.68,1.68,0,0,0,2.28,1.12,2.54,2.54,0,0,0,.91-2.85h0L25.3,385l-.95-1.09"/><path class="cls-9" d="M26.34,399.45c.37,1.17,1.27,1.88,2,1.59s1-1.47.68-2.65a3,3,0,0,0-.2-.49Z"/><path class="cls-2" d="M21.14,414.53c-.29,2.63-1.32,4.6-2.38,4.46s-1.78-2.35-1.67-5l1.77-23.33,4.45,1Z"/><path class="cls-2" d="M16.42,414.91c-.28,2.63-1.32,4.6-2.38,4.46s-1.78-2.35-1.67-5l1.77-23.32,4.45,1Z"/><path class="cls-2" d="M12.07,411.52c-.28,2.63-1.32,4.6-2.38,4.46S7.91,413.63,8,411l1.76-23.32,4.46,1Z"/><path class="cls-2" d="M8,405.53c-.27,2.62-1.17,4.63-2.06,4.53s-1.47-2.29-1.33-4.93l1.8-23.32,3.73.82Z"/><path class="cls-9" d="M17.61,415.41c-.21,1.35.24,2.7,1,3s1.58-.52,1.8-1.88c0-.2,0-.4,0-.6Z"/><path class="cls-9" d="M12.85,415.81c-.21,1.35.24,2.7,1,3s1.58-.52,1.8-1.88c0-.2,0-.4.05-.6Z"/><path class="cls-9" d="M8.51,412.35c-.21,1.35.24,2.7,1,3s1.58-.52,1.8-1.88c0-.2,0-.4,0-.6Z"/><path class="cls-9" d="M5,407.09c-.17,1.09.18,2.18.77,2.43S7,409.09,7.18,408c0-.16,0-.32,0-.48Z"/><polygon class="cls-1" points="27.89 154.86 0.36 318.02 28.39 318.02 27.89 154.86"/><path class="cls-10" d="M.36,318h0a131.81,131.81,0,0,1,0,22.18H27.89L28.36,318Z"/><polygon class="cls-2" points="163.15 376.95 144.54 381.42 141.4 315.95 160.33 312.37 163.15 376.95"/><path class="cls-2" d="M161.33,398.13l-.33.51A3.2,3.2,0,0,0,161.33,398.13Z"/><path class="cls-2" d="M160.21,392.73l-10.52,2.32c-2.3.51-4.36-1.41-4.61-4.29l-1.65-28.34,18.23-2.58,2.27,26.77C164.18,389.48,162.51,392.22,160.21,392.73Z"/><path class="cls-2" d="M145.42,383.88c1.06-.55,1.91-1.27,3.7.22h0l0,.06,3,5.95-3.18,1.62L147.07,390l-3.58,10.32h0a1.68,1.68,0,0,1-2.28,1.12,2.52,2.52,0,0,1-.9-2.85h0L144.47,385l.95-1.09"/><path class="cls-9" d="M143.43,399.45c-.38,1.17-1.28,1.88-2,1.59s-1-1.47-.68-2.65a3,3,0,0,1,.2-.49Z"/><path class="cls-2" d="M148.62,414.53c.29,2.63,1.32,4.6,2.38,4.46s1.78-2.35,1.67-5l-1.77-23.33-4.45,1Z"/><path class="cls-2" d="M153.34,414.91c.28,2.63,1.32,4.6,2.38,4.46s1.78-2.35,1.67-5l-1.77-23.32-4.45,1Z"/><path class="cls-2" d="M157.69,411.52c.28,2.63,1.32,4.6,2.38,4.46s1.78-2.35,1.66-5L160,387.66l-4.45,1Z"/><path class="cls-2" d="M161.78,405.53c.27,2.62,1.17,4.63,2.06,4.53s1.47-2.29,1.33-4.93l-1.8-23.32-3.73.82Z"/><path class="cls-9" d="M152.15,415.41c.21,1.35-.24,2.7-1,3s-1.58-.52-1.8-1.88c0-.2,0-.4-.05-.6Z"/><path class="cls-9" d="M156.91,415.81c.21,1.35-.24,2.7-1,3s-1.58-.52-1.8-1.88c0-.2,0-.4,0-.6Z"/><path class="cls-9" d="M161.25,412.35c.21,1.35-.24,2.7-1,3s-1.58-.52-1.8-1.88c0-.2,0-.4-.05-.6Z"/><path class="cls-9" d="M164.75,407.09c.17,1.09-.17,2.18-.77,2.43s-1.22-.43-1.39-1.53a3.91,3.91,0,0,1-.05-.48Z"/><polygon class="cls-1" points="141.41 154.09 169.3 318.02 141.41 317.25 141.41 154.09"/><path class="cls-10" d="M167.72,317.12h0c1.79,10.8,2.66,21,2.66,21l-30.65,1.36-.46-23.16Z"/><path class="cls-11" d="M44,296.11s28.46,17.6,84.75,40.75l-7.23,2.95c-34.66,14.12-73.72-7.9-77.52-43.7Z"/><path class="cls-11" d="M51.46,237c1.51-4.3,5.92-12.06,18.45-15.36a21.65,21.65,0,0,1,16.94,2.44c4.27,2.76,11,5.57,19,3.39,9.12-2.5,10.89-12.33,3.39-17.36a26.57,26.57,0,0,0-11.76-4.9s-48.95-7.63-47.06,31.68C50.44,237.37,51.29,237.46,51.46,237Z"/><path class="cls-12" d="M77.43,84.17s5.49,4.54,14.29-.78l.65-.41Z"/></g></svg>