<svg id="Layer_1" data-name="Layer 1" xmlns="http://www.w3.org/2000/svg" viewBox="0 0 193.92 743.49"><defs><style>.cls-1{fill:#130800;}.cls-2{fill:#006385;}.cls-3{fill:#ffc7ab;}.cls-4{fill:#894f38;}.cls-5{fill:#9b004a;}.cls-6{fill:#ccc;}.cls-7{fill:#b3b3b3;}.cls-8{fill:#e0a28c;}.cls-9{fill:none;}.cls-10{fill:#f2f2f2;}.cls-11{fill:#223400;}.cls-12{fill:#aaa;opacity:0.3;}.cls-13{fill:#ead2b2;}.cls-14{fill:#4c290d;}.cls-15{fill:#219b1b;}</style></defs><title>Artboard 9 copy</title><path class="cls-1" d="M56,85.4c25.06,16.51,17.21,26.37,37.1,26.37s11-9.14,40.9-25.37c35-19,16.79-83-38.05-86.32C52.43-2.53,15,58.4,56,85.4Z"/><path class="cls-2" d="M43,722.17a6.34,6.34,0,0,1-9-1.65L27.39,710l-4.21,10.2a6.54,6.54,0,0,0-.13,4.65l5.09,14.68a5.93,5.93,0,0,0,9,2.88l12.43-8.87a16.84,16.84,0,0,0,7.06-13.71v-8.17Z"/><path class="cls-2" d="M129.69,722.17a6.36,6.36,0,0,0,9-1.65l6.6-10.54,4.21,10.2a6.54,6.54,0,0,1,.13,4.65l-5.09,14.68a5.92,5.92,0,0,1-9,2.88l-12.42-8.87A16.84,16.84,0,0,1,116,719.81v-8.17Z"/><path class="cls-3" d="M142.88,703.6l-.25-.6-7-30.14,9.83-308.52H49.8L37.69,666.41l-.26,6.45-7,30.14-.25.6-2.59,6.3,6.6,10.53a6.36,6.36,0,0,0,9,1.66l13.69-10.54V672.86L85.38,438.91a10.94,10.94,0,0,1,4.77-8.07,8,8,0,0,1,7.93-.36,11.12,11.12,0,0,1,6.06,9.61l12,232.77h0v38.69l13.69,10.54a6.36,6.36,0,0,0,9-1.66l6.6-10.53Z"/><polygon class="cls-4" points="14 391.25 32.97 393.8 27.32 283.06 8.12 281.43 14 391.25"/><path class="cls-3" d="M18,412.13l.37.48A2.55,2.55,0,0,1,18,412.13Z"/><path class="cls-3" d="M18.53,406.65l10.7,1.23c2.34.27,4.19-1.85,4.14-4.73l-1.23-28.37-18.4-.71.46,26.87C14.25,403.82,16.19,406.38,18.53,406.65Z"/><path class="cls-3" d="M32.34,396.33c-1.11-.43-2-1.06-3.66.6h0V397l-2.34,6.22,3.33,1.28,1.67-1.87,4.61,9.91h0a1.67,1.67,0,0,0,2.38.87,2.52,2.52,0,0,0,.61-2.92h0L33.4,397.32l-1.06-1"/><path class="cls-5" d="M35.91,411.62c.49,1.12,1.45,1.74,2.16,1.38s.9-1.58.41-2.71a2.25,2.25,0,0,0-.25-.46Z"/><path class="cls-3" d="M32.27,427.15c0,2.64-.84,4.71-1.91,4.68s-2-2.16-2.17-4.8l-.62-23.39,4.53.52Z"/><path class="cls-3" d="M27.62,428c0,2.63-.84,4.7-1.91,4.67s-2-2.16-2.17-4.8l-.62-23.39,4.53.53Z"/><path class="cls-3" d="M23,425.09c0,2.63-.84,4.71-1.91,4.67s-2-2.16-2.17-4.8l-.62-23.39,4.53.53Z"/><path class="cls-3" d="M18.27,419.54c0,2.64-.69,4.72-1.59,4.71s-1.69-2.12-1.83-4.76l-.58-23.38,3.8.43Z"/><path class="cls-5" d="M28.86,428.39c-.07,1.36.51,2.66,1.31,2.89s1.51-.67,1.59-2a4.12,4.12,0,0,0,0-.61Z"/><path class="cls-5" d="M24.16,429.27c-.07,1.36.52,2.66,1.31,2.9s1.52-.68,1.6-2.05a6,6,0,0,0,0-.6Z"/><path class="cls-5" d="M19.49,426.27c-.07,1.36.51,2.66,1.31,2.9s1.52-.68,1.6-2.05a5.9,5.9,0,0,0,0-.6Z"/><path class="cls-5" d="M15.47,421.39c-.05,1.11.4,2.15,1,2.34s1.17-.55,1.23-1.66a4,4,0,0,0,0-.49Z"/><path class="cls-6" d="M91.85,351a2.17,2.17,0,0,0-2,2.32,2.62,2.62,0,0,0,.22,1l2.64-3.08A1.71,1.71,0,0,0,91.85,351Z"/><path class="cls-7" d="M92.73,351.27l-2.64,3.08a2,2,0,0,0,1.76,1.3,2.17,2.17,0,0,0,2-2.32A2.37,2.37,0,0,0,92.73,351.27Z"/><path class="cls-6" d="M91.85,344.16a2.18,2.18,0,0,0-2,2.33,2.62,2.62,0,0,0,.22,1l2.64-3.09A1.81,1.81,0,0,0,91.85,344.16Z"/><path class="cls-7" d="M92.73,344.42l-2.64,3.09a2,2,0,0,0,1.76,1.3,2.17,2.17,0,0,0,2-2.32A2.37,2.37,0,0,0,92.73,344.42Z"/><path class="cls-6" d="M91.85,358.54a2.17,2.17,0,0,0-2,2.32,2.71,2.71,0,0,0,.22,1l2.64-3.09A1.71,1.71,0,0,0,91.85,358.54Z"/><path class="cls-7" d="M92.73,358.8l-2.64,3.09a2,2,0,0,0,1.76,1.3,2.18,2.18,0,0,0,2-2.33A2.37,2.37,0,0,0,92.73,358.8Z"/><polygon class="cls-8" points="106.2 99.47 84.14 99.47 84.14 101.35 106.2 123.42 106.2 99.47"/><path class="cls-3" d="M84.14,101.35V127.8a11,11,0,1,0,22.06,0v-4.38Z"/><path class="cls-3" d="M95.91,103.16h0c-15.65,0-23.43-10.13-26.33-28.33l-2-45.58a8.87,8.87,0,0,1,8.87-8.86h38.92a8.87,8.87,0,0,1,8.87,8.86l-2,45.58C120.22,92.09,111.55,103.16,95.91,103.16Z"/><circle cx="108.76" cy="54.41" r="3.13"/><circle cx="81" cy="54.41" r="3.13"/><path class="cls-8" d="M92.06,70.59l3.42,2.75a.71.71,0,0,0,.86,0L99.9,70.6a.69.69,0,0,0-.42-1.24h-7A.69.69,0,0,0,92.06,70.59Z"/><path class="cls-3" d="M69.58,74.83S61,68.13,62.75,59.64a1.44,1.44,0,0,1,.15-.41c.48-.84,2.52-3.82,5.94-1.34Z"/><path class="cls-8" d="M69.46,72.23s-6-4.21-4.92-10.82c0,0,.71-4.26,4.2-1.62Z"/><path d="M105.62,42.51c3-2.28,6.72-1.61,9.29,1,.83.84,2-.62,1.13-1.44a8.66,8.66,0,0,0-11.52-1,.92.92,0,0,0,1.1,1.47Z"/><path d="M87.29,39.76a8.67,8.67,0,0,0-11,3.51c-.62,1,.8,2.17,1.43,1.16,1.93-3.07,5.4-4.54,8.84-3a.92.92,0,0,0,.75-1.68Z"/><path class="cls-8" d="M95.41,95.37s-4.64-2.78,5.52-2.59Z"/><path class="cls-9" d="M95.17,49.48v-6a8.87,8.87,0,0,1-1.4-3.5A53.6,53.6,0,0,0,95.17,49.48Z"/><path class="cls-3" d="M122,74.87s8.58-6.7,6.83-15.2a1.56,1.56,0,0,0-.15-.41c-.48-.83-2.52-3.81-5.94-1.33Z"/><path class="cls-8" d="M122.15,72.27s6-4.21,4.92-10.82c0,0-.71-4.26-4.2-1.62Z"/><path class="cls-1" d="M68.79,55.92,64.3,25.26l5.8-9.93,18.47-2.84,34.56,4.38,1.54,6.58s9,31.83-1.71,33l.06-.48a40.38,40.38,0,0,1-1.28-4.65C118,34.4,110.89,20.91,94,22.4,79,23.72,73,29.4,68.79,55.92Z"/><path class="cls-10" d="M112,123.4c.32,1.48-31.32,1.48-31,0,0,0-42.44,25.25-42.44,39.77l7.83,161.32,98-1.81,9.26-166.56C153.65,141.6,112,123.4,112,123.4Z"/><polygon class="cls-11" points="46.35 321.75 144.31 321.75 160.75 653.4 21.96 651.4 46.35 321.75"/><path class="cls-12" d="M64.28,217.74c1.51-4.3,5.93-12.06,18.45-15.36a21.6,21.6,0,0,1,16.94,2.45c4.27,2.75,11,5.57,19,3.38,9.13-2.5,10.9-12.32,3.4-17.36a26.61,26.61,0,0,0-11.77-4.9s-48.95-7.63-47.05,31.68C63.26,218.13,64.11,218.22,64.28,217.74Z"/><path class="cls-12" d="M53,253.37s28.45,17.6,84.75,40.75l-7.24,2.95c-34.65,14.12-73.71-7.9-77.51-43.7Z"/><path class="cls-13" d="M152.4,334.49h-.6A3,3,0,0,0,152.4,334.49Z"/><path class="cls-10" d="M46,152.4c-.22-14-48,71.14-44,213,.06,2,32-7,32-7s-2-101,8.31-125.59C43.29,230.36,46,152.4,46,152.4Z"/><rect class="cls-10" x="1.43" y="357.86" width="38" height="25.65" rx="3.47" transform="translate(-66.63 9.79) rotate(-10.41)"/><polygon class="cls-4" points="179.92 390.25 160.96 392.8 166.6 282.06 185.8 280.43 179.92 390.25"/><path class="cls-3" d="M176,411.13l-.38.48A3.09,3.09,0,0,0,176,411.13Z"/><path class="cls-3" d="M175.4,405.65l-10.7,1.23c-2.34.27-4.2-1.85-4.15-4.73l1.24-28.37,18.4-.71-.47,26.87C179.67,402.82,177.74,405.38,175.4,405.65Z"/><path class="cls-3" d="M161.58,395.33c1.12-.43,2-1.06,3.66.6h0V396l2.33,6.22-3.32,1.28-1.68-1.87-4.6,9.91h0a1.68,1.68,0,0,1-2.38.87,2.5,2.5,0,0,1-.62-2.92h0l5.53-13.17,1.06-1"/><path class="cls-5" d="M158,410.62c-.49,1.12-1.45,1.74-2.16,1.38s-.9-1.58-.41-2.71a2.87,2.87,0,0,1,.25-.46Z"/><path class="cls-3" d="M161.65,426.15c0,2.64.84,4.71,1.91,4.68s2-2.16,2.17-4.8l.62-23.39-4.53.52Z"/><path class="cls-3" d="M166.3,427c0,2.63.85,4.7,1.92,4.67s2-2.16,2.16-4.8L171,403.5l-4.53.53Z"/><path class="cls-3" d="M171,424.09c0,2.63.85,4.71,1.92,4.67s2-2.16,2.16-4.8l.62-23.39-4.53.53Z"/><path class="cls-3" d="M175.65,418.54c0,2.64.7,4.72,1.59,4.71s1.69-2.12,1.83-4.76l.59-23.38-3.8.43Z"/><path class="cls-5" d="M165.07,427.39c.07,1.36-.52,2.66-1.31,2.89s-1.52-.67-1.6-2c0-.21,0-.41,0-.61Z"/><path class="cls-5" d="M169.76,428.27c.07,1.36-.51,2.66-1.31,2.9s-1.52-.68-1.6-2.05a4,4,0,0,1,0-.6Z"/><path class="cls-5" d="M174.43,425.27c.07,1.36-.51,2.66-1.31,2.9s-1.52-.68-1.59-2.05a3,3,0,0,1,0-.6Z"/><path class="cls-5" d="M178.45,420.39c.06,1.11-.4,2.15-1,2.34s-1.18-.55-1.24-1.66c0-.17,0-.33,0-.49Z"/><path class="cls-10" d="M148,151.4c.22-14,48,71.14,44,213-.05,2-30-6-30-6s-5-101-14-126C147.06,229.9,148,151.4,148,151.4Z"/><rect class="cls-10" x="154.49" y="356.86" width="38" height="25.65" rx="3.47" transform="translate(277.34 764.64) rotate(-169.59)"/><path class="cls-14" d="M105.42,86.11l-19,2.5s6.39,4.14,18.17-2l.86-.47"/><rect class="cls-10" x="75.96" y="106.4" width="40" height="22" rx="7.34"/><rect class="cls-10" x="161.96" y="130.4" width="1" height="1"/><rect class="cls-15" x="66.96" y="72.4" width="1" height="26" transform="translate(7.75 -5.59) rotate(5.03)"/><rect class="cls-15" x="123.96" y="72.4" width="1" height="26" transform="translate(255.93 159.57) rotate(174.97)"/></svg>