<svg id="Layer_1" data-name="Layer 1" xmlns="http://www.w3.org/2000/svg" xmlns:xlink="http://www.w3.org/1999/xlink" viewBox="0 0 250.47 800.93"><defs><style>.cls-1,.cls-2,.cls-22,.cls-25{fill:none;}.cls-2{stroke:#9db1ce;}.cls-2,.cls-22{stroke-miterlimit:10;}.cls-3{fill:#894f38;}.cls-4{fill:#f2f2f2;}.cls-5{fill:#ff1d25;}.cls-6{fill:#2b1407;}.cls-7{fill:#383a4c;}.cls-8{fill:#723f2e;}.cls-9{fill:#42210b;}.cls-10{fill:#4c290d;}.cls-11,.cls-12{fill:#603813;}.cls-11,.cls-19{opacity:0.2;}.cls-12{opacity:0.4;}.cls-13{fill:#31354c;}.cls-14{fill:#c16d53;}.cls-15{fill:#e6e6e6;}.cls-16{fill:#527cbf;}.cls-17{fill:#113b7f;}.cls-18{fill:#6f92d8;}.cls-19{fill:#232323;}.cls-20{fill:#4e6689;}.cls-21,.cls-27{opacity:0.14;}.cls-21{fill:url(#New_Pattern);}.cls-22,.cls-25{stroke:#fff;}.cls-23{fill:#44638e;}.cls-24{fill:#4d5663;}.cls-25{stroke-miterlimit:50;}.cls-26{fill:#fff;}.cls-27{fill:url(#New_Pattern-5);}</style><pattern id="New_Pattern" data-name="New Pattern" width="278.43" height="282.86" patternTransform="translate(40.84 7.39)" patternUnits="userSpaceOnUse" viewBox="0 0 278.43 282.86"><rect class="cls-1" width="278.43" height="282.86"/><polygon class="cls-2" points="242.23 288.41 202.09 275.93 198.37 311.46 242.23 288.41"/><polygon class="cls-2" points="305.5 282.06 265.55 269 261.32 304.47 305.5 282.06"/><polygon class="cls-2" points="73.33 316.03 87.29 276.38 51.92 271.35 73.33 316.03"/><polygon class="cls-2" points="27.07 282.06 -12.88 269 -17.11 304.47 27.07 282.06"/><polygon class="cls-2" points="36.69 322.9 55.42 285.26 20.93 275.93 36.69 322.9"/><polygon class="cls-2" points="258.03 177.16 287.76 206.89 307.57 177.16 258.03 177.16"/><polygon class="cls-2" points="242.23 146.98 202.09 134.5 198.37 170.03 242.23 146.98"/><polygon class="cls-2" points="210.03 212.33 239.76 242.06 259.57 212.33 210.03 212.33"/><polygon class="cls-2" points="192.43 268 222.16 297.72 241.97 268 192.43 268"/><polygon class="cls-2" points="238.5 250.87 268.22 280.59 288.04 250.87 238.5 250.87"/><polygon class="cls-2" points="237.01 218.92 230.49 260.44 266.19 258.96 237.01 218.92"/><polygon class="cls-2" points="247.36 236.78 207.22 224.29 203.51 259.82 247.36 236.78"/><polygon class="cls-2" points="265.38 258.4 231.3 283 257.48 307.31 265.38 258.4"/><polygon class="cls-2" points="301.92 239.45 262.92 223.78 256.36 258.9 301.92 239.45"/><polygon class="cls-2" points="297.1 231.15 294.4 189.2 259.89 198.44 297.1 231.15"/><polygon class="cls-2" points="262.95 262.01 299.86 282.13 310.47 248.01 262.95 262.01"/><polygon class="cls-2" points="296.97 142.54 262.88 167.14 289.06 191.45 296.97 142.54"/><polygon class="cls-2" points="254.39 164.49 220.3 189.09 246.48 213.4 254.39 164.49"/><polygon class="cls-2" points="217.2 171.08 183.11 195.69 209.3 219.99 217.2 171.08"/><polygon class="cls-2" points="286.16 168.13 246.21 155.06 241.98 190.53 286.16 168.13"/><polygon class="cls-2" points="305.5 140.63 265.55 127.57 261.32 163.04 305.5 140.63"/><polygon class="cls-2" points="235.89 209.02 272.81 229.13 283.41 195.02 235.89 209.02"/><polygon class="cls-2" points="118.81 247.88 148.54 277.61 168.36 247.88 118.81 247.88"/><polygon class="cls-2" points="203.34 248.52 196.82 290.05 232.51 288.56 203.34 248.52"/><polygon class="cls-2" points="204 246.24 163.85 233.76 160.14 269.29 204 246.24"/><polygon class="cls-2" points="103.01 217.7 62.87 205.21 59.16 240.75 103.01 217.7"/><polygon class="cls-2" points="194.19 297.57 208.15 257.92 172.78 252.89 194.19 297.57"/><polygon class="cls-2" points="212.55 245.32 226.51 205.67 191.14 200.64 212.55 245.32"/><polygon class="cls-2" points="70.82 283.05 100.54 312.77 120.36 283.05 70.82 283.05"/><polygon class="cls-2" points="184.81 266.25 150.72 290.85 176.9 315.16 184.81 266.25"/><polygon class="cls-2" points="157.88 301.87 155.19 259.92 120.68 269.15 157.88 301.87"/><polygon class="cls-2" points="157.75 213.25 123.66 237.86 149.84 262.16 157.75 213.25"/><polygon class="cls-2" points="115.17 235.21 81.08 259.81 107.27 284.11 115.17 235.21"/><polygon class="cls-2" points="77.98 241.8 43.9 266.4 70.08 290.7 77.98 241.8"/><polygon class="cls-2" points="146.95 238.84 106.99 225.78 102.76 261.25 146.95 238.84"/><polygon class="cls-2" points="166.29 211.35 126.33 198.28 122.1 233.76 166.29 211.35"/><polygon class="cls-2" points="175.91 252.18 194.63 214.55 160.15 205.21 175.91 252.18"/><polygon class="cls-2" points="96.67 279.73 133.59 299.85 144.19 265.73 96.67 279.73"/><polygon class="cls-2" points="-20.4 177.16 9.32 206.89 29.14 177.16 -20.4 177.16"/><polygon class="cls-2" points="8.06 215.7 37.79 245.42 57.6 215.7 8.06 215.7"/><polygon class="cls-2" points="64.13 177.81 57.6 219.34 93.3 217.85 64.13 177.81"/><polygon class="cls-2" points="64.78 175.52 24.64 163.04 20.93 198.57 64.78 175.52"/><polygon class="cls-2" points="54.97 226.85 68.93 187.2 33.56 182.17 54.97 226.85"/><polygon class="cls-2" points="73.33 174.6 87.29 134.95 51.92 129.93 73.33 174.6"/><polygon class="cls-2" points="-39.94 250.87 -10.21 280.59 9.6 250.87 -39.94 250.87"/><polygon class="cls-2" points="24.66 305.2 38.62 265.55 3.25 260.52 24.66 305.2"/><polygon class="cls-2" points="45.59 195.54 11.51 220.14 37.69 244.44 45.59 195.54"/><polygon class="cls-2" points="23.49 239.45 -15.52 223.78 -22.07 258.9 23.49 239.45"/><polygon class="cls-2" points="18.66 231.15 15.97 189.2 -18.54 198.44 18.66 231.15"/><polygon class="cls-2" points="95.43 269.47 55.48 256.4 51.25 291.88 95.43 269.47"/><polygon class="cls-2" points="33.62 279.89 52.35 242.25 17.86 232.92 33.62 279.89"/><polygon class="cls-2" points="-15.48 262.01 21.43 282.13 32.04 248.01 -15.48 262.01"/><polygon class="cls-2" points="18.53 142.54 -15.55 167.14 10.63 191.45 18.53 142.54"/><polygon class="cls-2" points="7.73 168.13 -32.23 155.06 -36.45 190.53 7.73 168.13"/><polygon class="cls-2" points="27.07 140.63 -12.88 127.57 -17.11 163.04 27.07 140.63"/><polygon class="cls-2" points="36.69 181.47 55.42 143.83 20.93 134.5 36.69 181.47"/><polygon class="cls-2" points="-42.54 209.02 -5.63 229.13 4.98 195.02 -42.54 209.02"/><polygon class="cls-2" points="258.03 35.74 287.76 65.46 307.57 35.74 258.03 35.74"/><polygon class="cls-2" points="242.23 5.55 202.09 -6.93 198.37 28.6 242.23 5.55"/><polygon class="cls-2" points="210.03 70.91 239.76 100.63 259.57 70.91 210.03 70.91"/><polygon class="cls-2" points="192.43 126.57 222.16 156.29 241.97 126.57 192.43 126.57"/><polygon class="cls-2" points="238.5 109.44 268.22 139.16 288.04 109.44 238.5 109.44"/><polygon class="cls-2" points="237.01 77.49 230.49 119.02 266.19 117.53 237.01 77.49"/><polygon class="cls-2" points="247.36 95.35 207.22 82.86 203.51 118.39 247.36 95.35"/><polygon class="cls-2" points="265.38 116.98 231.3 141.58 257.48 165.88 265.38 116.98"/><polygon class="cls-2" points="301.92 98.02 262.92 82.36 256.36 117.47 301.92 98.02"/><polygon class="cls-2" points="297.1 89.72 294.4 47.77 259.89 57.01 297.1 89.72"/><polygon class="cls-2" points="262.95 120.59 299.86 140.7 310.47 106.58 262.95 120.59"/><polygon class="cls-2" points="296.97 1.11 262.88 25.71 289.06 50.02 296.97 1.11"/><polygon class="cls-2" points="254.39 23.06 220.3 47.66 246.48 71.97 254.39 23.06"/><polygon class="cls-2" points="217.2 29.66 183.11 54.26 209.3 78.56 217.2 29.66"/><polygon class="cls-2" points="286.16 26.7 246.21 13.63 241.98 49.11 286.16 26.7"/><polygon class="cls-2" points="305.5 -0.8 265.55 -13.86 261.32 21.61 305.5 -0.8"/><polygon class="cls-2" points="235.89 67.59 272.81 87.7 283.41 53.59 235.89 67.59"/><polygon class="cls-2" points="118.81 106.45 148.54 136.18 168.36 106.45 118.81 106.45"/><polygon class="cls-2" points="147.28 144.98 177 174.71 196.82 144.98 147.28 144.98"/><polygon class="cls-2" points="203.34 107.09 196.82 148.62 232.51 147.14 203.34 107.09"/><polygon class="cls-2" points="204 104.81 163.85 92.33 160.14 127.86 204 104.81"/><polygon class="cls-2" points="103.01 76.27 62.87 63.78 59.16 99.32 103.01 76.27"/><polygon class="cls-2" points="194.19 156.14 208.15 116.49 172.78 111.46 194.19 156.14"/><polygon class="cls-2" points="212.55 103.89 226.51 64.24 191.14 59.21 212.55 103.89"/><polygon class="cls-2" points="70.82 141.62 100.54 171.34 120.36 141.62 70.82 141.62"/><polygon class="cls-2" points="53.21 197.28 82.94 227.01 102.75 197.28 53.21 197.28"/><polygon class="cls-2" points="99.28 180.15 129 209.88 148.82 180.15 99.28 180.15"/><polygon class="cls-2" points="97.8 148.2 91.28 189.73 126.97 188.24 97.8 148.2"/><polygon class="cls-2" points="108.14 166.06 68 153.58 64.29 189.11 108.14 166.06"/><polygon class="cls-2" points="163.87 234.48 177.84 194.83 142.47 189.8 163.87 234.48"/><polygon class="cls-2" points="184.81 124.82 150.72 149.42 176.9 173.73 184.81 124.82"/><polygon class="cls-2" points="126.17 187.69 92.08 212.29 118.26 236.6 126.17 187.69"/><polygon class="cls-2" points="162.71 168.74 123.7 153.07 117.14 188.19 162.71 168.74"/><polygon class="cls-2" points="157.88 160.44 155.19 118.49 120.68 127.72 157.88 160.44"/><polygon class="cls-2" points="234.65 198.75 194.69 185.69 190.47 221.16 234.65 198.75"/><polygon class="cls-2" points="172.84 209.17 191.56 171.54 157.08 162.2 172.84 209.17"/><polygon class="cls-2" points="123.73 191.3 160.65 211.41 171.25 177.3 123.73 191.3"/><polygon class="cls-2" points="157.75 71.83 123.66 96.43 149.84 120.73 157.75 71.83"/><polygon class="cls-2" points="115.17 93.78 81.08 118.38 107.27 142.68 115.17 93.78"/><polygon class="cls-2" points="77.98 100.37 43.9 124.97 70.08 149.28 77.98 100.37"/><polygon class="cls-2" points="146.95 97.41 106.99 84.35 102.76 119.82 146.95 97.41"/><polygon class="cls-2" points="166.29 69.92 126.33 56.85 122.1 92.33 166.29 69.92"/><polygon class="cls-2" points="175.91 110.75 194.63 73.12 160.15 63.78 175.91 110.75"/><polygon class="cls-2" points="96.67 138.3 133.59 158.42 144.19 124.3 96.67 138.3"/><polygon class="cls-2" points="-20.4 35.74 9.32 65.46 29.14 35.74 -20.4 35.74"/><polygon class="cls-2" points="8.06 74.27 37.79 103.99 57.6 74.27 8.06 74.27"/><polygon class="cls-2" points="64.13 36.38 57.6 77.91 93.3 76.42 64.13 36.38"/><polygon class="cls-2" points="64.78 34.1 24.64 21.61 20.93 57.14 64.78 34.1"/><polygon class="cls-2" points="54.97 85.42 68.93 45.77 33.56 40.74 54.97 85.42"/><polygon class="cls-2" points="73.33 33.17 87.29 -6.47 51.92 -11.5 73.33 33.17"/><polygon class="cls-2" points="-39.94 109.44 -10.21 139.16 9.6 109.44 -39.94 109.44"/><polygon class="cls-2" points="24.66 163.77 38.62 124.12 3.25 119.09 24.66 163.77"/><polygon class="cls-2" points="45.59 54.11 11.51 78.71 37.69 103.02 45.59 54.11"/><polygon class="cls-2" points="23.49 98.02 -15.52 82.36 -22.07 117.47 23.49 98.02"/><polygon class="cls-2" points="18.66 89.72 15.97 47.77 -18.54 57.01 18.66 89.72"/><polygon class="cls-2" points="95.43 128.04 55.48 114.97 51.25 150.45 95.43 128.04"/><polygon class="cls-2" points="33.62 138.46 52.35 100.82 17.86 91.49 33.62 138.46"/><polygon class="cls-2" points="-15.48 120.59 21.43 140.7 32.04 106.58 -15.48 120.59"/><polygon class="cls-2" points="18.53 1.11 -15.55 25.71 10.63 50.02 18.53 1.11"/><polygon class="cls-2" points="7.73 26.7 -32.23 13.63 -36.45 49.11 7.73 26.7"/><polygon class="cls-2" points="27.07 -0.8 -12.88 -13.86 -17.11 21.61 27.07 -0.8"/><polygon class="cls-2" points="36.69 40.04 55.42 2.4 20.93 -6.93 36.69 40.04"/><polygon class="cls-2" points="-42.54 67.59 -5.63 87.7 4.98 53.59 -42.54 67.59"/><polygon class="cls-2" points="192.43 -14.86 222.16 14.86 241.97 -14.86 192.43 -14.86"/><polygon class="cls-2" points="265.38 -24.45 231.3 0.15 257.48 24.45 265.38 -24.45"/><polygon class="cls-2" points="147.28 3.55 177 33.28 196.82 3.55 147.28 3.55"/><polygon class="cls-2" points="203.34 -34.33 196.82 7.19 232.51 5.71 203.34 -34.33"/><polygon class="cls-2" points="194.19 14.71 208.15 -24.94 172.78 -29.97 194.19 14.71"/><polygon class="cls-2" points="70.82 0.19 100.54 29.91 120.36 0.19 70.82 0.19"/><polygon class="cls-2" points="53.21 55.85 82.94 85.58 102.75 55.85 53.21 55.85"/><polygon class="cls-2" points="99.28 38.72 129 68.45 148.82 38.72 99.28 38.72"/><polygon class="cls-2" points="97.8 6.77 91.28 48.3 126.97 46.82 97.8 6.77"/><polygon class="cls-2" points="108.14 24.63 68 12.15 64.29 47.68 108.14 24.63"/><polygon class="cls-2" points="163.87 93.05 177.84 53.4 142.47 48.38 163.87 93.05"/><polygon class="cls-2" points="184.81 -16.61 150.72 8 176.9 32.3 184.81 -16.61"/><polygon class="cls-2" points="126.17 46.26 92.08 70.86 118.26 95.17 126.17 46.26"/><polygon class="cls-2" points="162.71 27.31 123.7 11.64 117.14 46.76 162.71 27.31"/><polygon class="cls-2" points="157.88 19.01 155.19 -22.94 120.68 -13.71 157.88 19.01"/><polygon class="cls-2" points="234.65 57.32 194.69 44.26 190.47 79.73 234.65 57.32"/><polygon class="cls-2" points="172.84 67.74 191.56 30.11 157.08 20.77 172.84 67.74"/><polygon class="cls-2" points="123.73 49.87 160.65 69.98 171.25 35.87 123.73 49.87"/><polygon class="cls-2" points="115.17 -47.65 81.08 -23.05 107.27 1.26 115.17 -47.65"/><polygon class="cls-2" points="77.98 -41.06 43.9 -16.46 70.08 7.85 77.98 -41.06"/><polygon class="cls-2" points="96.67 -3.12 133.59 16.99 144.19 -17.13 96.67 -3.12"/><polygon class="cls-2" points="24.66 22.34 38.62 -17.31 3.25 -22.34 24.66 22.34"/><polygon class="cls-2" points="95.43 -13.39 55.48 -26.45 51.25 9.02 95.43 -13.39"/></pattern><pattern id="New_Pattern-5" data-name="New Pattern" width="278.43" height="282.86" patternTransform="matrix(-1, 0, 0, 1, 62.8, 7.39)" patternUnits="userSpaceOnUse" viewBox="0 0 278.43 282.86"><rect class="cls-1" width="278.43" height="282.86"/><polygon class="cls-2" points="242.23 288.41 202.09 275.93 198.37 311.46 242.23 288.41"/><polygon class="cls-2" points="305.5 282.06 265.55 269 261.32 304.47 305.5 282.06"/><polygon class="cls-2" points="73.33 316.03 87.29 276.38 51.92 271.35 73.33 316.03"/><polygon class="cls-2" points="27.07 282.06 -12.88 269 -17.11 304.47 27.07 282.06"/><polygon class="cls-2" points="36.69 322.9 55.42 285.26 20.93 275.93 36.69 322.9"/><polygon class="cls-2" points="258.03 177.16 287.76 206.89 307.57 177.16 258.03 177.16"/><polygon class="cls-2" points="242.23 146.98 202.09 134.5 198.37 170.03 242.23 146.98"/><polygon class="cls-2" points="210.03 212.33 239.76 242.06 259.57 212.33 210.03 212.33"/><polygon class="cls-2" points="192.43 268 222.16 297.72 241.97 268 192.43 268"/><polygon class="cls-2" points="238.5 250.87 268.22 280.59 288.04 250.87 238.5 250.87"/><polygon class="cls-2" points="237.01 218.92 230.49 260.44 266.19 258.96 237.01 218.92"/><polygon class="cls-2" points="247.36 236.78 207.22 224.29 203.51 259.82 247.36 236.78"/><polygon class="cls-2" points="265.38 258.4 231.3 283 257.48 307.31 265.38 258.4"/><polygon class="cls-2" points="301.92 239.45 262.92 223.78 256.36 258.9 301.92 239.45"/><polygon class="cls-2" points="297.1 231.15 294.4 189.2 259.89 198.44 297.1 231.15"/><polygon class="cls-2" points="262.95 262.01 299.86 282.13 310.47 248.01 262.95 262.01"/><polygon class="cls-2" points="296.97 142.54 262.88 167.14 289.06 191.45 296.97 142.54"/><polygon class="cls-2" points="254.39 164.49 220.3 189.09 246.48 213.4 254.39 164.49"/><polygon class="cls-2" points="217.2 171.08 183.11 195.69 209.3 219.99 217.2 171.08"/><polygon class="cls-2" points="286.16 168.13 246.21 155.06 241.98 190.53 286.16 168.13"/><polygon class="cls-2" points="305.5 140.63 265.55 127.57 261.32 163.04 305.5 140.63"/><polygon class="cls-2" points="235.89 209.02 272.81 229.13 283.41 195.02 235.89 209.02"/><polygon class="cls-2" points="118.81 247.88 148.54 277.61 168.36 247.88 118.81 247.88"/><polygon class="cls-2" points="203.34 248.52 196.82 290.05 232.51 288.56 203.34 248.52"/><polygon class="cls-2" points="204 246.24 163.85 233.76 160.14 269.29 204 246.24"/><polygon class="cls-2" points="103.01 217.7 62.87 205.21 59.16 240.75 103.01 217.7"/><polygon class="cls-2" points="194.19 297.57 208.15 257.92 172.78 252.89 194.19 297.57"/><polygon class="cls-2" points="212.55 245.32 226.51 205.67 191.14 200.64 212.55 245.32"/><polygon class="cls-2" points="70.82 283.05 100.54 312.77 120.36 283.05 70.82 283.05"/><polygon class="cls-2" points="184.81 266.25 150.72 290.85 176.9 315.16 184.81 266.25"/><polygon class="cls-2" points="157.88 301.87 155.19 259.92 120.68 269.15 157.88 301.87"/><polygon class="cls-2" points="157.75 213.25 123.66 237.86 149.84 262.16 157.75 213.25"/><polygon class="cls-2" points="115.17 235.21 81.08 259.81 107.27 284.11 115.17 235.21"/><polygon class="cls-2" points="77.98 241.8 43.9 266.4 70.08 290.7 77.98 241.8"/><polygon class="cls-2" points="146.95 238.84 106.99 225.78 102.76 261.25 146.95 238.84"/><polygon class="cls-2" points="166.29 211.35 126.33 198.28 122.1 233.76 166.29 211.35"/><polygon class="cls-2" points="175.91 252.18 194.63 214.55 160.15 205.21 175.91 252.18"/><polygon class="cls-2" points="96.67 279.73 133.59 299.85 144.19 265.73 96.67 279.73"/><polygon class="cls-2" points="-20.4 177.16 9.32 206.89 29.14 177.16 -20.4 177.16"/><polygon class="cls-2" points="8.06 215.7 37.79 245.42 57.6 215.7 8.06 215.7"/><polygon class="cls-2" points="64.13 177.81 57.6 219.34 93.3 217.85 64.13 177.81"/><polygon class="cls-2" points="64.78 175.52 24.64 163.04 20.93 198.57 64.78 175.52"/><polygon class="cls-2" points="54.97 226.85 68.93 187.2 33.56 182.17 54.97 226.85"/><polygon class="cls-2" points="73.33 174.6 87.29 134.95 51.92 129.93 73.33 174.6"/><polygon class="cls-2" points="-39.94 250.87 -10.21 280.59 9.6 250.87 -39.94 250.87"/><polygon class="cls-2" points="24.66 305.2 38.62 265.55 3.25 260.52 24.66 305.2"/><polygon class="cls-2" points="45.59 195.54 11.51 220.14 37.69 244.44 45.59 195.54"/><polygon class="cls-2" points="23.49 239.45 -15.52 223.78 -22.07 258.9 23.49 239.45"/><polygon class="cls-2" points="18.66 231.15 15.97 189.2 -18.54 198.44 18.66 231.15"/><polygon class="cls-2" points="95.43 269.47 55.48 256.4 51.25 291.88 95.43 269.47"/><polygon class="cls-2" points="33.62 279.89 52.35 242.25 17.86 232.92 33.62 279.89"/><polygon class="cls-2" points="-15.48 262.01 21.43 282.13 32.04 248.01 -15.48 262.01"/><polygon class="cls-2" points="18.53 142.54 -15.55 167.14 10.63 191.45 18.53 142.54"/><polygon class="cls-2" points="7.73 168.13 -32.23 155.06 -36.45 190.53 7.73 168.13"/><polygon class="cls-2" points="27.07 140.63 -12.88 127.57 -17.11 163.04 27.07 140.63"/><polygon class="cls-2" points="36.69 181.47 55.42 143.83 20.93 134.5 36.69 181.47"/><polygon class="cls-2" points="-42.54 209.02 -5.63 229.13 4.98 195.02 -42.54 209.02"/><polygon class="cls-2" points="258.03 35.74 287.76 65.46 307.57 35.74 258.03 35.74"/><polygon class="cls-2" points="242.23 5.55 202.09 -6.93 198.37 28.6 242.23 5.55"/><polygon class="cls-2" points="210.03 70.91 239.76 100.63 259.57 70.91 210.03 70.91"/><polygon class="cls-2" points="192.43 126.57 222.16 156.29 241.97 126.57 192.43 126.57"/><polygon class="cls-2" points="238.5 109.44 268.22 139.16 288.04 109.44 238.5 109.44"/><polygon class="cls-2" points="237.01 77.49 230.49 119.02 266.19 117.53 237.01 77.49"/><polygon class="cls-2" points="247.36 95.35 207.22 82.86 203.51 118.39 247.36 95.35"/><polygon class="cls-2" points="265.38 116.98 231.3 141.58 257.48 165.88 265.38 116.98"/><polygon class="cls-2" points="301.92 98.02 262.92 82.36 256.36 117.47 301.92 98.02"/><polygon class="cls-2" points="297.1 89.72 294.4 47.77 259.89 57.01 297.1 89.72"/><polygon class="cls-2" points="262.95 120.59 299.86 140.7 310.47 106.58 262.95 120.59"/><polygon class="cls-2" points="296.97 1.11 262.88 25.71 289.06 50.02 296.97 1.11"/><polygon class="cls-2" points="254.39 23.06 220.3 47.66 246.48 71.97 254.39 23.06"/><polygon class="cls-2" points="217.2 29.66 183.11 54.26 209.3 78.56 217.2 29.66"/><polygon class="cls-2" points="286.16 26.7 246.21 13.63 241.98 49.11 286.16 26.7"/><polygon class="cls-2" points="305.5 -0.8 265.55 -13.86 261.32 21.61 305.5 -0.8"/><polygon class="cls-2" points="235.89 67.59 272.81 87.7 283.41 53.59 235.89 67.59"/><polygon class="cls-2" points="118.81 106.45 148.54 136.18 168.36 106.45 118.81 106.45"/><polygon class="cls-2" points="147.28 144.98 177 174.71 196.82 144.98 147.28 144.98"/><polygon class="cls-2" points="203.34 107.09 196.82 148.62 232.51 147.14 203.34 107.09"/><polygon class="cls-2" points="204 104.81 163.85 92.33 160.14 127.86 204 104.81"/><polygon class="cls-2" points="103.01 76.27 62.87 63.78 59.16 99.32 103.01 76.27"/><polygon class="cls-2" points="194.19 156.14 208.15 116.49 172.78 111.46 194.19 156.14"/><polygon class="cls-2" points="212.55 103.89 226.51 64.24 191.14 59.21 212.55 103.89"/><polygon class="cls-2" points="70.82 141.62 100.54 171.34 120.36 141.62 70.82 141.62"/><polygon class="cls-2" points="53.21 197.28 82.94 227.01 102.75 197.28 53.21 197.28"/><polygon class="cls-2" points="99.28 180.15 129 209.88 148.82 180.15 99.28 180.15"/><polygon class="cls-2" points="97.8 148.2 91.28 189.73 126.97 188.24 97.8 148.2"/><polygon class="cls-2" points="108.14 166.06 68 153.58 64.29 189.11 108.14 166.06"/><polygon class="cls-2" points="163.87 234.48 177.84 194.83 142.47 189.8 163.87 234.48"/><polygon class="cls-2" points="184.81 124.82 150.72 149.42 176.9 173.73 184.81 124.82"/><polygon class="cls-2" points="126.17 187.69 92.08 212.29 118.26 236.6 126.17 187.69"/><polygon class="cls-2" points="162.71 168.74 123.7 153.07 117.14 188.19 162.71 168.74"/><polygon class="cls-2" points="157.88 160.44 155.19 118.49 120.68 127.72 157.88 160.44"/><polygon class="cls-2" points="234.65 198.75 194.69 185.69 190.47 221.16 234.65 198.75"/><polygon class="cls-2" points="172.84 209.17 191.56 171.54 157.08 162.2 172.84 209.17"/><polygon class="cls-2" points="123.73 191.3 160.65 211.41 171.25 177.3 123.73 191.3"/><polygon class="cls-2" points="157.75 71.83 123.66 96.43 149.84 120.73 157.75 71.83"/><polygon class="cls-2" points="115.17 93.78 81.08 118.38 107.27 142.68 115.17 93.78"/><polygon class="cls-2" points="77.98 100.37 43.9 124.97 70.08 149.28 77.98 100.37"/><polygon class="cls-2" points="146.95 97.41 106.99 84.35 102.76 119.82 146.95 97.41"/><polygon class="cls-2" points="166.29 69.92 126.33 56.85 122.1 92.33 166.29 69.92"/><polygon class="cls-2" points="175.91 110.75 194.63 73.12 160.15 63.78 175.91 110.75"/><polygon class="cls-2" points="96.67 138.3 133.59 158.42 144.19 124.3 96.67 138.3"/><polygon class="cls-2" points="-20.4 35.74 9.32 65.46 29.14 35.74 -20.4 35.74"/><polygon class="cls-2" points="8.06 74.27 37.79 103.99 57.6 74.27 8.06 74.27"/><polygon class="cls-2" points="64.13 36.38 57.6 77.91 93.3 76.42 64.13 36.38"/><polygon class="cls-2" points="64.78 34.1 24.64 21.61 20.93 57.14 64.78 34.1"/><polygon class="cls-2" points="54.97 85.42 68.93 45.77 33.56 40.74 54.97 85.42"/><polygon class="cls-2" points="73.33 33.17 87.29 -6.47 51.92 -11.5 73.33 33.17"/><polygon class="cls-2" points="-39.94 109.44 -10.21 139.16 9.6 109.44 -39.94 109.44"/><polygon class="cls-2" points="24.66 163.77 38.62 124.12 3.25 119.09 24.66 163.77"/><polygon class="cls-2" points="45.59 54.11 11.51 78.71 37.69 103.02 45.59 54.11"/><polygon class="cls-2" points="23.49 98.02 -15.52 82.36 -22.07 117.47 23.49 98.02"/><polygon class="cls-2" points="18.66 89.72 15.97 47.77 -18.54 57.01 18.66 89.72"/><polygon class="cls-2" points="95.43 128.04 55.48 114.97 51.25 150.45 95.43 128.04"/><polygon class="cls-2" points="33.62 138.46 52.35 100.82 17.86 91.49 33.62 138.46"/><polygon class="cls-2" points="-15.48 120.59 21.43 140.7 32.04 106.58 -15.48 120.59"/><polygon class="cls-2" points="18.53 1.11 -15.55 25.71 10.63 50.02 18.53 1.11"/><polygon class="cls-2" points="7.73 26.7 -32.23 13.63 -36.45 49.11 7.73 26.7"/><polygon class="cls-2" points="27.07 -0.8 -12.88 -13.86 -17.11 21.61 27.07 -0.8"/><polygon class="cls-2" points="36.69 40.04 55.42 2.4 20.93 -6.93 36.69 40.04"/><polygon class="cls-2" points="-42.54 67.59 -5.63 87.7 4.98 53.59 -42.54 67.59"/><polygon class="cls-2" points="192.43 -14.86 222.16 14.86 241.97 -14.86 192.43 -14.86"/><polygon class="cls-2" points="265.38 -24.45 231.3 0.15 257.48 24.45 265.38 -24.45"/><polygon class="cls-2" points="147.28 3.55 177 33.28 196.82 3.55 147.28 3.55"/><polygon class="cls-2" points="203.34 -34.33 196.82 7.19 232.51 5.71 203.34 -34.33"/><polygon class="cls-2" points="194.19 14.71 208.15 -24.94 172.78 -29.97 194.19 14.71"/><polygon class="cls-2" points="70.82 0.19 100.54 29.91 120.36 0.19 70.82 0.19"/><polygon class="cls-2" points="53.21 55.85 82.94 85.58 102.75 55.85 53.21 55.85"/><polygon class="cls-2" points="99.28 38.72 129 68.45 148.82 38.72 99.28 38.72"/><polygon class="cls-2" points="97.8 6.77 91.28 48.3 126.97 46.82 97.8 6.77"/><polygon class="cls-2" points="108.14 24.63 68 12.15 64.29 47.68 108.14 24.63"/><polygon class="cls-2" points="163.87 93.05 177.84 53.4 142.47 48.38 163.87 93.05"/><polygon class="cls-2" points="184.81 -16.61 150.72 8 176.9 32.3 184.81 -16.61"/><polygon class="cls-2" points="126.17 46.26 92.08 70.86 118.26 95.17 126.17 46.26"/><polygon class="cls-2" points="162.71 27.31 123.7 11.64 117.14 46.76 162.71 27.31"/><polygon class="cls-2" points="157.88 19.01 155.19 -22.94 120.68 -13.71 157.88 19.01"/><polygon class="cls-2" points="234.65 57.32 194.69 44.26 190.47 79.73 234.65 57.32"/><polygon class="cls-2" points="172.84 67.74 191.56 30.11 157.08 20.77 172.84 67.74"/><polygon class="cls-2" points="123.73 49.87 160.65 69.98 171.25 35.87 123.73 49.87"/><polygon class="cls-2" points="115.17 -47.65 81.08 -23.05 107.27 1.26 115.17 -47.65"/><polygon class="cls-2" points="77.98 -41.06 43.9 -16.46 70.08 7.85 77.98 -41.06"/><polygon class="cls-2" points="96.67 -3.12 133.59 16.99 144.19 -17.13 96.67 -3.12"/><polygon class="cls-2" points="24.66 22.34 38.62 -17.31 3.25 -22.34 24.66 22.34"/><polygon class="cls-2" points="95.43 -13.39 55.48 -26.45 51.25 9.02 95.43 -13.39"/></pattern></defs><title>Artboard 2</title><polygon class="cls-3" points="93.71 699.07 115.96 706.11 113.65 742.93 94.79 742.93 93.71 699.07"/><polygon class="cls-4" points="94.89 746.97 113.39 746.97 113.33 748 94.92 748 94.89 746.97"/><polygon class="cls-4" points="112.08 767.88 95.44 769.11 94.95 749.47 113.24 749.47 112.08 767.88"/><polygon class="cls-4" points="94.79 742.93 113.65 742.93 113.49 745.49 94.85 745.49 94.79 742.93"/><polygon class="cls-5" points="94.85 745.49 113.49 745.49 113.39 746.97 94.89 746.97 94.85 745.49"/><polygon class="cls-5" points="113.33 748 113.24 749.47 94.95 749.47 94.92 748 113.33 748"/><path class="cls-6" d="M125.85,42.16c14.75,0,26.1-6,32.08-18.47C152,11.22,140.6,0,125.85,0A37.09,37.09,0,0,0,92.38,21.08,37.09,37.09,0,0,0,125.85,42.16Z"/><polygon class="cls-3" points="138.66 699.07 160.9 706.11 158.59 742.93 139.74 742.93 138.66 699.07"/><polygon class="cls-4" points="139.84 746.97 158.34 746.97 158.28 748 139.86 748 139.84 746.97"/><polygon class="cls-4" points="157.03 767.88 140.38 769.11 139.9 749.47 158.18 749.47 157.03 767.88"/><polygon class="cls-4" points="139.74 742.93 158.59 742.93 158.43 745.49 139.8 745.49 139.74 742.93"/><polygon class="cls-5" points="139.8 745.49 158.43 745.49 158.34 746.97 139.84 746.97 139.8 745.49"/><polygon class="cls-5" points="158.28 748 158.18 749.47 139.9 749.47 139.86 748 158.28 748"/><path class="cls-7" d="M62.46,366.46H190.71L171.77,758.13l-37,15.38-3.51-327.66s-4.5-8.89-7.94.51l-3.19,324.39L86.71,753.17Z"/><path class="cls-4" d="M103.51,785.26a32.94,32.94,0,0,0-5.91,3.41C88,792,59,795.2,59,795.2c-3.9.75-10.52-1.83-13.51-3.12a13.94,13.94,0,0,0,.15,3.1s2.09,7,20.91,5.55c0,0,50.7-7.34,54.92-9.47,0,0,.27-3.52.24-7.86Z"/><path d="M120.18,770.75s-3.45-7.07-3.39-8.65c0,0-.08-6-2.17-3.44,0,0-2.6,6.46-4.36,7,0,0-6.9-6-12.12-6.84a2.62,2.62,0,0,0-.52-.76c-7.71-7.38-10.91-4.89-10.91-4.89-2.95.71-4.45,4.81-4.45,4.81a3.77,3.77,0,0,0-.25.72,10.61,10.61,0,0,0-5.18,2.77S71,776.71,60.68,781.36c0,0-9.57.6-12.51,3.94a10.88,10.88,0,0,0-2.59,5.91q-.06.42-.09.87c3,1.29,9.61,3.87,13.51,3.12,0,0,29-3.17,38.6-6.53a32.94,32.94,0,0,1,5.91-3.41l18.2-1.86v-.52C121.65,778.7,121.31,773.89,120.18,770.75Z"/><path class="cls-4" d="M152.7,786.49a32.86,32.86,0,0,1,6.19,2.87c9.85,2.51,39,3.1,39,3.1,4,.4,10.32-2.75,13.18-4.3a14.72,14.72,0,0,1,.13,3.1s-1.47,7.18-20.34,7.37c0,0-51.16-2.83-55.55-4.58,0,0-.58-3.49-.93-7.81Z"/><path d="M134.82,773.51s2.81-7.36,2.62-8.92c0,0-.45-6,1.85-3.62,0,0,3.16,6.2,5,6.59,0,0,6.34-6.58,11.46-7.88a2.62,2.62,0,0,1,.45-.8c7-8,10.44-5.84,10.44-5.84,3,.45,4.85,4.4,4.85,4.4a3.4,3.4,0,0,1,.31.69,10.53,10.53,0,0,1,5.41,2.31S184.3,775.1,195,778.83c0,0,9.58-.25,12.8,2.81a10.83,10.83,0,0,1,3.1,5.66c.07.28.12.56.17.86-2.86,1.55-9.23,4.7-13.18,4.3,0,0-29.18-.59-39-3.1a32.86,32.86,0,0,0-6.19-2.87l-18.29-.25c0-.17,0-.35,0-.52C134.05,781.56,134,776.73,134.82,773.51Z"/><polygon class="cls-8" points="138.83 97.58 112.58 97.58 112.58 99.51 138.83 122.08 138.83 97.58"/><path class="cls-3" d="M112.58,99.51v27.05c0,6.24,5.87,11.29,13.13,11.29s13.12-5,13.12-11.29v-4.48Z"/><path class="cls-6" d="M102.85,58.53c0,9.91,1,21-3.78,21.74C89.14,81.81,87.59,45.86,87.59,36s1.64,4.64,6.48,4.64S102.85,48.62,102.85,58.53Z"/><path class="cls-6" d="M146.07,62c0,9.91-1,21,3.78,21.74,9.93,1.54,11.49-34.41,11.49-44.32s-1.64,4.64-6.49,4.64S146.07,52.11,146.07,62Z"/><path class="cls-3" d="M147.37,156.69h-42V125.2s6.48-6.4,20.5-6.53c13.56-.11,21.52,6.53,21.52,6.53Z"/><path class="cls-3" d="M154.63,74s8.26-9,6.29-17.77c0,0-2.06-5.27-6.09-2.34Z"/><path class="cls-3" d="M135.84,101.36h-20c-10.49,0-15.71-18.19-18.9-27.2l-.09-42.49a15,15,0,0,1,15-15h28a15,15,0,0,1,15,15V74C150.12,85.22,146.33,101.36,135.84,101.36Z"/><path class="cls-8" d="M121.91,68l3.5,2.82a.72.72,0,0,0,.88,0L129.93,68a.7.7,0,0,0-.43-1.26h-7.15A.7.7,0,0,0,121.91,68Z"/><path class="cls-8" d="M154.83,70.6s5.37-5.55,4.3-12.31c0,0-.73-4.36-4.3-1.66Z"/><path class="cls-3" d="M97,74.16s-8.15-8.75-6.18-17.54c0,0,2.06-5.27,6.09-2.35Z"/><path class="cls-8" d="M96.86,71s-5.37-5.55-4.3-12.31c0,0,.73-4.36,4.3-1.66Z"/><path class="cls-9" d="M133.33,41.14c1.93-3.34,5.69-4.18,9.13-2.77,1.12.45,1.61-1.37.5-1.82a8.87,8.87,0,0,0-11.26,3.64.94.94,0,0,0,1.63,1Z"/><path class="cls-9" d="M117.31,37.44a8.87,8.87,0,0,0-11.71,1.71c-.79.9.45,2.32,1.25,1.41,2.46-2.78,6.22-3.68,9.42-1.55a.94.94,0,0,0,1-1.57Z"/><path class="cls-10" d="M117.08,80.27s4.49,6.15,17.69,4.58l1-.13Z"/><path class="cls-11" d="M116.12,76.44a8.83,8.83,0,0,1,1.36.11s-.11-.37-.19-.54A5,5,0,1,0,110,82.38c.48.3,1.45.75,1.58.64s-.21-.82-.24-1.26A5,5,0,0,1,116.12,76.44Z"/><path class="cls-12" d="M131.93,56.11s1,5.92,7.14,5.64Z"/><path class="cls-12" d="M118,56.11s-1,5.92-7.14,5.64Z"/><path class="cls-13" d="M70,383.16s9.11,16,21.89-1.34l6.81-7s4.26,18.13-3.64,29.93a7.71,7.71,0,0,1-1.39,1.61c-3.5,2.94-16.85,12.93-23.17-.15C70.54,406.19,66.42,397.1,70,383.16Z"/><path class="cls-3" d="M90.19,375.1c-1.69-.65-3-1.52-6,.36h0l0,.08L79.08,383l5,1.91,3.08-2.14,5.22,12.67h0A2.84,2.84,0,0,0,96,396.73a2.91,2.91,0,0,0,1.62-3.53h0l-6-16.77-1.48-1.33"/><path class="cls-14" d="M92.58,394.29a2.75,2.75,0,0,0,3.16,1.91A2.42,2.42,0,0,0,97,392.91a3.73,3.73,0,0,0-.3-.6Z"/><path class="cls-15" d="M155.26,136.31,97.57,175.12S151.62,192.8,155.26,136.31Z"/><path class="cls-16" d="M143,122.08,125.15,154.7l-16.5-32.62C76.26,135.7,49.21,152.48,49.21,190L62.46,366.46H190.71L200.79,190C200.79,152.48,181.29,134.55,143,122.08Z"/><polygon class="cls-16" points="49.21 189.98 62.46 366.46 190.71 366.46 200.79 189.98 49.21 189.98"/><polygon class="cls-4" points="49.21 189.98 50.68 209.62 199.67 209.62 200.79 189.98 49.21 189.98"/><path class="cls-17" d="M60.13,154.7a54.56,54.56,0,0,0-8.44,17H198.93a56.32,56.32,0,0,0-6.69-17Z"/><polygon class="cls-18" points="123.16 151.3 102.94 154.7 103.76 122.92 111.83 118.78 123.16 151.3"/><polygon class="cls-18" points="127.15 151.3 147.37 154.7 147.37 122.08 139.59 118.67 127.15 151.3"/><polygon class="cls-17" points="198.11 249.87 53.73 250.14 52.88 238.86 198.11 238.87 198.11 249.87"/><polygon class="cls-17" points="192.8 329.87 59.71 329.87 58.81 317.87 193.48 317.87 192.8 329.87"/><polygon class="cls-17" points="195.66 279.87 55.96 279.87 54.98 266.87 196.4 266.87 195.66 279.87"/><polygon class="cls-4" points="194.91 292.87 57.48 292.9 56.5 279.87 195.66 279.87 194.91 292.87"/><polygon class="cls-4" points="190.69 366.89 62.46 366.46 61.48 353.5 191.45 353.5 190.69 366.89"/><path class="cls-19" d="M69,252.4l114.69,92.94S63,368.91,69,252.4Z"/><path class="cls-20" d="M58.81,385.72l38.05-18.83,15-248.11L52.88,150.65S46.19,362,58.81,385.72Z"/><path class="cls-21" d="M58.81,385.72l38.05-18.83,15-248.11L52.88,150.65S46.19,362,58.81,385.72Z"/><polyline class="cls-22" points="102.94 140.35 109.73 153.56 96.86 366.89 58.81 385.72"/><path class="cls-3" d="M22.07,228.84,5.55,261.58a11,11,0,0,0,.21,10.91L70,383.16c4.48,9.83,17.4,9.63,21.29,2.81h0a10.24,10.24,0,0,0,.25-9.73L36.55,268l9.51-17.42Z"/><path class="cls-20" d="M92.38,167.33l-39.5-16.68S0,252,0,266c0,9.76,28.91,57.86,46.19,85.74,1.05,1.7,5.54,1.35,6.5,2.88,5.74,9.21,9.6,15.24,9.6,15.24L85,356.91s-2.55-5.1-6.37-12.82c-.62-1.24,2.15-6,1.48-7.32-11.39-23.1-30.6-62.72-32-69.71C46.19,257.07,92.38,167.33,92.38,167.33Z"/><path class="cls-21" d="M92.38,167.33l-39.5-16.68S0,252,0,266c0,9.76,28.91,57.86,46.19,85.74,1.05,1.7,5.54,1.35,6.5,2.88,5.74,9.21,9.6,15.24,9.6,15.24L85,356.91s-2.55-5.1-6.37-12.82c-.62-1.24,2.15-6,1.48-7.32-11.39-23.1-30.6-62.72-32-69.71C46.19,257.07,92.38,167.33,92.38,167.33Z"/><polygon class="cls-23" points="109.73 153.56 102.94 140.35 111.83 118.78 109.73 153.56"/><circle cx="139.59" cy="50.09" r="3.13"/><circle cx="111.83" cy="50.09" r="3.13"/><path class="cls-6" d="M137,3.29C118.7-3.87,99.64,1.08,94.46,14.34a20.18,20.18,0,0,0-.62,12.4c8.4-6.67,22.57-8.11,36.32-2.74,12.87,5,22,27.86,24.47,37.76,2.8-2.21,4.9-18.18,6.2-21.49C166,27,155.35,10.45,137,3.29Z"/><path class="cls-6" d="M99.6,37C101,55.2,96,69.86,97,60.76c1.31-12.1-8.57-4.84-9.72-28.93-.65-13.58,8.3-25.47,14.77-24.07S98.72,25.17,99.6,37Z"/><path class="cls-24" d="M102.94,140.35S79,151.31,79.08,149s22.28-30.2,32.75-30.2Z"/><line class="cls-25" x1="110.2" y1="118.98" x2="98.56" y2="142.31"/><line class="cls-22" x1="58.81" y1="364.33" x2="82.29" y2="351.42"/><line class="cls-22" x1="54.62" y1="358.27" x2="78.1" y2="345.37"/><line class="cls-22" x1="102.94" y1="156.92" x2="94.64" y2="187.71"/><circle class="cls-26" cx="94.52" cy="188.18" r="1.21"/><path class="cls-13" d="M180.43,383.16s-9.1,16-21.89-1.34l-6.81-7s-4.25,18.13,3.64,29.93a7.76,7.76,0,0,0,1.4,1.61c3.49,2.94,16.84,12.93,23.16-.15C179.93,406.19,184.05,397.1,180.43,383.16Z"/><path class="cls-3" d="M160.28,375.1c1.69-.65,3-1.52,6,.36h0l0,.08L171.4,383l-5.05,1.91-3.08-2.14-5.22,12.67h0a2.84,2.84,0,0,1-3.62,1.31,2.89,2.89,0,0,1-1.61-3.53h0l6-16.77,1.47-1.33"/><path class="cls-14" d="M157.9,394.29a2.76,2.76,0,0,1-3.17,1.91,2.41,2.41,0,0,1-1.24-3.29,3.7,3.7,0,0,1,.29-.6Z"/><path class="cls-20" d="M191.66,385.72l-38-18.83-15-248.11,58.95,31.87S204.28,362,191.66,385.72Z"/><path class="cls-27" d="M191.66,385.72l-38-18.83-15-248.11,58.95,31.87S204.28,362,191.66,385.72Z"/><polyline class="cls-22" points="147.53 140.35 140.75 153.56 153.61 366.89 191.66 385.72"/><path class="cls-3" d="M228.41,228.84l16.51,32.74a11,11,0,0,1-.21,10.91L180.43,383.16C176,393,163,392.79,159.14,386h0a10.27,10.27,0,0,1-.24-9.73l55-108.27-9.51-17.42Z"/><path class="cls-20" d="M158.09,167.33l39.51-16.68S250.47,252,250.47,266c0,9.76-28.91,57.86-46.19,85.74-1.05,1.7-5.54,1.35-6.49,2.88-5.74,9.21-9.6,15.24-9.6,15.24l-22.74-12.9s2.55-5.1,6.37-12.82c.61-1.24-2.15-6-1.48-7.32,11.38-23.1,30.59-62.72,32-69.71C204.28,257.07,158.09,167.33,158.09,167.33Z"/><path class="cls-27" d="M158.09,167.33l39.51-16.68S250.47,252,250.47,266c0,9.76-28.91,57.86-46.19,85.74-1.05,1.7-5.54,1.35-6.49,2.88-5.74,9.21-9.6,15.24-9.6,15.24l-22.74-12.9s2.55-5.1,6.37-12.82c.61-1.24-2.15-6-1.48-7.32,11.38-23.1,30.59-62.72,32-69.71C204.28,257.07,158.09,167.33,158.09,167.33Z"/><polygon class="cls-23" points="140.75 153.56 147.53 140.35 138.65 118.78 140.75 153.56"/><path class="cls-24" d="M147.53,140.35s23.91,11,23.87,8.63-22.29-30.2-32.75-30.2Z"/><line class="cls-25" x1="140.28" y1="118.98" x2="151.92" y2="142.31"/><line class="cls-22" x1="191.66" y1="364.33" x2="168.18" y2="351.42"/><line class="cls-22" x1="195.85" y1="358.27" x2="172.37" y2="345.37"/><line class="cls-22" x1="147.53" y1="156.92" x2="155.83" y2="187.71"/><circle class="cls-26" cx="155.96" cy="188.18" r="1.21"/></svg>