<svg xmlns="http://www.w3.org/2000/svg" viewBox="0 0 202.53 730.3"><defs><style>.cls-1{fill:#223400;}.cls-2{fill:#ffc7ab;}.cls-3{fill:#0d4a82;}.cls-4{fill:#013272;}.cls-5{fill:#f7931e;}.cls-6{fill:#42210b;}.cls-7{fill:none;}.cls-8{fill:#e0a28c;}.cls-9{fill:#003f51;}.cls-10{fill:#990016;}.cls-11{fill:#fcba9d;}.cls-12{fill:#012751;}</style></defs><title>Julia</title><g id="Layer_7" data-name="Layer 7"><path class="cls-1" d="M56.94,702.42a6.35,6.35,0,0,1-9-1.66l-6.61-10.53-4.21,10.2a6.54,6.54,0,0,0-.13,4.65l5.09,14.67a5.91,5.91,0,0,0,9,2.88l12.43-8.86a16.86,16.86,0,0,0,7.06-13.72v-8.16Z"/><path class="cls-1" d="M143.66,702.42a6.36,6.36,0,0,0,9-1.66l6.6-10.53,4.21,10.2a6.54,6.54,0,0,1,.13,4.65l-5.09,14.67a5.91,5.91,0,0,1-9,2.88L137,713.77A16.86,16.86,0,0,1,130,700.05v-8.16Z"/><path class="cls-2" d="M130,653.19v38.7l13.68,10.53a6.36,6.36,0,0,0,9-1.66l6.6-10.53-2.59-6.29-.25-.61-7-30.14"/><path class="cls-2" d="M51.2,653.19l-7,30.14-.24.61-2.6,6.29L48,700.76a6.35,6.35,0,0,0,9,1.66l13.69-10.53v-38.7"/></g><g id="Layer_2" data-name="Layer 2"><path class="cls-3" d="M69.64,323s28.45,17.6,84.74,40.76l-7.23,3C113.9,376.79,74.43,356,69.64,323Z"/><path class="cls-2" d="M38.25,166.91s4.09-19.48,19-21.38c7.09-.9-6,61.07-6,61.07L49,343.76l-21-5.91Z"/><path class="cls-2" d="M27.88,387V371.32a5.92,5.92,0,0,1-.19-1.41l.08-8.41L28,337.85l21,5.91-1,18.08,0,3.82.13.1,5.5,11.2a2.12,2.12,0,0,1-.73,2.64,1.8,1.8,0,0,1-2.49-.57l-3.29-6a4.49,4.49,0,0,1-.59.77l-.39,18.47c-.09,2.34-1,4.24-2.15,4.31s-2.07-1.75-2.17-4.08l0-17.08h-.23l-.38,18c-.09,2.34-1,4.24-2.15,4.3s-2.08-1.74-2.17-4.07l0-18.32h-.19l-.34,15.89c-.08,2.34-1,4.24-2.15,4.3s-2.07-1.74-2.16-4.07l0-16.29-.24,0-.1,5.28-.12,6.28c-.08,2.34-.86,4.25-1.81,4.32S28,389.3,27.88,387Z"/><path class="cls-2" d="M162.35,161.68c-1.32-7.26-14.64-17.76-20.81-17.76s7.93,57.19,7.93,57.19l14.47,136.2,20.22-7.81S163.67,169,162.35,161.68Z"/><path class="cls-2" d="M188.78,378l-1.54-15.6a5.15,5.15,0,0,0,.07-1.42l-.91-8.38-2.24-23.13-20.22,7.81,1.63,17.58.42,3.81-.13.1-4.57,11.69a2.1,2.1,0,0,0,1,2.57,1.89,1.89,0,0,0,2.51-.81l2.8-6.27a5.09,5.09,0,0,0,.68.71l2.22,18.38c.32,2.32,1.47,4.13,2.64,4.09s2-1.94,1.83-4.27l-1.65-17,.23,0,2.16,17.92c.32,2.33,1.47,4.14,2.64,4.09s2-1.93,1.83-4.27l-1.76-18.27.19,0,1.9,15.82c.32,2.32,1.47,4.13,2.64,4.09s2-1.94,1.83-4.27l-1.57-16.24.25-.05.62,5.25.74,6.25c.31,2.33,1.3,4.16,2.29,4.13S188.93,380.36,188.78,378Z"/><path class="cls-4" d="M138.56,141.74l-26-6.89H90.53l-25,6.89C37,149,60.35,153.35,48.54,470.36L28.34,679.69l145.23,1L155.08,170.88C155.08,156.84,152.68,144.08,138.56,141.74Z"/><path class="cls-4" d="M118.83,308.27v25.36a7.33,7.33,0,0,0,2,5l31.3-30.35Z"/><path class="cls-5" d="M69.63,100a8.74,8.74,0,0,0,1.07-.68A9.74,9.74,0,0,0,74.07,88.1c.24.26.49.54.71.83a9.85,9.85,0,0,1-1.85,14,10.13,10.13,0,0,1-1.07.68,10.38,10.38,0,0,1-13.16-2.94,9.13,9.13,0,0,1-.62-.91,10.28,10.28,0,0,1-.87-1.84A10.35,10.35,0,0,0,69.63,100Z"/><circle class="cls-5" cx="100.67" cy="61.36" r="35.75"/><path class="cls-5" d="M133.71,77.5a32,32,0,0,1-1.67-4,34.38,34.38,0,0,1-.91-19.17A34.53,34.53,0,0,0,99.38,100a33.3,33.3,0,0,0,1.67,4,34.49,34.49,0,0,0,42.13,17.45,32.56,32.56,0,0,0,3.44-1.4,34.1,34.1,0,0,0,8.83-5.93A34.67,34.67,0,0,0,165.59,96.8,34.52,34.52,0,0,1,133.71,77.5Z"/><path class="cls-5" d="M67.55,78.54a36.85,36.85,0,0,0,1.67-4,34.37,34.37,0,0,0,.9-19.17A34.53,34.53,0,0,1,101.88,101a35.3,35.3,0,0,1-1.67,4,34.5,34.5,0,0,1-64.54-7.19A34.54,34.54,0,0,0,67.55,78.54Z"/><path class="cls-5" d="M117.58,119.74a16.87,16.87,0,0,1,3.89-21.07,16.41,16.41,0,0,0-1.71.58,16.78,16.78,0,0,0-9.29,21.83,18.8,18.8,0,0,0,.92,1.92,16.78,16.78,0,0,0,20.92,7.36c.56-.23,1.1-.49,1.63-.77a17.47,17.47,0,0,0,2.79-1.88A16.79,16.79,0,0,1,117.58,119.74Z"/><path class="cls-5" d="M139,80.37a9.87,9.87,0,0,1-1.15-.32,9.43,9.43,0,0,1-6.35-9.11c-.14.31-.27.62-.39.94a9.43,9.43,0,0,0,17.83,6.17,7.21,7.21,0,0,0,.28-1,9.29,9.29,0,0,0,.23-1.88A9.44,9.44,0,0,1,139,80.37Z"/><path class="cls-6" d="M111.4,62.65c2.88-2.43,6.62-2,9.32.45.88.79,1.93-.72,1.06-1.5a8.66,8.66,0,0,0-11.56-.36.92.92,0,0,0,1.18,1.41Z"/><path class="cls-6" d="M89.93,57.41a8.67,8.67,0,0,0-10.86,4c-.58,1,.89,2.13,1.48,1.1,1.8-3.15,5.21-4.77,8.7-3.37a.92.92,0,0,0,.68-1.71Z"/><path class="cls-7" d="M100.91,69.36v-6a8.63,8.63,0,0,1-1.39-3.49A52.71,52.71,0,0,0,100.91,69.36Z"/><polygon class="cls-8" points="111.94 141.74 111.94 120.61 89.88 119.36 89.88 121.24 111.07 141.38 111.94 141.74"/><path class="cls-2" d="M129.79,98s8.07-8.78,6.14-17.37c0,0-2-5.15-6-2.29Z"/><path class="cls-2" d="M82.19,40.27h38.92A8.87,8.87,0,0,1,130,49.14V96.58A26.46,26.46,0,0,1,103.51,123H99.78A26.46,26.46,0,0,1,73.32,96.58V49.14a8.87,8.87,0,0,1,8.87-8.87Z"/><circle class="cls-9" cx="114.5" cy="74.29" r="3.13"/><circle class="cls-9" cx="86.74" cy="74.29" r="3.13"/><path class="cls-8" d="M97.8,90.47l3.43,2.76a.68.68,0,0,0,.85,0l3.56-2.75a.69.69,0,0,0-.42-1.23h-7A.69.69,0,0,0,97.8,90.47Z"/><path class="cls-8" d="M130,94.63s5.24-5.42,4.2-12c0,0-.71-4.26-4.2-1.62Z"/><path class="cls-2" d="M73.41,96.46s-8-8.55-6-17.14c0,0,2-5.16,5.95-2.3Z"/><path class="cls-8" d="M73.32,93.33s-5.25-5.42-4.2-12c0,0,.71-4.26,4.2-1.62Z"/><path class="cls-8" d="M107.56,110.54c-2.28,2.27-4.44,3.45-9.55,2.06a.64.64,0,0,1,0-1.25l9.06-1.93A.64.64,0,0,1,107.56,110.54Z"/><path class="cls-10" d="M95.38,103.89s5.49,4.53,14.28-.79l.65-.4Z"/><path class="cls-11" d="M109,80.12s.61,9.13,10.06,5.48L109,80.12"/><path class="cls-11" d="M93.68,80.12s-.62,9.13-10.07,5.48l10.07-5.48"/><path class="cls-2" d="M102.57,131l-12.69-9.77v13.61S61.54,150,70.24,163.52s47.78,11.33,61.91,2.14-20.05-28.74-20.21-29Z"/><path class="cls-12" d="M75.23,251.37c1.51-4.3,5.92-12.06,18.45-15.35a21.65,21.65,0,0,1,16.94,2.44c4.27,2.76,11,5.57,19,3.39,9.12-2.5,10.9-12.33,3.39-17.37a26.51,26.51,0,0,0-11.76-4.89S72.29,212,74.18,251.26C74.21,251.77,75.06,251.86,75.23,251.37Z"/><path class="cls-5" d="M77.78,39.22c-3,1.15,10.06,26.33,28.85,26.6,17.13.25,27.42-2.52,25.22-20C130.24,33.09,95.61,32.48,77.78,39.22Z"/><path class="cls-5" d="M70.24,50.4c-.59,3.2-2,27-1.26,27C86.1,78,92.69,59.35,90.49,41.91,88.88,29.14,73.32,33.7,70.24,50.4Z"/></g></svg>