<svg id="Layer_1" data-name="Layer 1" xmlns="http://www.w3.org/2000/svg" xmlns:xlink="http://www.w3.org/1999/xlink" viewBox="0 0 216.08 786.25"><defs><style>.cls-1{fill:none;}.cls-2{fill:#dbd2af;}.cls-3{fill:#894f38;}.cls-4{fill:#ffc7ab;}.cls-5{fill:#e5cec3;}.cls-6{fill:#4c4c4b;}.cls-7{fill:#c01818;}.cls-8{fill:#e0a28c;}.cls-9{fill:#9b9da3;}.cls-10{fill:#4c290d;}.cls-11{fill:#fcba9d;}.cls-12{fill:#bdbec1;}.cls-13{clip-path:url(#clip-path);}.cls-14{fill:#d3c9a9;}.cls-15{fill:#848484;}.cls-16{fill:#f2f2f2;}.cls-17{fill:#929499;}</style><clipPath id="clip-path"><ellipse class="cls-1" cx="106.65" cy="51.57" rx="38.38" ry="50.64" transform="translate(-4.35 10.19) rotate(-5.36)"/></clipPath></defs><title>Artboard 3</title><path class="cls-2" d="M143.58,32c-3,.74-5,5-5.09,12.11C138.31,56,143.44,71.39,150,78.48c.25.28.5.5.75.75-2,.49-4.42-.55-7-3.39-6.52-7.09-11.65-22.48-11.47-34.38C132.39,30,137.41,26,143.58,32Z"/><path class="cls-2" d="M139.22,46.05c-2.29,11.68,0,27.74,5.17,35.87.2.32.41.59.61.87-2.05.14-4.25-1.33-6.32-4.58-5.14-8.13-7.46-24.19-5.17-35.87C135.72,31.11,140.6,39.05,139.22,46.05Z"/><path class="cls-2" d="M141,56.14c-5.14,10.73-6.93,26.86-4,36,.12.36.25.67.37,1-2-.38-3.78-2.35-5-6-2.94-9.16-1.16-25.29,4-36C141.33,40.79,144.07,49.71,141,56.14Z"/><rect class="cls-3" x="14.07" y="240.05" width="28.23" height="178.25" transform="translate(56.37 658.35) rotate(-180)"/><path class="cls-3" d="M19.34,439.69l.54.43A2.84,2.84,0,0,1,19.34,439.69Z"/><path class="cls-4" d="M19.37,401.44H37a5.3,5.3,0,0,1,5.3,5.3V434a0,0,0,0,1,0,0H14.07a0,0,0,0,1,0,0V406.74A5.3,5.3,0,0,1,19.37,401.44Z" transform="translate(56.37 835.47) rotate(-180)"/><path class="cls-4" d="M41,421.91c-1.63-.3-3-.84-5.41,1h0l0,.07-3.6,6.61,4.87.92,2.52-2.1L45.84,438h0a2.84,2.84,0,0,0,3.49.61,2.22,2.22,0,0,0,1-3.05h0L42.49,422.8,41,421.91"/><path class="cls-5" d="M45.82,437.06A2.71,2.71,0,0,0,49,438.21a1.84,1.84,0,0,0,.68-2.81,3.83,3.83,0,0,0-.36-.44Z"/><path class="cls-4" d="M40.06,453.3c-.08,2.68-1.36,4.89-2.94,5s-2.91-2-3.07-4.63l-.32-23.73H40.4Z"/><path class="cls-4" d="M33.18,454.72c-.09,2.69-1.37,4.89-2.94,5s-2.92-2-3.08-4.63l-.32-23.73h6.67Z"/><path class="cls-4" d="M26.36,452.29c-.09,2.68-1.36,4.89-2.94,5s-2.91-2-3.07-4.64L20,428.9H26.7Z"/><path class="cls-4" d="M19.6,447.19c-.07,2.68-1.14,4.89-2.46,5s-2.44-2-2.58-4.63l-.27-23.74h5.59Z"/><path class="cls-5" d="M35,454.61a2.43,2.43,0,0,0,1.86,2.79,2.32,2.32,0,0,0,2.41-2.27,3.1,3.1,0,0,0,0-.61Z"/><path class="cls-5" d="M28.05,456.4a2.44,2.44,0,0,0,1.86,2.8,2.33,2.33,0,0,0,2.4-2.27,3.21,3.21,0,0,0,0-.62Z"/><path class="cls-5" d="M21.23,453.89a2.44,2.44,0,0,0,1.86,2.8,2.32,2.32,0,0,0,2.41-2.27,4.14,4.14,0,0,0,0-.61Z"/><path class="cls-5" d="M15.42,449.4a2,2,0,0,0,1.44,2.27,1.83,1.83,0,0,0,1.86-1.84,2.09,2.09,0,0,0,0-.5Z"/><path class="cls-6" d="M42.69,365H170.94l-24.8,385.3h-34.5l.08-263.75a6.65,6.65,0,0,0-2.3-5.15c-1.41-1.16-3.26-1.52-5,1.86a6.84,6.84,0,0,0-.71,3L100.19,750.3H64.39Z"/><path class="cls-7" d="M131.07,150.63c-8.14,8.41-16.14,12.63-25.13,12.63a28,28,0,0,1-16.75-5.53l17.66,121.13,9.16,3.2,7.83-4.5,16.43,11.58Z"/><polygon class="cls-8" points="92.81 96.12 92.81 98.05 103.32 107.08 119.07 120.62 119.07 110.2 119.07 96.12 92.81 96.12"/><path class="cls-9" d="M108.22,198.16l-19.86-72H63a30.7,30.7,0,0,0-30.7,30.71l0,217.62a14.43,14.43,0,0,0,8.09,13l67.82-2.09Z"/><path class="cls-4" d="M119,123.38c-.62,5.74-6.26,13-13.1,13s-12.45-4.5-13.07-10.25H88.36l.83,31.59a28,28,0,0,0,16.75,5.53c9,0,21.12-6.07,26.27-12.63L145,127.79Z"/><path class="cls-4" d="M103.32,107.08l-10.51-9V125.1c0,.35,0,.7.06,1,.62,5.75,6.23,10.25,13.07,10.25s12.48-7.27,13.1-13c0-.35,0,2.07,0,1.72v-4.48Z"/><path class="cls-2" d="M141.46,53.43c0,29.51-17.13,46.83-36.67,46.83S70.7,82.94,70.7,53.43,86.54,0,106.08,0,141.46,23.92,141.46,53.43Z"/><path class="cls-4" d="M134.87,72.57s8.26-9,6.28-17.77c0,0-2.05-5.27-6.09-2.35Z"/><path class="cls-4" d="M116.08,101.89h-20c-9,0-14.12-11.55-17.41-19.94a22,22,0,0,1-1.49-8L77.1,30.2a15,15,0,0,1,15-15h28a15,15,0,0,1,15,15l-.17,44A23.86,23.86,0,0,1,133,83.31C129.37,91.88,125.23,101.47,116.08,101.89Z"/><path class="cls-8" d="M102.15,66.57l3.5,2.81a.69.69,0,0,0,.87,0l3.65-2.81a.71.71,0,0,0-.44-1.27h-7.14A.71.71,0,0,0,102.15,66.57Z"/><path class="cls-8" d="M135.06,69.14s5.37-5.55,4.3-12.31c0,0-.72-4.36-4.3-1.66Z"/><path class="cls-4" d="M77.18,72.7S69,63.94,71,55.15c0,0,2.06-5.27,6.09-2.34Z"/><path class="cls-8" d="M77.1,69.49s-5.37-5.55-4.3-12.31c0,0,.73-4.36,4.3-1.66Z"/><path class="cls-10" d="M97.31,78.8S101.8,85,115,83.39l1-.13Z"/><path class="cls-11" d="M96.35,75a7.57,7.57,0,0,1,1.36.12c.06,0-.11-.37-.19-.54a5,5,0,1,0-7.25,6.37c.48.29,1.46.74,1.58.63s-.21-.82-.24-1.26A5,5,0,0,1,96.35,75Z"/><path class="cls-11" d="M114.27,54.64s1.24,7.5,9,7.14Z"/><path class="cls-11" d="M121.79,80s1.91,5.7-3.66,8.33Z"/><path class="cls-11" d="M95.68,54.64s-1.24,7.5-9,7.14Z"/><circle cx="118.48" cy="48.79" r="3.13"/><circle cx="90.72" cy="48.79" r="3.13"/><path d="M115.34,36.89c3-2.27,6.72-1.61,9.28,1,.84.83,2-.62,1.14-1.45a8.66,8.66,0,0,0-11.52-1,.92.92,0,0,0,1.1,1.47Z"/><path d="M97.17,38a8.65,8.65,0,0,0-10.85-4c-1.1.39-.7,2.19.41,1.79,3.42-1.23,7.06-.25,8.81,3.09A.92.92,0,0,0,97.17,38Z"/><path class="cls-9" d="M.38,276.08c5.18-74.74,23-115.17,23-115.17,12.09-23.35,29.38-31.45,29.38-31.45L45.34,379.64l-.63,21.2c-3.39,5.76-6.93,8.92-10.35,10.42-11,4.8-20.74-7.6-20.74-7.6C-3.51,375.93.38,276.08.38,276.08Z"/><polygon class="cls-12" points="108.22 198.16 92.81 120.62 47.77 127.22 42.11 141.87 60.99 141.99 108.22 198.16"/><g class="cls-13"><path class="cls-2" d="M137.93,10.55c2.14,3.95,2.6,9.74.83,15.87-3,10.22-11,17.46-17.95,16.16-.27,0-.52-.13-.78-.2a9.19,9.19,0,0,0,6.39,5c7,1.3,15-5.94,18-16.16C147.21,21.37,144.33,12.39,137.93,10.55Z"/><path class="cls-2" d="M146.65,13.35c2.14,4,2.6,9.74.83,15.87-3,10.22-11,17.46-17.95,16.16a6.9,6.9,0,0,1-.78-.21,9.18,9.18,0,0,0,6.39,5c7,1.3,15-5.94,18-16.16C155.93,24.17,153.05,15.18,146.65,13.35Z"/><path class="cls-2" d="M144.22,19.12c2.15,3.95,2.61,9.75.84,15.87-3,10.23-11,17.46-18,16.17-.27,0-.53-.14-.79-.21a9.23,9.23,0,0,0,6.4,5c6.95,1.3,15-5.94,17.95-16.16C153.51,29.94,150.62,21,144.22,19.12Z"/><path class="cls-2" d="M144.22,26c2.15,3.95,2.61,9.75.84,15.87-3,10.23-11,17.46-18,16.17-.27,0-.53-.14-.79-.21a9.23,9.23,0,0,0,6.4,5c6.95,1.3,15-5.94,17.95-16.16C153.51,36.86,150.62,27.88,144.22,26Z"/><path class="cls-2" d="M145.55,31.91c2.14,3.95,2.6,9.74.83,15.87-3,10.22-11,17.46-17.95,16.16a6.37,6.37,0,0,1-.78-.21,9.2,9.2,0,0,0,6.39,5c7,1.29,15-5.94,18-16.17C154.83,42.73,152,33.74,145.55,31.91Z"/><path class="cls-2" d="M146.17,34.45c2.14,3.95,2.6,9.74.83,15.87-3,10.22-11,17.46-17.95,16.16a6.9,6.9,0,0,1-.78-.21,9.2,9.2,0,0,0,6.39,5c7,1.3,15-5.94,18-16.16C155.45,45.27,152.57,36.28,146.17,34.45Z"/><path class="cls-2" d="M144.24,12.63c2.15,3.95,2.61,9.74.83,15.87-3,10.22-11,17.45-17.94,16.16-.27,0-.53-.14-.79-.21a9.24,9.24,0,0,0,6.4,5c6.95,1.29,15-5.94,17.94-16.17C153.53,23.45,150.64,14.46,144.24,12.63Z"/><path class="cls-2" d="M143.5,8.34c2.14,3.95,2.6,9.74.83,15.87-3,10.22-11,17.46-18,16.16-.27,0-.53-.13-.78-.2a9.19,9.19,0,0,0,6.39,5c6.95,1.3,15-5.94,17.95-16.16C152.78,19.16,149.9,10.18,143.5,8.34Z"/><path class="cls-14" d="M134.2,6c2.14,4,2.6,9.75.83,15.87-3,10.23-11,17.46-18,16.17-.27,0-.53-.14-.78-.21a9.16,9.16,0,0,0,6.39,5c6.95,1.3,15-5.94,17.95-16.16C143.48,16.8,140.6,7.81,134.2,6Z"/><path class="cls-2" d="M131.84,2.27c2.14,4,2.61,9.75.83,15.87-3,10.23-11,17.46-17.95,16.17-.27-.05-.52-.14-.78-.21a9.21,9.21,0,0,0,6.39,5c7,1.3,15-5.94,18-16.16C141.13,13.09,138.24,4.11,131.84,2.27Z"/><path class="cls-14" d="M126.78,1.34c2.14,4,2.6,9.74.83,15.87-3,10.22-11,17.46-18,16.16a6.9,6.9,0,0,1-.78-.21,9.22,9.22,0,0,0,6.39,5c7,1.29,15-5.94,18-16.17C136.07,12.16,133.18,3.17,126.78,1.34Z"/><path class="cls-2" d="M121.41-1c2.14,4,2.6,9.74.83,15.87-3,10.22-11,17.46-17.95,16.16a6.9,6.9,0,0,1-.78-.21,9.2,9.2,0,0,0,6.39,5c6.95,1.3,15-5.94,17.95-16.16C130.7,9.83,127.81.84,121.41-1Z"/><path class="cls-2" d="M120.21-6c2.14,4,2.6,9.74.83,15.87-3,10.22-11,17.46-18,16.16a6.9,6.9,0,0,1-.78-.21,9.22,9.22,0,0,0,6.39,5c7,1.29,15-5.94,18-16.17C129.5,4.78,126.61-4.21,120.21-6Z"/><path class="cls-2" d="M112.4-2.55c2.55,5,1.75,12.62-2.93,20.79-7.8,13.62-23.38,23.67-34.79,22.45-.44,0-.85-.14-1.27-.22,1.71,3.37,4.89,5.62,9.46,6.11,11.41,1.23,27-8.82,34.8-22.45C125.17,11,122.73-.57,112.4-2.55Z"/><path class="cls-14" d="M107.33-8.3c2.55,5,1.75,12.62-2.92,20.78C96.6,26.11,81,36.16,69.61,34.93c-.44,0-.85-.14-1.26-.22,1.7,3.37,4.88,5.62,9.46,6.11,11.41,1.23,27-8.82,34.79-22.45C120.1,5.28,117.67-6.33,107.33-8.3Z"/><path class="cls-2" d="M104.36-13c2.55,5,1.75,12.62-2.93,20.78-7.8,13.63-23.38,23.68-34.79,22.45-.44-.05-.85-.14-1.27-.22,1.7,3.37,4.89,5.62,9.46,6.11,11.41,1.23,27-8.82,34.79-22.45C117.13.58,114.69-11,104.36-13Z"/><path class="cls-14" d="M96.05-13.89C98.59-8.84,97.8-1.27,93.12,6.9c-7.8,13.62-23.38,23.68-34.79,22.45-.45-.05-.85-.14-1.27-.22,1.7,3.37,4.89,5.62,9.46,6.11,11.41,1.23,27-8.82,34.79-22.45C108.81-.31,106.38-11.91,96.05-13.89Z"/><path class="cls-2" d="M87.59-16.58c2.55,5,1.75,12.62-2.92,20.79-7.81,13.62-23.39,23.68-34.8,22.45-.44-.05-.85-.14-1.26-.22,1.7,3.37,4.88,5.62,9.46,6.11,11.41,1.23,27-8.82,34.79-22.45C100.36-3,97.92-14.6,87.59-16.58Z"/></g><path class="cls-2" d="M87.37,85c-5.13-2.36-9.22-8.78-10.64-18.09C74.36,51.38,80.3,33.82,90,27.68c.38-.24.76-.42,1.13-.62-3.43-1.58-7.32-1.36-11.2,1.11-9.7,6.14-15.64,23.7-13.27,39.22C68.93,82.31,78.06,89.88,87.37,85Z"/><path class="cls-14" d="M90.85,94.59c-5.21-2.19-9.52-8.47-11.25-17.72C76.7,61.44,82,43.68,91.52,37.22c.37-.26.74-.45,1.11-.66C89.14,35.1,85.26,35.45,81.46,38,72,44.51,66.64,62.26,69.54,77.7,72.32,92.53,81.7,99.79,90.85,94.59Z"/><path class="cls-2" d="M83.86,78.55c-3-.8-4.89-5.06-4.88-12.2,0-11.9,5.43-27.2,12.06-34.17.26-.27.51-.5.76-.73-2-.54-4.43.47-7.09,3.26-6.63,7-12,22.27-12,34.18C72.63,80.33,77.58,84.44,83.86,78.55Z"/><path class="cls-2" d="M89.61,7.78C92,9.71,92,14.39,89.11,20.9c-4.86,10.87-16,22.66-24.9,26.33-.35.14-.67.25-1,.36,1.6,1.29,4.24,1.37,7.8-.11,8.9-3.67,20-15.46,24.91-26.32C100.59,10.71,97.74,5,89.61,7.78Z"/><path class="cls-2" d="M102.19,12.3C94.39,25.92,78.81,36,67.4,34.75c-.45,0-.85-.14-1.27-.22,1.7,3.37,4.89,5.62,9.46,6.11,11.41,1.23,27-8.83,34.79-22.45C117.88,5.09,106.87,4.13,102.19,12.3Z"/><path class="cls-14" d="M102.19,7.44C94.39,21.06,78.81,31.12,67.4,29.89c-.45-.05-.85-.14-1.27-.22,1.7,3.37,4.89,5.62,9.46,6.11C87,37,102.58,27,110.38,13.33,117.88.23,106.87-.73,102.19,7.44Z"/><path class="cls-2" d="M100.11,1.29C86.16,8.48,76.73,25,65.32,23.74c-.44,0-.85-.14-1.27-.22,1.71,3.37,4.89,5.62,9.46,6.11,11.41,1.23,27.82-8.38,34.8-22.45C109.82,4.12,101.88.38,100.11,1.29Z"/><path class="cls-15" d="M128.52,774.11a32.86,32.86,0,0,1,6.19,2.87c9.85,2.51,39,3.1,39,3.1,3.94.4,10.31-2.75,13.18-4.3a14.08,14.08,0,0,1,.12,3.1s-1.46,7.18-20.33,7.37c0,0-51.16-2.84-55.55-4.58,0,0-.58-3.49-.93-7.81Z"/><path class="cls-16" d="M110.64,761.13s2.81-7.36,2.62-8.92c0,0-.45-6,1.85-3.62,0,0,3.16,6.2,5,6.58,0,0,6.35-6.57,11.47-7.87a2.62,2.62,0,0,1,.45-.8c7-8,10.44-5.84,10.44-5.84,3,.45,4.85,4.4,4.85,4.4a3.4,3.4,0,0,1,.31.69,10.53,10.53,0,0,1,5.41,2.31s7.12,14.66,17.85,18.39c0,0,9.58-.25,12.8,2.81a10.83,10.83,0,0,1,3.1,5.66c.06.28.12.56.17.86-2.87,1.55-9.24,4.7-13.18,4.3,0,0-29.18-.59-39-3.1a32.86,32.86,0,0,0-6.19-2.87l-18.29-.25c0-.17,0-.35,0-.52C109.87,769.17,109.79,764.35,110.64,761.13Z"/><rect class="cls-15" x="106.97" y="724.56" width="48.98" height="31.55" rx="2.2" transform="translate(-82.63 19.54) rotate(-6.47)"/><path class="cls-15" d="M83.31,774.11a33.17,33.17,0,0,0-6.2,2.87c-9.85,2.51-39,3.1-39,3.1-3.94.4-10.31-2.75-13.17-4.3a14,14,0,0,0-.13,3.1s1.47,7.18,20.34,7.37c0,0,51.16-2.84,55.55-4.58,0,0,.58-3.49.93-7.81Z"/><path class="cls-16" d="M101.19,761.13s-2.81-7.36-2.62-8.92c0,0,.45-6-1.86-3.62,0,0-3.15,6.2-5,6.58,0,0-6.34-6.57-11.46-7.87a2.62,2.62,0,0,0-.45-.8c-7-8-10.44-5.84-10.44-5.84-3,.45-4.86,4.4-4.86,4.4a5,5,0,0,0-.31.69,10.6,10.6,0,0,0-5.41,2.31S51.71,762.72,41,766.45c0,0-9.58-.25-12.81,2.81a10.91,10.91,0,0,0-3.1,5.66c-.06.28-.11.56-.16.86,2.86,1.55,9.23,4.7,13.17,4.3,0,0,29.18-.59,39-3.1a33.17,33.17,0,0,1,6.2-2.87l18.29-.25c0-.17,0-.35,0-.52C102,769.17,102,764.35,101.19,761.13Z"/><rect class="cls-15" x="55.88" y="724.56" width="48.98" height="31.55" rx="2.2" transform="translate(76.76 1485.01) rotate(-173.53)"/><polygon class="cls-17" points="108.22 198.16 70.27 138.01 52.79 136.63 55.3 126.11 47.77 127.22 42.11 141.87 60.99 141.99 108.22 198.16"/><polygon class="cls-12" points="63.21 219.38 60.09 219.38 60.99 141.99 63.81 146.81 63.21 219.38"/><path class="cls-3" d="M191.74,435.12l-.54.43A2.84,2.84,0,0,0,191.74,435.12Z"/><path class="cls-4" d="M189.29,434.78l-15.86-7.67A5.3,5.3,0,0,1,171,420l1.67-29,25.42,12.29-1.67,29A5.31,5.31,0,0,1,189.29,434.78Z"/><path class="cls-4" d="M170.13,417.34c1.64-.3,3-.84,5.41,1h0l0,.07,3.61,6.61-4.88.92-2.51-2.1-6.55,9.54h0a2.83,2.83,0,0,1-3.48.61,2.21,2.21,0,0,1-1-3h0l7.82-12.75,1.53-.89"/><path class="cls-5" d="M165.26,432.49a2.7,2.7,0,0,1-3.16,1.15,1.85,1.85,0,0,1-.67-2.81,2.94,2.94,0,0,1,.35-.44Z"/><path class="cls-4" d="M171,448.73c.09,2.68,1.36,4.89,2.94,5s2.91-2,3.07-4.63l.32-23.73h-6.67Z"/><path class="cls-4" d="M177.91,450.15c.08,2.69,1.36,4.89,2.94,5s2.91-2,3.07-4.63l.32-23.73h-6.67Z"/><path class="cls-4" d="M184.72,447.72c.09,2.68,1.36,4.89,2.94,5s2.91-2,3.07-4.64l.32-23.73h-6.66Z"/><path class="cls-4" d="M191.48,442.62c.07,2.68,1.14,4.89,2.47,5s2.44-2,2.57-4.63l.27-23.73H191.2Z"/><path class="cls-5" d="M176.09,450a2.43,2.43,0,0,1-1.86,2.79,2.31,2.31,0,0,1-2.4-2.27,2.49,2.49,0,0,1,0-.61Z"/><path class="cls-5" d="M183,451.83a2.44,2.44,0,0,1-1.86,2.8,2.33,2.33,0,0,1-2.41-2.27,4.28,4.28,0,0,1,0-.62Z"/><path class="cls-5" d="M189.85,449.33a2.43,2.43,0,0,1-1.86,2.79,2.31,2.31,0,0,1-2.4-2.27,2.49,2.49,0,0,1,0-.61Z"/><path class="cls-5" d="M195.66,444.83a2,2,0,0,1-1.44,2.27,1.83,1.83,0,0,1-1.86-1.84,2.78,2.78,0,0,1,0-.5Z"/><path class="cls-9" d="M108.22,198.16,141.46,128l-4.63-1.42h16.22a30.7,30.7,0,0,1,30.7,30.71l0,217.62a14.43,14.43,0,0,1-8.09,13l-67.82-2.09Z"/><path class="cls-9" d="M215.7,276.53c-5.18-74.74-23-115.17-23-115.17-12.09-23.35-29.38-31.45-29.38-31.45l7.45,250.18.63,21.2c3.39,5.76,6.93,8.92,10.35,10.42,11,4.79,20.74-7.6,20.74-7.6C219.59,376.38,215.7,276.53,215.7,276.53Z"/><polygon class="cls-12" points="108.22 198.16 141.46 128 119.04 123.38 119.07 120.62 168.31 127.67 173.97 142.32 155.09 142.44 108.22 198.16"/><polygon class="cls-17" points="108.22 198.16 152.27 137.95 163.29 137.08 160.78 126.56 168.31 127.67 173.97 142.32 155.09 142.44 108.22 198.16"/><polygon class="cls-12" points="152.87 219.83 155.99 219.83 155.09 142.44 152.27 147.25 152.87 219.83"/><polygon class="cls-17" points="170.94 337.41 171.42 347.21 125.15 300.94 129.81 296.28 170.94 337.41"/><polygon class="cls-17" points="52.29 337.41 51.81 347.21 98.08 300.94 93.42 296.28 52.29 337.41"/><polygon class="cls-17" points="110.44 385.8 107.86 385.8 106.82 196.48 108.63 197.3 110.44 195.52 110.44 385.8"/></svg>