<svg id="Layer_1" data-name="Layer 1" xmlns="http://www.w3.org/2000/svg" viewBox="0 0 191.58 674.35"><defs><style>.cls-1{fill:#472f00;}.cls-2{fill:#321900;}.cls-3{fill:#383a4c;}.cls-4{fill:#2f87c9;}.cls-5{fill:#42210b;}.cls-6{fill:none;}.cls-7{fill:#e0a28c;}.cls-8{fill:#4a59af;}.cls-9{fill:#ffc7ab;}.cls-10{fill:#990016;}.cls-11{fill:#fcba9d;}.cls-12{fill:#9b9da3;}.cls-13{fill:#ead2b2;}.cls-14{fill:#9b004a;}.cls-15{fill:#fff;}.cls-16{fill:#fff8f2;}</style></defs><title>Artboard 5 copy</title><path class="cls-1" d="M129.08,662.2a33.17,33.17,0,0,1,6.2,2.87c9.85,2.51,39,3.1,39,3.1,3.94.41,10.31-2.74,13.17-4.3a14.81,14.81,0,0,1,.13,3.11s-1.47,7.17-20.34,7.37c0,0-51.16-2.84-55.55-4.59,0,0-.58-3.48-.93-7.81Z"/><path class="cls-2" d="M111.2,649.22s2.81-7.35,2.62-8.92c0,0-.45-6,1.86-3.62,0,0,3.15,6.21,5,6.59,0,0,6.34-6.58,11.46-7.88a2.79,2.79,0,0,1,.45-.8,34.25,34.25,0,0,1,2.39-2.48c5.42-5.05,8.05-3.35,8.05-3.35,3,.44,4.86,4.39,4.86,4.39a6.44,6.44,0,0,1,.31.69,10.77,10.77,0,0,1,5.41,2.31s7.11,14.67,17.84,18.39c0,0,9.58-.24,12.81,2.81a11,11,0,0,1,3.1,5.67c.06.27.11.56.16.85-2.86,1.56-9.23,4.71-13.17,4.3,0,0-29.18-.59-39-3.1a33.17,33.17,0,0,0-6.2-2.87L110.79,662c0-.17,0-.34,0-.52C110.44,657.27,110.35,652.44,111.2,649.22Z"/><path class="cls-1" d="M58.56,661.54a32.86,32.86,0,0,0-6.19,2.87c-9.86,2.51-39,3.1-39,3.1-3.95.4-10.32-2.74-13.18-4.3A14.81,14.81,0,0,0,0,666.32s1.47,7.17,20.34,7.37c0,0,51.16-2.84,55.55-4.59,0,0,.58-3.48.93-7.81Z"/><path class="cls-2" d="M76.44,648.56s-2.81-7.35-2.62-8.92c0,0,.45-6-1.85-3.62,0,0-3.16,6.21-5,6.59,0,0-6.34-6.58-11.46-7.88a2.79,2.79,0,0,0-.45-.8,34.25,34.25,0,0,0-2.39-2.48c-5.42-5.05-8.05-3.35-8.05-3.35-3,.44-4.85,4.39-4.85,4.39a4,4,0,0,0-.31.69,10.61,10.61,0,0,0-5.41,2.31S27,650.15,16.23,653.88c0,0-9.58-.25-12.81,2.81a10.92,10.92,0,0,0-3.09,5.67c-.07.27-.12.56-.17.85,2.86,1.56,9.23,4.7,13.18,4.3,0,0,29.17-.59,39-3.1a32.86,32.86,0,0,1,6.19-2.87l18.29-.25c0-.17,0-.34,0-.52C77.21,656.61,77.29,651.78,76.44,648.56Z"/><path class="cls-1" d="M30.11,642c2,.79,15.63.82,16.33,10.42l-5.79,3.25S30,647.17,23.9,649.11Z"/><polygon points="130.88 107.35 72.89 105.35 66.89 22.76 127.07 23.76 130.88 107.35"/><path class="cls-3" d="M63.82,320.4h72.27a16.62,16.62,0,0,1,16.62,17l-1.23,277.42c0,2.14,4.23,7.69,5,9.69,8.14,21.55-32.91,12.33-47.45,26.86-.8.8,1.7-21.14,1.67-22.27l-4.8-233c-.19-4.07-2.11-7.92-5.28-9.61a6.16,6.16,0,0,0-6.91.36c-2.39,1.71-3.8,4.82-4.15,8.08L76.85,619.35c-.27,3.65,2.28,31.7-.41,29.21C69.3,642,28.6,638,34,627.55a47.91,47.91,0,0,0,5.59-20.42L47.2,336.52A16.62,16.62,0,0,1,63.82,320.4Z"/><path class="cls-4" d="M191.58,249.44c0-31.05-24.22-93.82-24.22-93.82-1.94-3.65-6-16.66-5.68-12.54l-6.75,86.49,8.73,48.24,26.58,3.34S191.58,280.49,191.58,249.44Z"/><path class="cls-4" d="M13.16,250.84c0-31,22.36-93.46,22.36-93.46,1.95-3.65,4-14.44,3.82-12.58L48,231.33l-7.08,48-28.23,3.55S13.16,281.89,13.16,250.84Z"/><circle cx="99.24" cy="35.75" r="35.75"/><path class="cls-5" d="M110.7,39.42c2.88-2.43,6.62-2,9.32.46.88.79,1.93-.73,1.06-1.51A8.66,8.66,0,0,0,109.52,38a.92.92,0,0,0,1.18,1.41Z"/><path class="cls-5" d="M89.23,34.18a8.67,8.67,0,0,0-10.86,4c-.58,1,.89,2.13,1.47,1.1,1.8-3.15,5.21-4.77,8.71-3.37a.92.92,0,0,0,.68-1.71Z"/><path class="cls-6" d="M100.2,46.14v-6a8.72,8.72,0,0,1-1.39-3.5A53.91,53.91,0,0,0,100.2,46.14Z"/><polygon class="cls-7" points="111.24 118.31 111.24 96.13 89.17 96.13 89.17 98.01 110.36 119.2 111.24 118.31"/><path class="cls-8" d="M171.38,99.82h0c0-.15,0-.29,0-.44Z"/><path class="cls-9" d="M129.08,74.76s8.07-8.78,6.14-17.37c0,0-2-5.15-5.95-2.29Z"/><path class="cls-9" d="M81.48,17H120.4a8.87,8.87,0,0,1,8.87,8.87V73.36a26.46,26.46,0,0,1-26.46,26.46H99.08A26.46,26.46,0,0,1,72.62,73.36V25.91A8.87,8.87,0,0,1,81.48,17Z"/><circle cx="113.8" cy="51.06" r="3.13"/><circle cx="86.04" cy="51.06" r="3.13"/><path class="cls-7" d="M97.1,67.25,100.52,70a.69.69,0,0,0,.85,0l3.57-2.76a.69.69,0,0,0-.43-1.23h-7A.69.69,0,0,0,97.1,67.25Z"/><path class="cls-7" d="M129.27,71.41s5.25-5.43,4.2-12c0,0-.71-4.27-4.2-1.62Z"/><path class="cls-9" d="M72.7,73.23s-8-8.55-6-17.14c0,0,2-5.15,6-2.3Z"/><path class="cls-7" d="M72.62,70.1s-5.25-5.42-4.21-12c0,0,.71-4.26,4.21-1.62Z"/><path class="cls-7" d="M106.86,87.31c-2.28,2.28-4.44,3.45-9.55,2.06a.64.64,0,0,1,0-1.25l9.07-1.93A.64.64,0,0,1,106.86,87.31Z"/><path class="cls-10" d="M89.88,79.35s10.28,5.85,19.08.52l.65-.4Z"/><path class="cls-11" d="M108.32,56.89s.61,9.13,10.06,5.48l-10.06-5.48"/><path class="cls-11" d="M93,56.89S92.36,66,82.91,62.37L93,56.89"/><path class="cls-12" d="M96.84,175.29c-24.22.61-30.06-15.36-30.06-15.36L130.85,156S123.05,174.63,96.84,175.29Z"/><path class="cls-9" d="M110.67,113.9,89.17,98v14.66L72.7,121.19c-3.62,8.38-6.36,25.83-5.92,38.74h0L130.85,156s.28-2.71.37-4a120.87,120.87,0,0,0-2.14-30.26l-18.41-7.83Z"/><polygon class="cls-12" points="160.1 354.27 40.87 346.54 41.44 327.37 160.1 322.81 160.1 354.27"/><polyline class="cls-13" points="188.17 281.15 190.18 366.25 171.06 368.91 168.78 278.45"/><path class="cls-13" d="M186.73,387.8l-.36.48A3,3,0,0,0,186.73,387.8Z"/><path class="cls-13" d="M190.08,349.65l.16,26.87c0,2.89-1.86,5.49-4.2,5.81l-10.67,1.48c-2.33.32-4.23-1.75-4.25-4.64L171,352.3"/><path class="cls-13" d="M172,372.33c1.1-.45,2-1.11,3.67.51h0v.06l2.48,6.17-3.29,1.36-1.72-1.83-4.38,10h0a1.66,1.66,0,0,1-2.35.93,2.5,2.5,0,0,1-.68-2.91h0L171,373.35l1-1"/><path class="cls-14" d="M168.78,387.7c-.46,1.13-1.41,1.77-2.13,1.43s-.93-1.55-.47-2.7a3.45,3.45,0,0,1,.24-.47Z"/><path class="cls-13" d="M172.77,403.15c.08,2.64,1,4.69,2,4.63s2-2.21,2.06-4.85l.08-23.4-4.52.63Z"/><path class="cls-13" d="M177.45,403.9c.07,2.64,1,4.69,2,4.63s2-2.2,2.05-4.85l.08-23.39-4.51.62Z"/><path class="cls-13" d="M182.05,400.86c.07,2.64.95,4.69,2,4.64s2-2.21,2.05-4.86l.08-23.39-4.51.63Z"/><path class="cls-13" d="M186.6,395.21c.06,2.64.8,4.71,1.7,4.68s1.64-2.16,1.71-4.81l.05-23.39-3.79.53Z"/><path class="cls-14" d="M176.22,404.3c.1,1.36-.45,2.67-1.25,2.93s-1.53-.64-1.64-2q0-.32,0-.6Z"/><path class="cls-14" d="M180.93,405.08c.1,1.36-.45,2.67-1.24,2.92s-1.53-.64-1.64-2a4,4,0,0,1,0-.6Z"/><path class="cls-14" d="M185.53,402c.1,1.36-.45,2.67-1.24,2.93s-1.53-.65-1.64-2a4,4,0,0,1,0-.6Z"/><path class="cls-14" d="M189.44,397c.08,1.1-.35,2.16-1,2.36s-1.19-.52-1.27-1.63a2.67,2.67,0,0,1,0-.49Z"/><polyline class="cls-13" points="15.55 282.17 14.26 374.31 29.85 373.73 33.48 279.79"/><path class="cls-13" d="M17,396.35l.37.48A3.41,3.41,0,0,1,17,396.35Z"/><path class="cls-13" d="M15.55,358.2l-2.08,26.87c0,2.88,1.87,5.48,4.2,5.8l10.67,1.48c2.33.33,4.24-1.75,4.25-4.63l.16-26.87"/><path class="cls-13" d="M31.72,380.88c-1.11-.46-2-1.11-3.67.51h0v.07l-2.48,6.16L28.84,389l1.72-1.83,4.38,10h0a1.67,1.67,0,0,0,2.36.93,2.52,2.52,0,0,0,.68-2.9h0L32.75,381.9l-1-1"/><path class="cls-14" d="M34.93,396.25c.46,1.13,1.42,1.77,2.13,1.42s.94-1.55.48-2.69a3,3,0,0,0-.24-.47Z"/><path class="cls-13" d="M30.94,411.69c-.08,2.64-1,4.69-2,4.63s-2-2.2-2.06-4.85l-.08-23.39,4.52.62Z"/><path class="cls-13" d="M26.27,412.44c-.08,2.64-1,4.69-2,4.64s-2-2.21-2.06-4.86l-.08-23.39,4.52.63Z"/><path class="cls-13" d="M21.66,409.41c-.07,2.64-.95,4.69-2,4.63s-2-2.21-2.05-4.85l-.08-23.4,4.51.63Z"/><path class="cls-13" d="M17.12,403.75c-.07,2.64-.81,4.71-1.7,4.68s-1.64-2.16-1.72-4.81l0-23.38,3.79.52Z"/><path class="cls-14" d="M27.49,412.84c-.1,1.37.46,2.67,1.25,2.93s1.53-.64,1.64-2a4,4,0,0,0,0-.6Z"/><path class="cls-14" d="M22.78,413.62c-.1,1.36.45,2.67,1.25,2.93s1.53-.64,1.64-2c0-.21,0-.41,0-.61Z"/><path class="cls-14" d="M18.18,410.51c-.1,1.36.45,2.67,1.24,2.93s1.54-.64,1.65-2q0-.31,0-.6Z"/><path class="cls-14" d="M14.27,405.54c-.08,1.11.35,2.16,1,2.37s1.19-.53,1.27-1.64a2.68,2.68,0,0,0,0-.49Z"/><path class="cls-1" d="M157.54,642.68c-2,.78-15.64.81-16.34,10.41l5.79,3.25s10.7-8.51,16.75-6.57Z"/><path d="M70.85,56.59c9.91-13.91,71-27.55,58.9-43.81A36.69,36.69,0,0,0,78.4,5.23C62.13,17.33,58.17,74.37,70.85,56.59Z"/><path d="M144.88,107.35l-20,10v-100h7C139.88,25.35,144.88,107.35,144.88,107.35Z"/><polygon points="58.88 107.35 72.89 117.35 70.45 33.55 63.49 33.55 58.88 107.35"/><path class="cls-15" d="M40.88,134.35s-31,80-32,103,0,53,0,53l30,7-1-84,1,242,58,4s5-320,3-320,0-1-7-10a22.48,22.48,0,0,1-4-19S53.88,124.35,40.88,134.35Z"/><path class="cls-16" d="M88.88,110.35c-4,7,4,18,4,19s-16,18-15,15,3-28,3-28Z"/><path class="cls-15" d="M159.88,134.35s31,80,32,103,0,53,0,53l-30,7,1-84-1,242-58,4s-5-320-3-320,2-4,7-10,3-19,3-19S146.88,124.35,159.88,134.35Z"/><path class="cls-16" d="M110.88,110.35c1,4-3,18-3,19s15,15,15,15l-5-31Z"/></svg>