<svg id="Layer_1" data-name="Layer 1" xmlns="http://www.w3.org/2000/svg" viewBox="0 0 228.13 707.46"><defs><style>.cls-1{fill:#176200;}.cls-2{fill:#001c1c;}.cls-3{fill:#ffdabd;}.cls-4{fill:#333;}.cls-5{fill:#330;}.cls-6{fill:#2d2d00;}.cls-7{fill:#ddac87;}.cls-8{fill:#033;}.cls-9{fill:#eebd98;}.cls-10{fill:#990808;}.cls-11{fill:#f8d2b4;}.cls-12{fill:#d3976a;}.cls-13{fill:#41210e;}.cls-14{fill:#ead2b2;}.cls-15{fill:#9b004a;}</style></defs><title>Artboard 15</title><path class="cls-1" d="M101.66,677.88l-4,17.67s4,11.94,10.76,11.91c7.07,0,11.69-11.22,11.69-11.22l-5.86-18.11Z"/><g id="Layer_9" data-name="Layer 9"><path class="cls-2" d="M167.51,117.34V94a26.67,26.67,0,0,0-26.63-26.62h-13A26.67,26.67,0,0,0,101.21,94v23.35A26.67,26.67,0,0,0,127.83,144h13a26.67,26.67,0,0,0,26.63-26.62Z"/></g><g id="Layer_8" data-name="Layer 8"><path d="M89.25,549.51l13.24,128.7L99.1,695.88s3.65,10,10.3,10,11-9.11,11-9.11L115,678.46s4.7-67.38,4.29-130.22c0,0-4.34-1.81-14.52-1.81S89.25,549.51,89.25,549.51Z"/><path class="cls-3" d="M167.18,137.65l-1.13-9q-31.94-13.65-65-2.22v10.61a26.68,26.68,0,0,0,26.63,26.62h11.76c7.34,0,14.75-2,20-7.24A25.64,25.64,0,0,0,167.18,137.65Z"/><path class="cls-4" d="M123,458.79q2.6-38,2.75-40.25a260.58,260.58,0,0,1-52.27-8L91.09,548.88s4.41-2.45,13.72-2.45,13.28,1.81,13.28,1.81c2.7-39.79,3.36-67.52,4.86-89.45"/><path class="cls-1" d="M163,677.88l4,17.67s-4,11.94-10.75,11.91c-7.08,0-11.7-11.22-11.7-11.22l5.87-18.11Z"/><path d="M159.86,546.43c-10.17,0-14.51,1.81-14.51,1.81-.41,62.84,4.29,130.22,4.29,130.22l-5.34,18.3s4.32,9.11,11,9.11,10.3-10,10.3-10l-3.39-17.67,13.23-128.7S170,546.43,159.86,546.43Z"/><path class="cls-4" d="M141.72,458.79c1.51,21.93,2.17,49.66,4.86,89.45,0,0,4-1.81,13.28-1.81s13.73,2.45,13.73,2.45L191.25,410.5a260.56,260.56,0,0,1-52.28,8q.17,2.2,2.75,40.25"/><path class="cls-5" d="M168,128.7v8.39a26.67,26.67,0,0,1-26.62,26.62H129.57a26.67,26.67,0,0,1-26.63-26.62V126.48c-1.24.44-2.48.9-3.73,1.37-3.6,1.42-7.21,3-10.83,4.89-17.4,8.73-46.58,28.09-59.7,63.43l47.68,25.28s.79,12.07,2.53,27.07a71.78,71.78,0,0,1-.14,17.18L60.25,406.77q6.61,2,13.18,3.73a260.58,260.58,0,0,0,52.27,8q6.81.31,13.54.26l1.38,0a235.74,235.74,0,0,0,50.63-6.22c.39-.08.76-.17,1.11-.26q6.48-1.53,12.87-3.46c2.51-55.56-17-167-16.34-172.72s4.5-16.81,4.5-16.81l34.74-25.67C217.83,148.34,192.75,138,168,128.7M135.42,183c-3,0-6.36-1.55-10.11-4.66L123.75,177a41,41,0,0,0,11,1.33q11.41,0,23.21-7.24a76.09,76.09,0,0,0,8-5.72q3.9-3.24,5-4.13l.44-.44a33.67,33.67,0,0,1-14.6,16.91Q147.72,183,135.42,183m39.23,73.89q-2.47,2.63-11.05,6.35a59.47,59.47,0,0,1-18.46,5.19c-4,.06-7,.15-8.92.27a32.89,32.89,0,0,0-10,2.13c-1.68,1-2.88,1.71-3.59,2-1.07.44-3.8.67-8.21.67q-7.55,0-15.36-8.35-6.69-7.1-7.5-12a23.47,23.47,0,0,1,0-6c.21-2.21.36-3.81.44-4.79q5.58,4.88,17.67,7,4.52.75,13.4,1.6,6.87.62,8.25,1.24a22.92,22.92,0,0,1,2.8,1.86,30.11,30.11,0,0,0,4.52,2.62q7.38,3.42,19.71,3.42a52.84,52.84,0,0,0,10.69-.93c2.87-.63,4.62-1.41,5.24-2.36h.44m-84.54,131q4.67-1,10.79-2.93a201.85,201.85,0,0,0,29.15-12.11q37.41-19,61.33-48a78.5,78.5,0,0,1-5.54,16.95,95.06,95.06,0,0,1-17.13,25.7,86.56,86.56,0,0,1-24.54,18.77,63.83,63.83,0,0,1-29.07,7.28q-19.84,0-22.28-3a5.29,5.29,0,0,0-1.24-2.09A3.63,3.63,0,0,0,90.11,387.87Z"/><path class="cls-6" d="M100.9,384.94q-6.14,1.95-10.79,2.93a3.63,3.63,0,0,1,1.47.62,5.29,5.29,0,0,1,1.24,2.09q2.45,3,22.28,3a63.83,63.83,0,0,0,29.07-7.28,86.56,86.56,0,0,0,24.54-18.77,95.06,95.06,0,0,0,17.13-25.7,78.5,78.5,0,0,0,5.54-16.95q-23.91,29-61.33,48a201.85,201.85,0,0,1-29.15,12.11m62.7-121.73q8.57-3.73,11.05-6.35h-.44c-.62.95-2.37,1.73-5.24,2.36a52.84,52.84,0,0,1-10.69.93q-12.34,0-19.71-3.42a30.11,30.11,0,0,1-4.52-2.62,22.92,22.92,0,0,0-2.8-1.86q-1.38-.63-8.25-1.24-8.88-.85-13.4-1.6-12.09-2.13-17.67-7c-.08,1-.23,2.58-.44,4.79a23.47,23.47,0,0,0,0,6q.81,4.88,7.5,12,7.81,8.34,15.36,8.35c4.41,0,7.14-.23,8.21-.67.71-.33,1.91-1,3.59-2a32.89,32.89,0,0,1,10-2.13c1.95-.12,4.93-.21,8.92-.27a59.47,59.47,0,0,0,18.46-5.19m-38.29-84.9c3.75,3.11,7.13,4.66,10.11,4.66q12.3,0,21.39-5.23a33.67,33.67,0,0,0,14.6-16.91l-.44.44q-1.11.89-5,4.13a76.09,76.09,0,0,1-8,5.72q-11.8,7.24-23.21,7.24a41,41,0,0,1-11-1.33Z"/></g><path class="cls-3" d="M122.24,105.89v22.94a11.67,11.67,0,0,0,3.46,8.43,11.85,11.85,0,0,0,20.24-8.43l-.35-8.12-23.35-14.82M110.66,37q-.52,16.34-5.81,16.6l-.36-.4a4.54,4.54,0,0,0-1.33-.71,3.11,3.11,0,0,0-3.46.79,7.07,7.07,0,0,0-1.07,1.25,8.07,8.07,0,0,0-.53,1.15q-1.34,5.77,2.49,12.69a29.28,29.28,0,0,0,2.75,4.22,11.13,11.13,0,0,0,.8,1c.11.11.23.25.35.39v7.55l.71,2.8c.14.54.28,1.07.45,1.59a23.55,23.55,0,0,0,8,11.67,33.4,33.4,0,0,0,8.61,5.24,39.31,39.31,0,0,0,4,1.38l1.82.35a40.28,40.28,0,0,0,6.52.62,34.11,34.11,0,0,0,8.79-1.15c.83-.18,1.64-.39,2.44-.62a32.12,32.12,0,0,0,10.74-5.68,23.8,23.8,0,0,0,8-13.4l.53-2.4.14-.4v-6c.41-.44.56-.75.44-.93l.75-1.6c.51-.8,1-1.65,1.47-2.57a22.68,22.68,0,0,0,2.57-7.06,14.12,14.12,0,0,0,0-5.54c0-.06,0-.12-.05-.18a6,6,0,0,0-1.59-2.4,4.28,4.28,0,0,0-1.34-.89,3.18,3.18,0,0,0-1-.13v-.31a7.22,7.22,0,0,0-.88.44,2,2,0,0,0-.31.14V36.08H149.49q-.11-11.47-3.15-17.93-.63,8.9-1.2,17.62L110.66,37M165.2,57.29a2.54,2.54,0,0,1,.45-.13,1.37,1.37,0,0,1,.75,0h0a1.82,1.82,0,0,1,1.2.71,3.66,3.66,0,0,1,.89,2,14.17,14.17,0,0,1-1.86,9.14,1.74,1.74,0,0,1-.23.4c-.38.68-.78,1.32-1.19,1.91,0,0-.05,0-.05,0v-14m-58.89,15.8v0l-.22-.27a25.35,25.35,0,0,1-4.17-5.1,14.15,14.15,0,0,1-1.87-9.15l.09-.48a4,4,0,0,1,.71-1.47,2,2,0,0,1,2.67-.44,10.9,10.9,0,0,1,1,.57l1.73,2.31.09,13.8L107.2,74Z"/><path class="cls-7" d="M122.24,102.78v3.11l23.35,14.82-.23-4.08.45-13.27c-.8.23-1.61.44-2.44.62a34.11,34.11,0,0,1-8.79,1.15,40.28,40.28,0,0,1-6.52-.62l-1.82-.35A39.31,39.31,0,0,1,122.24,102.78Z"/><path class="cls-8" d="M165.69,74.6c.12.18,0,.49-.44.93v6l-.14.4-.26,71.8q2.76-8.84,4.75-16.37,1.1-4.2,6.78-4.75l-5.9-69.19a22.68,22.68,0,0,1-2.57,7.06c-.47.92-1,1.77-1.47,2.57l-.75,1.6m-60.84-21q5.28-.27,5.81-16.6l34.48-1.2q.57-8.72,1.2-17.62,3,6.45,3.15,17.93h15.76V54.5a2,2,0,0,1,.31-.14,7.22,7.22,0,0,1,.88-.44v.31a3.18,3.18,0,0,1,1,.13,4.28,4.28,0,0,1,1.34.89,6,6,0,0,1,1.59,2.4c0,.06,0,.12.05.18l-.27-19.58-.57-2.17A40.18,40.18,0,0,0,159,11.76Q148.21,0,133,0T107.11,11.76A39.67,39.67,0,0,0,96.46,37q0,.57-.09,1.2l-.13,49.61q-.94,3.34-2.93,10.47-3.24,11.69-4.93,16.38-1,2.79-6.48,11.41-4.89,7.78-8,13.62c-.06,1.91.62,2.2,2,.89a8.33,8.33,0,0,1,5.28-2.18,6.41,6.41,0,0,1,5,1.6,57.09,57.09,0,0,1,5,7.28c.2.35.51,1,.93,2a7.19,7.19,0,0,0,2.08,2.39q3.15,2.34,10.61,2.75l.76-68.52c-.17-.52-.31-1.05-.45-1.59l-.71-2.8V73.93c-.12-.14-.24-.28-.35-.39a11.13,11.13,0,0,1-.8-1,29.28,29.28,0,0,1-2.75-4.22q-3.82-6.92-2.49-12.69a8.07,8.07,0,0,1,.53-1.15,7.07,7.07,0,0,1,1.07-1.25,3.11,3.11,0,0,1,3.46-.79,4.54,4.54,0,0,1,1.33.71Z"/><path class="cls-9" d="M106.31,73.14v0l.89.89-.89-1.07-.09-13.8-1.73-2.31a10.9,10.9,0,0,0-1-.57,2,2,0,0,0-2.67.44,4,4,0,0,0-.71,1.47l-.09.48a14.15,14.15,0,0,0,1.87,9.15,25.35,25.35,0,0,0,4.17,5.1l.22.27m59.34-16a2.54,2.54,0,0,0-.45.13v14s0,0,.05,0c.41-.59.81-1.23,1.19-1.91a1.74,1.74,0,0,0,.23-.4,14.17,14.17,0,0,0,1.86-9.14,3.66,3.66,0,0,0-.89-2,1.82,1.82,0,0,0-1.2-.71h0A1.37,1.37,0,0,0,165.65,57.16Z"/><path class="cls-10" d="M130.05,81.48a15.61,15.61,0,0,0,4,3.06q7.09,4,17.31,2.22l1.19-.27q-13.53,1-23.43-6.25A12.52,12.52,0,0,0,130.05,81.48Z"/><path class="cls-11" d="M137.07,95.19a8.18,8.18,0,0,0-2.58,3.2l13.32-6.22q-6.84-.17-10.74,3M124.37,62a17.49,17.49,0,0,1,7.1,1.6.36.36,0,0,0,.45-.18A.39.39,0,0,0,132,63a12.23,12.23,0,0,0-6.66-6,14.48,14.48,0,0,0-4.26-1.15q-6.48-.36-5.68,5.06a7.69,7.69,0,0,0,1.33,3.37c.71,1,1.24,1.21,1.6.8a8.2,8.2,0,0,1,6-3.11M163,64.35A7.57,7.57,0,0,0,164.31,61q.9-5.41-5.68-5.06a14.47,14.47,0,0,0-4.17,1.15,12.21,12.21,0,0,0-6.65,6,.56.56,0,0,0,0,.44.35.35,0,0,0,.44.18,19,19,0,0,1,7.19-1.6,8.2,8.2,0,0,1,6,3.11C161.83,65.56,162.33,65.3,163,64.35Z"/><path class="cls-12" d="M144.88,66.83a.7.7,0,0,0-.71-.53h-7.55a.7.7,0,0,0-.71.53.64.64,0,0,0,.27.8l3.64,2.93c.41.24.74.24,1,0l3.82-2.93A.65.65,0,0,0,144.88,66.83Z"/><path class="cls-13" d="M157.48,50.24a3.35,3.35,0,1,0-1,2.39,3.27,3.27,0,0,0,1-2.39m-35.55-2.4a3.39,3.39,0,0,0,4.8,4.79,3.55,3.55,0,0,0,0-4.79,3.43,3.43,0,0,0-4.8,0Z"/><path class="cls-8" d="M156.1,38.7a8.61,8.61,0,0,1,4,3.68c.3.53.73.61,1.29.22a1,1,0,0,0,.31-1.46,10.12,10.12,0,0,0-5-4.31,8.82,8.82,0,0,0-6.66.14.88.88,0,0,0-.53,1.28c.26.63.68.82,1.24.58a7.06,7.06,0,0,1,5.32-.13m-39,3.06a7.54,7.54,0,0,1,4.17-3.24,7.06,7.06,0,0,1,5.42.49c.56.32,1,.16,1.24-.49a.9.9,0,0,0-.4-1.33,9.14,9.14,0,0,0-6.66-.67,10,10,0,0,0-5.32,3.86,1.06,1.06,0,0,0,.22,1.47C116.22,42.32,116.67,42.29,117.05,41.76Z"/><path class="cls-14" d="M211.59,422.63l-.49.36A2.8,2.8,0,0,0,211.59,422.63Z"/><path class="cls-14" d="M212.53,417.2l-10.63-1.7c-2.33-.37-3.55-2.91-2.72-5.68l-1.71-193.54,25-18.5-4.16,212C217.51,412.53,214.86,417.57,212.53,417.2Z"/><path class="cls-14" d="M202,403.54c1.19-.12,2.25-.48,3.37,1.56h0v.07l.57,6.62-3.55.34-1.1-2.25-7.11,8.29h0a1.68,1.68,0,0,1-2.53.2,2.52,2.52,0,0,1,.2-3h0l8.88-11.18,1.28-.67"/><path class="cls-15" d="M194.45,417.3c-.77.94-1.87,1.28-2.45.74s-.44-1.76.33-2.72a4.44,4.44,0,0,1,.37-.38Z"/><path class="cls-14" d="M193.76,433.23c-.7,2.55-.46,4.77.58,5s2.52-1.53,3.38-4l6.91-22.35-4.5-.72Z"/><path class="cls-14" d="M198,435.32c-.7,2.54-.46,4.76.58,5s2.52-1.54,3.38-4L208.88,414l-4.5-.72Z"/><path class="cls-14" d="M203.3,433.76c-.7,2.54-.46,4.76.58,5s2.52-1.54,3.38-4l6.91-22.35-4.5-.72Z"/><path class="cls-14" d="M209.3,429.68c-.71,2.54-.61,4.74.26,5s2.2-1.59,3.05-4.1l5.73-20.78-2.64-2.18Z"/><path class="cls-15" d="M196.72,435.34c-.3,1.34-1.21,2.43-2.05,2.44s-1.31-1.16-.93-2.59l.52-.31Z"/><path class="cls-15" d="M201,437.46c-.3,1.33-1.21,2.42-2,2.44s-1.32-1.16-.94-2.59l.53-.32Z"/><path class="cls-15" d="M206.31,435.83c-.3,1.33-1.21,2.42-2.05,2.44s-1.31-1.16-.93-2.59l.52-.32Z"/><path class="cls-15" d="M211.5,432.22c-.25,1.08-1,2-1.61,2s-1-.9-.72-2l.5-.31Z"/><path class="cls-14" d="M70.8,318.62l.59-.15A3.64,3.64,0,0,1,70.8,318.62Z"/><path class="cls-14" d="M68.79,300.9,23,275.44l35-63.77L39.41,201.59S-3.12,272.79.18,283,59,317.55,59,317.55c2.66,1.12,5.78.38,7-1.66l5.44-9.29C72.64,304.57,71.45,302,68.79,300.9Z"/><path class="cls-14" d="M62.14,299.09c-.85.85-1.8,1.44-.93,3.59h0l0,0L66,307.37l2.52-2.53-1-2.28,6.63-.41.71-3.63H63.47l-1.33.57"/><path class="cls-14" d="M90.32,311.58c2.41,1.08,4,2.67,3.5,3.64s-2.78,1-5.26,0L66.91,306.4l2.3-3.93Z"/><path class="cls-14" d="M89.23,316.19c2.41,1.07,4,2.67,3.51,3.63s-2.79,1-5.27.05L65.82,311l2.3-3.94Z"/><path class="cls-14" d="M84.66,319.28c2.41,1.08,4,2.67,3.51,3.64s-2.78,1-5.27,0L61.25,314.1l2.31-3.93Z"/><path class="cls-14" d="M77.7,321.32c2.42,1.07,4,2.54,3.67,3.36s-2.62.69-5.09-.25l-21.64-8.89,1.94-3.3Z"/><path class="cls-15" d="M90.07,315.2c1.22.62,2.64.61,3.18,0s-.06-1.75-1.4-2.36l-.58.2Z"/><path class="cls-15" d="M89,319.86c1.22.61,2.64.6,3.18,0s-.06-1.75-1.4-2.36l-.58.2Z"/><path class="cls-15" d="M84.35,322.92c1.22.62,2.64.6,3.18,0s-.06-1.75-1.4-2.37l-.58.21Z"/><path class="cls-15" d="M78.27,324.64c1,.49,2.13.5,2.55,0s-.06-1.34-1.11-1.84l-.55.2Z"/></svg>