<svg id="Layer_1" data-name="Layer 1" xmlns="http://www.w3.org/2000/svg" viewBox="0 0 230.83 743.41"><defs><style>.cls-1{fill:#c1272d;}.cls-2{fill:#894f38;}.cls-3{fill:#ead2b2;}.cls-4{fill:#9b004a;}.cls-5{fill:#ccc;}.cls-6{fill:#b3b3b3;}.cls-7{fill:#723f2e;}.cls-8{fill:none;}.cls-9{fill:#f2f2f2;}.cls-10{fill:#4c4c4c;}.cls-11{fill:#aaa;opacity:0.3;}.cls-12{fill:#4c290d;}</style></defs><title>Artboard 9</title><path d="M53.26,94.77c0,30,27.75,16.92,47.63,16.92s45.51,14.39,45.51-15.62S147.67,0,103.74,0C60.18,0,53.26,64.77,53.26,94.77Z"/><path class="cls-1" d="M50.8,722.09a6.35,6.35,0,0,1-9-1.66L35.22,709.9,31,720.1a6.54,6.54,0,0,0-.14,4.65L36,739.43a5.92,5.92,0,0,0,9,2.87l12.42-8.86a16.84,16.84,0,0,0,7.06-13.71v-8.17Z"/><path class="cls-1" d="M137.53,722.09a6.35,6.35,0,0,0,9-1.66l6.61-10.53,4.2,10.2a6.54,6.54,0,0,1,.14,4.65l-5.09,14.68a5.92,5.92,0,0,1-9,2.87l-12.42-8.86a16.84,16.84,0,0,1-7.06-13.71v-8.17Z"/><path class="cls-2" d="M150.71,703.52l-.25-.6-7-30.14,9.83-308.53H57.64L45.52,666.33l-.25,6.45-7,30.14-.25.6-2.6,6.29L42,720.35A6.35,6.35,0,0,0,51,722l13.69-10.54V672.78L93.22,438.83A10.92,10.92,0,0,1,98,430.75a7.94,7.94,0,0,1,7.93-.35A11.08,11.08,0,0,1,112,440l12,232.77h0v38.69L137.73,722a6.35,6.35,0,0,0,9-1.66l6.6-10.54Z"/><polygon class="cls-2" points="21.83 391.17 40.8 393.72 35.16 282.98 15.96 281.34 21.83 391.17"/><path class="cls-3" d="M25.8,412.05l.38.48A3.48,3.48,0,0,1,25.8,412.05Z"/><path class="cls-2" d="M26.36,406.57l10.7,1.23c2.34.27,4.2-1.85,4.15-4.73L40,374.7,21.57,374,22,400.86C22.08,403.74,24,406.3,26.36,406.57Z"/><path class="cls-2" d="M40.18,396.25c-1.12-.43-2-1.07-3.66.59h0v.06l-2.34,6.22,3.33,1.29,1.67-1.87,4.61,9.9h0a1.67,1.67,0,0,0,2.38.88,2.52,2.52,0,0,0,.61-2.92h0l-5.53-13.17-1-1"/><path class="cls-4" d="M43.74,411.54c.49,1.12,1.46,1.74,2.17,1.38s.89-1.58.41-2.71a2.87,2.87,0,0,0-.25-.46Z"/><path class="cls-2" d="M40.11,427.07c0,2.64-.85,4.71-1.92,4.68s-2-2.16-2.16-4.81l-.62-23.38,4.53.52Z"/><path class="cls-2" d="M35.45,427.93c0,2.64-.84,4.71-1.91,4.68s-2-2.16-2.17-4.8l-.62-23.39,4.53.52Z"/><path class="cls-2" d="M30.78,425c0,2.64-.84,4.71-1.91,4.68s-2-2.16-2.17-4.8l-.62-23.39,4.53.52Z"/><path class="cls-2" d="M26.1,419.46c0,2.64-.69,4.72-1.59,4.71s-1.69-2.12-1.82-4.77L22.1,396l3.8.44Z"/><path class="cls-4" d="M36.69,428.3c-.07,1.37.51,2.66,1.31,2.9s1.52-.67,1.6-2.05a4,4,0,0,0,0-.6Z"/><path class="cls-4" d="M32,429.19c-.07,1.36.51,2.66,1.31,2.9s1.51-.68,1.59-2a4,4,0,0,0,0-.6Z"/><path class="cls-4" d="M27.33,426.19c-.08,1.36.51,2.66,1.31,2.9s1.51-.68,1.59-2a4.12,4.12,0,0,0,0-.61Z"/><path class="cls-4" d="M23.3,421.31c-.05,1.1.4,2.15,1,2.34s1.17-.55,1.23-1.66a2.66,2.66,0,0,0,0-.49Z"/><path class="cls-2" d="M206.38,238s25.7,37.88,24.4,45.69-49.59,38-49.59,38l-12.61-11.74,36.62-29.06-18.36-26.59"/><path class="cls-5" d="M99.69,350.92a2.18,2.18,0,0,0-2,2.33,2.46,2.46,0,0,0,.23,1l2.63-3.08A1.71,1.71,0,0,0,99.69,350.92Z"/><path class="cls-6" d="M100.56,351.19l-2.63,3.08a2,2,0,0,0,1.76,1.3,2.17,2.17,0,0,0,2-2.32A2.37,2.37,0,0,0,100.56,351.19Z"/><path class="cls-5" d="M99.69,344.08a2.17,2.17,0,0,0-2,2.32,2.47,2.47,0,0,0,.23,1l2.63-3.09A1.8,1.8,0,0,0,99.69,344.08Z"/><path class="cls-6" d="M100.56,344.34l-2.63,3.09a2,2,0,0,0,1.76,1.3,2.18,2.18,0,0,0,2-2.33A2.37,2.37,0,0,0,100.56,344.34Z"/><path class="cls-5" d="M99.69,358.46a2.17,2.17,0,0,0-2,2.32,2.46,2.46,0,0,0,.23,1l2.63-3.08A1.7,1.7,0,0,0,99.69,358.46Z"/><path class="cls-6" d="M100.56,358.72l-2.63,3.08a2,2,0,0,0,1.76,1.3,2.17,2.17,0,0,0,2-2.32A2.37,2.37,0,0,0,100.56,358.72Z"/><polygon class="cls-7" points="114.03 99.39 91.97 99.39 91.97 101.27 114.03 123.34 114.03 99.39"/><path class="cls-2" d="M92,101.27v26.44a11,11,0,1,0,22.06,0v-4.37Z"/><path class="cls-2" d="M103.74,103.08h0C88.1,103.08,80.31,93,77.41,74.75l-2-45.58a8.87,8.87,0,0,1,8.87-8.87H123.2a8.87,8.87,0,0,1,8.87,8.87l-2,45.58C128.06,92,119.39,103.08,103.74,103.08Z"/><circle cx="116.6" cy="54.33" r="3.13"/><circle cx="88.84" cy="54.33" r="3.13"/><path class="cls-7" d="M99.9,70.51l3.42,2.75a.69.69,0,0,0,.85,0l3.56-2.76a.69.69,0,0,0-.42-1.23h-7A.69.69,0,0,0,99.9,70.51Z"/><path class="cls-2" d="M77.41,74.75s-8.58-6.7-6.83-15.19a1.34,1.34,0,0,1,.15-.41c.48-.84,2.52-3.82,5.94-1.34Z"/><path class="cls-7" d="M77.29,72.15s-6-4.21-4.92-10.82c0,0,.71-4.26,4.21-1.62Z"/><path d="M113.46,42.42c3-2.27,6.71-1.61,9.28,1,.84.84,2-.62,1.14-1.45a8.68,8.68,0,0,0-11.53-1,.92.92,0,0,0,1.11,1.47Z"/><path d="M95.12,39.67a8.68,8.68,0,0,0-11,3.52c-.62,1,.8,2.16,1.43,1.16,1.93-3.07,5.41-4.54,8.84-3a.92.92,0,0,0,.75-1.68Z"/><path class="cls-7" d="M103.25,95.28s-4.65-2.78,5.51-2.59Z"/><path class="cls-8" d="M103,49.4v-6a8.66,8.66,0,0,1-1.39-3.5A53.91,53.91,0,0,0,103,49.4Z"/><path class="cls-2" d="M129.86,74.79s8.58-6.71,6.84-15.2a1.59,1.59,0,0,0-.16-.41c-.48-.83-2.52-3.82-5.94-1.34Z"/><path class="cls-7" d="M130,72.19s6-4.21,4.92-10.82c0,0-.71-4.26-4.2-1.62Z"/><path d="M76.63,56.84l-4.5-30.66,5.81-9.94L96.4,13.41,131,17.79l1.54,6.58s9.07,31.35-1.65,32.47h0s-2-26.68-14.25-15.74C105.41,51.12,75.74,6.85,76.63,56.84Z"/><path class="cls-9" d="M124.77,126.69a21.73,21.73,0,0,1,.5,4.59,21.42,21.42,0,1,1-42.83,0,21.1,21.1,0,0,1,.51-4.59s-36.59,21.87-36.59,36.4l7.82,161.32,98-1.81L161.48,156C161.48,141.52,124.77,126.69,124.77,126.69Z"/><polygon class="cls-10" points="54.19 321.67 152.14 321.67 168.58 542.56 37.69 543.17 54.19 321.67"/><path class="cls-11" d="M72.11,217.66c1.52-4.3,5.93-12.06,18.46-15.36a21.65,21.65,0,0,1,16.94,2.44c4.27,2.76,11,5.57,19,3.39,9.13-2.5,10.9-12.33,3.4-17.36a26.61,26.61,0,0,0-11.77-4.9s-48.94-7.63-47.05,31.68C71.09,218.05,71.94,218.14,72.11,217.66Z"/><path class="cls-11" d="M60.83,253.29s28.46,17.6,84.75,40.75L138.35,297c-34.66,14.12-73.72-7.9-77.52-43.7Z"/><path class="cls-2" d="M103.83,152.77a21.42,21.42,0,0,0,21.42-21.42,21,21,0,0,0-.51-4.58l-22.55-5.23-19.27,5.23a21.64,21.64,0,0,0-.51,4.58A21.42,21.42,0,0,0,103.83,152.77Z"/><path class="cls-3" d="M160.24,334.41h-.61A4.16,4.16,0,0,0,160.24,334.41Z"/><path class="cls-2" d="M164.12,330.5l-7.73-7.5c-1.69-1.64-1.23-4.42,1-6.21l25-17.12,9.9,13.88-21.08,16.67C169,332,165.82,332.13,164.12,330.5Z"/><path class="cls-2" d="M163.35,313.27c1,.59,2.11.9,1.85,3.21h0l0,0-3.33,5.76-3.1-1.76.38-2.48-6.74,1.73.2-4.12,9.34-2.58,1.44.19"/><path class="cls-2" d="M139.55,332.86c-2,1.69-3.11,3.64-2.4,4.45s2.94.18,5.08-1.37l18.48-14.35-3.27-3.17Z"/><path class="cls-2" d="M141.83,337c-2,1.68-3.1,3.64-2.4,4.44s2.94.19,5.09-1.37L163,325.74l-3.28-3.17Z"/><path class="cls-2" d="M147.06,338.76c-2,1.69-3.11,3.64-2.4,4.45s2.94.18,5.08-1.37l18.48-14.35L165,324.32Z"/><path class="cls-2" d="M154.32,338.86c-2,1.68-3.22,3.54-2.64,4.22s2.71,0,4.84-1.6L175,327.11l-2.75-2.66Z"/><path class="cls-4" d="M140.76,336.29c-1,.92-2.38,1.29-3.07.82s-.44-1.6.57-2.53a4.45,4.45,0,0,1,.48-.38Z"/><path class="cls-4" d="M143.06,340.48c-1,.92-2.39,1.29-3.08.82s-.44-1.6.58-2.53a5.58,5.58,0,0,1,.47-.38Z"/><path class="cls-4" d="M148.34,342.19c-1,.92-2.38,1.29-3.08.82s-.43-1.6.58-2.53a4,4,0,0,1,.47-.37Z"/><path class="cls-4" d="M154.66,342.21c-.82.74-1.92,1.05-2.46.69s-.31-1.25.51-2a3.68,3.68,0,0,1,.38-.31Z"/><path class="cls-9" d="M47.2,159S8.52,271.46,10.28,270.58s36.81,11.88,36.81,11.88,3.12-47.07,3-49.73S47.2,159,47.2,159Z"/><rect class="cls-9" x="1.16" y="269.64" width="50.65" height="25.65" rx="4" transform="translate(46.94 -0.5) rotate(9.49)"/><path class="cls-9" d="M157.46,147.17S203.73,220,202,219.07s-28.1,22.47-28.1,22.47-18.6-25.26-18.49-27.92S157.46,147.17,157.46,147.17Z"/><rect class="cls-9" x="167.03" y="225.14" width="50.65" height="25.65" rx="4" transform="translate(489.11 312.53) rotate(143.06)"/><path d="M96.69,33.44a18.67,18.67,0,0,1-.56-2,16.77,16.77,0,0,1,8.15-18,14,14,0,0,0-1.79.26,16.77,16.77,0,0,0-13,19.82,15.48,15.48,0,0,0,.56,2,16.79,16.79,0,0,0,21,10.52,17,17,0,0,0,3.08-1.36A16.8,16.8,0,0,1,96.69,33.44Z"/><path class="cls-12" d="M113.26,86l-19,2.5s6.38,4.14,18.16-2l.87-.46"/></svg>