<svg id="Layer_1" data-name="Layer 1" xmlns="http://www.w3.org/2000/svg" viewBox="0 0 232.34 793.65"><defs><style>.cls-1{fill:#894f38;}.cls-2{fill:#f2f2f2;}.cls-3{fill:#ff1d25;}.cls-4{fill:#000130;}.cls-5{fill:#723f2e;}.cls-6{fill:#4c290d;}.cls-7{fill:#42210b;}.cls-8,.cls-9{fill:#603813;}.cls-8{opacity:0.2;}.cls-9{opacity:0.4;}.cls-10{fill:#e6e6e6;}.cls-11,.cls-12{fill:#1d1d1b;}.cls-12{opacity:0.46;}.cls-13{fill:#bf3717;}</style></defs><title>Artboard 14</title><polygon class="cls-1" points="84.98 694.09 107.23 701.13 104.92 737.95 86.06 737.95 84.98 694.09"/><polygon class="cls-2" points="86.16 741.98 104.67 741.98 104.6 743.02 86.19 743.02 86.16 741.98"/><polygon class="cls-2" points="103.35 762.9 86.7 764.13 86.22 744.49 104.51 744.49 103.35 762.9"/><polygon class="cls-2" points="86.06 737.95 104.92 737.95 104.76 740.51 86.12 740.51 86.06 737.95"/><polygon class="cls-3" points="86.12 740.51 104.76 740.51 104.67 741.98 86.16 741.98 86.12 740.51"/><polygon class="cls-3" points="104.6 743.02 104.51 744.49 86.22 744.49 86.19 743.02 104.6 743.02"/><polygon class="cls-1" points="129.93 694.09 152.17 701.13 149.86 737.95 131.01 737.95 129.93 694.09"/><polygon class="cls-2" points="131.11 741.98 149.61 741.98 149.55 743.02 131.13 743.02 131.11 741.98"/><polygon class="cls-2" points="148.3 762.9 131.65 764.13 131.17 744.49 149.45 744.49 148.3 762.9"/><polygon class="cls-2" points="131.01 737.95 149.86 737.95 149.7 740.51 131.07 740.51 131.01 737.95"/><polygon class="cls-3" points="131.07 740.51 149.7 740.51 149.61 741.98 131.11 741.98 131.07 740.51"/><polygon class="cls-3" points="149.55 743.02 149.45 744.49 131.17 744.49 131.13 743.02 149.55 743.02"/><path class="cls-4" d="M53.73,361.48H182L154.21,747.79h-25l-6.59-306.92s-4.5-8.89-7.94.51l-5.93,306.41H80Z"/><polygon class="cls-5" points="130.1 92.6 103.85 92.6 103.85 94.53 130.1 117.1 130.1 92.6"/><path class="cls-1" d="M103.85,94.53v27.05c0,6.24,5.88,11.29,13.13,11.29s13.12-5.05,13.12-11.29V117.1Z"/><path class="cls-1" d="M145.9,69.05s8.26-9,6.29-17.77c0,0-2.06-5.27-6.09-2.34Z"/><path class="cls-1" d="M127.11,96.38h-20c-10.49,0-15.71-18.2-18.9-27.2l-.09-48.24C88.13,12.66,102.2,0,110.48,0h13.66c8.28,0,22,12.66,22,20.94V69.05C141.4,80.24,137.6,96.38,127.11,96.38Z"/><path class="cls-5" d="M113.18,63.05l3.5,2.82a.72.72,0,0,0,.88,0l3.64-2.82a.7.7,0,0,0-.43-1.26h-7.15A.7.7,0,0,0,113.18,63.05Z"/><path class="cls-5" d="M146.1,65.62s5.37-5.55,4.3-12.31c0,0-.73-4.36-4.3-1.66Z"/><path class="cls-1" d="M88.22,69.18S80.07,60.43,82,51.64c0,0,2.06-5.27,6.09-2.35Z"/><path class="cls-5" d="M88.13,66s-5.37-5.54-4.3-12.3c0,0,.73-4.36,4.3-1.66Z"/><path class="cls-6" d="M108.35,75.29s4.49,6.15,17.69,4.58l1-.13Z"/><path class="cls-7" d="M127.1,46.17a1.86,1.86,0,0,0,0,.33,3.21,3.21,0,0,0,6.41,0c0-.11,0-.22,0-.33Z"/><path class="cls-7" d="M98.66,46.5a3.21,3.21,0,0,0,6.41,0c0-.11,0-.22,0-.33H98.69C98.68,46.28,98.66,46.39,98.66,46.5Z"/><path class="cls-8" d="M107.39,71.45a8.63,8.63,0,0,1,1.36.12s-.11-.37-.19-.54a5,5,0,1,0-7.25,6.37c.48.3,1.45.74,1.58.63s-.21-.82-.24-1.25A5.05,5.05,0,0,1,107.39,71.45Z"/><path class="cls-9" d="M123.2,51.13s1,5.92,7.14,5.64Z"/><path class="cls-9" d="M109.3,51.13s-1,5.92-7.14,5.64Z"/><path class="cls-10" d="M146.53,131.33,88.84,170.14S142.89,187.82,146.53,131.33Z"/><path class="cls-2" d="M134.31,117.1H130.1v4.48c0,6.24-5.87,11.29-13.12,11.29s-13.13-5.05-13.13-11.29V117.1H99.92c-37.5,0-59.44,30.4-59.44,67.9L53.73,365.12,182,361.48,192.06,185C192.06,147.5,171.81,117.1,134.31,117.1Z"/><rect class="cls-2" x="96.62" y="109.6" width="42.13" height="26.96"/><path class="cls-2" d="M90.74,786.7l-61.25,3.2-1.89-.55-.48,1.56a2.12,2.12,0,0,0,2.13,2.74L93.7,790.4l11-2a3,3,0,0,0,2.45-3.54l-.2-1.11Z"/><path d="M105.55,758.13l-21.32,2.35L75,767.13,31.77,784.77a7.19,7.19,0,0,0-3.9,3.84c-.09.23-.18.46-.26.69v.05l1.89.55,61.25-3.2,16.24-3,0-.15,0-5.55Z"/><path class="cls-2" d="M146.4,785.18l61.25,3.2,1.9-.55.48,1.55a2.12,2.12,0,0,1-2.13,2.74l-64.46-3.25-11-2a3,3,0,0,1-2.44-3.53l.2-1.11Z"/><path d="M130.17,756.68l21.23,2.63,10.77,6.29,43.21,17.64a7.21,7.21,0,0,1,3.89,3.84,5.89,5.89,0,0,1,.26.7l0,.05-1.9.55-61.25-3.2-16.23-3,0-.15,0-5.75Z"/><polygon class="cls-1" points="167.29 195.36 201.28 216.44 196.25 234.18 167.29 214.77 167.29 195.36"/><polygon class="cls-1" points="65.25 193.55 31.26 214.64 36.3 232.37 65.25 212.96 65.25 193.55"/><path class="cls-2" d="M167.3,195.36,46.85,223.59l10.82-84.42c.62-4.87-7.41,4.92-10.41,10.85l-47,98.76a8.86,8.86,0,0,0,.55,5.82l10.57,22.91a8.89,8.89,0,0,0,11.79,4.36l151.18-61.29Z"/><path class="cls-2" d="M65.25,193.55l120.44,28.23-10.82-84.42c-.62-4.87,9.42,7.16,9.42,10.91l46.47,98c2,2.57,1.84,4.62,1,6.51l-10.57,22.92a8.88,8.88,0,0,1-11.79,4.35L58.19,218.78Z"/><path class="cls-10" d="M173.35,218.49,125.1,247s-8.46-1.26-10.68-1.86Z"/><polygon class="cls-10" points="118.55 243.25 126.17 246.34 48.79 282.68 47.26 271.98 118.55 243.25"/><path class="cls-10" d="M117.54,243.88l68.1,27.77s-79.18-21.94-81.4-22.53Z"/><rect class="cls-11" x="94.7" y="40.84" width="12.68" height="2.64" rx="1.32"/><rect class="cls-11" x="125.56" y="40.18" width="12.68" height="2.64" rx="1.32"/><path class="cls-12" d="M106.05,57H98.27c-4.26,0-7.72-5.56-7.72-12.42h23.22C113.77,51.42,110.31,57,106.05,57Z"/><path class="cls-12" d="M136.31,57h-7.79c-4.26,0-7.71-5.56-7.71-12.42H144C144,51.42,140.57,57,136.31,57Z"/><rect class="cls-13" x="88.22" y="44.56" width="57.88" height="1.61"/><polygon class="cls-13" points="86.71 48.41 88.22 49.41 88.22 44.56 88.22 44.56 86.71 48.41"/><polygon class="cls-13" points="147.58 48.41 146.07 49.41 146.07 44.56 146.07 44.56 147.58 48.41"/><path class="cls-11" d="M121.22,66.32h-9.29c-8.68,0-15.31,5.81-15.31,14.49l-8.4-11.63c0,8.68,1.76,37.39,10.44,37.39h39.58c8.68,0,7.86-29.8,7.86-38.48l-9.16,14A15.72,15.72,0,0,0,121.22,66.32ZM116.6,86.45c-5,0-10.87-6.18-10.87-8.74s5.83-7.25,10.85-7.25,11.52,4.68,11.52,7.25S121.62,86.45,116.6,86.45Z"/></svg>