<svg id="Layer_1" data-name="Layer 1" xmlns="http://www.w3.org/2000/svg" viewBox="0 0 216.97 738.16"><defs><style>.cls-1{fill:#ead2b2;}.cls-2{fill:#ff8b00;}.cls-3{fill:#633b10;}.cls-4{fill:#020549;}.cls-5{fill:#c4af6c;}.cls-6{fill:#ceaf8e;}.cls-7{fill:#4c290d;}.cls-8{fill:#603813;opacity:0.2;}.cls-9{fill:#aa924f;}.cls-10{fill:#9b004a;}.cls-11{opacity:0.1;}</style></defs><title>Artboard 8</title><path class="cls-1" d="M41.52,198l-38,202c-.57,2.83.77,5.74,3,6.51l10.19,3.5c2.22.77,4.49-.9,5.06-3.73L55.17,210.67"/><path class="cls-1" d="M176.48,201.14l37.32,193.7c.52,2.83-.88,5.72-3.12,6.45l-10.24,3.32c-2.24.72-4.48-1-5-3.83L156.9,202.52"/><path class="cls-2" d="M147.2,55c-.84-30.37-18.14-55-40.52-55S66.91,24.64,66.17,55c-1.13,46.19-29,87.19-50.26,87.77a35.32,35.32,0,0,0,15.39,9.46c17.54,5.18,65.13-7.51,77.32-7.51,10.85,0,56.81,12.41,73.42,7.51a35.32,35.32,0,0,0,15.39-9.46C176.18,142.21,148.78,112.48,147.2,55Z"/><path class="cls-3" d="M165.21,714.85l-5-8.92-1.73-4.19-.25-.6-9.39-81.37,9.83-276.92H63L50.89,613.32,53,671l-7,30.15-.25.6L44.45,705l-.2-.31-4.2,10.2a6.59,6.59,0,0,0-.14,4.65L45,734.17a5.92,5.92,0,0,0,9,2.88l12.42-8.86a16.85,16.85,0,0,0,7.06-13.72l-1.07-7.34V671L98.59,385.83a10.92,10.92,0,0,1,4.76-8.08,7.94,7.94,0,0,1,7.93-.35,11.08,11.08,0,0,1,6.06,9.6l14.44,284h0v35.37l-.06-.05v8.16a16.85,16.85,0,0,0,7.06,13.72l12.42,8.86a5.91,5.91,0,0,0,9-2.88l5.09-14.67A6.54,6.54,0,0,0,165.21,714.85Z"/><path class="cls-4" d="M55.62,326.16l108.52,3.14-9,341.69H131.78l-20-278.28a6.84,6.84,0,0,0-2.36-5.42c-1.68-1.38-4-1.67-5.9,3.65L72.45,671H50.76Z"/><path class="cls-5" d="M142.77,136.52s-21.41-6.87-34.23-6.87S74,136.41,74,136.41c-14,0-22.61,28.12-22.61,42.16V354.13l114.35-3.42V178.57C165.71,164.53,156.82,136.52,142.77,136.52Z"/><polygon class="cls-6" points="94.13 106.42 94.13 108.35 104.63 117.39 120.38 130.93 120.38 120.51 120.38 106.42 94.13 106.42"/><path class="cls-1" d="M120.38,130.93c-.61,5.74-6.28,15.76-13.12,15.76s-12.52-10-13.13-15.76l-5.23,1.53s-13.54,42.22,18.36,41.11c32.51-1.14,21.47-40.91,21.47-40.91Z"/><path class="cls-1" d="M104.63,117.39l-10.5-9v27.06a8.94,8.94,0,0,0,.06,1c.61,5.74,6.23,10.24,13.07,10.24s12.45-4.5,13.06-10.24a8.94,8.94,0,0,0,.06-1v-4.48Z"/><path class="cls-1" d="M136.18,82.87s8.26-9,6.29-17.76c0,0-2.06-5.28-6.09-2.35Z"/><path class="cls-1" d="M117.39,110.05h-20c-9,0-17.88-18.18-18.91-28l-.08-43.73a15,15,0,0,1,15-15h28a15,15,0,0,1,15,15l-.18,44C136.38,91.87,126.55,109.62,117.39,110.05Z"/><path class="cls-6" d="M103.46,76.88l3.5,2.81a.71.71,0,0,0,.88,0l3.64-2.82a.7.7,0,0,0-.43-1.26H103.9A.71.71,0,0,0,103.46,76.88Z"/><path class="cls-6" d="M136.38,79.44s5.37-5.55,4.3-12.31c0,0-.73-4.36-4.3-1.65Z"/><path class="cls-1" d="M78.5,83s-8.15-8.75-6.18-17.54c0,0,2.06-5.27,6.09-2.35Z"/><path class="cls-6" d="M78.41,79.8S73,74.25,74.11,67.49c0,0,.73-4.36,4.3-1.66Z"/><path class="cls-7" d="M96.73,92.42s5.61,5.15,18.25,1l.94-.32Z"/><path class="cls-8" d="M113.07,97.38s-5.8,5.54-12.22.28a26.49,26.49,0,0,0,6.11.53A35.94,35.94,0,0,0,113.07,97.38Z"/><circle cx="119.79" cy="59.1" r="3.13"/><circle cx="92.03" cy="59.1" r="3.13"/><path d="M116.66,47.2c3-2.28,6.71-1.61,9.28.95.84.84,2-.62,1.14-1.44a8.67,8.67,0,0,0-11.53-1,.92.92,0,0,0,1.11,1.47Z"/><path d="M98.48,48.3a8.67,8.67,0,0,0-10.84-4c-1.1.4-.71,2.2.41,1.8,3.41-1.23,7.06-.25,8.81,3.08a.92.92,0,0,0,1.62-.86Z"/><path class="cls-2" d="M137.34,24c-4.59-8-12.2-12.17-17-9.4a6.33,6.33,0,0,0-1.84,1.66,15.07,15.07,0,0,0-5.69-9.66c-8.64-6.3-23.27-1-32.68,12S70.1,47,78.74,53.32s23.27,1,32.67-12a40.38,40.38,0,0,0,6.26-12.59A26.43,26.43,0,0,0,120,34c4.6,8,12.21,12.17,17,9.4S141.94,32,137.34,24Z"/><polygon class="cls-5" points="153.47 142.41 204.26 193.88 165.18 213.14 153.47 142.41"/><polygon class="cls-9" points="192.61 182.07 204.26 193.88 165.18 213.14 164.16 197.55 192.61 182.07"/><polygon class="cls-5" points="60.06 146.3 9.53 200.34 55.55 217.84 60.06 146.3"/><polygon class="cls-9" points="19.93 187.41 9.53 200.34 50.76 216.06 52.41 201.14 19.93 187.41"/><path class="cls-1" d="M4.81,411.8l.27.55A3.12,3.12,0,0,1,4.81,411.8Z"/><path class="cls-1" d="M22.25,399.46c-1-.66-1.76-1.48-3.7-.2h0l0,.06-3.62,5.57,3,2,2-1.46,2.37,10.66h0c.32,1.11,1.25,1.72,2.13,1.37a2.53,2.53,0,0,0,1.23-2.72h0l-2.57-14-.82-1.2"/><path class="cls-10" d="M22.45,415.16c.23,1.2,1.05,2,1.82,1.81s1.21-1.34,1-2.55a3.8,3.8,0,0,0-.15-.51Z"/><path class="cls-1" d="M15.56,429.55c-.58,2.57-1.84,4.42-2.88,4.15s-1.5-2.54-1.08-5.15l4.42-23,4.31,1.48Z"/><path class="cls-1" d="M10.83,429.39C10.25,432,9,433.81,8,433.55s-1.5-2.55-1.08-5.16l4.42-23,4.31,1.48Z"/><path class="cls-1" d="M6.9,425.52c-.59,2.58-1.84,4.42-2.88,4.16s-1.5-2.54-1.08-5.16l4.42-23L11.67,403Z"/><path class="cls-1" d="M3.52,419.1C3,421.68,1.83,423.57,1,423.36s-1.19-2.43-.76-5l4.46-23,3.61,1.24Z"/><path class="cls-10" d="M12,430c-.37,1.31-.08,2.71.65,3.11s1.63-.33,2-1.66a3.86,3.86,0,0,0,.12-.59Z"/><path class="cls-10" d="M7.18,429.87c-.36,1.32-.07,2.71.66,3.11s1.62-.33,2-1.65a4.34,4.34,0,0,0,.11-.59Z"/><path class="cls-10" d="M3.26,425.94c-.36,1.31-.07,2.7.66,3.11s1.63-.34,2-1.66A4.12,4.12,0,0,0,6,426.8Z"/><path class="cls-10" d="M.39,420.31c-.29,1.07-.08,2.18.48,2.5s1.27-.28,1.57-1.36a4.3,4.3,0,0,0,.09-.47Z"/><path class="cls-1" d="M212.31,406.56l-.27.53A2.4,2.4,0,0,0,212.31,406.56Z"/><path class="cls-1" d="M195.11,393.9c1-.64,1.78-1.45,3.7-.14h0l0,.07,3.52,5.63-3,1.92-2-1.51-2.56,10.62h0c-.35,1.11-1.29,1.7-2.16,1.33a2.49,2.49,0,0,1-1.18-2.74h0l2.83-14,.84-1.18"/><path class="cls-10" d="M194.62,409.59c-.26,1.2-1.08,2-1.85,1.78s-1.19-1.37-.93-2.57a2.74,2.74,0,0,1,.15-.51Z"/><path class="cls-1" d="M201.25,424.1c.53,2.59,1.76,4.45,2.8,4.21s1.54-2.51,1.17-5.14l-4-23-4.34,1.4Z"/><path class="cls-1" d="M206,424c.54,2.58,1.76,4.45,2.8,4.21s1.55-2.52,1.18-5.14l-4-23.05-4.33,1.41Z"/><path class="cls-1" d="M210,420.24c.54,2.58,1.76,4.45,2.8,4.2s1.55-2.51,1.18-5.13l-4-23.05-4.33,1.4Z"/><path class="cls-1" d="M213.48,413.87c.52,2.59,1.61,4.5,2.48,4.31s1.24-2.41.86-5l-4-23-3.64,1.18Z"/><path class="cls-10" d="M204.84,424.64c.34,1.32,0,2.7-.71,3.1s-1.62-.37-2-1.7a5.59,5.59,0,0,1-.11-.59Z"/><path class="cls-10" d="M209.62,424.58c.34,1.32,0,2.7-.72,3.1s-1.62-.37-2-1.7a3.84,3.84,0,0,1-.11-.59Z"/><path class="cls-10" d="M213.61,420.71c.33,1.33,0,2.71-.72,3.1s-1.62-.36-2-1.69a4.28,4.28,0,0,1-.1-.59Z"/><path class="cls-10" d="M216.59,415.14c.27,1.07,0,2.19-.54,2.49s-1.26-.31-1.53-1.38a4,4,0,0,1-.09-.48Z"/><path class="cls-11" d="M133,206.89c2,6.49,3.51,20-9.77,37.26C117.11,252.08,108,258,98.81,259.66c-8.15,1.49-19.59,5.59-28,16.65C61.26,289,68.11,302,82.62,299.61c5.54-.92,12.72-2.4,19.94-7.16,0,0,71.07-44.17,31.91-86.56C134,205.35,132.77,206.16,133,206.89Z"/></svg>