<svg id="Layer_1" data-name="Layer 1" xmlns="http://www.w3.org/2000/svg" viewBox="0 0 257.79 863.03"><defs><style>.cls-1{fill:none;stroke:#001e42;stroke-miterlimit:10;stroke-width:1.2px;}.cls-2{fill:#002142;}.cls-3,.cls-4{fill:#4a59af;}.cls-12,.cls-3{opacity:0.2;}.cls-13,.cls-4{opacity:0.4;}.cls-5{fill:#8e0c09;}.cls-6{fill:#a31414;}.cls-7{fill:#020549;}.cls-8{fill:#894f38;}.cls-9{fill:#ead2b2;}.cls-10{fill:#ceaf8e;}.cls-11{fill:#4c290d;}.cls-12,.cls-13{fill:#603813;}.cls-14{fill:#c16d53;}.cls-15{fill:#b73f03;}.cls-16{fill:#fff;}.cls-17{fill:#f2f2f2;}.cls-18{fill:#f15a22;fill-rule:evenodd;}.cls-19{fill:#003974;}</style></defs><title>Artboard 11</title><path d="M230,846.29l-73.7,8.76v6.64a1.22,1.22,0,0,0,1.06,1.34h16.4a1.08,1.08,0,0,0,.92-.74c1.14-2.69,3.39-4.53,6-4.53s4.83,1.84,6,4.53a1.06,1.06,0,0,0,.92.74h33.18c.55,0,4.87,0,5.62-.64Z"/><path class="cls-1" d="M185.06,775.19l3.79-7.54a1.74,1.74,0,0,1,3.24.21l1,2.79a2,2,0,0,1-1.21,2.6Z"/><path class="cls-1" d="M185.58,775.19l5.37.54a1.35,1.35,0,0,1,.75,2.24l-1.34,1.45a1.15,1.15,0,0,1-1.82-.12Z"/><path class="cls-1" d="M185.94,775.63s-4,12.33,14.87,9.14"/><path class="cls-1" d="M184.11,776.17s-10.08,7.21,6.76,17"/><path class="cls-2" d="M230.22,843.9c0-7-7-15.74-14.47-12.77-7.74,3.06-11.7,1.13-13.72-.24l-11.45-9.44a12.94,12.94,0,0,1-4.27-10V771.94c0-2.93-1.87-5.3-4.17-5.3H160.49c-2.31,0-4.18,2.37-4.18,5.3v84.73H218a8.26,8.26,0,0,0,4.11-1.31C226.91,853.28,230.22,848.94,230.22,843.9Z"/><ellipse class="cls-3" cx="219.41" cy="839.89" rx="5.27" ry="5.7"/><ellipse class="cls-4" cx="221.46" cy="840.72" rx="3.22" ry="3.48"/><path d="M65.1,844.1l73.7,8.76v6.64a1.22,1.22,0,0,1-1.06,1.34h-16.4a1.08,1.08,0,0,1-.92-.74c-1.14-2.69-3.39-4.53-6-4.53s-4.83,1.84-6,4.53a1.06,1.06,0,0,1-.92.74H74.38c-.55,0-4.87,0-5.62-.64Z"/><path class="cls-1" d="M110.05,773l-3.79-7.54a1.74,1.74,0,0,0-3.24.21l-1,2.79a2,2,0,0,0,1.21,2.6Z"/><path class="cls-1" d="M109.53,773l-5.37.54a1.35,1.35,0,0,0-.75,2.24l1.34,1.45a1.15,1.15,0,0,0,1.82-.12Z"/><path class="cls-1" d="M109.17,773.44s4,12.33-14.87,9.14"/><path class="cls-1" d="M111,774s10.09,7.2-6.76,17"/><path class="cls-2" d="M64.89,841.71c0-7.05,7-15.74,14.47-12.77,7.74,3.06,11.7,1.14,13.72-.24l11.45-9.44a12.94,12.94,0,0,0,4.27-10V769.75c0-2.93,1.87-5.3,4.17-5.3h21.65c2.31,0,4.18,2.37,4.18,5.3v84.74H77.11A8.21,8.21,0,0,1,73,853.17C68.2,851.09,64.89,846.75,64.89,841.71Z"/><ellipse class="cls-3" cx="75.7" cy="837.71" rx="5.27" ry="5.7"/><ellipse class="cls-4" cx="73.65" cy="838.53" rx="3.22" ry="3.48"/><path class="cls-5" d="M59.27,444.51H21.65a2,2,0,0,0-2,2v20.08a2,2,0,0,0,2,2H23V450.47a1.84,1.84,0,0,1,1.84-1.85H56.71a1.85,1.85,0,0,1,1.85,1.85v18.12h.71a2,2,0,0,0,2-2V446.51A2,2,0,0,0,59.27,444.51Z"/><rect class="cls-5" y="461.2" width="79.75" height="36.98"/><rect class="cls-5" y="499.81" width="79.75" height="36.98"/><rect class="cls-5" x="4.83" y="484.29" width="69.99" height="36.98"/><rect class="cls-6" x="16.08" y="479.9" width="13.87" height="38.97" rx="4" transform="translate(342.62 114.98) rotate(42.38)"/><circle class="cls-7" cx="32.2" cy="489.51" r="2.81"/><circle class="cls-7" cx="15.52" cy="508.66" r="2.81"/><rect class="cls-6" x="51.63" y="479.9" width="13.87" height="38.97" rx="4" transform="translate(438.43 828.8) rotate(137.62)"/><circle class="cls-7" cx="49.38" cy="489.51" r="2.81"/><circle class="cls-7" cx="66.05" cy="508.66" r="2.81"/><polygon class="cls-8" points="116.33 720.73 138.57 727.77 136.26 764.59 117.41 764.59 116.33 720.73"/><path class="cls-9" d="M34.94,424.14H52.57a5.3,5.3,0,0,1,5.3,5.3v27.29a0,0,0,0,1,0,0H29.64a0,0,0,0,1,0,0V429.44a5.3,5.3,0,0,1,5.3-5.3Z" transform="translate(53.45 882.93) rotate(-175.58)"/><polygon class="cls-8" points="161.28 720.73 183.52 727.77 181.21 764.59 162.35 764.59 161.28 720.73"/><path class="cls-7" d="M85.07,388.12H213.32l-24.8,385.3H154l-.1-305.91s-4.5-8.89-7.94.51l-3.42,305.4H106.78Z"/><polygon class="cls-10" points="135.19 119.24 135.19 121.17 145.7 130.2 161.45 143.74 161.45 133.33 161.45 119.24 135.19 119.24"/><path class="cls-9" d="M161.39,149.27c-.61,5.74-6.23,10.24-13.07,10.24s-12.45-4.5-13.06-10.24h-4.52l.83,31.59a28.14,28.14,0,0,0,38.9-5.25l-1.75-26.34Z"/><path class="cls-9" d="M145.7,130.2l-10.51-9v27.05a9.1,9.1,0,0,0,.07,1.05c.61,5.74,6.22,10.24,13.06,10.24s12.46-4.5,13.07-10.24a9.11,9.11,0,0,0,.06-1.05v-4.48Z"/><path class="cls-7" d="M137.75,179.44l-7-30.17H105.41A30.7,30.7,0,0,0,74.71,180V405.6a14.45,14.45,0,0,0,8.09,13l132.64.5a16.42,16.42,0,0,0,9.34-14.81V183.7a34.44,34.44,0,0,0-34.44-34.43H166.15l-7.78,29.84Z"/><ellipse cx="148.46" cy="62.46" rx="35.38" ry="39.33"/><path class="cls-9" d="M177.25,95.69s8.26-9,6.28-17.77c0,0-2.05-5.27-6.09-2.34Z"/><path class="cls-9" d="M158.46,125h-20c-9,0-14.12-11.55-17.4-20a22,22,0,0,1-1.5-8l-.08-43.72a15,15,0,0,1,15-15h28a15,15,0,0,1,15,15l-.17,44a23.67,23.67,0,0,1-1.88,9.13C171.76,115,167.62,124.6,158.46,125Z"/><path class="cls-10" d="M144.53,89.69l3.5,2.82a.71.71,0,0,0,.87,0l3.65-2.82a.7.7,0,0,0-.43-1.26H145A.7.7,0,0,0,144.53,89.69Z"/><path class="cls-10" d="M177.44,92.26s5.37-5.55,4.31-12.31c0,0-.73-4.36-4.31-1.66Z"/><path class="cls-9" d="M119.57,95.82s-8.15-8.75-6.18-17.54c0,0,2.06-5.27,6.09-2.35Z"/><path class="cls-10" d="M119.48,92.62s-5.37-5.55-4.3-12.31c0,0,.73-4.36,4.3-1.66Z"/><path class="cls-11" d="M139.69,101.93s4.49,6.15,17.7,4.58l1-.13Z"/><path class="cls-12" d="M138.74,98.1a7.69,7.69,0,0,1,1.35.11c.06,0-.11-.37-.18-.54a5,5,0,1,0-7.26,6.37c.48.3,1.46.74,1.58.63s-.21-.82-.23-1.25A5,5,0,0,1,138.74,98.1Z"/><path class="cls-10" d="M156.65,77.77s1.24,7.49,9,7.14Z"/><path class="cls-13" d="M155.8,108.65s-7.68,7.37-16.13.44Z"/><path class="cls-13" d="M164.18,103.11s1.9,5.69-3.67,8.33Z"/><path class="cls-10" d="M138.06,77.77s-1.24,7.49-9,7.14Z"/><circle cx="160.86" cy="71.92" r="3.13"/><circle cx="133.1" cy="71.92" r="3.13"/><path d="M157.72,60c3-2.27,6.72-1.61,9.29,1,.83.84,2-.62,1.13-1.45a8.67,8.67,0,0,0-11.52-1,.92.92,0,0,0,1.1,1.47Z"/><path d="M139.55,61.12a8.68,8.68,0,0,0-10.85-4c-1.1.4-.7,2.2.42,1.8,3.41-1.23,7-.25,8.8,3.08a.92.92,0,0,0,1.63-.86Z"/><path class="cls-7" d="M27.39,297.09C38.32,223,59.23,184,59.23,184,73.08,161.69,91,154.94,91,154.94L64.24,403.81,62,424.9c-3.82,5.48-38.55-1.78-38.55-1.78Z"/><rect class="cls-8" x="216.32" y="265.54" width="28.23" height="178.25"/><path class="cls-8" d="M239.28,465.17l-.55.44A3.42,3.42,0,0,0,239.28,465.17Z"/><path class="cls-9" d="M216.32,426.92h28.23a0,0,0,0,1,0,0v27.29a5.3,5.3,0,0,1-5.3,5.3H221.62a5.3,5.3,0,0,1-5.3-5.3V426.92a0,0,0,0,1,0,0Z"/><path class="cls-9" d="M217.67,447.4c1.63-.31,3-.85,5.41,1h0v.07l3.61,6.6-4.87.92-2.52-2.1-6.54,9.54h0a2.84,2.84,0,0,1-3.49.61,2.2,2.2,0,0,1-1-3h0l7.82-12.75,1.54-.89"/><path class="cls-14" d="M212.79,462.54a2.69,2.69,0,0,1-3.16,1.15,1.84,1.84,0,0,1-.67-2.8,3.09,3.09,0,0,1,.36-.45Z"/><path class="cls-9" d="M218.55,478.78c.09,2.69,1.37,4.89,2.95,5s2.91-2,3.07-4.64l.32-23.73h-6.67Z"/><path class="cls-9" d="M225.44,480.2c.09,2.69,1.36,4.9,2.94,5s2.91-2,3.07-4.64l.32-23.73h-6.66Z"/><path class="cls-9" d="M232.26,477.77c.08,2.69,1.36,4.89,2.94,5s2.91-2,3.07-4.63l.32-23.73h-6.67Z"/><path class="cls-9" d="M239,472.67c.07,2.69,1.14,4.89,2.46,5s2.44-2,2.58-4.64l.26-23.73h-5.59Z"/><path class="cls-14" d="M223.62,480.44a2.43,2.43,0,0,1-1.86,2.79,2.32,2.32,0,0,1-2.4-2.27,3.11,3.11,0,0,1,0-.61Z"/><path class="cls-14" d="M230.57,481.89a2.43,2.43,0,0,1-1.86,2.79,2.31,2.31,0,0,1-2.4-2.27,2.49,2.49,0,0,1,0-.61Z"/><path class="cls-14" d="M237.39,479.38a2.44,2.44,0,0,1-1.86,2.8,2.33,2.33,0,0,1-2.41-2.28,3.11,3.11,0,0,1,0-.61Z"/><path class="cls-14" d="M243.2,474.89a2,2,0,0,1-1.44,2.26,1.82,1.82,0,0,1-1.86-1.84,2,2,0,0,1,0-.49Z"/><path class="cls-7" d="M257.79,301.56c-5.18-74.74-23-115.17-23-115.17-12.09-23.34-29.38-31.45-29.38-31.45l7.45,250.18.63,21.21c3.39,5.76,38.57,1.19,38.57,1.19Z"/><path class="cls-15" d="M164,415.88l55.05,2.06a16.51,16.51,0,0,0,9.39-14.9V181.29a34.62,34.62,0,0,0-34.62-34.62H172.08L164,249Z"/><rect class="cls-16" x="166.92" y="255.92" width="59.51" height="18.19"/><rect class="cls-16" x="166.92" y="352.56" width="59.51" height="18.19"/><polygon class="cls-16" points="188.82 738.92 155.31 738.92 155.31 720.73 190.02 720.73 188.82 738.92"/><polygon class="cls-16" points="190.27 712.15 155.15 712.15 155.15 693.97 191.47 693.97 190.27 712.15"/><polygon class="cls-16" points="107.27 738.92 140.78 738.92 140.78 720.73 106.07 720.73 107.27 738.92"/><polygon class="cls-16" points="105.82 712.15 140.94 712.15 140.94 693.97 104.62 693.97 105.82 712.15"/><path class="cls-15" d="M136.6,416.87l-55,2.06a16.47,16.47,0,0,1-9.37-14.87V182.69a34.56,34.56,0,0,1,34.56-34.56h21.7l8.07,102.11Z"/><rect class="cls-16" x="74.28" y="257.2" width="59.41" height="18.15" transform="translate(207.96 532.55) rotate(-180)"/><rect class="cls-16" x="74.27" y="353.66" width="59.41" height="18.15" transform="translate(207.94 725.48) rotate(-180)"/><path d="M158.69,130.17h-20c-9,0-14.68-1.28-18-9.68a28.81,28.81,0,0,1-1.5-9.18l-.08-38.12c0-8.28,7.28,21.1,15.57,21.1h28c8.28,0,15-29.38,15-21.1l-.17,38.37a29.76,29.76,0,0,1-1.88,10.29C172,130.42,167.84,129.74,158.69,130.17Z"/><path class="cls-11" d="M139.55,104.27s4.49,6.15,17.69,4.58l1-.13Z"/><path class="cls-16" d="M185.61,36.3c-.23-18.72-16.71-33.84-37-33.84s-36.79,15.12-37,33.84h0V61.06h74.09V36.3Z"/><path class="cls-17" d="M157.56,3.53h0C155.76,1.4,151.79,0,148.38,0S141,1.4,139.16,3.53h0L127.65,61.06h41.87Z"/><path class="cls-16" d="M108.27,61.06H188.9a.25.25,0,0,1,0,.5l-27.07,5.06a72.58,72.58,0,0,1-26.61,0l-27.05-5.06A.25.25,0,0,1,108.27,61.06Z"/><path class="cls-18" d="M143.48,32.35c0-.27,0-.67.21-.85.06-.29.52-.23.44-.41s-.25-.06-.34,0a8.55,8.55,0,0,1-.93.24l-.3-.08a1.42,1.42,0,0,0-.84.61c-.18.21-.43.71-.23,1l0,.2.45.65c.15.11.17.19.34.3l.1.15a.84.84,0,0,0,.6,0c.64.06.57-1.24.78-1.51A.57.57,0,0,0,143.48,32.35Zm-2.76,3.9a2.7,2.7,0,0,0,.49-.12c.19-.09.86-.56.64-.94-.06-.79-1-.12-1.43-.4-.42,0-.89-.84-1-1.18a.57.57,0,0,0-.1-.19s0,0,0,0-.1.26-.12.61H139a.36.36,0,0,1-.08.25.43.43,0,0,1,0,.07c-.1,0-.05,0-.09-.07-.38,0-.36.4-.53.62C138.26,35.63,139.68,36.52,140.72,36.25Zm4.71-2.18a2.79,2.79,0,0,0-1.23.45,1.13,1.13,0,0,0-.25.24.43.43,0,0,0,0,.27.44.44,0,0,0,.16.29c.76,0,2.08-.1,2.34.54,0,.09,0,.14,0,.16.26-.06.07,0,.44,0a1.59,1.59,0,0,0,.44-.07.17.17,0,0,0,.1-.07.2.2,0,0,1,0-.09s.13,0,.18,0c.35-.05.17-.22.33-.4C147.82,34.17,146.6,33.89,145.43,34.07Zm-1.36,2.6c-.17.13-.25.1-.35.31,0,0,0,0,0,0,.1.21.34.29.52.44s.2.31.27.33.14.36.19.36,0,.24,0,.31c0,.31,0,.34-.1.4s0,.07,0,.1.14.1.2.09a2.94,2.94,0,0,1,.92.65c.5,0,.46-.11.81-.26.09,0,.17,0,.23-.06s.07-.2.13-.27C147,37.88,145.31,36.71,144.07,36.67Zm-2,.28c-.07.07-.26.1-.32.18a3.32,3.32,0,0,1-.41.56,1.69,1.69,0,0,1-2,.25s0,0,0,.14.23.78.16.92.09.1.18.19.08.21.14.25l.23,0a.65.65,0,0,1,0,.13l.3,0s.22.1.27.11l.32,0a.85.85,0,0,0,.68-.18c.12-.08.24-.07.35-.16a2.64,2.64,0,0,0,.45-.55,2.26,2.26,0,0,0-.06-1.71C142.39,36.93,142.29,36.93,142.11,37Z"/><path class="cls-19" d="M154.1,34.16A1.64,1.64,0,0,1,155.83,36a1.74,1.74,0,0,1-2,1.89h-1.34v-3.7Zm-.3,3c.57,0,1-.19,1-1.19s-.46-1.14-1-1.14h-.3v2.33Z"/><path class="cls-19" d="M157.29,37.3c0,.27,0,.56,0,.56h-1s0-.29,0-.56V34.72c0-.27,0-.56,0-.56h2.36v.71h-1.37v.75h1.22v.68h-1.22Z"/><path class="cls-19" d="M150.54,37.11a.78.78,0,0,1-.82-.8v0l1.16,0H152V36c0-1.27-.53-1.88-1.64-1.88-.51,0-1.69.19-1.69,2,0,1.18.6,1.88,1.64,1.88a2.65,2.65,0,0,0,1.68-.47c0-.06-.34-.61-.38-.67A1.72,1.72,0,0,1,150.54,37.11Zm-.82-1.55a.66.66,0,0,1,.63-.72c.55,0,.58.47.58.72v0h-1.22Z"/></svg>