<svg id="Layer_1" data-name="Layer 1" xmlns="http://www.w3.org/2000/svg" viewBox="0 0 251.84 748.59"><defs><style>.cls-1{fill:#ead2b2;}.cls-2{fill:#9b004a;}.cls-3{fill:#9cc;}.cls-4{fill:#686959;}.cls-5{fill:#fc0;}.cls-6{fill:#efb71f;}.cls-7{fill:#cf5300;}.cls-8{fill:#e5b48f;}.cls-9{fill:#d3976a;}.cls-10{fill:#dcaf8c;}.cls-11{fill:#ffcda6;}.cls-12{fill:#ffdabd;}.cls-13{fill:#e6b58f;}.cls-14{fill:#41210e;}.cls-15{fill:#990808;}.cls-16{fill:#fff;}</style></defs><title>Artboard 18</title><path class="cls-1" d="M31.77,425.06l.48.37A2.8,2.8,0,0,1,31.77,425.06Z"/><path class="cls-1" d="M26.7,389.11,25.64,411.9c.69,2.79,3.11,8,5.45,7.68l10.7-1.2c2.34-.26,3.67-2.74,3-5.54l.74-21.57"/><path class="cls-1" d="M38.8,407.9l-.88,6.59,3.53.5,1.21-2.2,6.71,8.62h0a1.68,1.68,0,0,0,2.52.32,2.52,2.52,0,0,0-.06-3h0l-8.35-11.58"/><path class="cls-2" d="M49.14,420.53c.73,1,1.81,1.36,2.42.85s.52-1.74-.21-2.73a2.71,2.71,0,0,0-.35-.4Z"/><path class="cls-1" d="M49.09,436.48c.58,2.57.24,4.78-.81,5s-2.45-1.65-3.19-4.19l-5.86-22.65,4.53-.51Z"/><path class="cls-1" d="M44.75,438.36c.58,2.58.24,4.78-.82,5s-2.44-1.65-3.18-4.19l-5.86-22.65,4.53-.51Z"/><path class="cls-1" d="M39.54,436.56c.58,2.57.24,4.78-.81,5s-2.45-1.65-3.19-4.19L29.68,414.7l4.53-.51Z"/><path class="cls-1" d="M33.73,432.2c.59,2.58.39,4.76-.49,4.95s-2.12-1.69-2.61-3.31l-4.76-21,2.5-3Z"/><path class="cls-2" d="M46,438.45c.23,1.34,1.09,2.47,1.93,2.53s1.37-1.1,1.05-2.55l-.51-.34Z"/><path class="cls-2" d="M41.66,440.36c.24,1.35,1.1,2.48,1.93,2.53s1.37-1.1,1.06-2.54l-.51-.34Z"/><path class="cls-2" d="M36.44,438.49c.23,1.34,1.09,2.47,1.93,2.53s1.36-1.1,1.05-2.54l-.51-.34Z"/><path class="cls-2" d="M31.42,434.64c.2,1.09.87,2,1.52,2.05s1-.85.81-2l-.49-.32Z"/><path class="cls-1" d="M216.25,421.09l-.47.38A2.45,2.45,0,0,0,216.25,421.09Z"/><path class="cls-1" d="M221.33,385.15l1.06,22.78c-.69,2.8-3.11,7.95-5.45,7.69l-10.7-1.2c-2.34-.26-3.68-2.75-3-5.54l-.74-21.57"/><path class="cls-1" d="M209.23,403.94l.88,6.58-3.53.51-1.21-2.2-6.72,8.62h0a1.67,1.67,0,0,1-2.51.31,2.49,2.49,0,0,1,.06-3h0l8.34-11.58"/><path class="cls-2" d="M198.89,416.56c-.73,1-1.81,1.37-2.42.86s-.52-1.74.21-2.73a2.66,2.66,0,0,1,.34-.4Z"/><path class="cls-1" d="M198.94,432.51c-.58,2.58-.24,4.78.81,5s2.45-1.65,3.19-4.19l5.86-22.65-4.53-.51Z"/><path class="cls-1" d="M203.28,434.4c-.58,2.57-.24,4.78.81,5s2.45-1.66,3.19-4.2l5.86-22.64-4.53-.51Z"/><path class="cls-1" d="M208.49,432.59c-.58,2.58-.24,4.78.81,5s2.45-1.65,3.19-4.19l5.86-22.65-4.53-.51Z"/><path class="cls-1" d="M214.29,428.24c-.59,2.57-.38,4.76.49,4.95s2.13-1.69,2.86-4.23l4.75-21-2.73-2.05Z"/><path class="cls-2" d="M202,434.48c-.24,1.35-1.1,2.48-1.93,2.53s-1.37-1.1-1.06-2.54l.52-.34Z"/><path class="cls-2" d="M206.37,436.4c-.24,1.34-1.1,2.47-1.93,2.53s-1.37-1.1-1.06-2.54l.51-.34Z"/><path class="cls-2" d="M211.59,434.52c-.24,1.35-1.1,2.48-1.93,2.53s-1.37-1.09-1.06-2.54l.52-.34Z"/><path class="cls-2" d="M216.61,430.68c-.2,1.08-.88,2-1.52,2.05s-1-.85-.81-2l.49-.33Z"/><path class="cls-3" d="M100.16,690.73Q93,693.34,81.3,689.68c.35,12.85-11.16,48.89,6.13,49S99.74,698.83,100.16,690.73Z"/><path d="M88.08,736.52c-13.22,1.41-9.17-24.74-9.17-24.74s-6.66,38.27,9.17,36.77c20.6-1.95,12.26-41.64,12.39-43C100.47,705.54,101.31,735.11,88.08,736.52Z"/><path class="cls-3" d="M161.23,738.14c17.29-.11,5.79-36.14,6.14-49q-11.75,3.68-18.87,1.05C148.92,698.29,144,738.26,161.23,738.14Z"/><path d="M160.58,736c13.23,1.41,9.17-24.74,9.17-24.74s6.67,38.27-9.17,36.77c-20.6-1.94-12.26-41.64-12.39-43C148.19,705,147.35,734.57,160.58,736Z"/><path class="cls-4" d="M123.67,410.72c6-.28,3.86,9.15,5.81,22l12,253.14c1.12.56,22,24.28,28.72,2.76L199.43,379.7Q124.5,394.9,56.81,380.75c5.52,105.49,10.79,212,18.76,311.72,11.07,17.68,26.69-2.23,27.88-2.79L117.7,431.22C119.65,418.36,117.59,410.44,123.67,410.72Z"/><path class="cls-5" d="M170.09,139.4c-6.39-5.57-21.06-9.32-21.06-9.32-1.33,27.38-23,48-24.63,48.1s-22.53-19.63-23.79-47c-.22,0-23.79,9.47-24,9.75-45.82,52-114.84,264.9-50.4,257.79,1.75.63,3.35,1.22,4.82,1.78h.1q7.75,2.42,12,1.26a6.51,6.51,0,0,0,3.67-2.62c16.75-10.08-3.55-113.62,6.18-162.75A277.35,277.35,0,0,1,60.48,202a201.58,201.58,0,0,1,10-27.36q-4.29,16-6.18,27.36-2.41,13.51-1.36,20.33,1.67,11.83,2.62,17.5a7.75,7.75,0,0,0,.31,1.36c.42,2.3.66,3.84.73,4.61C68.65,288.39,52,341.06,54.29,380c.63-.28,1.47,0,2.52.74q67.69,14.14,142.62-1.05a18.88,18.88,0,0,0,2.52-.42q.63-4.3,1.05-8.07c-.28,7.33-7.32,17.9-1.37,27.66a6,6,0,0,0,3.57,2.62q4.29,1.15,11.94-1.25h.11l4.82-1.78c65.13-36.7,5.87-146.4-13.2-196.49C208.87,202,196.39,162.36,170.09,139.4Zm14,35.21h0L196.39,273q8.07,33.42,6.71,91.8a43.76,43.76,0,0,0-2.2-13.73c-2.58-7.69-16.38-66.34-15.4-105.95q.31-19.27,1.57-43.17c.28-7-3.38-19.81-3-27.36M155.53,359.05q-13.84,8.59-34.27,8.6-26.52,0-39.72-12.79-8.07-7.86-9-16.66a235.29,235.29,0,0,0,50.3,16.87q24.42,5,38,.32C159.33,356.57,157.55,357.8,155.53,359.05Z"/><path class="cls-6" d="M62.89,222.3q-1.05-6.81,1.36-20.33,1.89-11.33,6.18-27.36a201.58,201.58,0,0,0-10,27.36,277.35,277.35,0,0,0-7.55,34.47q-4.5,28.62-6.91,78.7,3.66-53.34,19.8-74a7.75,7.75,0,0,1-.31-1.36q-.95-5.67-2.62-17.5m58.37,145.35q20.43,0,34.27-8.6c2-1.25,3.8-2.48,5.34-3.66q-13.62,4.71-38-.32a235.29,235.29,0,0,1-50.3-16.87q.94,8.81,9,16.66,13.2,12.78,39.72,12.79m26.68-70.39a91.89,91.89,0,0,0-13,1.26,111.09,111.09,0,0,1-16.55,1.26,82.11,82.11,0,0,1-16.56-1.58q-12.89-2.71-18.55-3.56,2.41,9.12,5,12.79,7.55,11.2,23.16,11.21a84.66,84.66,0,0,0,36.36-8,83.43,83.43,0,0,1,11-4.62,26.09,26.09,0,0,1,12.68-.21q-6.92-6.71-12-8.06-2.2-.53-11.63-.53m36.17-122.65h0c-.42,7.55,3.24,20.37,3,27.36q-1.26,23.88-1.57,43.17,6.6,10.59,10.89,27.88Z"/><g id="Layer_5" data-name="Layer 5"><path class="cls-7" d="M150.49,22.35Q141.6,11,128.91,11h-4.09Q112,11,103.13,22.35T94.22,49.6V83.13q0,15.93,8.91,27.25t21.69,11.31h4.09q12.68,0,21.58-11.31t8.91-27.25V49.6Q159.4,33.67,150.49,22.35Z"/></g><g id="neck"><path class="cls-8" d="M136.63,138.17l-.56-11.93L113.46,110.4v27.77a11.42,11.42,0,0,0,3.39,8.25A11.11,11.11,0,0,0,125,149.8a11.54,11.54,0,0,0,11.63-11.63Z"/><path class="cls-9" d="M113.46,108.4v2l22.61,15.84.56-17.84Z"/></g><g id="ears"><path class="cls-10" d="M96.1,67.74c-1.52-1.12-2.7-1.16-3.56-.13a4.11,4.11,0,0,0-.78,1.91,13.88,13.88,0,0,0,1.82,8.94,15.37,15.37,0,0,0,2.61,3.64c0-3.58,0-7.17,0-10.76l0-3.56-.09,0m63,.43c-.87-1-2-1-3.56.17V82.67A15.65,15.65,0,0,0,158.12,79a13.88,13.88,0,0,0,1.82-8.94A3.7,3.7,0,0,0,159.07,68.17Z"/><path class="cls-11" d="M92.54,67.61c.86-1,2-1,3.56.13V64.18c-1.73-1.28-3.3-1.25-4.69.08a6.06,6.06,0,0,0-1.56,2.35Q88.55,72.25,92.28,79a28.36,28.36,0,0,0,3.91,5.55V82.1a15.37,15.37,0,0,1-2.61-3.64,13.88,13.88,0,0,1-1.82-8.94,4.11,4.11,0,0,1,.78-1.91m69.22.39a6.06,6.06,0,0,0-1.56-2.35q-2.08-2-4.69-.08l-.17,20.65a24.6,24.6,0,0,0,4-5.72q3.73-6.87,2.43-12.5m-6.25.34c1.51-1.15,2.69-1.21,3.56-.17a3.7,3.7,0,0,1,.87,1.91A13.88,13.88,0,0,1,158.12,79a15.65,15.65,0,0,1-2.61,3.65Z"/></g><g id="head"><path class="cls-12" d="M140.15,22.78H111.46a14.35,14.35,0,0,0-10.85,4.81A16.45,16.45,0,0,0,96.1,39.22V91.87l.65,2.69a23.63,23.63,0,0,0,8.25,13A32.45,32.45,0,0,0,117.37,114a38.42,38.42,0,0,0,8.11,1,32.59,32.59,0,0,0,8.64-1.17A30.06,30.06,0,0,0,147,107.71a23,23,0,0,0,7.86-13.11l.69-2.73V39.22A16.41,16.41,0,0,0,151,27.59,14.35,14.35,0,0,0,140.15,22.78Z"/></g><g id="chin"><path class="cls-13" d="M122.62,105.28a8,8,0,0,0-2.52,3.12l13-6.08Q126.43,102.16,122.62,105.28Z"/></g><g id="nose"><path class="cls-9" d="M121.49,77.54a.64.64,0,0,0,.26.79l3.56,2.86c.4.23.72.23,1,0L130,78.33a.66.66,0,0,0,.27-.79.69.69,0,0,0-.7-.52h-7.38A.68.68,0,0,0,121.49,77.54Z"/></g><g id="cheeckbones"><path class="cls-13" d="M111.16,68A13.74,13.74,0,0,0,107,66.87q-6.33-.34-5.55,4.95a7.45,7.45,0,0,0,1.3,3.29c.7.93,1.22,1.19,1.56.79a8.05,8.05,0,0,1,5.91-3,17.23,17.23,0,0,1,6.94,1.56.35.35,0,0,0,.43-.17.39.39,0,0,0,.09-.44A11.94,11.94,0,0,0,111.16,68m32.55-1.13A13.71,13.71,0,0,0,139.63,68a11.94,11.94,0,0,0-6.51,5.81.56.56,0,0,0,0,.44.35.35,0,0,0,.43.17,18.75,18.75,0,0,1,7-1.56,8.05,8.05,0,0,1,5.91,3c.34.4.84.14,1.47-.79a7.33,7.33,0,0,0,1.3-3.29Q150.13,66.53,143.71,66.87Z"/></g><g id="eyebrows"><path class="cls-7" d="M113.63,49.86a.89.89,0,0,0-.39-1.31,9,9,0,0,0-6.51-.65,9.81,9.81,0,0,0-5.2,3.78,1,1,0,0,0,.21,1.43c.49.46.93.44,1.3-.09a7.4,7.4,0,0,1,4.08-3.16,6.93,6.93,0,0,1,5.3.47c.55.32,1,.16,1.21-.47m21.18-.26c.26.6.67.79,1.22.56a6.9,6.9,0,0,1,5.2-.13,8.39,8.39,0,0,1,4,3.6c.29.52.71.6,1.26.22a1,1,0,0,0,.31-1.43,9.89,9.89,0,0,0-4.91-4.21,8.58,8.58,0,0,0-6.51.13A.87.87,0,0,0,134.81,49.6Z"/></g><g id="eyes"><path class="cls-14" d="M113.42,61.31a3.3,3.3,0,0,0-.91-2.34,3.32,3.32,0,0,0-4.69,4.69,3.37,3.37,0,0,0,4.69,0,3.31,3.31,0,0,0,.91-2.35m29.16,0a3.21,3.21,0,0,0-1-2.34,3.32,3.32,0,1,0-2.35,5.64,3.25,3.25,0,0,0,3.3-3.3Z"/></g><g id="mouth"><path class="cls-15" d="M115.76,91.87a15.48,15.48,0,0,0,3.91,3q6.94,3.94,16.92,2.17l1.17-.26-22.91-6.12A9.19,9.19,0,0,0,115.76,91.87Z"/></g><path class="cls-8" d="M100.72,131.44c.07,25.36,20.4,48.62,23,48.41S147.07,156.1,149,131Q127,120.66,100.72,131.44Z"/><path class="cls-7" d="M121.44,9.82c-.77-.35-8.5-16.9-32.62-6.26-19.46,8.59-3,34.66-4.52,51.4s-19,41.88-12.45,54.8,22.3,12.14,41.44,10V117Q94.85,110,96,84.07a18.67,18.67,0,0,1-5-8,18.49,18.49,0,0,1-1.26-8.59Q90.13,64,96,64.16l.32-.21q-.94-24.84,18.86-33.32Q126.28,52,155.32,69.09q-.1,6.6-.53,29.65-3.87,14.57-18.44,18.24l-.32,3.46c62.86,6.45,28.92-41.25,30.29-65.19-.08-7.75,15.63-42-14.92-49.64C140.79,2.33,122.21,9.19,121.44,9.82Z"/><g id="Calque_2" data-name="Calque 2"><path class="cls-16" d="M113.92,134.48a1.84,1.84,0,0,0-1.36-.53,1.82,1.82,0,0,0-1.89,1.89,1.84,1.84,0,0,0,.53,1.36,1.9,1.9,0,0,0,1.36.63,1.68,1.68,0,0,0,1.36-.63,1.59,1.59,0,0,0,.63-1.25,2,2,0,0,0-.63-1.47M112,130.6a1.85,1.85,0,0,0-1.37-.52,1.78,1.78,0,0,0-1.88,1.88,1.85,1.85,0,0,0,.52,1.37,1.88,1.88,0,0,0,1.36.62,1.69,1.69,0,0,0,1.37-.62,1.61,1.61,0,0,0,.62-1.26,2,2,0,0,0-.62-1.47m-4.72-1.15a1.9,1.9,0,0,0,1.36.63,1.67,1.67,0,0,0,1.36-.63,1.59,1.59,0,0,0,.63-1.26,2,2,0,0,0-.63-1.47,1.82,1.82,0,0,0-1.36-.52,2.07,2.07,0,0,0-1.36.52,2.1,2.1,0,0,0-.52,1.37,1.83,1.83,0,0,0,.52,1.36m18.76,17v-.11a1.81,1.81,0,0,0-.21-.73.69.69,0,0,0-.21-.32,1.15,1.15,0,0,0-.11-.31.31.31,0,0,0-.21-.11,2.77,2.77,0,0,0-.31-.21,2.08,2.08,0,0,0-.84-.21h-.1a1.82,1.82,0,0,0-1.16.42.31.31,0,0,0-.21.11.43.43,0,0,1-.21.21,1.25,1.25,0,0,1-.2.42,2.43,2.43,0,0,0-.11.73v.11a2.8,2.8,0,0,1,0,.41,2.22,2.22,0,0,0,.52.84,1.92,1.92,0,0,0,1.37.63h.1a1.9,1.9,0,0,0,1.36-.63,1.41,1.41,0,0,0,.42-.84.76.76,0,0,0,.11-.41m-12.89-8.07a2.08,2.08,0,0,0-.53,1.36,1.84,1.84,0,0,0,.53,1.36,1.9,1.9,0,0,0,1.36.63,1.71,1.71,0,0,0,1.36-.63,1.62,1.62,0,0,0,.63-1.26,2,2,0,0,0-.63-1.46,1.84,1.84,0,0,0-1.36-.53,2.08,2.08,0,0,0-1.36.53m8.38,5.13a1.83,1.83,0,0,0-1.36-.52,2.21,2.21,0,0,0-1.15.31,1.23,1.23,0,0,0,.21-.73,2,2,0,0,0-.63-1.47,1.85,1.85,0,0,0-1.36-.52,1.79,1.79,0,0,0-1.89,1.88,1.85,1.85,0,0,0,.52,1.37,1.94,1.94,0,0,0,1.37.62,1.47,1.47,0,0,0,1.25-.62,2.72,2.72,0,0,0-.21,1,1.86,1.86,0,0,0,.53,1.37,1.92,1.92,0,0,0,1.36.62,1.7,1.7,0,0,0,1.36-.62,1.59,1.59,0,0,0,.63-1.26,2,2,0,0,0-.63-1.47m10.8.32a1.9,1.9,0,0,0,.52-1.37,2.17,2.17,0,0,0-.52-1.36,2.14,2.14,0,0,0-1.37-.52,1.83,1.83,0,0,0-1.36.52,2,2,0,0,0-.63,1.47,1.86,1.86,0,0,0,.21.84,1.79,1.79,0,0,0-1.15-.42,1.83,1.83,0,0,0-1.36.52,2,2,0,0,0-.63,1.47,1.59,1.59,0,0,0,.63,1.26,1.7,1.7,0,0,0,1.36.62,1.92,1.92,0,0,0,1.36-.62,1.86,1.86,0,0,0,.53-1.37,1.53,1.53,0,0,0-.32-.94,1.83,1.83,0,0,0,1.36.52,1.94,1.94,0,0,0,1.37-.62m2.72-5.45a2.08,2.08,0,0,0-1.36-.53,1.82,1.82,0,0,0-1.36.53,2,2,0,0,0-.63,1.46,1.62,1.62,0,0,0,.63,1.26,1.7,1.7,0,0,0,1.36.63,1.9,1.9,0,0,0,1.36-.63,1.83,1.83,0,0,0,.52-1.36,2.07,2.07,0,0,0-.52-1.36m2-3.88a2.08,2.08,0,0,0-1.36-.53,1.84,1.84,0,0,0-1.36.53,2,2,0,0,0-.63,1.47,1.59,1.59,0,0,0,.63,1.25,1.68,1.68,0,0,0,1.36.63,1.9,1.9,0,0,0,1.36-.63,1.84,1.84,0,0,0,.53-1.36,2.08,2.08,0,0,0-.53-1.36m1.15-7.76a2,2,0,0,0-.62,1.47,1.58,1.58,0,0,0,.62,1.26,1.7,1.7,0,0,0,1.37.63,1.9,1.9,0,0,0,1.36-.63,1.83,1.83,0,0,0,.52-1.36,2.1,2.1,0,0,0-.52-1.37,2.07,2.07,0,0,0-1.36-.52,1.85,1.85,0,0,0-1.37.52m-.62,3.36a1.85,1.85,0,0,0-1.37.52,2,2,0,0,0-.63,1.47,1.59,1.59,0,0,0,.63,1.26,1.69,1.69,0,0,0,1.37.62,1.9,1.9,0,0,0,1.36-.62,1.85,1.85,0,0,0,.52-1.37,1.78,1.78,0,0,0-1.88-1.88Z"/></g><path class="cls-6" d="M118.69,335.87q41.13,6.93,59.53-21.38Q165.1,362.88,118.69,335.87Z"/><circle class="cls-16" cx="94.35" cy="84.16" r="2.06"/></svg>